%TF.GenerationSoftware,KiCad,Pcbnew,8.0.6*%
%TF.CreationDate,2025-03-02T11:18:05-08:00*%
%TF.ProjectId,dpx_faded,6470785f-6661-4646-9564-2e6b69636164,0.5.0*%
%TF.SameCoordinates,Original*%
%TF.FileFunction,Soldermask,Top*%
%TF.FilePolarity,Negative*%
%FSLAX46Y46*%
G04 Gerber Fmt 4.6, Leading zero omitted, Abs format (unit mm)*
G04 Created by KiCad (PCBNEW 8.0.6) date 2025-03-02 11:18:05*
%MOMM*%
%LPD*%
G01*
G04 APERTURE LIST*
G04 Aperture macros list*
%AMRoundRect*
0 Rectangle with rounded corners*
0 $1 Rounding radius*
0 $2 $3 $4 $5 $6 $7 $8 $9 X,Y pos of 4 corners*
0 Add a 4 corners polygon primitive as box body*
4,1,4,$2,$3,$4,$5,$6,$7,$8,$9,$2,$3,0*
0 Add four circle primitives for the rounded corners*
1,1,$1+$1,$2,$3*
1,1,$1+$1,$4,$5*
1,1,$1+$1,$6,$7*
1,1,$1+$1,$8,$9*
0 Add four rect primitives between the rounded corners*
20,1,$1+$1,$2,$3,$4,$5,0*
20,1,$1+$1,$4,$5,$6,$7,0*
20,1,$1+$1,$6,$7,$8,$9,0*
20,1,$1+$1,$8,$9,$2,$3,0*%
G04 Aperture macros list end*
%ADD10C,0.150000*%
%ADD11RoundRect,0.250000X0.337500X0.475000X-0.337500X0.475000X-0.337500X-0.475000X0.337500X-0.475000X0*%
%ADD12RoundRect,0.237500X0.237500X-0.300000X0.237500X0.300000X-0.237500X0.300000X-0.237500X-0.300000X0*%
%ADD13RoundRect,0.237500X-0.237500X0.300000X-0.237500X-0.300000X0.237500X-0.300000X0.237500X0.300000X0*%
%ADD14RoundRect,0.250000X-0.450000X0.325000X-0.450000X-0.325000X0.450000X-0.325000X0.450000X0.325000X0*%
%ADD15RoundRect,0.237500X0.237500X-0.250000X0.237500X0.250000X-0.237500X0.250000X-0.237500X-0.250000X0*%
%ADD16O,0.630000X1.860000*%
%ADD17R,1.000000X3.000000*%
%ADD18R,2.000000X3.500000*%
%ADD19RoundRect,0.250000X-0.412500X-0.650000X0.412500X-0.650000X0.412500X0.650000X-0.412500X0.650000X0*%
%ADD20C,4.300000*%
%ADD21R,1.000000X0.750000*%
%ADD22R,1.600000X1.700000*%
%ADD23C,1.700000*%
%ADD24RoundRect,0.250000X0.450000X-0.325000X0.450000X0.325000X-0.450000X0.325000X-0.450000X-0.325000X0*%
%ADD25C,3.250000*%
%ADD26C,1.520000*%
%ADD27C,1.600000*%
%ADD28C,2.500000*%
%ADD29RoundRect,0.237500X0.250000X0.237500X-0.250000X0.237500X-0.250000X-0.237500X0.250000X-0.237500X0*%
%ADD30C,1.800000*%
%ADD31C,2.000000*%
%ADD32R,2.800000X2.800000*%
%ADD33RoundRect,0.237500X-0.237500X0.250000X-0.237500X-0.250000X0.237500X-0.250000X0.237500X0.250000X0*%
%ADD34R,1.600000X1.600000*%
%ADD35R,1.300000X1.300000*%
%ADD36C,1.300000*%
%ADD37C,2.900000*%
%ADD38C,2.800000*%
%ADD39O,3.700000X7.700000*%
G04 APERTURE END LIST*
D10*
G36*
X318585101Y-224987903D02*
G01*
X319599050Y-224987903D01*
X319599050Y-225212117D01*
X318585101Y-225212117D01*
X318585101Y-224987903D01*
G37*
G36*
X318585101Y-227249103D02*
G01*
X319599050Y-227249103D01*
X319599050Y-227473318D01*
X318585101Y-227473318D01*
X318585101Y-227249103D01*
G37*
G36*
X318585101Y-226816793D02*
G01*
X319599050Y-226816793D01*
X319599050Y-227041008D01*
X318585101Y-227041008D01*
X318585101Y-226816793D01*
G37*
G36*
X318585101Y-226358105D02*
G01*
X319599050Y-226358105D01*
X319599050Y-226582320D01*
X318585101Y-226582320D01*
X318585101Y-226358105D01*
G37*
G36*
X318585101Y-225925795D02*
G01*
X319599050Y-225925795D01*
X319599050Y-226150010D01*
X318585101Y-226150010D01*
X318585101Y-225925795D01*
G37*
G36*
X317096978Y-225456849D02*
G01*
X319599050Y-225456849D01*
X319599050Y-225681064D01*
X317096978Y-225681064D01*
X317096978Y-225456849D01*
G37*
G36*
X316565505Y-225925795D02*
G01*
X317579455Y-225925795D01*
X317579455Y-226150010D01*
X316565505Y-226150010D01*
X316565505Y-225925795D01*
G37*
G36*
X317096978Y-227718049D02*
G01*
X319116573Y-227718049D01*
X319116573Y-227942264D01*
X317096978Y-227942264D01*
X317096978Y-227718049D01*
G37*
G36*
X316565505Y-227249103D02*
G01*
X317579455Y-227249103D01*
X317579455Y-227473318D01*
X316565505Y-227473318D01*
X316565505Y-227249103D01*
G37*
G36*
X316565505Y-226816793D02*
G01*
X317579455Y-226816793D01*
X317579455Y-227041008D01*
X316565505Y-227041008D01*
X316565505Y-226816793D01*
G37*
G36*
X316565505Y-226358105D02*
G01*
X317579455Y-226358105D01*
X317579455Y-226582320D01*
X316565505Y-226582320D01*
X316565505Y-226358105D01*
G37*
G36*
X323005457Y-227942264D02*
G01*
X322496406Y-227942264D01*
X321993168Y-227942264D01*
X320468506Y-227942264D01*
X320468506Y-227718049D01*
X321993168Y-227718049D01*
X322496406Y-227718049D01*
X323005457Y-227718049D01*
X323005457Y-227942264D01*
G37*
G36*
X321451730Y-227249103D02*
G01*
X321970746Y-227249103D01*
X322485610Y-227249103D01*
X323005457Y-227249103D01*
X323005457Y-227473318D01*
X322485610Y-227473318D01*
X321970746Y-227473318D01*
X321451730Y-227473318D01*
X321451730Y-227249103D01*
G37*
G36*
X319963607Y-227249103D02*
G01*
X320977557Y-227249103D01*
X320977557Y-227473318D01*
X319963607Y-227473318D01*
X319963607Y-227249103D01*
G37*
G36*
X320977557Y-226816793D02*
G01*
X320977557Y-227041008D01*
X319963607Y-227041008D01*
X319963607Y-226816793D01*
X320977557Y-226816793D01*
G37*
G36*
X320977557Y-226358105D02*
G01*
X320977557Y-226582320D01*
X319963607Y-226582320D01*
X319963607Y-226358105D01*
X320977557Y-226358105D01*
G37*
G36*
X320977557Y-225925795D02*
G01*
X320977557Y-226150010D01*
X319963607Y-226150010D01*
X319963607Y-225925795D01*
X320977557Y-225925795D01*
G37*
G36*
X320977557Y-225456849D02*
G01*
X320977557Y-225681064D01*
X319963607Y-225681064D01*
X319963607Y-225456849D01*
X320977557Y-225456849D01*
G37*
G36*
X323005457Y-225681064D02*
G01*
X321991507Y-225681064D01*
X321991507Y-225456849D01*
X323005457Y-225456849D01*
X323005457Y-225681064D01*
G37*
G36*
X323005457Y-226150010D02*
G01*
X321991507Y-226150010D01*
X321991507Y-225925795D01*
X323005457Y-225925795D01*
X323005457Y-226150010D01*
G37*
G36*
X323005457Y-226582320D02*
G01*
X321991507Y-226582320D01*
X321991507Y-226358105D01*
X323005457Y-226358105D01*
X323005457Y-226582320D01*
G37*
G36*
X323005457Y-227041008D02*
G01*
X321991507Y-227041008D01*
X321991507Y-226816793D01*
X323005457Y-226816793D01*
X323005457Y-227041008D01*
G37*
G36*
X323361709Y-224987903D02*
G01*
X324375659Y-224987903D01*
X324375659Y-225212117D01*
X323361709Y-225212117D01*
X323361709Y-224987903D01*
G37*
G36*
X325912777Y-225681064D02*
G01*
X323361709Y-225681064D01*
X323361709Y-225456849D01*
X325912777Y-225456849D01*
X325912777Y-225681064D01*
G37*
G36*
X325381304Y-226150010D02*
G01*
X325381304Y-225925795D01*
X326395254Y-225925795D01*
X326395254Y-226150010D01*
X325381304Y-226150010D01*
G37*
G36*
X325381304Y-226358105D02*
G01*
X326395254Y-226358105D01*
X326395254Y-226582320D01*
X325381304Y-226582320D01*
X325381304Y-226358105D01*
G37*
G36*
X325381304Y-226816793D02*
G01*
X326395254Y-226816793D01*
X326395254Y-227041008D01*
X325381304Y-227041008D01*
X325381304Y-226816793D01*
G37*
G36*
X325381304Y-227249103D02*
G01*
X326395254Y-227249103D01*
X326395254Y-227473318D01*
X325381304Y-227473318D01*
X325381304Y-227249103D01*
G37*
G36*
X323893182Y-227718049D02*
G01*
X325912777Y-227718049D01*
X325912777Y-227942264D01*
X323893182Y-227942264D01*
X323893182Y-227718049D01*
G37*
G36*
X323361709Y-227249103D02*
G01*
X324375659Y-227249103D01*
X324375659Y-227473318D01*
X323361709Y-227473318D01*
X323361709Y-227249103D01*
G37*
G36*
X323361709Y-226816793D02*
G01*
X324375659Y-226816793D01*
X324375659Y-227041008D01*
X323361709Y-227041008D01*
X323361709Y-226816793D01*
G37*
G36*
X323361709Y-226358105D02*
G01*
X324375659Y-226358105D01*
X324375659Y-226582320D01*
X323361709Y-226582320D01*
X323361709Y-226358105D01*
G37*
G36*
X323361709Y-225925795D02*
G01*
X324902979Y-225925795D01*
X324902979Y-226150010D01*
X323361709Y-226150010D01*
X323361709Y-225925795D01*
G37*
G36*
X326759811Y-227942264D02*
G01*
X326759811Y-227718049D01*
X327773761Y-227718049D01*
X327773761Y-227942264D01*
X326759811Y-227942264D01*
G37*
G36*
X326759811Y-226358105D02*
G01*
X327773761Y-226358105D01*
X327773761Y-226582320D01*
X326759811Y-226582320D01*
X326759811Y-226358105D01*
G37*
G36*
X326759811Y-225925795D02*
G01*
X327773761Y-225925795D01*
X327773761Y-226150010D01*
X326759811Y-226150010D01*
X326759811Y-225925795D01*
G37*
G36*
X329283475Y-225681064D02*
G01*
X326759811Y-225681064D01*
X326759811Y-225456849D01*
X329283475Y-225456849D01*
X329283475Y-225681064D01*
G37*
G36*
X328779406Y-226150010D02*
G01*
X328779406Y-225925795D01*
X329793356Y-225925795D01*
X329793356Y-226150010D01*
X328779406Y-226150010D01*
G37*
G36*
X328779406Y-226582320D02*
G01*
X328779406Y-226358105D01*
X329793356Y-226358105D01*
X329793356Y-226582320D01*
X328779406Y-226582320D01*
G37*
G36*
X326759811Y-227041008D02*
G01*
X326759811Y-226816793D01*
X329283475Y-226816793D01*
X329283475Y-227041008D01*
X326759811Y-227041008D01*
G37*
G36*
X326759811Y-227473318D02*
G01*
X326759811Y-227249103D01*
X327773761Y-227249103D01*
X327773761Y-227473318D01*
X326759811Y-227473318D01*
G37*
G36*
X330685233Y-227942264D02*
G01*
X330685233Y-227718049D01*
X331699183Y-227718049D01*
X331699183Y-227942264D01*
X330685233Y-227942264D01*
G37*
G36*
X330685233Y-226816793D02*
G01*
X331699183Y-226816793D01*
X331699183Y-227041008D01*
X330685233Y-227041008D01*
X330685233Y-226816793D01*
G37*
G36*
X330685233Y-226358105D02*
G01*
X331699183Y-226358105D01*
X331699183Y-226582320D01*
X330685233Y-226582320D01*
X330685233Y-226358105D01*
G37*
G36*
X330157913Y-225925795D02*
G01*
X331699183Y-225925795D01*
X331699183Y-226150010D01*
X330157913Y-226150010D01*
X330157913Y-225925795D01*
G37*
G36*
X330685233Y-224987903D02*
G01*
X331699183Y-224987903D01*
X331699183Y-225212117D01*
X330685233Y-225212117D01*
X330685233Y-224987903D01*
G37*
G36*
X330685233Y-227473318D02*
G01*
X330685233Y-227249103D01*
X331699183Y-227249103D01*
X331699183Y-227473318D01*
X330685233Y-227473318D01*
G37*
G36*
X331951632Y-227942264D02*
G01*
X331951632Y-227718049D01*
X332965582Y-227718049D01*
X332965582Y-227942264D01*
X331951632Y-227942264D01*
G37*
G36*
X332965582Y-226358105D02*
G01*
X333975380Y-226358105D01*
X333975380Y-226582320D01*
X332965582Y-226582320D01*
X332965582Y-226358105D01*
G37*
G36*
X332483105Y-225925795D02*
G01*
X334502700Y-225925795D01*
X334502700Y-226150010D01*
X332483105Y-226150010D01*
X332483105Y-225925795D01*
G37*
G36*
X333975380Y-225456849D02*
G01*
X334985177Y-225456849D01*
X334985177Y-225681064D01*
X333975380Y-225681064D01*
X333975380Y-225456849D01*
G37*
G36*
X331951632Y-225456849D02*
G01*
X332965582Y-225456849D01*
X332965582Y-225681064D01*
X331951632Y-225681064D01*
X331951632Y-225456849D01*
G37*
G36*
X332483105Y-227041008D02*
G01*
X332483105Y-226816793D01*
X334502700Y-226816793D01*
X334502700Y-227041008D01*
X332483105Y-227041008D01*
G37*
G36*
X333975380Y-227473318D02*
G01*
X333975380Y-227249103D01*
X334985177Y-227249103D01*
X334985177Y-227473318D01*
X333975380Y-227473318D01*
G37*
G36*
X333975380Y-227942264D02*
G01*
X333975380Y-227718049D01*
X334985177Y-227718049D01*
X334985177Y-227942264D01*
X333975380Y-227942264D01*
G37*
G36*
X331951632Y-227473318D02*
G01*
X331951632Y-227249103D01*
X332965582Y-227249103D01*
X332965582Y-227473318D01*
X331951632Y-227473318D01*
G37*
G36*
X337900802Y-227942264D02*
G01*
X335881207Y-227942264D01*
X335881207Y-227718049D01*
X337900802Y-227718049D01*
X337900802Y-227942264D01*
G37*
G36*
X335881207Y-225456849D02*
G01*
X337900802Y-225456849D01*
X337900802Y-225681064D01*
X335881207Y-225681064D01*
X335881207Y-225456849D01*
G37*
G36*
X335349734Y-226150010D02*
G01*
X335349734Y-225925795D01*
X336363684Y-225925795D01*
X336363684Y-226150010D01*
X335349734Y-226150010D01*
G37*
G36*
X335349734Y-226582320D02*
G01*
X335349734Y-226358105D01*
X336363684Y-226358105D01*
X336363684Y-226582320D01*
X335349734Y-226582320D01*
G37*
G36*
X337369330Y-226150010D02*
G01*
X337369330Y-225925795D01*
X338383279Y-225925795D01*
X338383279Y-226150010D01*
X337369330Y-226150010D01*
G37*
G36*
X337369330Y-226582320D02*
G01*
X337369330Y-226358105D01*
X338383279Y-226358105D01*
X338383279Y-226582320D01*
X337369330Y-226582320D01*
G37*
G36*
X335349734Y-226816793D02*
G01*
X337900802Y-226816793D01*
X337900802Y-227041008D01*
X335349734Y-227041008D01*
X335349734Y-226816793D01*
G37*
G36*
X336363684Y-227473318D02*
G01*
X335349734Y-227473318D01*
X335349734Y-227249103D01*
X336363684Y-227249103D01*
X336363684Y-227473318D01*
G37*
G36*
X338747836Y-224987903D02*
G01*
X340289106Y-224987903D01*
X340289106Y-225212117D01*
X338747836Y-225212117D01*
X338747836Y-224987903D01*
G37*
G36*
X338747836Y-227718049D02*
G01*
X340767432Y-227718049D01*
X340767432Y-227942264D01*
X338747836Y-227942264D01*
X338747836Y-227718049D01*
G37*
G36*
X339275157Y-227249103D02*
G01*
X340289106Y-227249103D01*
X340289106Y-227473318D01*
X339275157Y-227473318D01*
X339275157Y-227249103D01*
G37*
G36*
X339275157Y-226816793D02*
G01*
X340289106Y-226816793D01*
X340289106Y-227041008D01*
X339275157Y-227041008D01*
X339275157Y-226816793D01*
G37*
G36*
X339275157Y-226358105D02*
G01*
X340289106Y-226358105D01*
X340289106Y-226582320D01*
X339275157Y-226582320D01*
X339275157Y-226358105D01*
G37*
G36*
X339275157Y-225925795D02*
G01*
X340289106Y-225925795D01*
X340289106Y-226150010D01*
X339275157Y-226150010D01*
X339275157Y-225925795D01*
G37*
G36*
X339275157Y-225456849D02*
G01*
X340289106Y-225456849D01*
X340289106Y-225681064D01*
X339275157Y-225681064D01*
X339275157Y-225456849D01*
G37*
D11*
%TO.C,C21*%
X353247500Y-143160000D03*
X351172500Y-143160000D03*
%TD*%
D12*
%TO.C,C20*%
X284560000Y-157460000D03*
X284560000Y-155735000D03*
%TD*%
D13*
%TO.C,C19*%
X286310000Y-148935000D03*
X286310000Y-150660000D03*
%TD*%
%TO.C,C18*%
X288960000Y-148885000D03*
X288960000Y-150610000D03*
%TD*%
%TO.C,C17*%
X291460000Y-148885000D03*
X291460000Y-150610000D03*
%TD*%
D14*
%TO.C,LED10*%
X374610000Y-136060000D03*
X374610000Y-138110000D03*
%TD*%
D12*
%TO.C,C5*%
X343910000Y-120960000D03*
X343910000Y-119235000D03*
%TD*%
D15*
%TO.C,R10*%
X367660000Y-139235000D03*
X367660000Y-137410000D03*
%TD*%
D12*
%TO.C,C16*%
X302460000Y-109735000D03*
X302460000Y-108010000D03*
%TD*%
D16*
%TO.C,U5*%
X362520000Y-125090000D03*
X363800000Y-125090000D03*
X365060000Y-125090000D03*
X366330000Y-125090000D03*
X366330000Y-119730000D03*
X365060000Y-119730000D03*
X363800000Y-119730000D03*
X362520000Y-119730000D03*
%TD*%
D17*
%TO.C,J4*%
X288700000Y-117260000D03*
X290700000Y-117260000D03*
D18*
X293760000Y-113740000D03*
X285640000Y-113740000D03*
%TD*%
D17*
%TO.C,J1*%
X364760000Y-116970000D03*
X366760000Y-116970000D03*
D18*
X369820000Y-113450000D03*
X361700000Y-113450000D03*
%TD*%
D19*
%TO.C,C1*%
X295585000Y-125810000D03*
X292460000Y-125810000D03*
%TD*%
D15*
%TO.C,R2*%
X374660000Y-134072500D03*
X374660000Y-132247500D03*
%TD*%
D12*
%TO.C,C9*%
X318475000Y-120835000D03*
X318475000Y-119110000D03*
%TD*%
%TO.C,C8*%
X320010000Y-120835000D03*
X320010000Y-119110000D03*
%TD*%
%TO.C,C11*%
X292910000Y-119960000D03*
X292910000Y-118235000D03*
%TD*%
%TO.C,C2*%
X368735000Y-120560000D03*
X368735000Y-118835000D03*
%TD*%
%TO.C,C3*%
X370310000Y-120572500D03*
X370310000Y-118847500D03*
%TD*%
D20*
%TO.C,H2*%
X353410000Y-116310000D03*
%TD*%
D12*
%TO.C,C6*%
X345445000Y-120960000D03*
X345445000Y-119235000D03*
%TD*%
D19*
%TO.C,C10*%
X317947500Y-125760000D03*
X321072500Y-125760000D03*
%TD*%
D21*
%TO.C,SW2*%
X337760000Y-171960000D03*
X343760000Y-171960000D03*
X337760000Y-175660000D03*
X343760000Y-175660000D03*
%TD*%
D17*
%TO.C,J2*%
X339610000Y-117260000D03*
X341610000Y-117260000D03*
D18*
X344670000Y-113740000D03*
X336550000Y-113740000D03*
%TD*%
D12*
%TO.C,C15*%
X328110000Y-110110000D03*
X328110000Y-108385000D03*
%TD*%
D22*
%TO.C,U12*%
X336427500Y-142027500D03*
D23*
X338967500Y-142027500D03*
X341507500Y-142027500D03*
X344047500Y-142027500D03*
%TD*%
D24*
%TO.C,LED11*%
X374560000Y-175510000D03*
X374560000Y-173460000D03*
%TD*%
D11*
%TO.C,C13*%
X358147500Y-137510000D03*
X356072500Y-137510000D03*
%TD*%
D20*
%TO.C,H3*%
X302610000Y-226760000D03*
%TD*%
D16*
%TO.C,U8*%
X285850000Y-125490000D03*
X287130000Y-125490000D03*
X288390000Y-125490000D03*
X289660000Y-125490000D03*
X289660000Y-120130000D03*
X288390000Y-120130000D03*
X287130000Y-120130000D03*
X285850000Y-120130000D03*
%TD*%
D25*
%TO.C,RJ1*%
X364870000Y-153350000D03*
X364870000Y-141920000D03*
D26*
X358520000Y-152080000D03*
X355980000Y-150810000D03*
X358520000Y-149540000D03*
X355980000Y-148270000D03*
X358520000Y-147000000D03*
X355980000Y-145730000D03*
X358520000Y-144460000D03*
X355980000Y-143190000D03*
D27*
X369960000Y-153960000D03*
X368250000Y-151420000D03*
X369960000Y-143850000D03*
X368250000Y-141310000D03*
D28*
X361830000Y-155520000D03*
X361830000Y-139770000D03*
%TD*%
D12*
%TO.C,C12*%
X294420000Y-119972500D03*
X294420000Y-118247500D03*
%TD*%
D17*
%TO.C,J3*%
X314210000Y-117260000D03*
X316210000Y-117260000D03*
D18*
X319270000Y-113740000D03*
X311150000Y-113740000D03*
%TD*%
D21*
%TO.C,SW1*%
X337860000Y-165210000D03*
X343860000Y-165210000D03*
X337860000Y-168910000D03*
X343860000Y-168910000D03*
%TD*%
D12*
%TO.C,C14*%
X353610000Y-110010000D03*
X353610000Y-108285000D03*
%TD*%
D29*
%TO.C,R1*%
X360260000Y-157810000D03*
X358435000Y-157810000D03*
%TD*%
D19*
%TO.C,C7*%
X368747500Y-125610000D03*
X371872500Y-125610000D03*
%TD*%
D30*
%TO.C,DC1*%
X371010000Y-165810000D03*
D31*
X366510000Y-165810000D03*
D32*
X371010000Y-171310000D03*
X364910000Y-171310000D03*
X371010000Y-160310000D03*
X364910000Y-160310000D03*
%TD*%
D20*
%TO.C,H1*%
X302510000Y-116260000D03*
%TD*%
D14*
%TO.C,LED9*%
X374560000Y-156960000D03*
X374560000Y-159010000D03*
%TD*%
D19*
%TO.C,C4*%
X343160000Y-125660000D03*
X346285000Y-125660000D03*
%TD*%
D33*
%TO.C,R3*%
X374684343Y-177241743D03*
X374684343Y-179066743D03*
%TD*%
D16*
%TO.C,U6*%
X336750000Y-125610000D03*
X338030000Y-125610000D03*
X339290000Y-125610000D03*
X340560000Y-125610000D03*
X340560000Y-120250000D03*
X339290000Y-120250000D03*
X338030000Y-120250000D03*
X336750000Y-120250000D03*
%TD*%
D20*
%TO.C,H4*%
X353310000Y-226760000D03*
%TD*%
D16*
%TO.C,U7*%
X311700000Y-125390000D03*
X312980000Y-125390000D03*
X314240000Y-125390000D03*
X315510000Y-125390000D03*
X315510000Y-120030000D03*
X314240000Y-120030000D03*
X312980000Y-120030000D03*
X311700000Y-120030000D03*
%TD*%
D34*
%TO.C,U9*%
X281610000Y-162000000D03*
D27*
X284150000Y-162000000D03*
X286690000Y-162000000D03*
X289230000Y-162000000D03*
X291770000Y-162000000D03*
X294310000Y-162000000D03*
X296850000Y-162000000D03*
X299390000Y-162000000D03*
X301930000Y-162000000D03*
X304470000Y-162000000D03*
X307010000Y-162000000D03*
X309550000Y-162000000D03*
X312090000Y-162000000D03*
X314630000Y-162000000D03*
X317170000Y-162000000D03*
X319710000Y-162000000D03*
X322250000Y-162000000D03*
X324790000Y-162000000D03*
X327330000Y-162000000D03*
X329870000Y-162000000D03*
X332410000Y-162000000D03*
X334950000Y-162000000D03*
X337490000Y-162000000D03*
X340030000Y-162000000D03*
X340030000Y-146760000D03*
X337490000Y-146760000D03*
X334950000Y-146760000D03*
X332410000Y-146760000D03*
X329870000Y-146760000D03*
X327330000Y-146760000D03*
X324790000Y-146760000D03*
X322250000Y-146760000D03*
X319710000Y-146760000D03*
X317170000Y-146760000D03*
X314630000Y-146760000D03*
X312090000Y-146760000D03*
X309550000Y-146760000D03*
X307010000Y-146760000D03*
X304470000Y-146760000D03*
X301930000Y-146760000D03*
X299390000Y-146760000D03*
X296850000Y-146760000D03*
X294310000Y-146760000D03*
X291770000Y-146760000D03*
X289230000Y-146760000D03*
X286690000Y-146760000D03*
X284150000Y-146760000D03*
X281610000Y-146760000D03*
X284150000Y-149300000D03*
D35*
X294580000Y-149198400D03*
D36*
X294580000Y-151198400D03*
X294580000Y-153198400D03*
X296580000Y-153198400D03*
X296580000Y-151198400D03*
X296580000Y-149198400D03*
X282340000Y-153110000D03*
X282340000Y-155650000D03*
%TD*%
D37*
%TO.C,U14*%
X291710000Y-235960000D03*
X287960000Y-235960000D03*
X295465000Y-235960000D03*
D38*
X284300000Y-235960000D03*
D37*
X291710000Y-108660000D03*
X287960000Y-108660000D03*
X295465000Y-108660000D03*
D38*
X284205000Y-108660000D03*
D39*
X289835000Y-130610000D03*
X289835000Y-214110000D03*
%TD*%
D37*
%TO.C,U11*%
X342555000Y-236060000D03*
X338805000Y-236060000D03*
X346310000Y-236060000D03*
D38*
X335145000Y-236060000D03*
D37*
X342555000Y-108760000D03*
X338805000Y-108760000D03*
X346310000Y-108760000D03*
D38*
X335050000Y-108760000D03*
D39*
X340680000Y-130710000D03*
X340680000Y-214210000D03*
%TD*%
D37*
%TO.C,U10*%
X367885000Y-235860000D03*
X364135000Y-235860000D03*
X371640000Y-235860000D03*
D38*
X360475000Y-235860000D03*
D37*
X367885000Y-108560000D03*
X364135000Y-108560000D03*
X371640000Y-108560000D03*
D38*
X360380000Y-108560000D03*
D39*
X366010000Y-130510000D03*
X366010000Y-214010000D03*
%TD*%
D37*
%TO.C,U13*%
X317110000Y-235860000D03*
X313360000Y-235860000D03*
X320865000Y-235860000D03*
D38*
X309700000Y-235860000D03*
D37*
X317110000Y-108560000D03*
X313360000Y-108560000D03*
X320865000Y-108560000D03*
D38*
X309605000Y-108560000D03*
D39*
X315235000Y-130510000D03*
X315235000Y-214010000D03*
%TD*%
M02*
