M48
; DRILL file {KiCad 8.0.6} date 2025-03-02T10:31:17-0800
; FORMAT={-:-/ absolute / inch / decimal}
; #@! TF.CreationDate,2025-03-02T10:31:17-08:00
; #@! TF.GenerationSoftware,Kicad,Pcbnew,8.0.6
; #@! TF.FileFunction,Plated,1,4,PTH
FMAT,2
INCH
; #@! TA.AperFunction,Plated,PTH,ViaDrill
T1C0.0118
; #@! TA.AperFunction,Plated,PTH,ViaDrill
T2C0.0197
; #@! TA.AperFunction,Plated,PTH,ComponentDrill
T3C0.0315
; #@! TA.AperFunction,Plated,PTH,ComponentDrill
T4C0.0354
; #@! TA.AperFunction,Plated,PTH,ComponentDrill
T5C0.0360
; #@! TA.AperFunction,Plated,PTH,ViaDrill
T6C0.0394
; #@! TA.AperFunction,Plated,PTH,ComponentDrill
T7C0.0402
; #@! TA.AperFunction,Plated,PTH,ComponentDrill
T8C0.0433
; #@! TA.AperFunction,Plated,PTH,ComponentDrill
T9C0.0669
; #@! TA.AperFunction,Plated,PTH,ComponentDrill
T10C0.0669
; #@! TA.AperFunction,Plated,PTH,ComponentDrill
T11C0.0709
; #@! TA.AperFunction,Plated,PTH,ComponentDrill
T12C0.0728
; #@! TA.AperFunction,Plated,PTH,ComponentDrill
T13C0.0787
; #@! TA.AperFunction,Plated,PTH,ComponentDrill
T14C0.0866
; #@! TA.AperFunction,Plated,PTH,ComponentDrill
T15C0.1280
%
G90
G05
T1
X11.2051Y-6.0811
X11.274Y-5.9846
X11.2976Y-4.6598
X11.3764Y-5.9807
X11.4748Y-5.9827
X11.8823Y-6.1382
X11.9079Y-4.3705
X11.9138Y-5.6874
X11.9315Y-6.1421
X11.9551Y-4.2504
X11.9827Y-5.8626
X12.1303Y-6.15
X12.1402Y-6.2445
X12.3075Y-4.6461
X12.3252Y-6.1559
X12.337Y-6.2425
X12.3843Y-5.8469
X12.4551Y-4.9512
X12.9157Y-4.215
X12.9157Y-4.4118
X13.0417Y-6.2091
X13.2976Y-4.6736
X13.4453Y-4.9472
X13.5339Y-6.961
X13.5398Y-6.6874
X13.774Y-5.6343
X13.9217Y-4.215
X13.9236Y-4.4059
X13.9689Y-5.9906
X14.0417Y-6.2091
X14.3055Y-4.6579
X14.4669Y-4.9457
X14.6874Y-7.0713
X14.7445Y-6.3075
X14.7445Y-6.7642
X14.7484Y-5.4925
X14.7524Y-5.0949
T2
X11.8016Y-4.9551
X12.7209Y-4.9886
X13.715Y-4.9886
X14.6972Y-4.9482
T3
X11.1157Y-6.028
X11.1157Y-6.128
X11.5976Y-5.874
X11.5976Y-5.9527
X11.5976Y-6.0314
X11.6764Y-5.874
X11.6764Y-5.9527
X11.6764Y-6.0314
T4
X13.2452Y-5.5916
X13.3452Y-5.5916
X13.4452Y-5.5916
X13.5452Y-5.5916
T5
X14.015Y-5.6374
X14.015Y-5.7374
X14.015Y-5.8374
X14.015Y-5.9374
X14.115Y-5.6874
X14.115Y-5.7874
X14.115Y-5.8874
X14.115Y-5.9874
T6
X11.8902Y-4.8803
X14.5083Y-6.272
T7
X14.498Y-5.5634
X14.498Y-5.9614
X14.5654Y-5.6634
X14.5654Y-6.0614
T8
X11.087Y-5.778
X11.087Y-6.378
X11.187Y-5.778
X11.187Y-5.878
X11.187Y-6.378
X11.287Y-5.778
X11.287Y-6.378
X11.387Y-5.778
X11.387Y-6.378
X11.487Y-5.778
X11.487Y-6.378
X11.587Y-5.778
X11.587Y-6.378
X11.687Y-5.778
X11.687Y-6.378
X11.787Y-5.778
X11.787Y-6.378
X11.887Y-5.778
X11.887Y-6.378
X11.987Y-5.778
X11.987Y-6.378
X12.087Y-5.778
X12.087Y-6.378
X12.187Y-5.778
X12.187Y-6.378
X12.287Y-5.778
X12.287Y-6.378
X12.387Y-5.778
X12.387Y-6.378
X12.487Y-5.778
X12.487Y-6.378
X12.587Y-5.778
X12.587Y-6.378
X12.687Y-5.778
X12.687Y-6.378
X12.787Y-5.778
X12.787Y-6.378
X12.887Y-5.778
X12.887Y-6.378
X12.987Y-5.778
X12.987Y-6.378
X13.087Y-5.778
X13.087Y-6.378
X13.187Y-5.778
X13.187Y-6.378
X13.287Y-5.778
X13.287Y-6.378
X13.387Y-5.778
X13.387Y-6.378
T9
X11.1892Y-4.278
X11.1929Y-9.2898
X12.1892Y-4.274
X12.1929Y-9.2858
X13.1909Y-4.2819
X13.1947Y-9.2937
X14.1882Y-4.274
X14.1919Y-9.2858
T10
X14.2453Y-5.5028
X14.2453Y-6.1228
T11
X14.6067Y-6.528
T12
X11.337Y-4.278
X11.337Y-9.2898
X11.4846Y-4.278
X11.4846Y-9.2898
X11.6325Y-4.278
X11.6325Y-9.2898
X12.337Y-4.274
X12.337Y-9.2858
X12.4846Y-4.274
X12.4846Y-9.2858
X12.6325Y-4.274
X12.6325Y-9.2858
X13.3388Y-4.2819
X13.3388Y-9.2937
X13.4864Y-4.2819
X13.4864Y-9.2937
X13.6343Y-4.2819
X13.6343Y-9.2937
X14.336Y-4.274
X14.336Y-9.2858
X14.4837Y-4.274
X14.4837Y-9.2858
X14.6315Y-4.274
X14.6315Y-9.2858
T13
X14.4295Y-6.528
T15
X14.365Y-5.5874
X14.365Y-6.0374
T14
G00X11.4108Y-5.0634
M15
G01X11.4108Y-5.2209
M16
G05
G00X11.4108Y-8.3508
M15
G01X11.4108Y-8.5083
M16
G05
G00X12.4108Y-5.0594
M15
G01X12.4108Y-5.2169
M16
G05
G00X12.4108Y-8.3469
M15
G01X12.4108Y-8.5043
M16
G05
G00X13.4126Y-5.0673
M15
G01X13.4126Y-5.2248
M16
G05
G00X13.4126Y-8.3547
M15
G01X13.4126Y-8.5122
M16
G05
G00X14.4098Y-5.0594
M15
G01X14.4098Y-5.2169
M16
G05
G00X14.4098Y-8.3469
M15
G01X14.4098Y-8.5043
M16
G05
M30
