%TF.GenerationSoftware,KiCad,Pcbnew,8.0.4*%
%TF.CreationDate,2024-11-13T09:33:08-05:00*%
%TF.ProjectId,dpx_faded,6470785f-6661-4646-9564-2e6b69636164,rev?*%
%TF.SameCoordinates,Original*%
%TF.FileFunction,Soldermask,Top*%
%TF.FilePolarity,Negative*%
%FSLAX46Y46*%
G04 Gerber Fmt 4.6, Leading zero omitted, Abs format (unit mm)*
G04 Created by KiCad (PCBNEW 8.0.4) date 2024-11-13 09:33:08*
%MOMM*%
%LPD*%
G01*
G04 APERTURE LIST*
%ADD10C,0.150000*%
%ADD11R,1.700000X1.700000*%
%ADD12O,1.700000X1.700000*%
%ADD13C,2.900000*%
%ADD14C,1.850000*%
G04 APERTURE END LIST*
D10*
G36*
X172555101Y-187057903D02*
G01*
X173569050Y-187057903D01*
X173569050Y-187282117D01*
X172555101Y-187282117D01*
X172555101Y-187057903D01*
G37*
G36*
X172555101Y-189319103D02*
G01*
X173569050Y-189319103D01*
X173569050Y-189543318D01*
X172555101Y-189543318D01*
X172555101Y-189319103D01*
G37*
G36*
X172555101Y-188886793D02*
G01*
X173569050Y-188886793D01*
X173569050Y-189111008D01*
X172555101Y-189111008D01*
X172555101Y-188886793D01*
G37*
G36*
X172555101Y-188428105D02*
G01*
X173569050Y-188428105D01*
X173569050Y-188652320D01*
X172555101Y-188652320D01*
X172555101Y-188428105D01*
G37*
G36*
X172555101Y-187995795D02*
G01*
X173569050Y-187995795D01*
X173569050Y-188220010D01*
X172555101Y-188220010D01*
X172555101Y-187995795D01*
G37*
G36*
X171066978Y-187526849D02*
G01*
X173569050Y-187526849D01*
X173569050Y-187751064D01*
X171066978Y-187751064D01*
X171066978Y-187526849D01*
G37*
G36*
X170535505Y-187995795D02*
G01*
X171549455Y-187995795D01*
X171549455Y-188220010D01*
X170535505Y-188220010D01*
X170535505Y-187995795D01*
G37*
G36*
X171066978Y-189788049D02*
G01*
X173086573Y-189788049D01*
X173086573Y-190012264D01*
X171066978Y-190012264D01*
X171066978Y-189788049D01*
G37*
G36*
X170535505Y-189319103D02*
G01*
X171549455Y-189319103D01*
X171549455Y-189543318D01*
X170535505Y-189543318D01*
X170535505Y-189319103D01*
G37*
G36*
X170535505Y-188886793D02*
G01*
X171549455Y-188886793D01*
X171549455Y-189111008D01*
X170535505Y-189111008D01*
X170535505Y-188886793D01*
G37*
G36*
X170535505Y-188428105D02*
G01*
X171549455Y-188428105D01*
X171549455Y-188652320D01*
X170535505Y-188652320D01*
X170535505Y-188428105D01*
G37*
G36*
X176975457Y-190012264D02*
G01*
X176466406Y-190012264D01*
X175963168Y-190012264D01*
X174438506Y-190012264D01*
X174438506Y-189788049D01*
X175963168Y-189788049D01*
X176466406Y-189788049D01*
X176975457Y-189788049D01*
X176975457Y-190012264D01*
G37*
G36*
X175421730Y-189319103D02*
G01*
X175940746Y-189319103D01*
X176455610Y-189319103D01*
X176975457Y-189319103D01*
X176975457Y-189543318D01*
X176455610Y-189543318D01*
X175940746Y-189543318D01*
X175421730Y-189543318D01*
X175421730Y-189319103D01*
G37*
G36*
X173933607Y-189319103D02*
G01*
X174947557Y-189319103D01*
X174947557Y-189543318D01*
X173933607Y-189543318D01*
X173933607Y-189319103D01*
G37*
G36*
X174947557Y-188886793D02*
G01*
X174947557Y-189111008D01*
X173933607Y-189111008D01*
X173933607Y-188886793D01*
X174947557Y-188886793D01*
G37*
G36*
X174947557Y-188428105D02*
G01*
X174947557Y-188652320D01*
X173933607Y-188652320D01*
X173933607Y-188428105D01*
X174947557Y-188428105D01*
G37*
G36*
X174947557Y-187995795D02*
G01*
X174947557Y-188220010D01*
X173933607Y-188220010D01*
X173933607Y-187995795D01*
X174947557Y-187995795D01*
G37*
G36*
X174947557Y-187526849D02*
G01*
X174947557Y-187751064D01*
X173933607Y-187751064D01*
X173933607Y-187526849D01*
X174947557Y-187526849D01*
G37*
G36*
X176975457Y-187751064D02*
G01*
X175961507Y-187751064D01*
X175961507Y-187526849D01*
X176975457Y-187526849D01*
X176975457Y-187751064D01*
G37*
G36*
X176975457Y-188220010D02*
G01*
X175961507Y-188220010D01*
X175961507Y-187995795D01*
X176975457Y-187995795D01*
X176975457Y-188220010D01*
G37*
G36*
X176975457Y-188652320D02*
G01*
X175961507Y-188652320D01*
X175961507Y-188428105D01*
X176975457Y-188428105D01*
X176975457Y-188652320D01*
G37*
G36*
X176975457Y-189111008D02*
G01*
X175961507Y-189111008D01*
X175961507Y-188886793D01*
X176975457Y-188886793D01*
X176975457Y-189111008D01*
G37*
G36*
X177331709Y-187057903D02*
G01*
X178345659Y-187057903D01*
X178345659Y-187282117D01*
X177331709Y-187282117D01*
X177331709Y-187057903D01*
G37*
G36*
X179882777Y-187751064D02*
G01*
X177331709Y-187751064D01*
X177331709Y-187526849D01*
X179882777Y-187526849D01*
X179882777Y-187751064D01*
G37*
G36*
X179351304Y-188220010D02*
G01*
X179351304Y-187995795D01*
X180365254Y-187995795D01*
X180365254Y-188220010D01*
X179351304Y-188220010D01*
G37*
G36*
X179351304Y-188428105D02*
G01*
X180365254Y-188428105D01*
X180365254Y-188652320D01*
X179351304Y-188652320D01*
X179351304Y-188428105D01*
G37*
G36*
X179351304Y-188886793D02*
G01*
X180365254Y-188886793D01*
X180365254Y-189111008D01*
X179351304Y-189111008D01*
X179351304Y-188886793D01*
G37*
G36*
X179351304Y-189319103D02*
G01*
X180365254Y-189319103D01*
X180365254Y-189543318D01*
X179351304Y-189543318D01*
X179351304Y-189319103D01*
G37*
G36*
X177863182Y-189788049D02*
G01*
X179882777Y-189788049D01*
X179882777Y-190012264D01*
X177863182Y-190012264D01*
X177863182Y-189788049D01*
G37*
G36*
X177331709Y-189319103D02*
G01*
X178345659Y-189319103D01*
X178345659Y-189543318D01*
X177331709Y-189543318D01*
X177331709Y-189319103D01*
G37*
G36*
X177331709Y-188886793D02*
G01*
X178345659Y-188886793D01*
X178345659Y-189111008D01*
X177331709Y-189111008D01*
X177331709Y-188886793D01*
G37*
G36*
X177331709Y-188428105D02*
G01*
X178345659Y-188428105D01*
X178345659Y-188652320D01*
X177331709Y-188652320D01*
X177331709Y-188428105D01*
G37*
G36*
X177331709Y-187995795D02*
G01*
X178872979Y-187995795D01*
X178872979Y-188220010D01*
X177331709Y-188220010D01*
X177331709Y-187995795D01*
G37*
G36*
X180729811Y-190012264D02*
G01*
X180729811Y-189788049D01*
X181743761Y-189788049D01*
X181743761Y-190012264D01*
X180729811Y-190012264D01*
G37*
G36*
X180729811Y-188428105D02*
G01*
X181743761Y-188428105D01*
X181743761Y-188652320D01*
X180729811Y-188652320D01*
X180729811Y-188428105D01*
G37*
G36*
X180729811Y-187995795D02*
G01*
X181743761Y-187995795D01*
X181743761Y-188220010D01*
X180729811Y-188220010D01*
X180729811Y-187995795D01*
G37*
G36*
X183253475Y-187751064D02*
G01*
X180729811Y-187751064D01*
X180729811Y-187526849D01*
X183253475Y-187526849D01*
X183253475Y-187751064D01*
G37*
G36*
X182749406Y-188220010D02*
G01*
X182749406Y-187995795D01*
X183763356Y-187995795D01*
X183763356Y-188220010D01*
X182749406Y-188220010D01*
G37*
G36*
X182749406Y-188652320D02*
G01*
X182749406Y-188428105D01*
X183763356Y-188428105D01*
X183763356Y-188652320D01*
X182749406Y-188652320D01*
G37*
G36*
X180729811Y-189111008D02*
G01*
X180729811Y-188886793D01*
X183253475Y-188886793D01*
X183253475Y-189111008D01*
X180729811Y-189111008D01*
G37*
G36*
X180729811Y-189543318D02*
G01*
X180729811Y-189319103D01*
X181743761Y-189319103D01*
X181743761Y-189543318D01*
X180729811Y-189543318D01*
G37*
G36*
X184655233Y-190012264D02*
G01*
X184655233Y-189788049D01*
X185669183Y-189788049D01*
X185669183Y-190012264D01*
X184655233Y-190012264D01*
G37*
G36*
X184655233Y-188886793D02*
G01*
X185669183Y-188886793D01*
X185669183Y-189111008D01*
X184655233Y-189111008D01*
X184655233Y-188886793D01*
G37*
G36*
X184655233Y-188428105D02*
G01*
X185669183Y-188428105D01*
X185669183Y-188652320D01*
X184655233Y-188652320D01*
X184655233Y-188428105D01*
G37*
G36*
X184127913Y-187995795D02*
G01*
X185669183Y-187995795D01*
X185669183Y-188220010D01*
X184127913Y-188220010D01*
X184127913Y-187995795D01*
G37*
G36*
X184655233Y-187057903D02*
G01*
X185669183Y-187057903D01*
X185669183Y-187282117D01*
X184655233Y-187282117D01*
X184655233Y-187057903D01*
G37*
G36*
X184655233Y-189543318D02*
G01*
X184655233Y-189319103D01*
X185669183Y-189319103D01*
X185669183Y-189543318D01*
X184655233Y-189543318D01*
G37*
G36*
X185921632Y-190012264D02*
G01*
X185921632Y-189788049D01*
X186935582Y-189788049D01*
X186935582Y-190012264D01*
X185921632Y-190012264D01*
G37*
G36*
X186935582Y-188428105D02*
G01*
X187945380Y-188428105D01*
X187945380Y-188652320D01*
X186935582Y-188652320D01*
X186935582Y-188428105D01*
G37*
G36*
X186453105Y-187995795D02*
G01*
X188472700Y-187995795D01*
X188472700Y-188220010D01*
X186453105Y-188220010D01*
X186453105Y-187995795D01*
G37*
G36*
X187945380Y-187526849D02*
G01*
X188955177Y-187526849D01*
X188955177Y-187751064D01*
X187945380Y-187751064D01*
X187945380Y-187526849D01*
G37*
G36*
X185921632Y-187526849D02*
G01*
X186935582Y-187526849D01*
X186935582Y-187751064D01*
X185921632Y-187751064D01*
X185921632Y-187526849D01*
G37*
G36*
X186453105Y-189111008D02*
G01*
X186453105Y-188886793D01*
X188472700Y-188886793D01*
X188472700Y-189111008D01*
X186453105Y-189111008D01*
G37*
G36*
X187945380Y-189543318D02*
G01*
X187945380Y-189319103D01*
X188955177Y-189319103D01*
X188955177Y-189543318D01*
X187945380Y-189543318D01*
G37*
G36*
X187945380Y-190012264D02*
G01*
X187945380Y-189788049D01*
X188955177Y-189788049D01*
X188955177Y-190012264D01*
X187945380Y-190012264D01*
G37*
G36*
X185921632Y-189543318D02*
G01*
X185921632Y-189319103D01*
X186935582Y-189319103D01*
X186935582Y-189543318D01*
X185921632Y-189543318D01*
G37*
G36*
X191870802Y-190012264D02*
G01*
X189851207Y-190012264D01*
X189851207Y-189788049D01*
X191870802Y-189788049D01*
X191870802Y-190012264D01*
G37*
G36*
X189851207Y-187526849D02*
G01*
X191870802Y-187526849D01*
X191870802Y-187751064D01*
X189851207Y-187751064D01*
X189851207Y-187526849D01*
G37*
G36*
X189319734Y-188220010D02*
G01*
X189319734Y-187995795D01*
X190333684Y-187995795D01*
X190333684Y-188220010D01*
X189319734Y-188220010D01*
G37*
G36*
X189319734Y-188652320D02*
G01*
X189319734Y-188428105D01*
X190333684Y-188428105D01*
X190333684Y-188652320D01*
X189319734Y-188652320D01*
G37*
G36*
X191339330Y-188220010D02*
G01*
X191339330Y-187995795D01*
X192353279Y-187995795D01*
X192353279Y-188220010D01*
X191339330Y-188220010D01*
G37*
G36*
X191339330Y-188652320D02*
G01*
X191339330Y-188428105D01*
X192353279Y-188428105D01*
X192353279Y-188652320D01*
X191339330Y-188652320D01*
G37*
G36*
X189319734Y-188886793D02*
G01*
X191870802Y-188886793D01*
X191870802Y-189111008D01*
X189319734Y-189111008D01*
X189319734Y-188886793D01*
G37*
G36*
X190333684Y-189543318D02*
G01*
X189319734Y-189543318D01*
X189319734Y-189319103D01*
X190333684Y-189319103D01*
X190333684Y-189543318D01*
G37*
G36*
X192717836Y-187057903D02*
G01*
X194259106Y-187057903D01*
X194259106Y-187282117D01*
X192717836Y-187282117D01*
X192717836Y-187057903D01*
G37*
G36*
X192717836Y-189788049D02*
G01*
X194737432Y-189788049D01*
X194737432Y-190012264D01*
X192717836Y-190012264D01*
X192717836Y-189788049D01*
G37*
G36*
X193245157Y-189319103D02*
G01*
X194259106Y-189319103D01*
X194259106Y-189543318D01*
X193245157Y-189543318D01*
X193245157Y-189319103D01*
G37*
G36*
X193245157Y-188886793D02*
G01*
X194259106Y-188886793D01*
X194259106Y-189111008D01*
X193245157Y-189111008D01*
X193245157Y-188886793D01*
G37*
G36*
X193245157Y-188428105D02*
G01*
X194259106Y-188428105D01*
X194259106Y-188652320D01*
X193245157Y-188652320D01*
X193245157Y-188428105D01*
G37*
G36*
X193245157Y-187995795D02*
G01*
X194259106Y-187995795D01*
X194259106Y-188220010D01*
X193245157Y-188220010D01*
X193245157Y-187995795D01*
G37*
G36*
X193245157Y-187526849D02*
G01*
X194259106Y-187526849D01*
X194259106Y-187751064D01*
X193245157Y-187751064D01*
X193245157Y-187526849D01*
G37*
D11*
%TO.C,J2*%
X61195000Y-32000000D03*
D12*
X63735000Y-32000000D03*
X66275000Y-32000000D03*
X68815000Y-32000000D03*
X71355000Y-32000000D03*
X73895000Y-32000000D03*
X76435000Y-32000000D03*
X78975000Y-32000000D03*
%TD*%
D13*
%TO.C,U2*%
X67845000Y-173180000D03*
X67845000Y-45680000D03*
X71595000Y-45680000D03*
X71595000Y-173180000D03*
D14*
X72200000Y-166830000D03*
X74740000Y-166830000D03*
D13*
X65720000Y-146430000D03*
X81220000Y-146430000D03*
X65720000Y-62430000D03*
X81220000Y-62430000D03*
X79095000Y-173180000D03*
%TD*%
%TO.C,U4*%
X106645000Y-173180000D03*
X106645000Y-45680000D03*
X110395000Y-45680000D03*
X110395000Y-173180000D03*
D14*
X111000000Y-166830000D03*
X113540000Y-166830000D03*
D13*
X104520000Y-146430000D03*
X120020000Y-146430000D03*
X104520000Y-62430000D03*
X120020000Y-62430000D03*
X117895000Y-173180000D03*
%TD*%
%TO.C,U3*%
X87245000Y-173180000D03*
X87245000Y-45680000D03*
X90995000Y-45680000D03*
X90995000Y-173180000D03*
D14*
X91600000Y-166830000D03*
X94140000Y-166830000D03*
D13*
X85120000Y-146430000D03*
X100620000Y-146430000D03*
X85120000Y-62430000D03*
X100620000Y-62430000D03*
X98495000Y-173180000D03*
%TD*%
%TO.C,U1*%
X48445000Y-173180000D03*
X48445000Y-45680000D03*
X52195000Y-45680000D03*
X52195000Y-173180000D03*
D14*
X52800000Y-166830000D03*
X55340000Y-166830000D03*
D13*
X46320000Y-146430000D03*
X61820000Y-146430000D03*
X46320000Y-62430000D03*
X61820000Y-62430000D03*
X59695000Y-173180000D03*
%TD*%
D11*
%TO.C,J1*%
X86250000Y-32030000D03*
D12*
X88790000Y-32030000D03*
X91330000Y-32030000D03*
X93870000Y-32030000D03*
X96410000Y-32030000D03*
X98950000Y-32030000D03*
X101490000Y-32030000D03*
X104030000Y-32030000D03*
%TD*%
M02*
