%TF.GenerationSoftware,KiCad,Pcbnew,8.0.4*%
%TF.CreationDate,2024-11-13T09:33:08-05:00*%
%TF.ProjectId,dpx_faded,6470785f-6661-4646-9564-2e6b69636164,rev?*%
%TF.SameCoordinates,Original*%
%TF.FileFunction,Copper,L1,Top*%
%TF.FilePolarity,Positive*%
%FSLAX46Y46*%
G04 Gerber Fmt 4.6, Leading zero omitted, Abs format (unit mm)*
G04 Created by KiCad (PCBNEW 8.0.4) date 2024-11-13 09:33:08*
%MOMM*%
%LPD*%
G01*
G04 APERTURE LIST*
%ADD10C,0.150000*%
%TA.AperFunction,NonConductor*%
%ADD11C,0.150000*%
%TD*%
%TA.AperFunction,ComponentPad*%
%ADD12R,1.700000X1.700000*%
%TD*%
%TA.AperFunction,ComponentPad*%
%ADD13O,1.700000X1.700000*%
%TD*%
%TA.AperFunction,ComponentPad*%
%ADD14C,2.900000*%
%TD*%
%TA.AperFunction,ComponentPad*%
%ADD15C,1.850000*%
%TD*%
%TA.AperFunction,Conductor*%
%ADD16C,0.350000*%
%TD*%
G04 APERTURE END LIST*
D10*
D11*
G36*
X170786002Y-186679221D02*
G01*
X171978884Y-186679221D01*
X171978884Y-186940805D01*
X170786002Y-186940805D01*
X170786002Y-186679221D01*
G37*
G36*
X170786002Y-189317288D02*
G01*
X171978884Y-189317288D01*
X171978884Y-189578872D01*
X170786002Y-189578872D01*
X170786002Y-189317288D01*
G37*
G36*
X170786002Y-188812926D02*
G01*
X171978884Y-188812926D01*
X171978884Y-189074510D01*
X170786002Y-189074510D01*
X170786002Y-188812926D01*
G37*
G36*
X170786002Y-188277790D02*
G01*
X171978884Y-188277790D01*
X171978884Y-188539374D01*
X170786002Y-188539374D01*
X170786002Y-188277790D01*
G37*
G36*
X170786002Y-187773429D02*
G01*
X171978884Y-187773429D01*
X171978884Y-188035013D01*
X170786002Y-188035013D01*
X170786002Y-187773429D01*
G37*
G36*
X169035269Y-187226325D02*
G01*
X171978884Y-187226325D01*
X171978884Y-187487909D01*
X169035269Y-187487909D01*
X169035269Y-187226325D01*
G37*
G36*
X168410007Y-187773429D02*
G01*
X169602889Y-187773429D01*
X169602889Y-188035013D01*
X168410007Y-188035013D01*
X168410007Y-187773429D01*
G37*
G36*
X169035269Y-189864392D02*
G01*
X171411263Y-189864392D01*
X171411263Y-190125976D01*
X169035269Y-190125976D01*
X169035269Y-189864392D01*
G37*
G36*
X168410007Y-189317288D02*
G01*
X169602889Y-189317288D01*
X169602889Y-189578872D01*
X168410007Y-189578872D01*
X168410007Y-189317288D01*
G37*
G36*
X168410007Y-188812926D02*
G01*
X169602889Y-188812926D01*
X169602889Y-189074510D01*
X168410007Y-189074510D01*
X168410007Y-188812926D01*
G37*
G36*
X168410007Y-188277790D02*
G01*
X169602889Y-188277790D01*
X169602889Y-188539374D01*
X168410007Y-188539374D01*
X168410007Y-188277790D01*
G37*
G36*
X175986420Y-190125976D02*
G01*
X175387537Y-190125976D01*
X174795492Y-190125976D01*
X173001773Y-190125976D01*
X173001773Y-189864392D01*
X174795492Y-189864392D01*
X175387537Y-189864392D01*
X175986420Y-189864392D01*
X175986420Y-190125976D01*
G37*
G36*
X174158507Y-189317288D02*
G01*
X174769114Y-189317288D01*
X175374836Y-189317288D01*
X175986420Y-189317288D01*
X175986420Y-189578872D01*
X175374836Y-189578872D01*
X174769114Y-189578872D01*
X174158507Y-189578872D01*
X174158507Y-189317288D01*
G37*
G36*
X172407774Y-189317288D02*
G01*
X173600656Y-189317288D01*
X173600656Y-189578872D01*
X172407774Y-189578872D01*
X172407774Y-189317288D01*
G37*
G36*
X173600656Y-188812926D02*
G01*
X173600656Y-189074510D01*
X172407774Y-189074510D01*
X172407774Y-188812926D01*
X173600656Y-188812926D01*
G37*
G36*
X173600656Y-188277790D02*
G01*
X173600656Y-188539374D01*
X172407774Y-188539374D01*
X172407774Y-188277790D01*
X173600656Y-188277790D01*
G37*
G36*
X173600656Y-187773429D02*
G01*
X173600656Y-188035013D01*
X172407774Y-188035013D01*
X172407774Y-187773429D01*
X173600656Y-187773429D01*
G37*
G36*
X173600656Y-187226325D02*
G01*
X173600656Y-187487909D01*
X172407774Y-187487909D01*
X172407774Y-187226325D01*
X173600656Y-187226325D01*
G37*
G36*
X175986420Y-187487909D02*
G01*
X174793538Y-187487909D01*
X174793538Y-187226325D01*
X175986420Y-187226325D01*
X175986420Y-187487909D01*
G37*
G36*
X175986420Y-188035013D02*
G01*
X174793538Y-188035013D01*
X174793538Y-187773429D01*
X175986420Y-187773429D01*
X175986420Y-188035013D01*
G37*
G36*
X175986420Y-188539374D02*
G01*
X174793538Y-188539374D01*
X174793538Y-188277790D01*
X175986420Y-188277790D01*
X175986420Y-188539374D01*
G37*
G36*
X175986420Y-189074510D02*
G01*
X174793538Y-189074510D01*
X174793538Y-188812926D01*
X175986420Y-188812926D01*
X175986420Y-189074510D01*
G37*
G36*
X176405541Y-186679221D02*
G01*
X177598423Y-186679221D01*
X177598423Y-186940805D01*
X176405541Y-186940805D01*
X176405541Y-186679221D01*
G37*
G36*
X179406797Y-187487909D02*
G01*
X176405541Y-187487909D01*
X176405541Y-187226325D01*
X179406797Y-187226325D01*
X179406797Y-187487909D01*
G37*
G36*
X178781535Y-188035013D02*
G01*
X178781535Y-187773429D01*
X179974418Y-187773429D01*
X179974418Y-188035013D01*
X178781535Y-188035013D01*
G37*
G36*
X178781535Y-188277790D02*
G01*
X179974418Y-188277790D01*
X179974418Y-188539374D01*
X178781535Y-188539374D01*
X178781535Y-188277790D01*
G37*
G36*
X178781535Y-188812926D02*
G01*
X179974418Y-188812926D01*
X179974418Y-189074510D01*
X178781535Y-189074510D01*
X178781535Y-188812926D01*
G37*
G36*
X178781535Y-189317288D02*
G01*
X179974418Y-189317288D01*
X179974418Y-189578872D01*
X178781535Y-189578872D01*
X178781535Y-189317288D01*
G37*
G36*
X177030803Y-189864392D02*
G01*
X179406797Y-189864392D01*
X179406797Y-190125976D01*
X177030803Y-190125976D01*
X177030803Y-189864392D01*
G37*
G36*
X176405541Y-189317288D02*
G01*
X177598423Y-189317288D01*
X177598423Y-189578872D01*
X176405541Y-189578872D01*
X176405541Y-189317288D01*
G37*
G36*
X176405541Y-188812926D02*
G01*
X177598423Y-188812926D01*
X177598423Y-189074510D01*
X176405541Y-189074510D01*
X176405541Y-188812926D01*
G37*
G36*
X176405541Y-188277790D02*
G01*
X177598423Y-188277790D01*
X177598423Y-188539374D01*
X176405541Y-188539374D01*
X176405541Y-188277790D01*
G37*
G36*
X176405541Y-187773429D02*
G01*
X178218800Y-187773429D01*
X178218800Y-188035013D01*
X176405541Y-188035013D01*
X176405541Y-187773429D01*
G37*
G36*
X180403308Y-190125976D02*
G01*
X180403308Y-189864392D01*
X181596190Y-189864392D01*
X181596190Y-190125976D01*
X180403308Y-190125976D01*
G37*
G36*
X180403308Y-188277790D02*
G01*
X181596190Y-188277790D01*
X181596190Y-188539374D01*
X180403308Y-188539374D01*
X180403308Y-188277790D01*
G37*
G36*
X180403308Y-187773429D02*
G01*
X181596190Y-187773429D01*
X181596190Y-188035013D01*
X180403308Y-188035013D01*
X180403308Y-187773429D01*
G37*
G36*
X183372324Y-187487909D02*
G01*
X180403308Y-187487909D01*
X180403308Y-187226325D01*
X183372324Y-187226325D01*
X183372324Y-187487909D01*
G37*
G36*
X182779302Y-188035013D02*
G01*
X182779302Y-187773429D01*
X183972184Y-187773429D01*
X183972184Y-188035013D01*
X182779302Y-188035013D01*
G37*
G36*
X182779302Y-188539374D02*
G01*
X182779302Y-188277790D01*
X183972184Y-188277790D01*
X183972184Y-188539374D01*
X182779302Y-188539374D01*
G37*
G36*
X180403308Y-189074510D02*
G01*
X180403308Y-188812926D01*
X183372324Y-188812926D01*
X183372324Y-189074510D01*
X180403308Y-189074510D01*
G37*
G36*
X180403308Y-189578872D02*
G01*
X180403308Y-189317288D01*
X181596190Y-189317288D01*
X181596190Y-189578872D01*
X180403308Y-189578872D01*
G37*
G36*
X185021452Y-190125976D02*
G01*
X185021452Y-189864392D01*
X186214334Y-189864392D01*
X186214334Y-190125976D01*
X185021452Y-190125976D01*
G37*
G36*
X185021452Y-188812926D02*
G01*
X186214334Y-188812926D01*
X186214334Y-189074510D01*
X185021452Y-189074510D01*
X185021452Y-188812926D01*
G37*
G36*
X185021452Y-188277790D02*
G01*
X186214334Y-188277790D01*
X186214334Y-188539374D01*
X185021452Y-188539374D01*
X185021452Y-188277790D01*
G37*
G36*
X184401075Y-187773429D02*
G01*
X186214334Y-187773429D01*
X186214334Y-188035013D01*
X184401075Y-188035013D01*
X184401075Y-187773429D01*
G37*
G36*
X185021452Y-186679221D02*
G01*
X186214334Y-186679221D01*
X186214334Y-186940805D01*
X185021452Y-186940805D01*
X185021452Y-186679221D01*
G37*
G36*
X185021452Y-189578872D02*
G01*
X185021452Y-189317288D01*
X186214334Y-189317288D01*
X186214334Y-189578872D01*
X185021452Y-189578872D01*
G37*
G36*
X186511333Y-190125976D02*
G01*
X186511333Y-189864392D01*
X187704215Y-189864392D01*
X187704215Y-190125976D01*
X186511333Y-190125976D01*
G37*
G36*
X187704215Y-188277790D02*
G01*
X188892212Y-188277790D01*
X188892212Y-188539374D01*
X187704215Y-188539374D01*
X187704215Y-188277790D01*
G37*
G36*
X187136595Y-187773429D02*
G01*
X189512589Y-187773429D01*
X189512589Y-188035013D01*
X187136595Y-188035013D01*
X187136595Y-187773429D01*
G37*
G36*
X188892212Y-187226325D02*
G01*
X190080210Y-187226325D01*
X190080210Y-187487909D01*
X188892212Y-187487909D01*
X188892212Y-187226325D01*
G37*
G36*
X186511333Y-187226325D02*
G01*
X187704215Y-187226325D01*
X187704215Y-187487909D01*
X186511333Y-187487909D01*
X186511333Y-187226325D01*
G37*
G36*
X187136595Y-189074510D02*
G01*
X187136595Y-188812926D01*
X189512589Y-188812926D01*
X189512589Y-189074510D01*
X187136595Y-189074510D01*
G37*
G36*
X188892212Y-189578872D02*
G01*
X188892212Y-189317288D01*
X190080210Y-189317288D01*
X190080210Y-189578872D01*
X188892212Y-189578872D01*
G37*
G36*
X188892212Y-190125976D02*
G01*
X188892212Y-189864392D01*
X190080210Y-189864392D01*
X190080210Y-190125976D01*
X188892212Y-190125976D01*
G37*
G36*
X186511333Y-189578872D02*
G01*
X186511333Y-189317288D01*
X187704215Y-189317288D01*
X187704215Y-189578872D01*
X186511333Y-189578872D01*
G37*
G36*
X193510356Y-190125976D02*
G01*
X191134362Y-190125976D01*
X191134362Y-189864392D01*
X193510356Y-189864392D01*
X193510356Y-190125976D01*
G37*
G36*
X191134362Y-187226325D02*
G01*
X193510356Y-187226325D01*
X193510356Y-187487909D01*
X191134362Y-187487909D01*
X191134362Y-187226325D01*
G37*
G36*
X190509100Y-188035013D02*
G01*
X190509100Y-187773429D01*
X191701982Y-187773429D01*
X191701982Y-188035013D01*
X190509100Y-188035013D01*
G37*
G36*
X190509100Y-188539374D02*
G01*
X190509100Y-188277790D01*
X191701982Y-188277790D01*
X191701982Y-188539374D01*
X190509100Y-188539374D01*
G37*
G36*
X192885094Y-188035013D02*
G01*
X192885094Y-187773429D01*
X194077976Y-187773429D01*
X194077976Y-188035013D01*
X192885094Y-188035013D01*
G37*
G36*
X192885094Y-188539374D02*
G01*
X192885094Y-188277790D01*
X194077976Y-188277790D01*
X194077976Y-188539374D01*
X192885094Y-188539374D01*
G37*
G36*
X190509100Y-188812926D02*
G01*
X193510356Y-188812926D01*
X193510356Y-189074510D01*
X190509100Y-189074510D01*
X190509100Y-188812926D01*
G37*
G36*
X191701982Y-189578872D02*
G01*
X190509100Y-189578872D01*
X190509100Y-189317288D01*
X191701982Y-189317288D01*
X191701982Y-189578872D01*
G37*
G36*
X194506867Y-186679221D02*
G01*
X196320126Y-186679221D01*
X196320126Y-186940805D01*
X194506867Y-186940805D01*
X194506867Y-186679221D01*
G37*
G36*
X194506867Y-189864392D02*
G01*
X196882861Y-189864392D01*
X196882861Y-190125976D01*
X194506867Y-190125976D01*
X194506867Y-189864392D01*
G37*
G36*
X195127244Y-189317288D02*
G01*
X196320126Y-189317288D01*
X196320126Y-189578872D01*
X195127244Y-189578872D01*
X195127244Y-189317288D01*
G37*
G36*
X195127244Y-188812926D02*
G01*
X196320126Y-188812926D01*
X196320126Y-189074510D01*
X195127244Y-189074510D01*
X195127244Y-188812926D01*
G37*
G36*
X195127244Y-188277790D02*
G01*
X196320126Y-188277790D01*
X196320126Y-188539374D01*
X195127244Y-188539374D01*
X195127244Y-188277790D01*
G37*
G36*
X195127244Y-187773429D02*
G01*
X196320126Y-187773429D01*
X196320126Y-188035013D01*
X195127244Y-188035013D01*
X195127244Y-187773429D01*
G37*
G36*
X195127244Y-187226325D02*
G01*
X196320126Y-187226325D01*
X196320126Y-187487909D01*
X195127244Y-187487909D01*
X195127244Y-187226325D01*
G37*
D12*
%TO.P,J2,1,Pin_1*%
%TO.N,/M1_A*%
X61195000Y-32000000D03*
D13*
%TO.P,J2,2,Pin_2*%
%TO.N,/M1_B*%
X63735000Y-32000000D03*
%TO.P,J2,3,Pin_3*%
%TO.N,/M2_A*%
X66275000Y-32000000D03*
%TO.P,J2,4,Pin_4*%
%TO.N,/M2_B*%
X68815000Y-32000000D03*
%TO.P,J2,5,Pin_5*%
%TO.N,/M3_A*%
X71355000Y-32000000D03*
%TO.P,J2,6,Pin_6*%
%TO.N,/M3_B*%
X73895000Y-32000000D03*
%TO.P,J2,7,Pin_7*%
%TO.N,/M4_A*%
X76435000Y-32000000D03*
%TO.P,J2,8,Pin_8*%
%TO.N,/M4_B*%
X78975000Y-32000000D03*
%TD*%
D14*
%TO.P,U2,1,VCC*%
%TO.N,GND*%
X67845000Y-173180000D03*
%TO.P,U2,2,Wiper*%
%TO.N,/P2*%
X67845000Y-45680000D03*
%TO.P,U2,3,GND*%
%TO.N,VCC*%
X71595000Y-45680000D03*
%TO.P,U2,4,GND*%
%TO.N,GND*%
X71595000Y-173180000D03*
D15*
%TO.P,U2,5,+*%
%TO.N,/M2_A*%
X72200000Y-166830000D03*
%TO.P,U2,6,-*%
%TO.N,/M2_B*%
X74740000Y-166830000D03*
D14*
%TO.P,U2,7,MNT*%
%TO.N,unconnected-(U2D-MNT-Pad7)*%
X65720000Y-146430000D03*
X81220000Y-146430000D03*
X65720000Y-62430000D03*
X81220000Y-62430000D03*
%TO.P,U2,8,Touch*%
%TO.N,/T2*%
X79095000Y-173180000D03*
%TD*%
%TO.P,U4,1,VCC*%
%TO.N,GND*%
X106645000Y-173180000D03*
%TO.P,U4,2,Wiper*%
%TO.N,/P4*%
X106645000Y-45680000D03*
%TO.P,U4,3,GND*%
%TO.N,VCC*%
X110395000Y-45680000D03*
%TO.P,U4,4,GND*%
%TO.N,GND*%
X110395000Y-173180000D03*
D15*
%TO.P,U4,5,+*%
%TO.N,/M4_A*%
X111000000Y-166830000D03*
%TO.P,U4,6,-*%
%TO.N,/M4_B*%
X113540000Y-166830000D03*
D14*
%TO.P,U4,7,MNT*%
%TO.N,unconnected-(U4D-MNT-Pad7)*%
X104520000Y-146430000D03*
X120020000Y-146430000D03*
X104520000Y-62430000D03*
X120020000Y-62430000D03*
%TO.P,U4,8,Touch*%
%TO.N,/T4*%
X117895000Y-173180000D03*
%TD*%
%TO.P,U3,1,VCC*%
%TO.N,GND*%
X87245000Y-173180000D03*
%TO.P,U3,2,Wiper*%
%TO.N,/P3*%
X87245000Y-45680000D03*
%TO.P,U3,3,GND*%
%TO.N,VCC*%
X90995000Y-45680000D03*
%TO.P,U3,4,GND*%
%TO.N,GND*%
X90995000Y-173180000D03*
D15*
%TO.P,U3,5,+*%
%TO.N,/M3_A*%
X91600000Y-166830000D03*
%TO.P,U3,6,-*%
%TO.N,/M3_B*%
X94140000Y-166830000D03*
D14*
%TO.P,U3,7,MNT*%
%TO.N,unconnected-(U3D-MNT-Pad7)*%
X85120000Y-146430000D03*
X100620000Y-146430000D03*
X85120000Y-62430000D03*
X100620000Y-62430000D03*
%TO.P,U3,8,Touch*%
%TO.N,/T3*%
X98495000Y-173180000D03*
%TD*%
%TO.P,U1,1,VCC*%
%TO.N,GND*%
X48445000Y-173180000D03*
%TO.P,U1,2,Wiper*%
%TO.N,/P1*%
X48445000Y-45680000D03*
%TO.P,U1,3,GND*%
%TO.N,VCC*%
X52195000Y-45680000D03*
%TO.P,U1,4,GND*%
%TO.N,GND*%
X52195000Y-173180000D03*
D15*
%TO.P,U1,5,+*%
%TO.N,/M1_A*%
X52800000Y-166830000D03*
%TO.P,U1,6,-*%
%TO.N,/M1_B*%
X55340000Y-166830000D03*
D14*
%TO.P,U1,7,MNT*%
%TO.N,unconnected-(U1D-MNT-Pad7)*%
X46320000Y-146430000D03*
X61820000Y-146430000D03*
X46320000Y-62430000D03*
X61820000Y-62430000D03*
%TO.P,U1,8,Touch*%
%TO.N,/T1*%
X59695000Y-173180000D03*
%TD*%
D12*
%TO.P,J1,1,Pin_1*%
%TO.N,/P1*%
X86250000Y-32030000D03*
D13*
%TO.P,J1,2,Pin_2*%
%TO.N,/T1*%
X88790000Y-32030000D03*
%TO.P,J1,3,Pin_3*%
%TO.N,/P2*%
X91330000Y-32030000D03*
%TO.P,J1,4,Pin_4*%
%TO.N,/T2*%
X93870000Y-32030000D03*
%TO.P,J1,5,Pin_5*%
%TO.N,/P3*%
X96410000Y-32030000D03*
%TO.P,J1,6,Pin_6*%
%TO.N,/T3*%
X98950000Y-32030000D03*
%TO.P,J1,7,Pin_7*%
%TO.N,/P4*%
X101490000Y-32030000D03*
%TO.P,J1,8,Pin_8*%
%TO.N,/T4*%
X104030000Y-32030000D03*
%TD*%
D16*
%TO.N,/P1*%
X84210000Y-32030000D02*
X86250000Y-32030000D01*
X78050000Y-38190000D02*
X84210000Y-32030000D01*
X48445000Y-45680000D02*
X48445000Y-38215000D01*
X48445000Y-38215000D02*
X48420000Y-38190000D01*
X48420000Y-38190000D02*
X78050000Y-38190000D01*
%TO.N,/P2*%
X68080000Y-45445000D02*
X67845000Y-45680000D01*
X90950000Y-32030000D02*
X80580000Y-42400000D01*
X80580000Y-42400000D02*
X68630000Y-42400000D01*
X68630000Y-42400000D02*
X68080000Y-42950000D01*
X91330000Y-32030000D02*
X90950000Y-32030000D01*
X68080000Y-42950000D02*
X68080000Y-45445000D01*
%TO.N,/P3*%
X96690000Y-34190000D02*
X96690000Y-32310000D01*
X87245000Y-45680000D02*
X87245000Y-43635000D01*
X96690000Y-32310000D02*
X96410000Y-32030000D01*
X87245000Y-43635000D02*
X96690000Y-34190000D01*
%TO.N,/P4*%
X101490000Y-32030000D02*
X101890000Y-32430000D01*
X101890000Y-32430000D02*
X101890000Y-40925000D01*
X101890000Y-40925000D02*
X106645000Y-45680000D01*
%TO.N,/T2*%
X76660000Y-49760000D02*
X93870000Y-32550000D01*
X79095000Y-149425000D02*
X76660000Y-146990000D01*
X79095000Y-173180000D02*
X79095000Y-149425000D01*
X76660000Y-146990000D02*
X76660000Y-49760000D01*
X93870000Y-32550000D02*
X93870000Y-32030000D01*
%TO.N,/T1*%
X58980000Y-172465000D02*
X59695000Y-173180000D01*
X88690000Y-32030000D02*
X79910000Y-40810000D01*
X88790000Y-32030000D02*
X88690000Y-32030000D01*
X58980000Y-41800000D02*
X58980000Y-172465000D01*
X79910000Y-40810000D02*
X59970000Y-40810000D01*
X59970000Y-40810000D02*
X58980000Y-41800000D01*
%TO.N,/T3*%
X97460000Y-58810000D02*
X97460000Y-172145000D01*
X97460000Y-172145000D02*
X98495000Y-173180000D01*
X98950000Y-32030000D02*
X99350000Y-32430000D01*
X99350000Y-56920000D02*
X97460000Y-58810000D01*
X99350000Y-32430000D02*
X99350000Y-56920000D01*
%TO.N,/T4*%
X104060000Y-33830000D02*
X114040000Y-43810000D01*
X117630000Y-150500000D02*
X117630000Y-172915000D01*
X117630000Y-172915000D02*
X117895000Y-173180000D01*
X114040000Y-43810000D02*
X114040000Y-146910000D01*
X104060000Y-32060000D02*
X104060000Y-33830000D01*
X104030000Y-32030000D02*
X104060000Y-32060000D01*
X114040000Y-146910000D02*
X117630000Y-150500000D01*
%TD*%
M02*
