%TF.GenerationSoftware,KiCad,Pcbnew,8.0.4*%
%TF.CreationDate,2024-11-13T09:33:08-05:00*%
%TF.ProjectId,dpx_faded,6470785f-6661-4646-9564-2e6b69636164,rev?*%
%TF.SameCoordinates,Original*%
%TF.FileFunction,Profile,NP*%
%FSLAX46Y46*%
G04 Gerber Fmt 4.6, Leading zero omitted, Abs format (unit mm)*
G04 Created by KiCad (PCBNEW 8.0.4) date 2024-11-13 09:33:08*
%MOMM*%
%LPD*%
G01*
G04 APERTURE LIST*
%TA.AperFunction,Profile*%
%ADD10C,0.050000*%
%TD*%
G04 APERTURE END LIST*
D10*
X193868314Y-170673105D02*
G75*
G02*
X190368314Y-170673105I-1750000J0D01*
G01*
X190368314Y-170673105D02*
G75*
G02*
X193868314Y-170673105I1750000J0D01*
G01*
X174500000Y-50310000D02*
G75*
G02*
X171000000Y-50310000I-1750000J0D01*
G01*
X171000000Y-50310000D02*
G75*
G02*
X174500000Y-50310000I1750000J0D01*
G01*
X209848314Y-55213105D02*
X213218314Y-55213105D01*
X213218314Y-165673105D01*
X209848314Y-165673105D01*
X209848314Y-55213105D01*
X155110000Y-170670000D02*
G75*
G02*
X151610000Y-170670000I-1750000J0D01*
G01*
X151610000Y-170670000D02*
G75*
G02*
X155110000Y-170670000I1750000J0D01*
G01*
X41920000Y-29590000D02*
X125070000Y-29590000D01*
X125070000Y-175900000D01*
X41920000Y-175900000D01*
X41920000Y-29590000D01*
X213278314Y-170623105D02*
G75*
G02*
X209778314Y-170623105I-1750000J0D01*
G01*
X209778314Y-170623105D02*
G75*
G02*
X213278314Y-170623105I1750000J0D01*
G01*
X155141686Y-50316895D02*
G75*
G02*
X151641686Y-50316895I-1750000J0D01*
G01*
X151641686Y-50316895D02*
G75*
G02*
X155141686Y-50316895I1750000J0D01*
G01*
X190438314Y-55263105D02*
X193808314Y-55263105D01*
X193808314Y-165723105D01*
X190438314Y-165723105D01*
X190438314Y-55263105D01*
X151680000Y-55260000D02*
X155050000Y-55260000D01*
X155050000Y-165720000D01*
X151680000Y-165720000D01*
X151680000Y-55260000D01*
X213310000Y-50270000D02*
G75*
G02*
X209810000Y-50270000I-1750000J0D01*
G01*
X209810000Y-50270000D02*
G75*
G02*
X213310000Y-50270000I1750000J0D01*
G01*
X137000000Y-27000000D02*
X227000000Y-27000000D01*
X227000000Y-192000000D01*
X137000000Y-192000000D01*
X137000000Y-27000000D01*
X193900000Y-50320000D02*
G75*
G02*
X190400000Y-50320000I-1750000J0D01*
G01*
X190400000Y-50320000D02*
G75*
G02*
X193900000Y-50320000I1750000J0D01*
G01*
X174468314Y-170663105D02*
G75*
G02*
X170968314Y-170663105I-1750000J0D01*
G01*
X170968314Y-170663105D02*
G75*
G02*
X174468314Y-170663105I1750000J0D01*
G01*
X171038314Y-55253105D02*
X174408314Y-55253105D01*
X174408314Y-165713105D01*
X171038314Y-165713105D01*
X171038314Y-55253105D01*
M02*
