%TF.GenerationSoftware,KiCad,Pcbnew,8.0.6*%
%TF.CreationDate,2025-03-02T16:11:29-08:00*%
%TF.ProjectId,dpx_faded_FP,6470785f-6661-4646-9564-5f46502e6b69,rev?*%
%TF.SameCoordinates,Original*%
%TF.FileFunction,Profile,NP*%
%FSLAX46Y46*%
G04 Gerber Fmt 4.6, Leading zero omitted, Abs format (unit mm)*
G04 Created by KiCad (PCBNEW 8.0.6) date 2025-03-02 16:11:29*
%MOMM*%
%LPD*%
G01*
G04 APERTURE LIST*
%TA.AperFunction,Profile*%
%ADD10C,0.254000*%
%TD*%
G04 APERTURE END LIST*
D10*
X27700000Y-191650000D02*
X27700000Y-18930000D01*
X136920000Y-196730000D02*
X32780000Y-196730000D01*
X142000000Y-18930000D02*
X142000000Y-191650000D01*
X32780000Y-13850000D02*
X136920000Y-13850000D01*
X136920000Y-13850000D02*
G75*
G02*
X142000000Y-18930000I0J-5080000D01*
G01*
X142000000Y-191650000D02*
G75*
G02*
X136920000Y-196730000I-5080000J0D01*
G01*
X32780000Y-196730000D02*
G75*
G02*
X27700000Y-191650000I0J5080000D01*
G01*
X27700000Y-18930000D02*
G75*
G02*
X32780000Y-13850000I5080000J0D01*
G01*
X45226000Y-59570000D02*
X45226000Y-173870000D01*
X45226000Y-173870000D02*
X48274000Y-173870000D01*
X48274000Y-173870000D02*
X48274000Y-59570000D01*
X48274000Y-59570000D02*
X45226000Y-59570000D01*
X70626000Y-59570000D02*
X70626000Y-173870000D01*
X70626000Y-173870000D02*
X73674000Y-173870000D01*
X73674000Y-173870000D02*
X73674000Y-59570000D01*
X73674000Y-59570000D02*
X70626000Y-59570000D01*
X96026000Y-59570000D02*
X96026000Y-173870000D01*
X96026000Y-173870000D02*
X99074000Y-173870000D01*
X99074000Y-173870000D02*
X99074000Y-59570000D01*
X99074000Y-59570000D02*
X96026000Y-59570000D01*
X121426000Y-59570000D02*
X121426000Y-173870000D01*
X121426000Y-173870000D02*
X124474000Y-173870000D01*
X124474000Y-173870000D02*
X124474000Y-59570000D01*
X124474000Y-59570000D02*
X121426000Y-59570000D01*
M02*
