%TF.GenerationSoftware,KiCad,Pcbnew,8.0.6*%
%TF.CreationDate,2025-03-02T10:31:17-08:00*%
%TF.ProjectId,dpx_faded,6470785f-6661-4646-9564-2e6b69636164,0.5.0*%
%TF.SameCoordinates,Original*%
%TF.FileFunction,Other,Comment*%
%FSLAX46Y46*%
G04 Gerber Fmt 4.6, Leading zero omitted, Abs format (unit mm)*
G04 Created by KiCad (PCBNEW 8.0.6) date 2025-03-02 10:31:17*
%MOMM*%
%LPD*%
G01*
G04 APERTURE LIST*
%ADD10C,0.300000*%
%ADD11C,0.150000*%
%ADD12C,0.850000*%
%ADD13C,0.750000*%
G04 APERTURE END LIST*
D10*
%TO.C,U5*%
X362670000Y-125810000D02*
G75*
G02*
X362370000Y-125810000I-150000J0D01*
G01*
X362370000Y-125810000D02*
G75*
G02*
X362670000Y-125810000I150000J0D01*
G01*
D11*
%TO.C,H2*%
X356910000Y-116310000D02*
G75*
G02*
X349910000Y-116310000I-3500000J0D01*
G01*
X349910000Y-116310000D02*
G75*
G02*
X356910000Y-116310000I3500000J0D01*
G01*
%TO.C,H3*%
X306110000Y-226760000D02*
G75*
G02*
X299110000Y-226760000I-3500000J0D01*
G01*
X299110000Y-226760000D02*
G75*
G02*
X306110000Y-226760000I3500000J0D01*
G01*
D10*
%TO.C,U8*%
X286000000Y-126210000D02*
G75*
G02*
X285700000Y-126210000I-150000J0D01*
G01*
X285700000Y-126210000D02*
G75*
G02*
X286000000Y-126210000I150000J0D01*
G01*
D12*
%TO.C,DC1*%
X366930000Y-165810000D02*
G75*
G02*
X366090000Y-165810000I-420000J0D01*
G01*
X366090000Y-165810000D02*
G75*
G02*
X366930000Y-165810000I420000J0D01*
G01*
D13*
X371380000Y-165810000D02*
G75*
G02*
X370640000Y-165810000I-370000J0D01*
G01*
X370640000Y-165810000D02*
G75*
G02*
X371380000Y-165810000I370000J0D01*
G01*
D11*
%TO.C,H1*%
X306010000Y-116260000D02*
G75*
G02*
X299010000Y-116260000I-3500000J0D01*
G01*
X299010000Y-116260000D02*
G75*
G02*
X306010000Y-116260000I3500000J0D01*
G01*
D10*
%TO.C,U6*%
X336900000Y-126330000D02*
G75*
G02*
X336600000Y-126330000I-150000J0D01*
G01*
X336600000Y-126330000D02*
G75*
G02*
X336900000Y-126330000I150000J0D01*
G01*
D11*
%TO.C,H4*%
X356810000Y-226760000D02*
G75*
G02*
X349810000Y-226760000I-3500000J0D01*
G01*
X349810000Y-226760000D02*
G75*
G02*
X356810000Y-226760000I3500000J0D01*
G01*
D10*
%TO.C,U7*%
X311850000Y-126110000D02*
G75*
G02*
X311550000Y-126110000I-150000J0D01*
G01*
X311550000Y-126110000D02*
G75*
G02*
X311850000Y-126110000I150000J0D01*
G01*
%TD*%
M02*
