M48
; DRILL file {KiCad 8.0.4} date 2024-11-13T09:33:08-0500
; FORMAT={-:-/ absolute / inch / decimal}
; #@! TF.CreationDate,2024-11-13T09:33:08-05:00
; #@! TF.GenerationSoftware,Kicad,Pcbnew,8.0.4
; #@! TF.FileFunction,Plated,1,4,PTH
FMAT,2
INCH
; #@! TA.AperFunction,Plated,PTH,ComponentDrill
T1C0.0394
; #@! TA.AperFunction,Plated,PTH,ComponentDrill
T2C0.0402
; #@! TA.AperFunction,Plated,PTH,ComponentDrill
T3C0.0728
%
G90
G05
T1
X2.4093Y-1.2598
X2.5093Y-1.2598
X2.6093Y-1.2598
X2.7093Y-1.2598
X2.8093Y-1.2598
X2.9093Y-1.2598
X3.0093Y-1.2598
X3.1093Y-1.2598
X3.3957Y-1.261
X3.4957Y-1.261
X3.5957Y-1.261
X3.6957Y-1.261
X3.7957Y-1.261
X3.8957Y-1.261
X3.9957Y-1.261
X4.0957Y-1.261
T2
X2.0787Y-6.5681
X2.1787Y-6.5681
X2.8425Y-6.5681
X2.9425Y-6.5681
X3.6063Y-6.5681
X3.7063Y-6.5681
X4.3701Y-6.5681
X4.4701Y-6.5681
T3
X1.8236Y-2.4579
X1.8236Y-5.765
X1.9073Y-1.7984
X1.9073Y-6.8181
X2.0549Y-1.7984
X2.0549Y-6.8181
X2.3502Y-6.8181
X2.4339Y-2.4579
X2.4339Y-5.765
X2.5874Y-2.4579
X2.5874Y-5.765
X2.6711Y-1.7984
X2.6711Y-6.8181
X2.8187Y-1.7984
X2.8187Y-6.8181
X3.114Y-6.8181
X3.1976Y-2.4579
X3.1976Y-5.765
X3.3512Y-2.4579
X3.3512Y-5.765
X3.4348Y-1.7984
X3.4348Y-6.8181
X3.5825Y-1.7984
X3.5825Y-6.8181
X3.8778Y-6.8181
X3.9614Y-2.4579
X3.9614Y-5.765
X4.115Y-2.4579
X4.115Y-5.765
X4.1986Y-1.7984
X4.1986Y-6.8181
X4.3463Y-1.7984
X4.3463Y-6.8181
X4.6415Y-6.8181
X4.7252Y-2.4579
X4.7252Y-5.765
M30
