%TF.GenerationSoftware,KiCad,Pcbnew,8.0.6*%
%TF.CreationDate,2025-03-02T11:18:05-08:00*%
%TF.ProjectId,dpx_faded,6470785f-6661-4646-9564-2e6b69636164,0.5.0*%
%TF.SameCoordinates,Original*%
%TF.FileFunction,Legend,Bot*%
%TF.FilePolarity,Positive*%
%FSLAX46Y46*%
G04 Gerber Fmt 4.6, Leading zero omitted, Abs format (unit mm)*
G04 Created by KiCad (PCBNEW 8.0.6) date 2025-03-02 11:18:05*
%MOMM*%
%LPD*%
G01*
G04 APERTURE LIST*
%ADD10C,0.150000*%
%ADD11C,0.100000*%
%ADD12C,0.000000*%
%ADD13C,4.300000*%
%ADD14R,1.600000X1.700000*%
%ADD15C,1.700000*%
%ADD16C,3.250000*%
%ADD17C,1.520000*%
%ADD18C,1.600000*%
%ADD19C,2.500000*%
%ADD20C,1.800000*%
%ADD21C,2.000000*%
%ADD22R,1.600000X1.600000*%
%ADD23R,1.300000X1.300000*%
%ADD24C,1.300000*%
%ADD25C,2.900000*%
%ADD26C,2.800000*%
%ADD27O,3.700000X7.700000*%
G04 APERTURE END LIST*
D10*
G36*
X308696451Y-175492400D02*
G01*
X308696451Y-175969553D01*
X308808558Y-175969553D01*
X308808558Y-175492400D01*
X308696451Y-175492400D01*
G37*
G36*
X309827051Y-175492400D02*
G01*
X309827051Y-175969553D01*
X309939159Y-175969553D01*
X309939159Y-175492400D01*
X309827051Y-175492400D01*
G37*
G36*
X309610896Y-175492400D02*
G01*
X309610896Y-175969553D01*
X309723004Y-175969553D01*
X309723004Y-175492400D01*
X309610896Y-175492400D01*
G37*
G36*
X309381552Y-175492400D02*
G01*
X309381552Y-175969553D01*
X309493660Y-175969553D01*
X309493660Y-175492400D01*
X309381552Y-175492400D01*
G37*
G36*
X309165397Y-175492400D02*
G01*
X309165397Y-175969553D01*
X309277505Y-175969553D01*
X309277505Y-175492400D01*
X309165397Y-175492400D01*
G37*
G36*
X308930924Y-174792107D02*
G01*
X308930924Y-175969553D01*
X309043032Y-175969553D01*
X309043032Y-174792107D01*
X308930924Y-174792107D01*
G37*
G36*
X309165397Y-174542002D02*
G01*
X309165397Y-175019155D01*
X309277505Y-175019155D01*
X309277505Y-174542002D01*
X309165397Y-174542002D01*
G37*
G36*
X310061524Y-174792107D02*
G01*
X310061524Y-175742505D01*
X310173632Y-175742505D01*
X310173632Y-174792107D01*
X310061524Y-174792107D01*
G37*
G36*
X309827051Y-174542002D02*
G01*
X309827051Y-175019155D01*
X309939159Y-175019155D01*
X309939159Y-174542002D01*
X309827051Y-174542002D01*
G37*
G36*
X309610896Y-174542002D02*
G01*
X309610896Y-175019155D01*
X309723004Y-175019155D01*
X309723004Y-174542002D01*
X309610896Y-174542002D01*
G37*
G36*
X309381552Y-174542002D02*
G01*
X309381552Y-175019155D01*
X309493660Y-175019155D01*
X309493660Y-174542002D01*
X309381552Y-174542002D01*
G37*
G36*
X310173632Y-177572568D02*
G01*
X310173632Y-177333014D01*
X310173632Y-177096196D01*
X310173632Y-176378709D01*
X310061524Y-176378709D01*
X310061524Y-177096196D01*
X310061524Y-177333014D01*
X310061524Y-177572568D01*
X310173632Y-177572568D01*
G37*
G36*
X309827051Y-176841402D02*
G01*
X309827051Y-177085645D01*
X309827051Y-177327934D01*
X309827051Y-177572568D01*
X309939159Y-177572568D01*
X309939159Y-177327934D01*
X309939159Y-177085645D01*
X309939159Y-176841402D01*
X309827051Y-176841402D01*
G37*
G36*
X309827051Y-176141109D02*
G01*
X309827051Y-176618262D01*
X309939159Y-176618262D01*
X309939159Y-176141109D01*
X309827051Y-176141109D01*
G37*
G36*
X309610896Y-176618262D02*
G01*
X309723004Y-176618262D01*
X309723004Y-176141109D01*
X309610896Y-176141109D01*
X309610896Y-176618262D01*
G37*
G36*
X309381552Y-176618262D02*
G01*
X309493660Y-176618262D01*
X309493660Y-176141109D01*
X309381552Y-176141109D01*
X309381552Y-176618262D01*
G37*
G36*
X309165397Y-176618262D02*
G01*
X309277505Y-176618262D01*
X309277505Y-176141109D01*
X309165397Y-176141109D01*
X309165397Y-176618262D01*
G37*
G36*
X308930924Y-176618262D02*
G01*
X309043032Y-176618262D01*
X309043032Y-176141109D01*
X308930924Y-176141109D01*
X308930924Y-176618262D01*
G37*
G36*
X309043032Y-177572568D02*
G01*
X309043032Y-177095415D01*
X308930924Y-177095415D01*
X308930924Y-177572568D01*
X309043032Y-177572568D01*
G37*
G36*
X309277505Y-177572568D02*
G01*
X309277505Y-177095415D01*
X309165397Y-177095415D01*
X309165397Y-177572568D01*
X309277505Y-177572568D01*
G37*
G36*
X309493660Y-177572568D02*
G01*
X309493660Y-177095415D01*
X309381552Y-177095415D01*
X309381552Y-177572568D01*
X309493660Y-177572568D01*
G37*
G36*
X309723004Y-177572568D02*
G01*
X309723004Y-177095415D01*
X309610896Y-177095415D01*
X309610896Y-177572568D01*
X309723004Y-177572568D01*
G37*
G36*
X308696451Y-177740216D02*
G01*
X308696451Y-178217369D01*
X308808558Y-178217369D01*
X308808558Y-177740216D01*
X308696451Y-177740216D01*
G37*
G36*
X309043032Y-178940718D02*
G01*
X309043032Y-177740216D01*
X308930924Y-177740216D01*
X308930924Y-178940718D01*
X309043032Y-178940718D01*
G37*
G36*
X309277505Y-178690614D02*
G01*
X309165397Y-178690614D01*
X309165397Y-179167767D01*
X309277505Y-179167767D01*
X309277505Y-178690614D01*
G37*
G36*
X309381552Y-178690614D02*
G01*
X309381552Y-179167767D01*
X309493660Y-179167767D01*
X309493660Y-178690614D01*
X309381552Y-178690614D01*
G37*
G36*
X309610896Y-178690614D02*
G01*
X309610896Y-179167767D01*
X309723004Y-179167767D01*
X309723004Y-178690614D01*
X309610896Y-178690614D01*
G37*
G36*
X309827051Y-178690614D02*
G01*
X309827051Y-179167767D01*
X309939159Y-179167767D01*
X309939159Y-178690614D01*
X309827051Y-178690614D01*
G37*
G36*
X310061524Y-177990321D02*
G01*
X310061524Y-178940718D01*
X310173632Y-178940718D01*
X310173632Y-177990321D01*
X310061524Y-177990321D01*
G37*
G36*
X309827051Y-177740216D02*
G01*
X309827051Y-178217369D01*
X309939159Y-178217369D01*
X309939159Y-177740216D01*
X309827051Y-177740216D01*
G37*
G36*
X309610896Y-177740216D02*
G01*
X309610896Y-178217369D01*
X309723004Y-178217369D01*
X309723004Y-177740216D01*
X309610896Y-177740216D01*
G37*
G36*
X309381552Y-177740216D02*
G01*
X309381552Y-178217369D01*
X309493660Y-178217369D01*
X309493660Y-177740216D01*
X309381552Y-177740216D01*
G37*
G36*
X309165397Y-177740216D02*
G01*
X309165397Y-178465519D01*
X309277505Y-178465519D01*
X309277505Y-177740216D01*
X309165397Y-177740216D01*
G37*
G36*
X310173632Y-179339323D02*
G01*
X310061524Y-179339323D01*
X310061524Y-179816476D01*
X310173632Y-179816476D01*
X310173632Y-179339323D01*
G37*
G36*
X309381552Y-179339323D02*
G01*
X309381552Y-179816476D01*
X309493660Y-179816476D01*
X309493660Y-179339323D01*
X309381552Y-179339323D01*
G37*
G36*
X309165397Y-179339323D02*
G01*
X309165397Y-179816476D01*
X309277505Y-179816476D01*
X309277505Y-179339323D01*
X309165397Y-179339323D01*
G37*
G36*
X309043032Y-180526929D02*
G01*
X309043032Y-179339323D01*
X308930924Y-179339323D01*
X308930924Y-180526929D01*
X309043032Y-180526929D01*
G37*
G36*
X309277505Y-180289720D02*
G01*
X309165397Y-180289720D01*
X309165397Y-180766873D01*
X309277505Y-180766873D01*
X309277505Y-180289720D01*
G37*
G36*
X309493660Y-180289720D02*
G01*
X309381552Y-180289720D01*
X309381552Y-180766873D01*
X309493660Y-180766873D01*
X309493660Y-180289720D01*
G37*
G36*
X309723004Y-179339323D02*
G01*
X309610896Y-179339323D01*
X309610896Y-180526929D01*
X309723004Y-180526929D01*
X309723004Y-179339323D01*
G37*
G36*
X309939159Y-179339323D02*
G01*
X309827051Y-179339323D01*
X309827051Y-179816476D01*
X309939159Y-179816476D01*
X309939159Y-179339323D01*
G37*
G36*
X310173632Y-181186580D02*
G01*
X310061524Y-181186580D01*
X310061524Y-181663733D01*
X310173632Y-181663733D01*
X310173632Y-181186580D01*
G37*
G36*
X309610896Y-181186580D02*
G01*
X309610896Y-181663733D01*
X309723004Y-181663733D01*
X309723004Y-181186580D01*
X309610896Y-181186580D01*
G37*
G36*
X309381552Y-181186580D02*
G01*
X309381552Y-181663733D01*
X309493660Y-181663733D01*
X309493660Y-181186580D01*
X309381552Y-181186580D01*
G37*
G36*
X309165397Y-180938429D02*
G01*
X309165397Y-181663733D01*
X309277505Y-181663733D01*
X309277505Y-180938429D01*
X309165397Y-180938429D01*
G37*
G36*
X308696451Y-181186580D02*
G01*
X308696451Y-181663733D01*
X308808558Y-181663733D01*
X308808558Y-181186580D01*
X308696451Y-181186580D01*
G37*
G36*
X309939159Y-181186580D02*
G01*
X309827051Y-181186580D01*
X309827051Y-181663733D01*
X309939159Y-181663733D01*
X309939159Y-181186580D01*
G37*
G36*
X310173632Y-181782533D02*
G01*
X310061524Y-181782533D01*
X310061524Y-182259686D01*
X310173632Y-182259686D01*
X310173632Y-181782533D01*
G37*
G36*
X309381552Y-182259686D02*
G01*
X309381552Y-182734884D01*
X309493660Y-182734884D01*
X309493660Y-182259686D01*
X309381552Y-182259686D01*
G37*
G36*
X309165397Y-182032637D02*
G01*
X309165397Y-182983035D01*
X309277505Y-182983035D01*
X309277505Y-182032637D01*
X309165397Y-182032637D01*
G37*
G36*
X308930924Y-182734884D02*
G01*
X308930924Y-183210083D01*
X309043032Y-183210083D01*
X309043032Y-182734884D01*
X308930924Y-182734884D01*
G37*
G36*
X308930924Y-181782533D02*
G01*
X308930924Y-182259686D01*
X309043032Y-182259686D01*
X309043032Y-181782533D01*
X308930924Y-181782533D01*
G37*
G36*
X309723004Y-182032637D02*
G01*
X309610896Y-182032637D01*
X309610896Y-182983035D01*
X309723004Y-182983035D01*
X309723004Y-182032637D01*
G37*
G36*
X309939159Y-182734884D02*
G01*
X309827051Y-182734884D01*
X309827051Y-183210083D01*
X309939159Y-183210083D01*
X309939159Y-182734884D01*
G37*
G36*
X310173632Y-182734884D02*
G01*
X310061524Y-182734884D01*
X310061524Y-183210083D01*
X310173632Y-183210083D01*
X310173632Y-182734884D01*
G37*
G36*
X309939159Y-181782533D02*
G01*
X309827051Y-181782533D01*
X309827051Y-182259686D01*
X309939159Y-182259686D01*
X309939159Y-181782533D01*
G37*
G36*
X310173632Y-184582142D02*
G01*
X310173632Y-183631744D01*
X310061524Y-183631744D01*
X310061524Y-184582142D01*
X310173632Y-184582142D01*
G37*
G36*
X308930924Y-183631744D02*
G01*
X308930924Y-184582142D01*
X309043032Y-184582142D01*
X309043032Y-183631744D01*
X308930924Y-183631744D01*
G37*
G36*
X309277505Y-183381639D02*
G01*
X309165397Y-183381639D01*
X309165397Y-183858792D01*
X309277505Y-183858792D01*
X309277505Y-183381639D01*
G37*
G36*
X309493660Y-183381639D02*
G01*
X309381552Y-183381639D01*
X309381552Y-183858792D01*
X309493660Y-183858792D01*
X309493660Y-183381639D01*
G37*
G36*
X309277505Y-184332037D02*
G01*
X309165397Y-184332037D01*
X309165397Y-184809190D01*
X309277505Y-184809190D01*
X309277505Y-184332037D01*
G37*
G36*
X309493660Y-184332037D02*
G01*
X309381552Y-184332037D01*
X309381552Y-184809190D01*
X309493660Y-184809190D01*
X309493660Y-184332037D01*
G37*
G36*
X309610896Y-183381639D02*
G01*
X309610896Y-184582142D01*
X309723004Y-184582142D01*
X309723004Y-183381639D01*
X309610896Y-183381639D01*
G37*
G36*
X309939159Y-183858792D02*
G01*
X309939159Y-183381639D01*
X309827051Y-183381639D01*
X309827051Y-183858792D01*
X309939159Y-183858792D01*
G37*
G36*
X308696451Y-184980746D02*
G01*
X308696451Y-185706050D01*
X308808558Y-185706050D01*
X308808558Y-184980746D01*
X308696451Y-184980746D01*
G37*
G36*
X310061524Y-184980746D02*
G01*
X310061524Y-185931144D01*
X310173632Y-185931144D01*
X310173632Y-184980746D01*
X310061524Y-184980746D01*
G37*
G36*
X309827051Y-185228897D02*
G01*
X309827051Y-185706050D01*
X309939159Y-185706050D01*
X309939159Y-185228897D01*
X309827051Y-185228897D01*
G37*
G36*
X309610896Y-185228897D02*
G01*
X309610896Y-185706050D01*
X309723004Y-185706050D01*
X309723004Y-185228897D01*
X309610896Y-185228897D01*
G37*
G36*
X309381552Y-185228897D02*
G01*
X309381552Y-185706050D01*
X309493660Y-185706050D01*
X309493660Y-185228897D01*
X309381552Y-185228897D01*
G37*
G36*
X309165397Y-185228897D02*
G01*
X309165397Y-185706050D01*
X309277505Y-185706050D01*
X309277505Y-185228897D01*
X309165397Y-185228897D01*
G37*
G36*
X308930924Y-185228897D02*
G01*
X308930924Y-185706050D01*
X309043032Y-185706050D01*
X309043032Y-185228897D01*
X308930924Y-185228897D01*
G37*
X312029819Y-175375350D02*
X311029819Y-175375350D01*
X311982200Y-175375350D02*
X312029819Y-175280112D01*
X312029819Y-175280112D02*
X312029819Y-175089636D01*
X312029819Y-175089636D02*
X311982200Y-174994398D01*
X311982200Y-174994398D02*
X311934580Y-174946779D01*
X311934580Y-174946779D02*
X311839342Y-174899160D01*
X311839342Y-174899160D02*
X311553628Y-174899160D01*
X311553628Y-174899160D02*
X311458390Y-174946779D01*
X311458390Y-174946779D02*
X311410771Y-174994398D01*
X311410771Y-174994398D02*
X311363152Y-175089636D01*
X311363152Y-175089636D02*
X311363152Y-175280112D01*
X311363152Y-175280112D02*
X311410771Y-175375350D01*
X311363152Y-175851541D02*
X312363152Y-175851541D01*
X311410771Y-175851541D02*
X311363152Y-175946779D01*
X311363152Y-175946779D02*
X311363152Y-176137255D01*
X311363152Y-176137255D02*
X311410771Y-176232493D01*
X311410771Y-176232493D02*
X311458390Y-176280112D01*
X311458390Y-176280112D02*
X311553628Y-176327731D01*
X311553628Y-176327731D02*
X311839342Y-176327731D01*
X311839342Y-176327731D02*
X311934580Y-176280112D01*
X311934580Y-176280112D02*
X311982200Y-176232493D01*
X311982200Y-176232493D02*
X312029819Y-176137255D01*
X312029819Y-176137255D02*
X312029819Y-175946779D01*
X312029819Y-175946779D02*
X311982200Y-175851541D01*
X312029819Y-176661065D02*
X311363152Y-177184874D01*
X311363152Y-176661065D02*
X312029819Y-177184874D01*
X312125057Y-177327732D02*
X312125057Y-178089636D01*
X311363152Y-178184875D02*
X311363152Y-178565827D01*
X312029819Y-178327732D02*
X311172676Y-178327732D01*
X311172676Y-178327732D02*
X311077438Y-178375351D01*
X311077438Y-178375351D02*
X311029819Y-178470589D01*
X311029819Y-178470589D02*
X311029819Y-178565827D01*
X312029819Y-179327732D02*
X311506009Y-179327732D01*
X311506009Y-179327732D02*
X311410771Y-179280113D01*
X311410771Y-179280113D02*
X311363152Y-179184875D01*
X311363152Y-179184875D02*
X311363152Y-178994399D01*
X311363152Y-178994399D02*
X311410771Y-178899161D01*
X311982200Y-179327732D02*
X312029819Y-179232494D01*
X312029819Y-179232494D02*
X312029819Y-178994399D01*
X312029819Y-178994399D02*
X311982200Y-178899161D01*
X311982200Y-178899161D02*
X311886961Y-178851542D01*
X311886961Y-178851542D02*
X311791723Y-178851542D01*
X311791723Y-178851542D02*
X311696485Y-178899161D01*
X311696485Y-178899161D02*
X311648866Y-178994399D01*
X311648866Y-178994399D02*
X311648866Y-179232494D01*
X311648866Y-179232494D02*
X311601247Y-179327732D01*
X312029819Y-180232494D02*
X311029819Y-180232494D01*
X311982200Y-180232494D02*
X312029819Y-180137256D01*
X312029819Y-180137256D02*
X312029819Y-179946780D01*
X312029819Y-179946780D02*
X311982200Y-179851542D01*
X311982200Y-179851542D02*
X311934580Y-179803923D01*
X311934580Y-179803923D02*
X311839342Y-179756304D01*
X311839342Y-179756304D02*
X311553628Y-179756304D01*
X311553628Y-179756304D02*
X311458390Y-179803923D01*
X311458390Y-179803923D02*
X311410771Y-179851542D01*
X311410771Y-179851542D02*
X311363152Y-179946780D01*
X311363152Y-179946780D02*
X311363152Y-180137256D01*
X311363152Y-180137256D02*
X311410771Y-180232494D01*
X311982200Y-181089637D02*
X312029819Y-180994399D01*
X312029819Y-180994399D02*
X312029819Y-180803923D01*
X312029819Y-180803923D02*
X311982200Y-180708685D01*
X311982200Y-180708685D02*
X311886961Y-180661066D01*
X311886961Y-180661066D02*
X311506009Y-180661066D01*
X311506009Y-180661066D02*
X311410771Y-180708685D01*
X311410771Y-180708685D02*
X311363152Y-180803923D01*
X311363152Y-180803923D02*
X311363152Y-180994399D01*
X311363152Y-180994399D02*
X311410771Y-181089637D01*
X311410771Y-181089637D02*
X311506009Y-181137256D01*
X311506009Y-181137256D02*
X311601247Y-181137256D01*
X311601247Y-181137256D02*
X311696485Y-180661066D01*
X312029819Y-181994399D02*
X311029819Y-181994399D01*
X311982200Y-181994399D02*
X312029819Y-181899161D01*
X312029819Y-181899161D02*
X312029819Y-181708685D01*
X312029819Y-181708685D02*
X311982200Y-181613447D01*
X311982200Y-181613447D02*
X311934580Y-181565828D01*
X311934580Y-181565828D02*
X311839342Y-181518209D01*
X311839342Y-181518209D02*
X311553628Y-181518209D01*
X311553628Y-181518209D02*
X311458390Y-181565828D01*
X311458390Y-181565828D02*
X311410771Y-181613447D01*
X311410771Y-181613447D02*
X311363152Y-181708685D01*
X311363152Y-181708685D02*
X311363152Y-181899161D01*
X311363152Y-181899161D02*
X311410771Y-181994399D01*
X311363152Y-182899161D02*
X312029819Y-182899161D01*
X310982200Y-182661066D02*
X311696485Y-182422971D01*
X311696485Y-182422971D02*
X311696485Y-183042018D01*
X312125057Y-183184876D02*
X312125057Y-183946780D01*
X312029819Y-184327733D02*
X311982200Y-184232495D01*
X311982200Y-184232495D02*
X311886961Y-184184876D01*
X311886961Y-184184876D02*
X311029819Y-184184876D01*
X311363152Y-184613448D02*
X312029819Y-184851543D01*
X311363152Y-185089638D02*
X312029819Y-184851543D01*
X312029819Y-184851543D02*
X312267914Y-184756305D01*
X312267914Y-184756305D02*
X312315533Y-184708686D01*
X312315533Y-184708686D02*
X312363152Y-184613448D01*
X311363152Y-185327734D02*
X311363152Y-185708686D01*
X312029819Y-185470591D02*
X311172676Y-185470591D01*
X311172676Y-185470591D02*
X311077438Y-185518210D01*
X311077438Y-185518210D02*
X311029819Y-185613448D01*
X311029819Y-185613448D02*
X311029819Y-185708686D01*
X311982200Y-186422972D02*
X312029819Y-186327734D01*
X312029819Y-186327734D02*
X312029819Y-186137258D01*
X312029819Y-186137258D02*
X311982200Y-186042020D01*
X311982200Y-186042020D02*
X311886961Y-185994401D01*
X311886961Y-185994401D02*
X311506009Y-185994401D01*
X311506009Y-185994401D02*
X311410771Y-186042020D01*
X311410771Y-186042020D02*
X311363152Y-186137258D01*
X311363152Y-186137258D02*
X311363152Y-186327734D01*
X311363152Y-186327734D02*
X311410771Y-186422972D01*
X311410771Y-186422972D02*
X311506009Y-186470591D01*
X311506009Y-186470591D02*
X311601247Y-186470591D01*
X311601247Y-186470591D02*
X311696485Y-185994401D01*
X310982200Y-188375353D02*
X312267914Y-187518211D01*
X310982200Y-189422972D02*
X312267914Y-188565830D01*
X311029819Y-190708687D02*
X311029819Y-190803925D01*
X311029819Y-190803925D02*
X311077438Y-190899163D01*
X311077438Y-190899163D02*
X311125057Y-190946782D01*
X311125057Y-190946782D02*
X311220295Y-190994401D01*
X311220295Y-190994401D02*
X311410771Y-191042020D01*
X311410771Y-191042020D02*
X311648866Y-191042020D01*
X311648866Y-191042020D02*
X311839342Y-190994401D01*
X311839342Y-190994401D02*
X311934580Y-190946782D01*
X311934580Y-190946782D02*
X311982200Y-190899163D01*
X311982200Y-190899163D02*
X312029819Y-190803925D01*
X312029819Y-190803925D02*
X312029819Y-190708687D01*
X312029819Y-190708687D02*
X311982200Y-190613449D01*
X311982200Y-190613449D02*
X311934580Y-190565830D01*
X311934580Y-190565830D02*
X311839342Y-190518211D01*
X311839342Y-190518211D02*
X311648866Y-190470592D01*
X311648866Y-190470592D02*
X311410771Y-190470592D01*
X311410771Y-190470592D02*
X311220295Y-190518211D01*
X311220295Y-190518211D02*
X311125057Y-190565830D01*
X311125057Y-190565830D02*
X311077438Y-190613449D01*
X311077438Y-190613449D02*
X311029819Y-190708687D01*
X311934580Y-191470592D02*
X311982200Y-191518211D01*
X311982200Y-191518211D02*
X312029819Y-191470592D01*
X312029819Y-191470592D02*
X311982200Y-191422973D01*
X311982200Y-191422973D02*
X311934580Y-191470592D01*
X311934580Y-191470592D02*
X312029819Y-191470592D01*
X311029819Y-192422972D02*
X311029819Y-191946782D01*
X311029819Y-191946782D02*
X311506009Y-191899163D01*
X311506009Y-191899163D02*
X311458390Y-191946782D01*
X311458390Y-191946782D02*
X311410771Y-192042020D01*
X311410771Y-192042020D02*
X311410771Y-192280115D01*
X311410771Y-192280115D02*
X311458390Y-192375353D01*
X311458390Y-192375353D02*
X311506009Y-192422972D01*
X311506009Y-192422972D02*
X311601247Y-192470591D01*
X311601247Y-192470591D02*
X311839342Y-192470591D01*
X311839342Y-192470591D02*
X311934580Y-192422972D01*
X311934580Y-192422972D02*
X311982200Y-192375353D01*
X311982200Y-192375353D02*
X312029819Y-192280115D01*
X312029819Y-192280115D02*
X312029819Y-192042020D01*
X312029819Y-192042020D02*
X311982200Y-191946782D01*
X311982200Y-191946782D02*
X311934580Y-191899163D01*
X311934580Y-192899163D02*
X311982200Y-192946782D01*
X311982200Y-192946782D02*
X312029819Y-192899163D01*
X312029819Y-192899163D02*
X311982200Y-192851544D01*
X311982200Y-192851544D02*
X311934580Y-192899163D01*
X311934580Y-192899163D02*
X312029819Y-192899163D01*
X311029819Y-193565829D02*
X311029819Y-193661067D01*
X311029819Y-193661067D02*
X311077438Y-193756305D01*
X311077438Y-193756305D02*
X311125057Y-193803924D01*
X311125057Y-193803924D02*
X311220295Y-193851543D01*
X311220295Y-193851543D02*
X311410771Y-193899162D01*
X311410771Y-193899162D02*
X311648866Y-193899162D01*
X311648866Y-193899162D02*
X311839342Y-193851543D01*
X311839342Y-193851543D02*
X311934580Y-193803924D01*
X311934580Y-193803924D02*
X311982200Y-193756305D01*
X311982200Y-193756305D02*
X312029819Y-193661067D01*
X312029819Y-193661067D02*
X312029819Y-193565829D01*
X312029819Y-193565829D02*
X311982200Y-193470591D01*
X311982200Y-193470591D02*
X311934580Y-193422972D01*
X311934580Y-193422972D02*
X311839342Y-193375353D01*
X311839342Y-193375353D02*
X311648866Y-193327734D01*
X311648866Y-193327734D02*
X311410771Y-193327734D01*
X311410771Y-193327734D02*
X311220295Y-193375353D01*
X311220295Y-193375353D02*
X311125057Y-193422972D01*
X311125057Y-193422972D02*
X311077438Y-193470591D01*
X311077438Y-193470591D02*
X311029819Y-193565829D01*
X311648866Y-195089639D02*
X311648866Y-195851544D01*
X311029819Y-196994401D02*
X311029819Y-197613448D01*
X311029819Y-197613448D02*
X311410771Y-197280115D01*
X311410771Y-197280115D02*
X311410771Y-197422972D01*
X311410771Y-197422972D02*
X311458390Y-197518210D01*
X311458390Y-197518210D02*
X311506009Y-197565829D01*
X311506009Y-197565829D02*
X311601247Y-197613448D01*
X311601247Y-197613448D02*
X311839342Y-197613448D01*
X311839342Y-197613448D02*
X311934580Y-197565829D01*
X311934580Y-197565829D02*
X311982200Y-197518210D01*
X311982200Y-197518210D02*
X312029819Y-197422972D01*
X312029819Y-197422972D02*
X312029819Y-197137258D01*
X312029819Y-197137258D02*
X311982200Y-197042020D01*
X311982200Y-197042020D02*
X311934580Y-196994401D01*
X311934580Y-198042020D02*
X311982200Y-198089639D01*
X311982200Y-198089639D02*
X312029819Y-198042020D01*
X312029819Y-198042020D02*
X311982200Y-197994401D01*
X311982200Y-197994401D02*
X311934580Y-198042020D01*
X311934580Y-198042020D02*
X312029819Y-198042020D01*
X312029819Y-199042019D02*
X312029819Y-198470591D01*
X312029819Y-198756305D02*
X311029819Y-198756305D01*
X311029819Y-198756305D02*
X311172676Y-198661067D01*
X311172676Y-198661067D02*
X311267914Y-198565829D01*
X311267914Y-198565829D02*
X311315533Y-198470591D01*
X311934580Y-199470591D02*
X311982200Y-199518210D01*
X311982200Y-199518210D02*
X312029819Y-199470591D01*
X312029819Y-199470591D02*
X311982200Y-199422972D01*
X311982200Y-199422972D02*
X311934580Y-199470591D01*
X311934580Y-199470591D02*
X312029819Y-199470591D01*
X311125057Y-199899162D02*
X311077438Y-199946781D01*
X311077438Y-199946781D02*
X311029819Y-200042019D01*
X311029819Y-200042019D02*
X311029819Y-200280114D01*
X311029819Y-200280114D02*
X311077438Y-200375352D01*
X311077438Y-200375352D02*
X311125057Y-200422971D01*
X311125057Y-200422971D02*
X311220295Y-200470590D01*
X311220295Y-200470590D02*
X311315533Y-200470590D01*
X311315533Y-200470590D02*
X311458390Y-200422971D01*
X311458390Y-200422971D02*
X312029819Y-199851543D01*
X312029819Y-199851543D02*
X312029819Y-200470590D01*
X311363152Y-201327733D02*
X312029819Y-201327733D01*
X310982200Y-201089638D02*
X311696485Y-200851543D01*
X311696485Y-200851543D02*
X311696485Y-201470590D01*
D11*
X288792419Y-171071905D02*
X289601942Y-171071905D01*
X289601942Y-171071905D02*
X289697180Y-171119524D01*
X289697180Y-171119524D02*
X289744800Y-171167143D01*
X289744800Y-171167143D02*
X289792419Y-171262381D01*
X289792419Y-171262381D02*
X289792419Y-171452857D01*
X289792419Y-171452857D02*
X289744800Y-171548095D01*
X289744800Y-171548095D02*
X289697180Y-171595714D01*
X289697180Y-171595714D02*
X289601942Y-171643333D01*
X289601942Y-171643333D02*
X288792419Y-171643333D01*
X289792419Y-172643333D02*
X289792419Y-172071905D01*
X289792419Y-172357619D02*
X288792419Y-172357619D01*
X288792419Y-172357619D02*
X288935276Y-172262381D01*
X288935276Y-172262381D02*
X289030514Y-172167143D01*
X289030514Y-172167143D02*
X289078133Y-172071905D01*
X289125752Y-173500476D02*
X289792419Y-173500476D01*
X288744800Y-173262381D02*
X289459085Y-173024286D01*
X289459085Y-173024286D02*
X289459085Y-173643333D01*
X339637419Y-171171905D02*
X340446942Y-171171905D01*
X340446942Y-171171905D02*
X340542180Y-171219524D01*
X340542180Y-171219524D02*
X340589800Y-171267143D01*
X340589800Y-171267143D02*
X340637419Y-171362381D01*
X340637419Y-171362381D02*
X340637419Y-171552857D01*
X340637419Y-171552857D02*
X340589800Y-171648095D01*
X340589800Y-171648095D02*
X340542180Y-171695714D01*
X340542180Y-171695714D02*
X340446942Y-171743333D01*
X340446942Y-171743333D02*
X339637419Y-171743333D01*
X340637419Y-172743333D02*
X340637419Y-172171905D01*
X340637419Y-172457619D02*
X339637419Y-172457619D01*
X339637419Y-172457619D02*
X339780276Y-172362381D01*
X339780276Y-172362381D02*
X339875514Y-172267143D01*
X339875514Y-172267143D02*
X339923133Y-172171905D01*
X340637419Y-173695714D02*
X340637419Y-173124286D01*
X340637419Y-173410000D02*
X339637419Y-173410000D01*
X339637419Y-173410000D02*
X339780276Y-173314762D01*
X339780276Y-173314762D02*
X339875514Y-173219524D01*
X339875514Y-173219524D02*
X339923133Y-173124286D01*
X364967419Y-170971905D02*
X365776942Y-170971905D01*
X365776942Y-170971905D02*
X365872180Y-171019524D01*
X365872180Y-171019524D02*
X365919800Y-171067143D01*
X365919800Y-171067143D02*
X365967419Y-171162381D01*
X365967419Y-171162381D02*
X365967419Y-171352857D01*
X365967419Y-171352857D02*
X365919800Y-171448095D01*
X365919800Y-171448095D02*
X365872180Y-171495714D01*
X365872180Y-171495714D02*
X365776942Y-171543333D01*
X365776942Y-171543333D02*
X364967419Y-171543333D01*
X365967419Y-172543333D02*
X365967419Y-171971905D01*
X365967419Y-172257619D02*
X364967419Y-172257619D01*
X364967419Y-172257619D02*
X365110276Y-172162381D01*
X365110276Y-172162381D02*
X365205514Y-172067143D01*
X365205514Y-172067143D02*
X365253133Y-171971905D01*
X364967419Y-173162381D02*
X364967419Y-173257619D01*
X364967419Y-173257619D02*
X365015038Y-173352857D01*
X365015038Y-173352857D02*
X365062657Y-173400476D01*
X365062657Y-173400476D02*
X365157895Y-173448095D01*
X365157895Y-173448095D02*
X365348371Y-173495714D01*
X365348371Y-173495714D02*
X365586466Y-173495714D01*
X365586466Y-173495714D02*
X365776942Y-173448095D01*
X365776942Y-173448095D02*
X365872180Y-173400476D01*
X365872180Y-173400476D02*
X365919800Y-173352857D01*
X365919800Y-173352857D02*
X365967419Y-173257619D01*
X365967419Y-173257619D02*
X365967419Y-173162381D01*
X365967419Y-173162381D02*
X365919800Y-173067143D01*
X365919800Y-173067143D02*
X365872180Y-173019524D01*
X365872180Y-173019524D02*
X365776942Y-172971905D01*
X365776942Y-172971905D02*
X365586466Y-172924286D01*
X365586466Y-172924286D02*
X365348371Y-172924286D01*
X365348371Y-172924286D02*
X365157895Y-172971905D01*
X365157895Y-172971905D02*
X365062657Y-173019524D01*
X365062657Y-173019524D02*
X365015038Y-173067143D01*
X365015038Y-173067143D02*
X364967419Y-173162381D01*
X314192419Y-170971905D02*
X315001942Y-170971905D01*
X315001942Y-170971905D02*
X315097180Y-171019524D01*
X315097180Y-171019524D02*
X315144800Y-171067143D01*
X315144800Y-171067143D02*
X315192419Y-171162381D01*
X315192419Y-171162381D02*
X315192419Y-171352857D01*
X315192419Y-171352857D02*
X315144800Y-171448095D01*
X315144800Y-171448095D02*
X315097180Y-171495714D01*
X315097180Y-171495714D02*
X315001942Y-171543333D01*
X315001942Y-171543333D02*
X314192419Y-171543333D01*
X315192419Y-172543333D02*
X315192419Y-171971905D01*
X315192419Y-172257619D02*
X314192419Y-172257619D01*
X314192419Y-172257619D02*
X314335276Y-172162381D01*
X314335276Y-172162381D02*
X314430514Y-172067143D01*
X314430514Y-172067143D02*
X314478133Y-171971905D01*
X314192419Y-172876667D02*
X314192419Y-173495714D01*
X314192419Y-173495714D02*
X314573371Y-173162381D01*
X314573371Y-173162381D02*
X314573371Y-173305238D01*
X314573371Y-173305238D02*
X314620990Y-173400476D01*
X314620990Y-173400476D02*
X314668609Y-173448095D01*
X314668609Y-173448095D02*
X314763847Y-173495714D01*
X314763847Y-173495714D02*
X315001942Y-173495714D01*
X315001942Y-173495714D02*
X315097180Y-173448095D01*
X315097180Y-173448095D02*
X315144800Y-173400476D01*
X315144800Y-173400476D02*
X315192419Y-173305238D01*
X315192419Y-173305238D02*
X315192419Y-173019524D01*
X315192419Y-173019524D02*
X315144800Y-172924286D01*
X315144800Y-172924286D02*
X315097180Y-172876667D01*
%TO.C,U14*%
X291335000Y-117310000D02*
X288335000Y-117310000D01*
X288335000Y-227310000D01*
X291335000Y-227310000D01*
X291335000Y-117310000D01*
X298085000Y-82660000D02*
X281585000Y-82660000D01*
X281585000Y-242660000D01*
X298085000Y-242660000D01*
X298085000Y-82660000D01*
X291335000Y-85510000D02*
G75*
G02*
X288335000Y-85510000I-1500000J0D01*
G01*
X288335000Y-85510000D02*
G75*
G02*
X291335000Y-85510000I1500000J0D01*
G01*
X291335000Y-239810000D02*
G75*
G02*
X288335000Y-239810000I-1500000J0D01*
G01*
X288335000Y-239810000D02*
G75*
G02*
X291335000Y-239810000I1500000J0D01*
G01*
X291335000Y-239810000D02*
G75*
G02*
X288335000Y-239810000I-1500000J0D01*
G01*
X288335000Y-239810000D02*
G75*
G02*
X291335000Y-239810000I1500000J0D01*
G01*
D12*
%TO.C,kibuzzard-67C3BB4B*%
G36*
X352598770Y-150016176D02*
G01*
X352321230Y-149881698D01*
X352598770Y-149747221D01*
X352598770Y-150016176D01*
G37*
G36*
X352598770Y-166087707D02*
G01*
X352321230Y-165953229D01*
X352598770Y-165818751D01*
X352598770Y-166087707D01*
G37*
G36*
X352598770Y-197738637D02*
G01*
X352321230Y-197604159D01*
X352598770Y-197469681D01*
X352598770Y-197738637D01*
G37*
G36*
X352398484Y-162422471D02*
G01*
X352346981Y-162559810D01*
X352189614Y-162625618D01*
X352040830Y-162564102D01*
X351980744Y-162416748D01*
X351980744Y-162107736D01*
X352398484Y-162107736D01*
X352398484Y-162422471D01*
G37*
G36*
X352398484Y-183541212D02*
G01*
X352346981Y-183682843D01*
X352189614Y-183750082D01*
X352040830Y-183688565D01*
X351980744Y-183538351D01*
X351980744Y-183232199D01*
X352398484Y-183232199D01*
X352398484Y-183541212D01*
G37*
G36*
X352398484Y-203160668D02*
G01*
X352346981Y-203298007D01*
X352189614Y-203363816D01*
X352040830Y-203302299D01*
X351980744Y-203154946D01*
X351980744Y-202845933D01*
X352398484Y-202845933D01*
X352398484Y-203160668D01*
G37*
G36*
X352398484Y-211764388D02*
G01*
X352346981Y-211901727D01*
X352189614Y-211967535D01*
X352040830Y-211906019D01*
X351980744Y-211758665D01*
X351980744Y-211449653D01*
X352398484Y-211449653D01*
X352398484Y-211764388D01*
G37*
G36*
X352933534Y-167807306D02*
G01*
X352898841Y-167988279D01*
X352794764Y-168142070D01*
X352641330Y-168247221D01*
X352458569Y-168282271D01*
X352275451Y-168247221D01*
X352120944Y-168142070D01*
X352015794Y-167987564D01*
X351980744Y-167804445D01*
X351980744Y-167575547D01*
X352933534Y-167575547D01*
X352933534Y-167807306D01*
G37*
G36*
X352933534Y-199458236D02*
G01*
X352898841Y-199639209D01*
X352794764Y-199793000D01*
X352641330Y-199898150D01*
X352458569Y-199933201D01*
X352275451Y-199898150D01*
X352120944Y-199793000D01*
X352015794Y-199638494D01*
X351980744Y-199455375D01*
X351980744Y-199226477D01*
X352933534Y-199226477D01*
X352933534Y-199458236D01*
G37*
G36*
X352655994Y-142992213D02*
G01*
X352819084Y-143096291D01*
X352930672Y-143247578D01*
X352967868Y-143423902D01*
X352931745Y-143605947D01*
X352823376Y-143757235D01*
X352661359Y-143859166D01*
X352464292Y-143893143D01*
X352268655Y-143858809D01*
X352105207Y-143755804D01*
X351994692Y-143604874D01*
X351957854Y-143426763D01*
X351994692Y-143246505D01*
X352105207Y-143094860D01*
X352268655Y-142991856D01*
X352464292Y-142957521D01*
X352655994Y-142992213D01*
G37*
G36*
X352655994Y-178540139D02*
G01*
X352819084Y-178644216D01*
X352930672Y-178795504D01*
X352967868Y-178971827D01*
X352931745Y-179153873D01*
X352823376Y-179305160D01*
X352661359Y-179407092D01*
X352464292Y-179441069D01*
X352268655Y-179406734D01*
X352105207Y-179303730D01*
X351994692Y-179152800D01*
X351957854Y-178974688D01*
X351994692Y-178794431D01*
X352105207Y-178642786D01*
X352268655Y-178539781D01*
X352464292Y-178505447D01*
X352655994Y-178540139D01*
G37*
G36*
X352655994Y-206771899D02*
G01*
X352819084Y-206875976D01*
X352930672Y-207027263D01*
X352967868Y-207203587D01*
X352931745Y-207385633D01*
X352823376Y-207536920D01*
X352661359Y-207638851D01*
X352464292Y-207672829D01*
X352268655Y-207638494D01*
X352105207Y-207535489D01*
X351994692Y-207384560D01*
X351957854Y-207206448D01*
X351994692Y-207026191D01*
X352105207Y-206874545D01*
X352268655Y-206771541D01*
X352464292Y-206737206D01*
X352655994Y-206771899D01*
G37*
G36*
X353744216Y-138511169D02*
G01*
X353744216Y-141481126D01*
X353744216Y-143438208D01*
X353744216Y-145418179D01*
X353744216Y-148136348D01*
X353744216Y-150508308D01*
X353744216Y-151237922D01*
X353744216Y-154265103D01*
X353744216Y-155953229D01*
X353744216Y-157212170D01*
X353744216Y-157958952D01*
X353744216Y-159586992D01*
X353744216Y-162840211D01*
X353744216Y-163581269D01*
X353744216Y-166579839D01*
X353744216Y-167312314D01*
X353744216Y-170431055D01*
X353744216Y-171689996D01*
X353744216Y-173549796D01*
X353744216Y-174668537D01*
X353744216Y-177029052D01*
X353744216Y-178986133D01*
X353744216Y-180966105D01*
X353744216Y-182968966D01*
X353744216Y-185272256D01*
X353744216Y-187154946D01*
X353744216Y-189658522D01*
X353744216Y-190917464D01*
X353744216Y-192805876D01*
X353744216Y-195203587D01*
X353744216Y-198230768D01*
X353744216Y-198963243D01*
X353744216Y-200865962D01*
X353744216Y-203578408D01*
X353744216Y-204725761D01*
X353744216Y-207217893D01*
X353744216Y-208574116D01*
X353744216Y-212182128D01*
X353744216Y-212894574D01*
X353744216Y-214345218D01*
X353744216Y-215635633D01*
X353744216Y-218067678D01*
X353744216Y-218943215D01*
X353744216Y-219420087D01*
X353738032Y-219545962D01*
X353719539Y-219670624D01*
X353688917Y-219792874D01*
X353646460Y-219911534D01*
X353592577Y-220025461D01*
X353527786Y-220133558D01*
X353452712Y-220234783D01*
X353368077Y-220328163D01*
X353274697Y-220412798D01*
X353173471Y-220487872D01*
X353065375Y-220552662D01*
X352951448Y-220606546D01*
X352832788Y-220649003D01*
X352710538Y-220679625D01*
X352585875Y-220698117D01*
X352460000Y-220704301D01*
X352334125Y-220698117D01*
X352209462Y-220679625D01*
X352087212Y-220649003D01*
X351968552Y-220606546D01*
X351854625Y-220552662D01*
X351746529Y-220487872D01*
X351645303Y-220412798D01*
X351551923Y-220328163D01*
X351467288Y-220234783D01*
X351392214Y-220133558D01*
X351327423Y-220025461D01*
X351273540Y-219911534D01*
X351231083Y-219792874D01*
X351200461Y-219670624D01*
X351181968Y-219545962D01*
X351175784Y-219420087D01*
X351175784Y-218943215D01*
X351175784Y-217418179D01*
X351454278Y-217418179D01*
X351454278Y-218725761D01*
X351458569Y-218807306D01*
X351481459Y-218871684D01*
X351548698Y-218926047D01*
X351674592Y-218943215D01*
X351800486Y-218926047D01*
X351867725Y-218870253D01*
X351890615Y-218804445D01*
X351894907Y-218722900D01*
X351894907Y-218328050D01*
X353205351Y-218328050D01*
X353301202Y-218323758D01*
X353377024Y-218296577D01*
X353439971Y-218216462D01*
X353460000Y-218067678D01*
X353439971Y-217920325D01*
X353375594Y-217843072D01*
X353298340Y-217817321D01*
X353202489Y-217813029D01*
X351894907Y-217813029D01*
X351894907Y-217415318D01*
X351890615Y-217333773D01*
X351867725Y-217269395D01*
X351800486Y-217215032D01*
X351671731Y-217197864D01*
X351547268Y-217215032D01*
X351481459Y-217270826D01*
X351458569Y-217336634D01*
X351454278Y-217418179D01*
X351175784Y-217418179D01*
X351175784Y-215638494D01*
X351457139Y-215638494D01*
X351477167Y-215787278D01*
X351542976Y-215867392D01*
X351621660Y-215894574D01*
X351720372Y-215898866D01*
X352235393Y-215898866D01*
X352235393Y-216551226D01*
X351717511Y-216551226D01*
X351621660Y-216555518D01*
X351542976Y-216582700D01*
X351477167Y-216662814D01*
X351457139Y-216814459D01*
X351477167Y-216963243D01*
X351542976Y-217043358D01*
X351621660Y-217070540D01*
X351720372Y-217074831D01*
X353196767Y-217074831D01*
X353295479Y-217070540D01*
X353372732Y-217043358D01*
X353437110Y-216963243D01*
X353457139Y-216811598D01*
X353437110Y-216662814D01*
X353371302Y-216582700D01*
X353292618Y-216555518D01*
X353193906Y-216551226D01*
X352681745Y-216551226D01*
X352681745Y-215898866D01*
X353196767Y-215898866D01*
X353295479Y-215894574D01*
X353372732Y-215867392D01*
X353437110Y-215787278D01*
X353457139Y-215635633D01*
X353437110Y-215486849D01*
X353371302Y-215406734D01*
X353292618Y-215379552D01*
X353193906Y-215375261D01*
X351717511Y-215375261D01*
X351621660Y-215379552D01*
X351542976Y-215406734D01*
X351477167Y-215486849D01*
X351457139Y-215638494D01*
X351175784Y-215638494D01*
X351175784Y-214365246D01*
X351422804Y-214365246D01*
X351433176Y-214513673D01*
X351464292Y-214672829D01*
X351514006Y-214823401D01*
X351580172Y-214946076D01*
X351637396Y-215026191D01*
X351697482Y-215079123D01*
X351780458Y-215106305D01*
X351940687Y-215040497D01*
X352054421Y-214934631D01*
X352092332Y-214828766D01*
X352026524Y-214674259D01*
X351966438Y-214527621D01*
X351946409Y-214350940D01*
X351981817Y-214162814D01*
X352088040Y-214004731D01*
X352245765Y-213897435D01*
X352435680Y-213861670D01*
X352631674Y-213898866D01*
X352801917Y-214010454D01*
X352919943Y-214171398D01*
X352959285Y-214356663D01*
X352949986Y-214521183D01*
X352922089Y-214642786D01*
X352676023Y-214642786D01*
X352676023Y-214431055D01*
X352671731Y-214353801D01*
X352648841Y-214293716D01*
X352581602Y-214245075D01*
X352452847Y-214230768D01*
X352326953Y-214246505D01*
X352259714Y-214299438D01*
X352236824Y-214362385D01*
X352232532Y-214439638D01*
X352232532Y-214940354D01*
X352252561Y-215050511D01*
X352289757Y-215117750D01*
X352346981Y-215152085D01*
X352409928Y-215164960D01*
X352481459Y-215166391D01*
X353068011Y-215166391D01*
X353232532Y-215097721D01*
X353310858Y-215016892D01*
X353377024Y-214911741D01*
X353439018Y-214753420D01*
X353476214Y-214564579D01*
X353488612Y-214345218D01*
X353469120Y-214146362D01*
X353410644Y-213961813D01*
X353313183Y-213791570D01*
X353176738Y-213635633D01*
X353013112Y-213505447D01*
X352834106Y-213412457D01*
X352639721Y-213356663D01*
X352429957Y-213338065D01*
X352229939Y-213356931D01*
X352044764Y-213413530D01*
X351874431Y-213507861D01*
X351718941Y-213639924D01*
X351589381Y-213798454D01*
X351496838Y-213972185D01*
X351441313Y-214161115D01*
X351422804Y-214365246D01*
X351175784Y-214365246D01*
X351175784Y-212897435D01*
X351457139Y-212897435D01*
X351477167Y-213046219D01*
X351542976Y-213126334D01*
X351621660Y-213153515D01*
X351720372Y-213157807D01*
X353199628Y-213157807D01*
X353298340Y-213153515D01*
X353375594Y-213126334D01*
X353439971Y-213046219D01*
X353460000Y-212894574D01*
X353439971Y-212745790D01*
X353374163Y-212665675D01*
X353295479Y-212638494D01*
X353196767Y-212634202D01*
X351717511Y-212634202D01*
X351621660Y-212638494D01*
X351542976Y-212665675D01*
X351477167Y-212745790D01*
X351457139Y-212897435D01*
X351175784Y-212897435D01*
X351175784Y-211189281D01*
X351457139Y-211189281D01*
X351457139Y-211764388D01*
X351468584Y-211880625D01*
X351502918Y-212000439D01*
X351558712Y-212119896D01*
X351634535Y-212235060D01*
X351735751Y-212337707D01*
X351867725Y-212419610D01*
X352022589Y-212473258D01*
X352192475Y-212491140D01*
X352406749Y-212463164D01*
X352591776Y-212379235D01*
X352747554Y-212239352D01*
X353022232Y-212445361D01*
X353219657Y-212522614D01*
X353388469Y-212385275D01*
X353467153Y-212182128D01*
X353334106Y-212021899D01*
X352919227Y-211715747D01*
X352919227Y-211449653D01*
X353196767Y-211449653D01*
X353295479Y-211445361D01*
X353372732Y-211418179D01*
X353437110Y-211338065D01*
X353457139Y-211186419D01*
X353437110Y-211037635D01*
X353371302Y-210957521D01*
X353292618Y-210930339D01*
X353193906Y-210926047D01*
X351717511Y-210926047D01*
X351621660Y-210930339D01*
X351542976Y-210957521D01*
X351477167Y-211037635D01*
X351457139Y-211189281D01*
X351175784Y-211189281D01*
X351175784Y-208579839D01*
X351460000Y-208579839D01*
X351477167Y-208710025D01*
X351512933Y-208782986D01*
X351571588Y-208834488D01*
X352532961Y-209549796D01*
X351711788Y-209549796D01*
X351617368Y-209555518D01*
X351541545Y-209584130D01*
X351480029Y-209664245D01*
X351460000Y-209813029D01*
X351480029Y-209961813D01*
X351545837Y-210041927D01*
X351624521Y-210069109D01*
X351723233Y-210073401D01*
X353199628Y-210073401D01*
X353298340Y-210069109D01*
X353375594Y-210041927D01*
X353439971Y-209961813D01*
X353460000Y-209810168D01*
X353444263Y-209662814D01*
X353382747Y-209578408D01*
X352404206Y-208837349D01*
X353199628Y-208837349D01*
X353298340Y-208833057D01*
X353375594Y-208805876D01*
X353439971Y-208725761D01*
X353460000Y-208574116D01*
X353439971Y-208426763D01*
X353375594Y-208349510D01*
X353296910Y-208322328D01*
X353196767Y-208316605D01*
X351711788Y-208316605D01*
X351615937Y-208322328D01*
X351540114Y-208350940D01*
X351478598Y-208429624D01*
X351460000Y-208579839D01*
X351175784Y-208579839D01*
X351175784Y-207195003D01*
X351434249Y-207195003D01*
X351452936Y-207396005D01*
X351508999Y-207581269D01*
X351602436Y-207750797D01*
X351733247Y-207904588D01*
X351891062Y-208032271D01*
X352065508Y-208123472D01*
X352256584Y-208178193D01*
X352464292Y-208196434D01*
X352668423Y-208178462D01*
X352857353Y-208124545D01*
X353031084Y-208034685D01*
X353189614Y-207908880D01*
X353321677Y-207757861D01*
X353416009Y-207592356D01*
X353472607Y-207412367D01*
X353491474Y-207217893D01*
X353472876Y-207017964D01*
X353417082Y-206833057D01*
X353324092Y-206663172D01*
X353193906Y-206508308D01*
X353037432Y-206379374D01*
X352865579Y-206287278D01*
X352678348Y-206232020D01*
X352475737Y-206213601D01*
X352266509Y-206231484D01*
X352073734Y-206285132D01*
X351897411Y-206374545D01*
X351737539Y-206499724D01*
X351604850Y-206650475D01*
X351510072Y-206816605D01*
X351453205Y-206998115D01*
X351434249Y-207195003D01*
X351175784Y-207195003D01*
X351175784Y-204700010D01*
X351425665Y-204700010D01*
X351444740Y-204915874D01*
X351501965Y-205098039D01*
X351597339Y-205246505D01*
X351744692Y-205349510D01*
X351920658Y-205280840D01*
X352059428Y-205112027D01*
X352006495Y-204920325D01*
X351979313Y-204887421D01*
X351946409Y-204847364D01*
X351924950Y-204791570D01*
X351914936Y-204697149D01*
X351950701Y-204591283D01*
X352037969Y-204545504D01*
X352130959Y-204595575D01*
X352181030Y-204708594D01*
X352216795Y-204883129D01*
X352261144Y-205066248D01*
X352335536Y-205228265D01*
X352444263Y-205353801D01*
X352599485Y-205434273D01*
X352813362Y-205461098D01*
X352949986Y-205448937D01*
X353073734Y-205412457D01*
X353266867Y-205287993D01*
X353394192Y-205112027D01*
X353467153Y-204916033D01*
X353488612Y-204725761D01*
X353475737Y-204565532D01*
X353444263Y-204431055D01*
X353397053Y-204320897D01*
X353342690Y-204232199D01*
X353286896Y-204163530D01*
X353236824Y-204113458D01*
X353196767Y-204081984D01*
X353176738Y-204064817D01*
X352990758Y-203993286D01*
X352807639Y-204113458D01*
X352741513Y-204232358D01*
X352760588Y-204356345D01*
X352864864Y-204485418D01*
X352969299Y-204601298D01*
X352996481Y-204714316D01*
X352954993Y-204883129D01*
X352821946Y-204934631D01*
X352733247Y-204860239D01*
X352666009Y-204635633D01*
X352629170Y-204499366D01*
X352590186Y-204390997D01*
X352498627Y-204230768D01*
X352375594Y-204116319D01*
X352221087Y-204047650D01*
X352035107Y-204024760D01*
X351869633Y-204046060D01*
X351724187Y-204109961D01*
X351598770Y-204216462D01*
X351502601Y-204355391D01*
X351444899Y-204516574D01*
X351425665Y-204700010D01*
X351175784Y-204700010D01*
X351175784Y-202585561D01*
X351457139Y-202585561D01*
X351457139Y-203160668D01*
X351468584Y-203276906D01*
X351502918Y-203396720D01*
X351558712Y-203516176D01*
X351634535Y-203631341D01*
X351735751Y-203733987D01*
X351867725Y-203815890D01*
X352022589Y-203869538D01*
X352192475Y-203887421D01*
X352406749Y-203859444D01*
X352591776Y-203775515D01*
X352747554Y-203635633D01*
X353022232Y-203841641D01*
X353219657Y-203918894D01*
X353388469Y-203781555D01*
X353467153Y-203578408D01*
X353334106Y-203418179D01*
X352919227Y-203112027D01*
X352919227Y-202845933D01*
X353196767Y-202845933D01*
X353295479Y-202841641D01*
X353372732Y-202814459D01*
X353437110Y-202734345D01*
X353457139Y-202582700D01*
X353437110Y-202433916D01*
X353371302Y-202353801D01*
X353292618Y-202326620D01*
X353193906Y-202322328D01*
X351717511Y-202322328D01*
X351621660Y-202326620D01*
X351542976Y-202353801D01*
X351477167Y-202433916D01*
X351457139Y-202585561D01*
X351175784Y-202585561D01*
X351175784Y-200874545D01*
X351457139Y-200874545D01*
X351457139Y-201921756D01*
X351461431Y-202020468D01*
X351488612Y-202097721D01*
X351568727Y-202162099D01*
X351720372Y-202182128D01*
X351869156Y-202162099D01*
X351949270Y-202096291D01*
X351976452Y-202017607D01*
X351980744Y-201918894D01*
X351980744Y-201129195D01*
X352235393Y-201129195D01*
X352235393Y-201658522D01*
X352239685Y-201751512D01*
X352262575Y-201820182D01*
X352331245Y-201874545D01*
X352461431Y-201890282D01*
X352588755Y-201874545D01*
X352654564Y-201818751D01*
X352677454Y-201747221D01*
X352681745Y-201652800D01*
X352681745Y-201129195D01*
X352936395Y-201129195D01*
X352936395Y-201921756D01*
X352940687Y-202020468D01*
X352967868Y-202097721D01*
X353047983Y-202162099D01*
X353199628Y-202182128D01*
X353348412Y-202162099D01*
X353428526Y-202096291D01*
X353455708Y-202017607D01*
X353460000Y-201918894D01*
X353460000Y-200865962D01*
X353439971Y-200717178D01*
X353374163Y-200637063D01*
X353295479Y-200609881D01*
X353196767Y-200605590D01*
X351717511Y-200605590D01*
X351512933Y-200664245D01*
X351457139Y-200874545D01*
X351175784Y-200874545D01*
X351175784Y-198966105D01*
X351457139Y-198966105D01*
X351457139Y-199458236D01*
X351475379Y-199655661D01*
X351530100Y-199838780D01*
X351621302Y-200007593D01*
X351748984Y-200162099D01*
X351902060Y-200291033D01*
X352069442Y-200383129D01*
X352251130Y-200438386D01*
X352447124Y-200456806D01*
X352648394Y-200438386D01*
X352834464Y-200383129D01*
X353005333Y-200291033D01*
X353161001Y-200162099D01*
X353290562Y-200007056D01*
X353383104Y-199836634D01*
X353438630Y-199650833D01*
X353457139Y-199449653D01*
X353457139Y-198963243D01*
X353437110Y-198818751D01*
X353375594Y-198740067D01*
X353295479Y-198710025D01*
X353193906Y-198702871D01*
X351714649Y-198702871D01*
X351618798Y-198707163D01*
X351540114Y-198734345D01*
X351475737Y-198814459D01*
X351457139Y-198966105D01*
X351175784Y-198966105D01*
X351175784Y-197607020D01*
X351457139Y-197607020D01*
X351495765Y-197746505D01*
X351611645Y-197844502D01*
X353096624Y-198562671D01*
X353299771Y-198601298D01*
X353439971Y-198442500D01*
X353481459Y-198230768D01*
X353316938Y-198090568D01*
X353045122Y-197958952D01*
X353045122Y-197255089D01*
X353319800Y-197123472D01*
X353478598Y-196980411D01*
X353437110Y-196771541D01*
X353298340Y-196611312D01*
X353096624Y-196648508D01*
X351608784Y-197366677D01*
X351498627Y-197466820D01*
X351457139Y-197607020D01*
X351175784Y-197607020D01*
X351175784Y-195212170D01*
X351457139Y-195212170D01*
X351457139Y-196259381D01*
X351461431Y-196355232D01*
X351488612Y-196432485D01*
X351568727Y-196496863D01*
X351720372Y-196516892D01*
X351870587Y-196496863D01*
X351949270Y-196431055D01*
X351976452Y-196352371D01*
X351980744Y-196253658D01*
X351980744Y-195466820D01*
X352235393Y-195466820D01*
X352235393Y-195993286D01*
X352239685Y-196086276D01*
X352264006Y-196154946D01*
X352332675Y-196209309D01*
X352464292Y-196225046D01*
X352588755Y-196209309D01*
X352654564Y-196153515D01*
X352677454Y-196083415D01*
X352681745Y-195990425D01*
X352681745Y-195466820D01*
X353199628Y-195466820D01*
X353298340Y-195462528D01*
X353375594Y-195435346D01*
X353439971Y-195355232D01*
X353460000Y-195203587D01*
X353439971Y-195054803D01*
X353374163Y-194974688D01*
X353295479Y-194947507D01*
X353196767Y-194943215D01*
X351717511Y-194943215D01*
X351512933Y-195001870D01*
X351457139Y-195212170D01*
X351175784Y-195212170D01*
X351175784Y-192814459D01*
X351457139Y-192814459D01*
X351457139Y-193861670D01*
X351461431Y-193960382D01*
X351488612Y-194037635D01*
X351568727Y-194102013D01*
X351720372Y-194122042D01*
X351869156Y-194102013D01*
X351949270Y-194036205D01*
X351976452Y-193957521D01*
X351980744Y-193858809D01*
X351980744Y-193069109D01*
X352235393Y-193069109D01*
X352235393Y-193598437D01*
X352239685Y-193691427D01*
X352262575Y-193760096D01*
X352331245Y-193814459D01*
X352461431Y-193830196D01*
X352588755Y-193814459D01*
X352654564Y-193758665D01*
X352677454Y-193687135D01*
X352681745Y-193592714D01*
X352681745Y-193069109D01*
X352936395Y-193069109D01*
X352936395Y-193861670D01*
X352940687Y-193960382D01*
X352967868Y-194037635D01*
X353047983Y-194102013D01*
X353199628Y-194122042D01*
X353348412Y-194102013D01*
X353428526Y-194036205D01*
X353455708Y-193957521D01*
X353460000Y-193858809D01*
X353460000Y-192805876D01*
X353439971Y-192657092D01*
X353374163Y-192576977D01*
X353295479Y-192549796D01*
X353196767Y-192545504D01*
X351717511Y-192545504D01*
X351512933Y-192604159D01*
X351457139Y-192814459D01*
X351175784Y-192814459D01*
X351175784Y-190920325D01*
X351457139Y-190920325D01*
X351477167Y-191069109D01*
X351542976Y-191149223D01*
X351621660Y-191176405D01*
X351720372Y-191180697D01*
X352235393Y-191180697D01*
X352235393Y-191833057D01*
X351717511Y-191833057D01*
X351621660Y-191837349D01*
X351542976Y-191864531D01*
X351477167Y-191944645D01*
X351457139Y-192096291D01*
X351477167Y-192245075D01*
X351542976Y-192325189D01*
X351621660Y-192352371D01*
X351720372Y-192356663D01*
X353196767Y-192356663D01*
X353295479Y-192352371D01*
X353372732Y-192325189D01*
X353437110Y-192245075D01*
X353457139Y-192093429D01*
X353437110Y-191944645D01*
X353371302Y-191864531D01*
X353292618Y-191837349D01*
X353193906Y-191833057D01*
X352681745Y-191833057D01*
X352681745Y-191180697D01*
X353196767Y-191180697D01*
X353295479Y-191176405D01*
X353372732Y-191149223D01*
X353437110Y-191069109D01*
X353457139Y-190917464D01*
X353437110Y-190768680D01*
X353371302Y-190688565D01*
X353292618Y-190661384D01*
X353193906Y-190657092D01*
X351717511Y-190657092D01*
X351621660Y-190661384D01*
X351542976Y-190688565D01*
X351477167Y-190768680D01*
X351457139Y-190920325D01*
X351175784Y-190920325D01*
X351175784Y-189009023D01*
X351454278Y-189009023D01*
X351454278Y-190316605D01*
X351458569Y-190398150D01*
X351481459Y-190462528D01*
X351548698Y-190516892D01*
X351674592Y-190534059D01*
X351800486Y-190516892D01*
X351867725Y-190461098D01*
X351890615Y-190395289D01*
X351894907Y-190313744D01*
X351894907Y-189918894D01*
X353205351Y-189918894D01*
X353301202Y-189914603D01*
X353377024Y-189887421D01*
X353439971Y-189807306D01*
X353460000Y-189658522D01*
X353439971Y-189511169D01*
X353375594Y-189433916D01*
X353298340Y-189408165D01*
X353202489Y-189403873D01*
X351894907Y-189403873D01*
X351894907Y-189006162D01*
X351890615Y-188924617D01*
X351867725Y-188860239D01*
X351800486Y-188805876D01*
X351671731Y-188788708D01*
X351547268Y-188805876D01*
X351481459Y-188861670D01*
X351458569Y-188927478D01*
X351454278Y-189009023D01*
X351175784Y-189009023D01*
X351175784Y-186505447D01*
X351454278Y-186505447D01*
X351454278Y-187813029D01*
X351458569Y-187894574D01*
X351481459Y-187958952D01*
X351548698Y-188013315D01*
X351674592Y-188030482D01*
X351800486Y-188013315D01*
X351867725Y-187957521D01*
X351890615Y-187891713D01*
X351894907Y-187810168D01*
X351894907Y-187415318D01*
X353205351Y-187415318D01*
X353301202Y-187411026D01*
X353377024Y-187383844D01*
X353439971Y-187303730D01*
X353460000Y-187154946D01*
X353439971Y-187007593D01*
X353375594Y-186930339D01*
X353298340Y-186904588D01*
X353202489Y-186900296D01*
X351894907Y-186900296D01*
X351894907Y-186502585D01*
X351890615Y-186421040D01*
X351867725Y-186356663D01*
X351800486Y-186302299D01*
X351671731Y-186285132D01*
X351547268Y-186302299D01*
X351481459Y-186358093D01*
X351458569Y-186423902D01*
X351454278Y-186505447D01*
X351175784Y-186505447D01*
X351175784Y-184654231D01*
X351454278Y-184654231D01*
X351474306Y-184804445D01*
X351538684Y-184883129D01*
X351618798Y-184911741D01*
X351720372Y-184917464D01*
X352518655Y-184917464D01*
X352720372Y-184946076D01*
X352889185Y-185060525D01*
X352946052Y-185158522D01*
X352965007Y-185280840D01*
X352934249Y-185427478D01*
X352841974Y-185541212D01*
X352698913Y-185614173D01*
X352515794Y-185638494D01*
X351703205Y-185638494D01*
X351610215Y-185644216D01*
X351535823Y-185672829D01*
X351474306Y-185752943D01*
X351454278Y-185901727D01*
X351474306Y-186050511D01*
X351541545Y-186130625D01*
X351621660Y-186157807D01*
X351720372Y-186162099D01*
X352524378Y-186162099D01*
X352697482Y-186147435D01*
X352867725Y-186103444D01*
X353029742Y-186032271D01*
X353178169Y-185936062D01*
X353305851Y-185811241D01*
X353405637Y-185654231D01*
X353470014Y-185472185D01*
X353491474Y-185272256D01*
X353469657Y-185072685D01*
X353404206Y-184891713D01*
X353302990Y-184736133D01*
X353173877Y-184612743D01*
X353024378Y-184517964D01*
X352862003Y-184448222D01*
X352691760Y-184405304D01*
X352518655Y-184390997D01*
X351717511Y-184390997D01*
X351618798Y-184395289D01*
X351540114Y-184422471D01*
X351474306Y-184502585D01*
X351454278Y-184654231D01*
X351175784Y-184654231D01*
X351175784Y-182971827D01*
X351457139Y-182971827D01*
X351457139Y-183541212D01*
X351468584Y-183657807D01*
X351502918Y-183778694D01*
X351558712Y-183898866D01*
X351634535Y-184013315D01*
X351735751Y-184115246D01*
X351867725Y-184197864D01*
X352022589Y-184252585D01*
X352192475Y-184270826D01*
X352361645Y-184252943D01*
X352514363Y-184199295D01*
X352644192Y-184117392D01*
X352744692Y-184014746D01*
X352820515Y-183898866D01*
X352876309Y-183777263D01*
X352910644Y-183655304D01*
X352922089Y-183538351D01*
X352922089Y-183232199D01*
X353196767Y-183232199D01*
X353295479Y-183227907D01*
X353372732Y-183200726D01*
X353437110Y-183120611D01*
X353457139Y-182968966D01*
X353437110Y-182820182D01*
X353371302Y-182740067D01*
X353292618Y-182712886D01*
X353193906Y-182708594D01*
X351717511Y-182708594D01*
X351621660Y-182712886D01*
X351542976Y-182740067D01*
X351477167Y-182820182D01*
X351457139Y-182971827D01*
X351175784Y-182971827D01*
X351175784Y-180348079D01*
X351454278Y-180348079D01*
X351474306Y-180498294D01*
X351538684Y-180576977D01*
X351618798Y-180605590D01*
X351720372Y-180611312D01*
X352518655Y-180611312D01*
X352720372Y-180639924D01*
X352889185Y-180754374D01*
X352946052Y-180852371D01*
X352965007Y-180974688D01*
X352934249Y-181121326D01*
X352841974Y-181235060D01*
X352698913Y-181308022D01*
X352515794Y-181332342D01*
X351703205Y-181332342D01*
X351610215Y-181338065D01*
X351535823Y-181366677D01*
X351474306Y-181446791D01*
X351454278Y-181595575D01*
X351474306Y-181744359D01*
X351541545Y-181824474D01*
X351621660Y-181851655D01*
X351720372Y-181855947D01*
X352524378Y-181855947D01*
X352697482Y-181841283D01*
X352867725Y-181797292D01*
X353029742Y-181726119D01*
X353178169Y-181629910D01*
X353305851Y-181505089D01*
X353405637Y-181348079D01*
X353470014Y-181166033D01*
X353491474Y-180966105D01*
X353469657Y-180766534D01*
X353404206Y-180585561D01*
X353302990Y-180429982D01*
X353173877Y-180306591D01*
X353024378Y-180211813D01*
X352862003Y-180142070D01*
X352691760Y-180099152D01*
X352518655Y-180084846D01*
X351717511Y-180084846D01*
X351618798Y-180089138D01*
X351540114Y-180116319D01*
X351474306Y-180196434D01*
X351454278Y-180348079D01*
X351175784Y-180348079D01*
X351175784Y-178963243D01*
X351434249Y-178963243D01*
X351452936Y-179164245D01*
X351508999Y-179349510D01*
X351602436Y-179519037D01*
X351733247Y-179672829D01*
X351891062Y-179800511D01*
X352065508Y-179891713D01*
X352256584Y-179946434D01*
X352464292Y-179964674D01*
X352668423Y-179946702D01*
X352857353Y-179892786D01*
X353031084Y-179802925D01*
X353189614Y-179677120D01*
X353321677Y-179526101D01*
X353416009Y-179360597D01*
X353472607Y-179180608D01*
X353491474Y-178986133D01*
X353472876Y-178786205D01*
X353417082Y-178601298D01*
X353324092Y-178431412D01*
X353193906Y-178276548D01*
X353037432Y-178147614D01*
X352865579Y-178055518D01*
X352678348Y-178000261D01*
X352475737Y-177981841D01*
X352266509Y-177999724D01*
X352073734Y-178053372D01*
X351897411Y-178142786D01*
X351737539Y-178267964D01*
X351604850Y-178418716D01*
X351510072Y-178584846D01*
X351453205Y-178766355D01*
X351434249Y-178963243D01*
X351175784Y-178963243D01*
X351175784Y-176485418D01*
X351431388Y-176485418D01*
X351571588Y-176639924D01*
X352183891Y-177020468D01*
X351571588Y-177418179D01*
X351431388Y-177576977D01*
X351500057Y-177787278D01*
X351664578Y-177924617D01*
X351851989Y-177861670D01*
X352704635Y-177292285D01*
X353205351Y-177292285D01*
X353304063Y-177287993D01*
X353381316Y-177260811D01*
X353445694Y-177180697D01*
X353465722Y-177029052D01*
X353445694Y-176877407D01*
X353379886Y-176797292D01*
X353299771Y-176770110D01*
X353199628Y-176765819D01*
X352704635Y-176765819D01*
X351851989Y-176196434D01*
X351660286Y-176133487D01*
X351500057Y-176273687D01*
X351439971Y-176393859D01*
X351431388Y-176485418D01*
X351175784Y-176485418D01*
X351175784Y-174642786D01*
X351425665Y-174642786D01*
X351444740Y-174858650D01*
X351501965Y-175040815D01*
X351597339Y-175189281D01*
X351744692Y-175292285D01*
X351920658Y-175223615D01*
X352059428Y-175054803D01*
X352006495Y-174863100D01*
X351979313Y-174830196D01*
X351946409Y-174790139D01*
X351924950Y-174734345D01*
X351914936Y-174639924D01*
X351950701Y-174534059D01*
X352037969Y-174488279D01*
X352130959Y-174538351D01*
X352181030Y-174651369D01*
X352216795Y-174825904D01*
X352261144Y-175009023D01*
X352335536Y-175171040D01*
X352444263Y-175296577D01*
X352599485Y-175377049D01*
X352813362Y-175403873D01*
X352949986Y-175391713D01*
X353073734Y-175355232D01*
X353266867Y-175230768D01*
X353394192Y-175054803D01*
X353467153Y-174858809D01*
X353488612Y-174668537D01*
X353475737Y-174508308D01*
X353444263Y-174373830D01*
X353397053Y-174263673D01*
X353342690Y-174174974D01*
X353286896Y-174106305D01*
X353236824Y-174056233D01*
X353196767Y-174024760D01*
X353176738Y-174007593D01*
X352990758Y-173936062D01*
X352807639Y-174056233D01*
X352741513Y-174175133D01*
X352760588Y-174299120D01*
X352864864Y-174428193D01*
X352969299Y-174544073D01*
X352996481Y-174657092D01*
X352954993Y-174825904D01*
X352821946Y-174877407D01*
X352733247Y-174803015D01*
X352666009Y-174578408D01*
X352629170Y-174442142D01*
X352590186Y-174333773D01*
X352498627Y-174173544D01*
X352375594Y-174059095D01*
X352221087Y-173990425D01*
X352035107Y-173967535D01*
X351869633Y-173988836D01*
X351724187Y-174052736D01*
X351598770Y-174159238D01*
X351502601Y-174298166D01*
X351444899Y-174459349D01*
X351425665Y-174642786D01*
X351175784Y-174642786D01*
X351175784Y-173552657D01*
X351457139Y-173552657D01*
X351477167Y-173701441D01*
X351542976Y-173781555D01*
X351621660Y-173808737D01*
X351720372Y-173813029D01*
X353199628Y-173813029D01*
X353298340Y-173808737D01*
X353375594Y-173781555D01*
X353439971Y-173701441D01*
X353460000Y-173549796D01*
X353439971Y-173401012D01*
X353374163Y-173320897D01*
X353295479Y-173293716D01*
X353196767Y-173289424D01*
X351717511Y-173289424D01*
X351621660Y-173293716D01*
X351542976Y-173320897D01*
X351477167Y-173401012D01*
X351457139Y-173552657D01*
X351175784Y-173552657D01*
X351175784Y-171692857D01*
X351457139Y-171692857D01*
X351477167Y-171841641D01*
X351542976Y-171921756D01*
X351621660Y-171948937D01*
X351720372Y-171953229D01*
X352235393Y-171953229D01*
X352235393Y-172605590D01*
X351717511Y-172605590D01*
X351621660Y-172609881D01*
X351542976Y-172637063D01*
X351477167Y-172717178D01*
X351457139Y-172868823D01*
X351477167Y-173017607D01*
X351542976Y-173097721D01*
X351621660Y-173124903D01*
X351720372Y-173129195D01*
X353196767Y-173129195D01*
X353295479Y-173124903D01*
X353372732Y-173097721D01*
X353437110Y-173017607D01*
X353457139Y-172865962D01*
X353437110Y-172717178D01*
X353371302Y-172637063D01*
X353292618Y-172609881D01*
X353193906Y-172605590D01*
X352681745Y-172605590D01*
X352681745Y-171953229D01*
X353196767Y-171953229D01*
X353295479Y-171948937D01*
X353372732Y-171921756D01*
X353437110Y-171841641D01*
X353457139Y-171689996D01*
X353437110Y-171541212D01*
X353371302Y-171461098D01*
X353292618Y-171433916D01*
X353193906Y-171429624D01*
X351717511Y-171429624D01*
X351621660Y-171433916D01*
X351542976Y-171461098D01*
X351477167Y-171541212D01*
X351457139Y-171692857D01*
X351175784Y-171692857D01*
X351175784Y-169781555D01*
X351454278Y-169781555D01*
X351454278Y-171089138D01*
X351458569Y-171170683D01*
X351481459Y-171235060D01*
X351548698Y-171289424D01*
X351674592Y-171306591D01*
X351800486Y-171289424D01*
X351867725Y-171233630D01*
X351890615Y-171167821D01*
X351894907Y-171086276D01*
X351894907Y-170691427D01*
X353205351Y-170691427D01*
X353301202Y-170687135D01*
X353377024Y-170659953D01*
X353439971Y-170579839D01*
X353460000Y-170431055D01*
X353439971Y-170283701D01*
X353375594Y-170206448D01*
X353298340Y-170180697D01*
X353202489Y-170176405D01*
X351894907Y-170176405D01*
X351894907Y-169778694D01*
X351890615Y-169697149D01*
X351867725Y-169632771D01*
X351800486Y-169578408D01*
X351671731Y-169561241D01*
X351547268Y-169578408D01*
X351481459Y-169634202D01*
X351458569Y-169700010D01*
X351454278Y-169781555D01*
X351175784Y-169781555D01*
X351175784Y-167315175D01*
X351457139Y-167315175D01*
X351457139Y-167807306D01*
X351475379Y-168004731D01*
X351530100Y-168187850D01*
X351621302Y-168356663D01*
X351748984Y-168511169D01*
X351902060Y-168640103D01*
X352069442Y-168732199D01*
X352251130Y-168787457D01*
X352447124Y-168805876D01*
X352648394Y-168787457D01*
X352834464Y-168732199D01*
X353005333Y-168640103D01*
X353161001Y-168511169D01*
X353290562Y-168356126D01*
X353383104Y-168185704D01*
X353438630Y-167999903D01*
X353457139Y-167798723D01*
X353457139Y-167312314D01*
X353437110Y-167167821D01*
X353375594Y-167089138D01*
X353295479Y-167059095D01*
X353193906Y-167051942D01*
X351714649Y-167051942D01*
X351618798Y-167056233D01*
X351540114Y-167083415D01*
X351475737Y-167163530D01*
X351457139Y-167315175D01*
X351175784Y-167315175D01*
X351175784Y-165956090D01*
X351457139Y-165956090D01*
X351495765Y-166095575D01*
X351611645Y-166193572D01*
X353096624Y-166911741D01*
X353299771Y-166950368D01*
X353439971Y-166791570D01*
X353481459Y-166579839D01*
X353316938Y-166439638D01*
X353045122Y-166308022D01*
X353045122Y-165604159D01*
X353319800Y-165472542D01*
X353478598Y-165329481D01*
X353437110Y-165120611D01*
X353298340Y-164960382D01*
X353096624Y-164997578D01*
X351608784Y-165715747D01*
X351498627Y-165815890D01*
X351457139Y-165956090D01*
X351175784Y-165956090D01*
X351175784Y-163589853D01*
X351457139Y-163589853D01*
X351457139Y-164637063D01*
X351461431Y-164735776D01*
X351488612Y-164813029D01*
X351568727Y-164877407D01*
X351720372Y-164897435D01*
X351869156Y-164877407D01*
X351949270Y-164811598D01*
X351976452Y-164732914D01*
X351980744Y-164634202D01*
X351980744Y-163844502D01*
X352235393Y-163844502D01*
X352235393Y-164373830D01*
X352239685Y-164466820D01*
X352262575Y-164535489D01*
X352331245Y-164589853D01*
X352461431Y-164605590D01*
X352588755Y-164589853D01*
X352654564Y-164534059D01*
X352677454Y-164462528D01*
X352681745Y-164368108D01*
X352681745Y-163844502D01*
X352936395Y-163844502D01*
X352936395Y-164637063D01*
X352940687Y-164735776D01*
X352967868Y-164813029D01*
X353047983Y-164877407D01*
X353199628Y-164897435D01*
X353348412Y-164877407D01*
X353428526Y-164811598D01*
X353455708Y-164732914D01*
X353460000Y-164634202D01*
X353460000Y-163581269D01*
X353439971Y-163432485D01*
X353374163Y-163352371D01*
X353295479Y-163325189D01*
X353196767Y-163320897D01*
X351717511Y-163320897D01*
X351512933Y-163379552D01*
X351457139Y-163589853D01*
X351175784Y-163589853D01*
X351175784Y-161847364D01*
X351457139Y-161847364D01*
X351457139Y-162422471D01*
X351468584Y-162538708D01*
X351502918Y-162658522D01*
X351558712Y-162777979D01*
X351634535Y-162893143D01*
X351735751Y-162995790D01*
X351867725Y-163077693D01*
X352022589Y-163131341D01*
X352192475Y-163149223D01*
X352406749Y-163121247D01*
X352591776Y-163037318D01*
X352747554Y-162897435D01*
X353022232Y-163103444D01*
X353219657Y-163180697D01*
X353388469Y-163043358D01*
X353467153Y-162840211D01*
X353334106Y-162679982D01*
X352919227Y-162373830D01*
X352919227Y-162107736D01*
X353196767Y-162107736D01*
X353295479Y-162103444D01*
X353372732Y-162076262D01*
X353437110Y-161996148D01*
X353457139Y-161844502D01*
X353437110Y-161695718D01*
X353371302Y-161615604D01*
X353292618Y-161588422D01*
X353193906Y-161584130D01*
X351717511Y-161584130D01*
X351621660Y-161588422D01*
X351542976Y-161615604D01*
X351477167Y-161695718D01*
X351457139Y-161847364D01*
X351175784Y-161847364D01*
X351175784Y-159589853D01*
X351457139Y-159589853D01*
X351477167Y-159738637D01*
X351542976Y-159818751D01*
X351621660Y-159845933D01*
X351720372Y-159850225D01*
X353013648Y-159850225D01*
X353013648Y-160548365D01*
X353017940Y-160629910D01*
X353040830Y-160695718D01*
X353108069Y-160751512D01*
X353236824Y-160768680D01*
X353362718Y-160751512D01*
X353431388Y-160695718D01*
X353455708Y-160627049D01*
X353460000Y-160545504D01*
X353460000Y-159586992D01*
X353439971Y-159438208D01*
X353374163Y-159358093D01*
X353295479Y-159330912D01*
X353196767Y-159326620D01*
X351717511Y-159326620D01*
X351621660Y-159330912D01*
X351542976Y-159358093D01*
X351477167Y-159438208D01*
X351457139Y-159589853D01*
X351175784Y-159589853D01*
X351175784Y-157961813D01*
X351457139Y-157961813D01*
X351477167Y-158110597D01*
X351542976Y-158190711D01*
X351621660Y-158217893D01*
X351720372Y-158222185D01*
X353013648Y-158222185D01*
X353013648Y-158920325D01*
X353017940Y-159001870D01*
X353040830Y-159067678D01*
X353108069Y-159123472D01*
X353236824Y-159140640D01*
X353362718Y-159123472D01*
X353431388Y-159067678D01*
X353455708Y-158999009D01*
X353460000Y-158917464D01*
X353460000Y-157958952D01*
X353439971Y-157810168D01*
X353374163Y-157730053D01*
X353295479Y-157702871D01*
X353196767Y-157698580D01*
X351717511Y-157698580D01*
X351621660Y-157702871D01*
X351542976Y-157730053D01*
X351477167Y-157810168D01*
X351457139Y-157961813D01*
X351175784Y-157961813D01*
X351175784Y-157215032D01*
X351457139Y-157215032D01*
X351477167Y-157363816D01*
X351542976Y-157443930D01*
X351621660Y-157471112D01*
X351720372Y-157475404D01*
X353199628Y-157475404D01*
X353298340Y-157471112D01*
X353375594Y-157443930D01*
X353439971Y-157363816D01*
X353460000Y-157212170D01*
X353439971Y-157063386D01*
X353374163Y-156983272D01*
X353295479Y-156956090D01*
X353196767Y-156951799D01*
X351717511Y-156951799D01*
X351621660Y-156956090D01*
X351542976Y-156983272D01*
X351477167Y-157063386D01*
X351457139Y-157215032D01*
X351175784Y-157215032D01*
X351175784Y-155303730D01*
X351454278Y-155303730D01*
X351454278Y-156611312D01*
X351458569Y-156692857D01*
X351481459Y-156757235D01*
X351548698Y-156811598D01*
X351674592Y-156828766D01*
X351800486Y-156811598D01*
X351867725Y-156755804D01*
X351890615Y-156689996D01*
X351894907Y-156608451D01*
X351894907Y-156213601D01*
X353205351Y-156213601D01*
X353301202Y-156209309D01*
X353377024Y-156182128D01*
X353439971Y-156102013D01*
X353460000Y-155953229D01*
X353439971Y-155805876D01*
X353375594Y-155728623D01*
X353298340Y-155702871D01*
X353202489Y-155698580D01*
X351894907Y-155698580D01*
X351894907Y-155300869D01*
X351890615Y-155219324D01*
X351867725Y-155154946D01*
X351800486Y-155100582D01*
X351671731Y-155083415D01*
X351547268Y-155100582D01*
X351481459Y-155156376D01*
X351458569Y-155222185D01*
X351454278Y-155303730D01*
X351175784Y-155303730D01*
X351175784Y-154239352D01*
X351425665Y-154239352D01*
X351444740Y-154455216D01*
X351501965Y-154637381D01*
X351597339Y-154785847D01*
X351744692Y-154888851D01*
X351920658Y-154820182D01*
X352059428Y-154651369D01*
X352006495Y-154459667D01*
X351979313Y-154426763D01*
X351946409Y-154386706D01*
X351924950Y-154330912D01*
X351914936Y-154236491D01*
X351950701Y-154130625D01*
X352037969Y-154084846D01*
X352130959Y-154134917D01*
X352181030Y-154247936D01*
X352216795Y-154422471D01*
X352261144Y-154605590D01*
X352335536Y-154767607D01*
X352444263Y-154893143D01*
X352599485Y-154973615D01*
X352813362Y-155000439D01*
X352949986Y-154988279D01*
X353073734Y-154951799D01*
X353266867Y-154827335D01*
X353394192Y-154651369D01*
X353467153Y-154455375D01*
X353488612Y-154265103D01*
X353475737Y-154104874D01*
X353444263Y-153970397D01*
X353397053Y-153860239D01*
X353342690Y-153771541D01*
X353286896Y-153702871D01*
X353236824Y-153652800D01*
X353196767Y-153621326D01*
X353176738Y-153604159D01*
X352990758Y-153532628D01*
X352807639Y-153652800D01*
X352741513Y-153771700D01*
X352760588Y-153895687D01*
X352864864Y-154024760D01*
X352969299Y-154140640D01*
X352996481Y-154253658D01*
X352954993Y-154422471D01*
X352821946Y-154473973D01*
X352733247Y-154399581D01*
X352666009Y-154174974D01*
X352629170Y-154038708D01*
X352590186Y-153930339D01*
X352498627Y-153770110D01*
X352375594Y-153655661D01*
X352221087Y-153586992D01*
X352035107Y-153564102D01*
X351869633Y-153585402D01*
X351724187Y-153649303D01*
X351598770Y-153755804D01*
X351502601Y-153894733D01*
X351444899Y-154055916D01*
X351425665Y-154239352D01*
X351175784Y-154239352D01*
X351175784Y-151243644D01*
X351460000Y-151243644D01*
X351477167Y-151373830D01*
X351512933Y-151446791D01*
X351571588Y-151498294D01*
X352532961Y-152213601D01*
X351711788Y-152213601D01*
X351617368Y-152219324D01*
X351541545Y-152247936D01*
X351480029Y-152328050D01*
X351460000Y-152476834D01*
X351480029Y-152625618D01*
X351545837Y-152705733D01*
X351624521Y-152732914D01*
X351723233Y-152737206D01*
X353199628Y-152737206D01*
X353298340Y-152732914D01*
X353375594Y-152705733D01*
X353439971Y-152625618D01*
X353460000Y-152473973D01*
X353444263Y-152326620D01*
X353382747Y-152242213D01*
X352404206Y-151501155D01*
X353199628Y-151501155D01*
X353298340Y-151496863D01*
X353375594Y-151469681D01*
X353439971Y-151389567D01*
X353460000Y-151237922D01*
X353439971Y-151090568D01*
X353375594Y-151013315D01*
X353296910Y-150986133D01*
X353196767Y-150980411D01*
X351711788Y-150980411D01*
X351615937Y-150986133D01*
X351540114Y-151014746D01*
X351478598Y-151093429D01*
X351460000Y-151243644D01*
X351175784Y-151243644D01*
X351175784Y-149884560D01*
X351457139Y-149884560D01*
X351495765Y-150024045D01*
X351611645Y-150122042D01*
X353096624Y-150840211D01*
X353299771Y-150878837D01*
X353439971Y-150720039D01*
X353481459Y-150508308D01*
X353316938Y-150368108D01*
X353045122Y-150236491D01*
X353045122Y-149532628D01*
X353319800Y-149401012D01*
X353478598Y-149257950D01*
X353437110Y-149049080D01*
X353298340Y-148888851D01*
X353096624Y-148926047D01*
X351608784Y-149644216D01*
X351498627Y-149744359D01*
X351457139Y-149884560D01*
X351175784Y-149884560D01*
X351175784Y-148144932D01*
X351437110Y-148144932D01*
X351454913Y-148315334D01*
X351508323Y-148490823D01*
X351597339Y-148671398D01*
X351651702Y-148748651D01*
X351711788Y-148801584D01*
X351797625Y-148828766D01*
X351957854Y-148765819D01*
X352073734Y-148658522D01*
X352112361Y-148559810D01*
X352046552Y-148405304D01*
X352033677Y-148386706D01*
X352017940Y-148362385D01*
X352002203Y-148335203D01*
X351987897Y-148296577D01*
X351976452Y-148250797D01*
X351966438Y-148193572D01*
X351963577Y-148124903D01*
X351992189Y-147961813D01*
X352076595Y-147800153D01*
X352232532Y-147672829D01*
X352339828Y-147636348D01*
X352461431Y-147624188D01*
X352617725Y-147646005D01*
X352748984Y-147711455D01*
X352849485Y-147804087D01*
X352913505Y-147907449D01*
X352959285Y-148124903D01*
X352935680Y-148275833D01*
X352864864Y-148419610D01*
X352807639Y-148562671D01*
X352848412Y-148659953D01*
X352970730Y-148762957D01*
X353136681Y-148825904D01*
X353241116Y-148785847D01*
X353328383Y-148668537D01*
X353417399Y-148498770D01*
X353470809Y-148321374D01*
X353488612Y-148136348D01*
X353480029Y-148015103D01*
X353454278Y-147885990D01*
X353408140Y-147750797D01*
X353338398Y-147611312D01*
X353248269Y-147477192D01*
X353140973Y-147358093D01*
X353008999Y-147256162D01*
X352844835Y-147173544D01*
X352655279Y-147118823D01*
X352447124Y-147100582D01*
X352246838Y-147118465D01*
X352063720Y-147172113D01*
X351904564Y-147253658D01*
X351776166Y-147355232D01*
X351671731Y-147474331D01*
X351584464Y-147608451D01*
X351516867Y-147748651D01*
X351471445Y-147885990D01*
X351445694Y-148018680D01*
X351437110Y-148144932D01*
X351175784Y-148144932D01*
X351175784Y-144800153D01*
X351454278Y-144800153D01*
X351474306Y-144950368D01*
X351538684Y-145029052D01*
X351618798Y-145057664D01*
X351720372Y-145063386D01*
X352518655Y-145063386D01*
X352720372Y-145091999D01*
X352889185Y-145206448D01*
X352946052Y-145304445D01*
X352965007Y-145426763D01*
X352934249Y-145573401D01*
X352841974Y-145687135D01*
X352698913Y-145760096D01*
X352515794Y-145784417D01*
X351703205Y-145784417D01*
X351610215Y-145790139D01*
X351535823Y-145818751D01*
X351474306Y-145898866D01*
X351454278Y-146047650D01*
X351474306Y-146196434D01*
X351541545Y-146276548D01*
X351621660Y-146303730D01*
X351720372Y-146308022D01*
X352524378Y-146308022D01*
X352697482Y-146293358D01*
X352867725Y-146249366D01*
X353029742Y-146178193D01*
X353178169Y-146081984D01*
X353305851Y-145957163D01*
X353405637Y-145800153D01*
X353470014Y-145618108D01*
X353491474Y-145418179D01*
X353469657Y-145218608D01*
X353404206Y-145037635D01*
X353302990Y-144882056D01*
X353173877Y-144758665D01*
X353024378Y-144663887D01*
X352862003Y-144594145D01*
X352691760Y-144551226D01*
X352518655Y-144536920D01*
X351717511Y-144536920D01*
X351618798Y-144541212D01*
X351540114Y-144568394D01*
X351474306Y-144648508D01*
X351454278Y-144800153D01*
X351175784Y-144800153D01*
X351175784Y-143415318D01*
X351434249Y-143415318D01*
X351452936Y-143616319D01*
X351508999Y-143801584D01*
X351602436Y-143971112D01*
X351733247Y-144124903D01*
X351891062Y-144252585D01*
X352065508Y-144343787D01*
X352256584Y-144398508D01*
X352464292Y-144416748D01*
X352668423Y-144398776D01*
X352857353Y-144344860D01*
X353031084Y-144255000D01*
X353189614Y-144129195D01*
X353321677Y-143978175D01*
X353416009Y-143812671D01*
X353472607Y-143632682D01*
X353491474Y-143438208D01*
X353472876Y-143238279D01*
X353417082Y-143053372D01*
X353324092Y-142883487D01*
X353193906Y-142728623D01*
X353037432Y-142599688D01*
X352865579Y-142507593D01*
X352678348Y-142452335D01*
X352475737Y-142433916D01*
X352266509Y-142451799D01*
X352073734Y-142505447D01*
X351897411Y-142594860D01*
X351737539Y-142720039D01*
X351604850Y-142870790D01*
X351510072Y-143036920D01*
X351453205Y-143218429D01*
X351434249Y-143415318D01*
X351175784Y-143415318D01*
X351175784Y-140937492D01*
X351431388Y-140937492D01*
X351571588Y-141091999D01*
X352183891Y-141472542D01*
X351571588Y-141870253D01*
X351431388Y-142029052D01*
X351500057Y-142239352D01*
X351664578Y-142376691D01*
X351851989Y-142313744D01*
X352704635Y-141744359D01*
X353205351Y-141744359D01*
X353304063Y-141740067D01*
X353381316Y-141712886D01*
X353445694Y-141632771D01*
X353465722Y-141481126D01*
X353445694Y-141329481D01*
X353379886Y-141249366D01*
X353299771Y-141222185D01*
X353199628Y-141217893D01*
X352704635Y-141217893D01*
X351851989Y-140648508D01*
X351660286Y-140585561D01*
X351500057Y-140725761D01*
X351439971Y-140845933D01*
X351431388Y-140937492D01*
X351175784Y-140937492D01*
X351175784Y-138519753D01*
X351457139Y-138519753D01*
X351457139Y-139566963D01*
X351461431Y-139662814D01*
X351488612Y-139740067D01*
X351568727Y-139804445D01*
X351720372Y-139824474D01*
X351870587Y-139804445D01*
X351949270Y-139738637D01*
X351976452Y-139659953D01*
X351980744Y-139561241D01*
X351980744Y-138774402D01*
X352235393Y-138774402D01*
X352235393Y-139300869D01*
X352239685Y-139393859D01*
X352264006Y-139462528D01*
X352332675Y-139516892D01*
X352464292Y-139532628D01*
X352588755Y-139516892D01*
X352654564Y-139461098D01*
X352677454Y-139390997D01*
X352681745Y-139298007D01*
X352681745Y-138774402D01*
X353199628Y-138774402D01*
X353298340Y-138770110D01*
X353375594Y-138742929D01*
X353439971Y-138662814D01*
X353460000Y-138511169D01*
X353439971Y-138362385D01*
X353374163Y-138282271D01*
X353295479Y-138255089D01*
X353196767Y-138250797D01*
X351717511Y-138250797D01*
X351512933Y-138309452D01*
X351457139Y-138519753D01*
X351175784Y-138519753D01*
X351175784Y-137801584D01*
X351457139Y-137801584D01*
X351477167Y-137950368D01*
X351542976Y-138030482D01*
X351621660Y-138057664D01*
X351720372Y-138061956D01*
X353199628Y-138061956D01*
X353298340Y-138057664D01*
X353375594Y-138030482D01*
X353439971Y-137950368D01*
X353460000Y-137798723D01*
X353439971Y-137649939D01*
X353374163Y-137569824D01*
X353295479Y-137542643D01*
X353196767Y-137538351D01*
X351717511Y-137538351D01*
X351621660Y-137542643D01*
X351542976Y-137569824D01*
X351477167Y-137649939D01*
X351457139Y-137801584D01*
X351175784Y-137801584D01*
X351175784Y-137538351D01*
X351175784Y-137299915D01*
X351181968Y-137174040D01*
X351200460Y-137049377D01*
X351231082Y-136927127D01*
X351273540Y-136808467D01*
X351327423Y-136694540D01*
X351392214Y-136586443D01*
X351467288Y-136485217D01*
X351551922Y-136391837D01*
X351645302Y-136307203D01*
X351746528Y-136232129D01*
X351854625Y-136167338D01*
X351968552Y-136113454D01*
X352087212Y-136070997D01*
X352209462Y-136040375D01*
X352334125Y-136021883D01*
X352460000Y-136015699D01*
X352585875Y-136021883D01*
X352710538Y-136040375D01*
X352832788Y-136070997D01*
X352951448Y-136113454D01*
X353065375Y-136167338D01*
X353173472Y-136232129D01*
X353274698Y-136307203D01*
X353368078Y-136391837D01*
X353452712Y-136485217D01*
X353527786Y-136586443D01*
X353592577Y-136694540D01*
X353646460Y-136808467D01*
X353688918Y-136927127D01*
X353719540Y-137049377D01*
X353738032Y-137174040D01*
X353744216Y-137299915D01*
X353744216Y-137538351D01*
X353744216Y-137798723D01*
X353744216Y-138511169D01*
G37*
%TO.C,kibuzzard-67C38056*%
G36*
X339039089Y-231697554D02*
G01*
X339190734Y-231808069D01*
X339293739Y-231971516D01*
X339328073Y-232167153D01*
X339293381Y-232358856D01*
X339189304Y-232521946D01*
X339038016Y-232633534D01*
X338861693Y-232670730D01*
X338679647Y-232634607D01*
X338528360Y-232526237D01*
X338426428Y-232364220D01*
X338392451Y-232167153D01*
X338426786Y-231971516D01*
X338529790Y-231808069D01*
X338680720Y-231697554D01*
X338858832Y-231660715D01*
X339039089Y-231697554D01*
G37*
G36*
X344752779Y-230893358D02*
G01*
X344876331Y-230911685D01*
X344997492Y-230942034D01*
X345115094Y-230984113D01*
X345228006Y-231037517D01*
X345335139Y-231101730D01*
X345435463Y-231176135D01*
X345528010Y-231260015D01*
X345611891Y-231352563D01*
X345686296Y-231452887D01*
X345750509Y-231560020D01*
X345803912Y-231672932D01*
X345845991Y-231790534D01*
X345876340Y-231911695D01*
X345894668Y-232035247D01*
X345900796Y-232160000D01*
X345894668Y-232284753D01*
X345876340Y-232408305D01*
X345845991Y-232529466D01*
X345803912Y-232647068D01*
X345750509Y-232759980D01*
X345686296Y-232867113D01*
X345611891Y-232967437D01*
X345528010Y-233059985D01*
X345435463Y-233143865D01*
X345335139Y-233218270D01*
X345228006Y-233282483D01*
X345115094Y-233335887D01*
X344997492Y-233377966D01*
X344876331Y-233408315D01*
X344752779Y-233426642D01*
X344628026Y-233432771D01*
X344389590Y-233432771D01*
X343519776Y-233432771D01*
X341771564Y-233432771D01*
X338847387Y-233432771D01*
X337868846Y-233432771D01*
X337391974Y-233432771D01*
X337267221Y-233426642D01*
X337143669Y-233408315D01*
X337022508Y-233377966D01*
X336904906Y-233335887D01*
X336791994Y-233282483D01*
X336684861Y-233218270D01*
X336584537Y-233143865D01*
X336491990Y-233059985D01*
X336408109Y-232967437D01*
X336333704Y-232867113D01*
X336269491Y-232759980D01*
X336216088Y-232647068D01*
X336174009Y-232529466D01*
X336143660Y-232408305D01*
X336125332Y-232284753D01*
X336119555Y-232167153D01*
X337868846Y-232167153D01*
X337886818Y-232371284D01*
X337940734Y-232560215D01*
X338030595Y-232733945D01*
X338156400Y-232892475D01*
X338307419Y-233024539D01*
X338472923Y-233118870D01*
X338652912Y-233175469D01*
X338847387Y-233194335D01*
X339047315Y-233175737D01*
X339232222Y-233119943D01*
X339402108Y-233026953D01*
X339556972Y-232896767D01*
X339685906Y-232740293D01*
X339778002Y-232568441D01*
X339833259Y-232381209D01*
X339851679Y-232178598D01*
X339833796Y-231969371D01*
X339780148Y-231776595D01*
X339690734Y-231600272D01*
X339565556Y-231440401D01*
X339414804Y-231307711D01*
X339396624Y-231297339D01*
X339947530Y-231297339D01*
X339963267Y-231506209D01*
X340475427Y-232982604D01*
X340564840Y-233115651D01*
X340724354Y-233160000D01*
X340845956Y-233134249D01*
X340926071Y-233069871D01*
X340963267Y-233009785D01*
X340979003Y-232968298D01*
X341247959Y-232087039D01*
X341516915Y-232965436D01*
X341609189Y-233111359D01*
X341771564Y-233160000D01*
X341914626Y-233118512D01*
X341991879Y-233044120D01*
X342017630Y-232982604D01*
X342532651Y-231506209D01*
X342540481Y-231377454D01*
X342644239Y-231377454D01*
X342661407Y-231503348D01*
X342717201Y-231570587D01*
X342783009Y-231593476D01*
X342864554Y-231597768D01*
X343259404Y-231597768D01*
X343259404Y-232908212D01*
X343263696Y-233004063D01*
X343290877Y-233079886D01*
X343370992Y-233142833D01*
X343519776Y-233162861D01*
X343667129Y-233142833D01*
X343744382Y-233078455D01*
X343770134Y-233001202D01*
X343774425Y-232905351D01*
X343774425Y-231597768D01*
X344172136Y-231597768D01*
X344253681Y-231593476D01*
X344318059Y-231570587D01*
X344372423Y-231503348D01*
X344389590Y-231374592D01*
X344372423Y-231250129D01*
X344316629Y-231184320D01*
X344250820Y-231161431D01*
X344169275Y-231157139D01*
X342861693Y-231157139D01*
X342780148Y-231161431D01*
X342715770Y-231184320D01*
X342661407Y-231251559D01*
X342644239Y-231377454D01*
X342540481Y-231377454D01*
X342545527Y-231294478D01*
X342366700Y-231174306D01*
X342153538Y-231161431D01*
X342037659Y-231337396D01*
X341740091Y-232207210D01*
X341505470Y-231351702D01*
X341418202Y-231207926D01*
X341253681Y-231160000D01*
X341170706Y-231167153D01*
X341107759Y-231191474D01*
X341063410Y-231222947D01*
X341031936Y-231260143D01*
X341013338Y-231295908D01*
X340999032Y-231331674D01*
X340990448Y-231354564D01*
X340755827Y-232212933D01*
X340458259Y-231337396D01*
X340342380Y-231160000D01*
X340126357Y-231171445D01*
X339947530Y-231297339D01*
X339396624Y-231297339D01*
X339248674Y-231212933D01*
X339067165Y-231156066D01*
X338870277Y-231137110D01*
X338669275Y-231155798D01*
X338484010Y-231211860D01*
X338314483Y-231305297D01*
X338160691Y-231436109D01*
X338033009Y-231593923D01*
X337941807Y-231768369D01*
X337887086Y-231959446D01*
X337868846Y-232167153D01*
X336119555Y-232167153D01*
X336119204Y-232160000D01*
X336125332Y-232035247D01*
X336143660Y-231911695D01*
X336174009Y-231790534D01*
X336216088Y-231672932D01*
X336269491Y-231560020D01*
X336333704Y-231452887D01*
X336408109Y-231352563D01*
X336491990Y-231260015D01*
X336584537Y-231176135D01*
X336684861Y-231101730D01*
X336791994Y-231037517D01*
X336904906Y-230984113D01*
X337022508Y-230942034D01*
X337143669Y-230911685D01*
X337267221Y-230893358D01*
X337391974Y-230887229D01*
X337868846Y-230887229D01*
X344389590Y-230887229D01*
X344628026Y-230887229D01*
X344752779Y-230893358D01*
G37*
%TO.C,kibuzzard-67C38B05*%
G36*
X343742546Y-222332961D02*
G01*
X343473591Y-222332961D01*
X343608068Y-222055422D01*
X343742546Y-222332961D01*
G37*
G36*
X338366294Y-222132675D02*
G01*
X338051559Y-222132675D01*
X337914220Y-222081173D01*
X337848412Y-221923805D01*
X337909928Y-221775021D01*
X338057282Y-221714935D01*
X338366294Y-221714935D01*
X338366294Y-222132675D01*
G37*
G36*
X314872732Y-222667725D02*
G01*
X314640973Y-222667725D01*
X314460000Y-222633033D01*
X314306209Y-222528955D01*
X314201058Y-222375522D01*
X314166008Y-222192761D01*
X314201058Y-222009642D01*
X314306209Y-221855136D01*
X314460715Y-221749986D01*
X314643834Y-221714935D01*
X314872732Y-221714935D01*
X314872732Y-222667725D01*
G37*
G36*
X341985751Y-222667725D02*
G01*
X341753991Y-222667725D01*
X341573018Y-222633033D01*
X341419227Y-222528955D01*
X341314077Y-222375522D01*
X341279027Y-222192761D01*
X341314077Y-222009642D01*
X341419227Y-221855136D01*
X341573734Y-221749986D01*
X341756852Y-221714935D01*
X341985751Y-221714935D01*
X341985751Y-222667725D01*
G37*
G36*
X331871302Y-221728884D02*
G01*
X332022947Y-221839399D01*
X332125951Y-222002847D01*
X332160286Y-222198483D01*
X332125593Y-222390186D01*
X332021516Y-222553276D01*
X331870229Y-222664864D01*
X331693905Y-222702060D01*
X331511860Y-222665937D01*
X331360572Y-222557568D01*
X331258641Y-222395551D01*
X331224664Y-222198483D01*
X331258998Y-222002847D01*
X331362003Y-221839399D01*
X331512932Y-221728884D01*
X331691044Y-221692046D01*
X331871302Y-221728884D01*
G37*
G36*
X346632763Y-220927577D02*
G01*
X346756870Y-220945987D01*
X346878575Y-220976472D01*
X346996707Y-221018740D01*
X347110126Y-221072384D01*
X347217741Y-221136886D01*
X347318516Y-221211625D01*
X347411480Y-221295883D01*
X347495737Y-221388847D01*
X347570477Y-221489621D01*
X347634979Y-221597237D01*
X347688622Y-221710656D01*
X347730890Y-221828787D01*
X347761376Y-221950492D01*
X347779785Y-222074600D01*
X347785942Y-222199914D01*
X347779785Y-222325228D01*
X347761376Y-222449336D01*
X347730890Y-222571041D01*
X347688622Y-222689172D01*
X347634979Y-222802591D01*
X347570477Y-222910207D01*
X347495737Y-223010981D01*
X347411480Y-223103945D01*
X347318516Y-223188203D01*
X347217741Y-223262942D01*
X347110126Y-223327444D01*
X346996707Y-223381088D01*
X346878575Y-223423356D01*
X346756870Y-223453841D01*
X346632763Y-223472251D01*
X346507448Y-223478407D01*
X346269013Y-223478407D01*
X346008641Y-223478407D01*
X342981459Y-223478407D01*
X342248984Y-223478407D01*
X340346266Y-223478407D01*
X337633819Y-223478407D01*
X336486466Y-223478407D01*
X334701058Y-223478407D01*
X331679599Y-223478407D01*
X329699628Y-223478407D01*
X328392045Y-223478407D01*
X325899914Y-223478407D01*
X323396337Y-223478407D01*
X322137396Y-223478407D01*
X320277596Y-223478407D01*
X319158855Y-223478407D01*
X316935679Y-223478407D01*
X315819799Y-223478407D01*
X315135965Y-223478407D01*
X313233247Y-223478407D01*
X311917081Y-223478407D01*
X311440210Y-223478407D01*
X311314895Y-223472251D01*
X311190788Y-223453841D01*
X311069083Y-223423356D01*
X310950951Y-223381088D01*
X310837532Y-223327444D01*
X310729917Y-223262942D01*
X310629142Y-223188203D01*
X310536178Y-223103945D01*
X310451921Y-223010981D01*
X310377181Y-222910207D01*
X310312679Y-222802591D01*
X310259036Y-222689172D01*
X310216768Y-222571041D01*
X310186282Y-222449336D01*
X310167873Y-222325228D01*
X310161716Y-222199914D01*
X310167873Y-222074600D01*
X310186282Y-221950492D01*
X310216768Y-221828787D01*
X310259036Y-221710656D01*
X310312679Y-221597237D01*
X310377181Y-221489621D01*
X310403182Y-221454563D01*
X311917081Y-221454563D01*
X311937110Y-221603347D01*
X312002918Y-221683462D01*
X312081602Y-221710644D01*
X312180314Y-221714935D01*
X312970014Y-221714935D01*
X312970014Y-221969585D01*
X312440686Y-221969585D01*
X312347696Y-221973877D01*
X312279027Y-221996767D01*
X312224664Y-222065436D01*
X312208927Y-222195622D01*
X312224664Y-222322947D01*
X312280458Y-222388755D01*
X312351988Y-222411645D01*
X312446409Y-222415937D01*
X312970014Y-222415937D01*
X312970014Y-222670586D01*
X312177453Y-222670586D01*
X312078741Y-222674878D01*
X312001488Y-222702060D01*
X311937110Y-222782174D01*
X311917081Y-222933820D01*
X311937110Y-223082604D01*
X312002918Y-223162718D01*
X312081602Y-223189900D01*
X312180314Y-223194192D01*
X313233247Y-223194192D01*
X313382031Y-223174163D01*
X313462146Y-223108355D01*
X313489327Y-223029671D01*
X313493619Y-222930958D01*
X313493619Y-222181316D01*
X313642403Y-222181316D01*
X313660822Y-222382586D01*
X313716080Y-222568655D01*
X313808176Y-222739524D01*
X313937110Y-222895193D01*
X314092153Y-223024753D01*
X314262575Y-223117296D01*
X314448376Y-223172822D01*
X314649556Y-223191330D01*
X315135965Y-223191330D01*
X315280458Y-223171302D01*
X315359141Y-223109785D01*
X315389184Y-223029671D01*
X315396337Y-222928097D01*
X315396337Y-221454563D01*
X315556566Y-221454563D01*
X315556566Y-222933820D01*
X315560858Y-223032532D01*
X315588040Y-223109785D01*
X315668154Y-223174163D01*
X315819799Y-223194192D01*
X315968583Y-223174163D01*
X316048698Y-223108355D01*
X316075880Y-223029671D01*
X316080171Y-222930958D01*
X316080171Y-222547553D01*
X316200343Y-222547553D01*
X316212503Y-222684177D01*
X316248984Y-222807925D01*
X316373448Y-223001058D01*
X316549413Y-223128383D01*
X316745407Y-223201345D01*
X316935679Y-223222804D01*
X317095908Y-223209928D01*
X317230386Y-223178455D01*
X317340543Y-223131244D01*
X317429241Y-223076881D01*
X317497911Y-223021087D01*
X317547983Y-222971016D01*
X317579456Y-222930958D01*
X317596623Y-222910930D01*
X317668154Y-222724950D01*
X317551738Y-222547553D01*
X318423519Y-222547553D01*
X318435679Y-222684177D01*
X318472160Y-222807925D01*
X318596623Y-223001058D01*
X318772589Y-223128383D01*
X318968583Y-223201345D01*
X319158855Y-223222804D01*
X319319084Y-223209928D01*
X319453562Y-223178455D01*
X319563719Y-223131244D01*
X319652417Y-223076881D01*
X319721087Y-223021087D01*
X319771159Y-222971016D01*
X319802632Y-222930958D01*
X319819799Y-222910930D01*
X319891330Y-222724950D01*
X319771159Y-222541831D01*
X319652259Y-222475705D01*
X319528272Y-222494780D01*
X319399199Y-222599056D01*
X319283319Y-222703491D01*
X319170300Y-222730672D01*
X319001488Y-222689184D01*
X318949985Y-222556137D01*
X319024377Y-222467439D01*
X319248984Y-222400200D01*
X319385250Y-222363362D01*
X319493619Y-222324378D01*
X319653848Y-222232818D01*
X319768297Y-222109785D01*
X319836967Y-221955279D01*
X319859857Y-221769299D01*
X319838556Y-221603824D01*
X319774656Y-221458378D01*
X319771416Y-221454563D01*
X320014363Y-221454563D01*
X320014363Y-222933820D01*
X320018655Y-223032532D01*
X320045837Y-223109785D01*
X320125951Y-223174163D01*
X320277596Y-223194192D01*
X320426380Y-223174163D01*
X320506495Y-223108355D01*
X320533676Y-223029671D01*
X320537968Y-222930958D01*
X320537968Y-221454563D01*
X320698197Y-221454563D01*
X320698197Y-222930958D01*
X320702489Y-223029671D01*
X320729671Y-223106924D01*
X320809785Y-223171302D01*
X320961430Y-223191330D01*
X321110214Y-223171302D01*
X321190329Y-223105493D01*
X321217510Y-223026810D01*
X321221802Y-222928097D01*
X321221802Y-222415937D01*
X321874163Y-222415937D01*
X321874163Y-222930958D01*
X321878455Y-223029671D01*
X321905636Y-223106924D01*
X321985751Y-223171302D01*
X322137396Y-223191330D01*
X322286180Y-223171302D01*
X322366294Y-223105493D01*
X322393476Y-223026810D01*
X322397768Y-222928097D01*
X322397768Y-221451702D01*
X322395846Y-221408784D01*
X322520801Y-221408784D01*
X322537968Y-221534678D01*
X322593762Y-221601917D01*
X322659571Y-221624807D01*
X322741116Y-221629099D01*
X323135965Y-221629099D01*
X323135965Y-222939542D01*
X323140257Y-223035393D01*
X323167439Y-223111216D01*
X323247553Y-223174163D01*
X323396337Y-223194192D01*
X323543691Y-223174163D01*
X323620944Y-223109785D01*
X323646695Y-223032532D01*
X323650987Y-222936681D01*
X323650987Y-221629099D01*
X324048698Y-221629099D01*
X324130243Y-221624807D01*
X324194621Y-221601917D01*
X324248984Y-221534678D01*
X324265770Y-221408784D01*
X325024377Y-221408784D01*
X325041545Y-221534678D01*
X325097339Y-221601917D01*
X325163147Y-221624807D01*
X325244692Y-221629099D01*
X325639542Y-221629099D01*
X325639542Y-222939542D01*
X325643834Y-223035393D01*
X325671015Y-223111216D01*
X325751130Y-223174163D01*
X325899914Y-223194192D01*
X326047267Y-223174163D01*
X326124520Y-223109785D01*
X326150272Y-223032532D01*
X326154563Y-222936681D01*
X326154563Y-221629099D01*
X326552274Y-221629099D01*
X326633819Y-221624807D01*
X326698197Y-221601917D01*
X326752561Y-221534678D01*
X326762861Y-221457425D01*
X326892761Y-221457425D01*
X326892761Y-222933820D01*
X326897053Y-223032532D01*
X326924234Y-223109785D01*
X327004349Y-223174163D01*
X327155994Y-223194192D01*
X327303347Y-223178455D01*
X327387754Y-223116938D01*
X328128812Y-222138398D01*
X328128812Y-222933820D01*
X328133104Y-223032532D01*
X328160286Y-223109785D01*
X328240400Y-223174163D01*
X328392045Y-223194192D01*
X328539399Y-223174163D01*
X328616652Y-223109785D01*
X328643834Y-223031101D01*
X328649556Y-222930958D01*
X328649556Y-221454563D01*
X328809785Y-221454563D01*
X328809785Y-222258569D01*
X328824449Y-222431674D01*
X328868440Y-222601917D01*
X328939613Y-222763934D01*
X329035822Y-222912360D01*
X329160643Y-223040043D01*
X329317654Y-223139828D01*
X329499699Y-223204206D01*
X329699628Y-223225665D01*
X329899199Y-223203848D01*
X330080171Y-223138398D01*
X330235751Y-223037182D01*
X330359141Y-222908069D01*
X330453920Y-222758569D01*
X330523662Y-222596194D01*
X330566581Y-222425951D01*
X330580887Y-222252847D01*
X330580887Y-222198483D01*
X330701058Y-222198483D01*
X330719030Y-222402614D01*
X330772947Y-222591545D01*
X330862807Y-222765275D01*
X330988612Y-222923805D01*
X331139631Y-223055869D01*
X331305136Y-223150200D01*
X331485125Y-223206799D01*
X331679599Y-223225665D01*
X331879528Y-223207067D01*
X332064435Y-223151273D01*
X332234320Y-223058283D01*
X332389184Y-222928097D01*
X332518118Y-222771624D01*
X332610214Y-222599771D01*
X332665472Y-222412539D01*
X332683891Y-222209928D01*
X332666008Y-222000701D01*
X332612360Y-221807925D01*
X332522947Y-221631602D01*
X332397768Y-221471731D01*
X332381515Y-221457425D01*
X332804063Y-221457425D01*
X332804063Y-222933820D01*
X332809785Y-223031101D01*
X332838397Y-223108355D01*
X332917081Y-223171302D01*
X333067296Y-223191330D01*
X333216080Y-223171302D01*
X333296194Y-223105493D01*
X333323376Y-223026810D01*
X333327668Y-222928097D01*
X333327668Y-222115508D01*
X333662432Y-222570443D01*
X333679599Y-222593333D01*
X333706781Y-222624807D01*
X333743977Y-222653419D01*
X333804063Y-222679170D01*
X333882747Y-222687754D01*
X334011502Y-222658426D01*
X334105922Y-222570443D01*
X334437825Y-222118369D01*
X334437825Y-222933820D01*
X334442117Y-223029671D01*
X334469299Y-223106924D01*
X334549413Y-223171302D01*
X334701058Y-223191330D01*
X334848412Y-223171302D01*
X334925665Y-223106924D01*
X334952847Y-223028240D01*
X334958569Y-222928097D01*
X334958569Y-222547553D01*
X335751130Y-222547553D01*
X335763290Y-222684177D01*
X335799771Y-222807925D01*
X335924234Y-223001058D01*
X336100200Y-223128383D01*
X336296194Y-223201345D01*
X336486466Y-223222804D01*
X336646695Y-223209928D01*
X336781173Y-223178455D01*
X336891330Y-223131244D01*
X336980028Y-223076881D01*
X337048698Y-223021087D01*
X337098769Y-222971016D01*
X337112258Y-222953848D01*
X337293333Y-222953848D01*
X337430672Y-223122661D01*
X337633819Y-223201345D01*
X337794048Y-223068297D01*
X338100200Y-222653419D01*
X338366294Y-222653419D01*
X338366294Y-222930958D01*
X338370586Y-223029671D01*
X338397768Y-223106924D01*
X338477882Y-223171302D01*
X338629528Y-223191330D01*
X338778312Y-223171302D01*
X338858426Y-223105493D01*
X338885608Y-223026810D01*
X338889900Y-222928097D01*
X338889900Y-221454563D01*
X339030100Y-221454563D01*
X339050128Y-221603347D01*
X339115937Y-221683462D01*
X339194621Y-221710644D01*
X339293333Y-221714935D01*
X340083033Y-221714935D01*
X340083033Y-221969585D01*
X339553705Y-221969585D01*
X339460715Y-221973877D01*
X339392045Y-221996767D01*
X339337682Y-222065436D01*
X339321945Y-222195622D01*
X339337682Y-222322947D01*
X339393476Y-222388755D01*
X339465007Y-222411645D01*
X339559427Y-222415937D01*
X340083033Y-222415937D01*
X340083033Y-222670586D01*
X339290472Y-222670586D01*
X339191759Y-222674878D01*
X339114506Y-222702060D01*
X339050128Y-222782174D01*
X339030100Y-222933820D01*
X339050128Y-223082604D01*
X339115937Y-223162718D01*
X339194621Y-223189900D01*
X339293333Y-223194192D01*
X340346266Y-223194192D01*
X340495050Y-223174163D01*
X340575164Y-223108355D01*
X340602346Y-223029671D01*
X340606638Y-222930958D01*
X340606638Y-222181316D01*
X340755422Y-222181316D01*
X340773841Y-222382586D01*
X340829098Y-222568655D01*
X340921194Y-222739524D01*
X341050128Y-222895193D01*
X341205171Y-223024753D01*
X341375593Y-223117296D01*
X341561395Y-223172822D01*
X341762575Y-223191330D01*
X342248984Y-223191330D01*
X342393476Y-223171302D01*
X342472160Y-223109785D01*
X342500593Y-223033963D01*
X342610930Y-223033963D01*
X342769728Y-223174163D01*
X342981459Y-223215651D01*
X343121659Y-223051130D01*
X343253276Y-222779313D01*
X343957138Y-222779313D01*
X344088755Y-223053991D01*
X344231817Y-223212790D01*
X344440686Y-223171302D01*
X344600915Y-223032532D01*
X344563719Y-222830815D01*
X343899413Y-221454563D01*
X344695336Y-221454563D01*
X344715365Y-221604778D01*
X344781173Y-221683462D01*
X344859857Y-221710644D01*
X344958569Y-221714935D01*
X345745407Y-221714935D01*
X345745407Y-221969585D01*
X345218941Y-221969585D01*
X345125951Y-221973877D01*
X345057282Y-221998197D01*
X345002918Y-222066867D01*
X344987181Y-222198483D01*
X345002918Y-222322947D01*
X345058712Y-222388755D01*
X345128812Y-222411645D01*
X345221802Y-222415937D01*
X345745407Y-222415937D01*
X345745407Y-222933820D01*
X345749699Y-223032532D01*
X345776881Y-223109785D01*
X345856995Y-223174163D01*
X346008641Y-223194192D01*
X346157425Y-223174163D01*
X346237539Y-223108355D01*
X346264721Y-223029671D01*
X346269013Y-222930958D01*
X346269013Y-221451702D01*
X346210357Y-221247124D01*
X346000057Y-221191330D01*
X344952847Y-221191330D01*
X344856995Y-221195622D01*
X344779742Y-221222804D01*
X344715365Y-221302918D01*
X344695336Y-221454563D01*
X343899413Y-221454563D01*
X343845551Y-221342976D01*
X343745407Y-221232818D01*
X343605207Y-221191330D01*
X343465722Y-221229957D01*
X343367725Y-221345837D01*
X342649556Y-222830815D01*
X342610930Y-223033963D01*
X342500593Y-223033963D01*
X342502203Y-223029671D01*
X342509356Y-222928097D01*
X342509356Y-221448841D01*
X342505064Y-221352990D01*
X342477882Y-221274306D01*
X342397768Y-221209928D01*
X342246123Y-221191330D01*
X341753991Y-221191330D01*
X341556566Y-221209571D01*
X341373448Y-221264292D01*
X341204635Y-221355493D01*
X341050128Y-221483176D01*
X340921194Y-221636252D01*
X340829098Y-221803634D01*
X340773841Y-221985322D01*
X340755422Y-222181316D01*
X340606638Y-222181316D01*
X340606638Y-221451702D01*
X340547983Y-221247124D01*
X340337682Y-221191330D01*
X339290472Y-221191330D01*
X339191759Y-221195622D01*
X339114506Y-221222804D01*
X339050128Y-221302918D01*
X339030100Y-221454563D01*
X338889900Y-221454563D01*
X338889900Y-221451702D01*
X338885608Y-221355851D01*
X338858426Y-221277167D01*
X338778312Y-221211359D01*
X338626666Y-221191330D01*
X338051559Y-221191330D01*
X337935322Y-221202775D01*
X337815508Y-221237110D01*
X337696051Y-221292904D01*
X337580887Y-221368727D01*
X337478240Y-221469943D01*
X337396337Y-221601917D01*
X337342689Y-221756781D01*
X337324807Y-221926667D01*
X337352783Y-222140941D01*
X337436712Y-222325967D01*
X337576595Y-222481745D01*
X337370586Y-222756423D01*
X337293333Y-222953848D01*
X337112258Y-222953848D01*
X337130243Y-222930958D01*
X337147410Y-222910930D01*
X337218941Y-222724950D01*
X337098769Y-222541831D01*
X336979869Y-222475705D01*
X336855883Y-222494780D01*
X336726809Y-222599056D01*
X336610930Y-222703491D01*
X336497911Y-222730672D01*
X336329098Y-222689184D01*
X336277596Y-222556137D01*
X336351988Y-222467439D01*
X336576595Y-222400200D01*
X336712861Y-222363362D01*
X336821230Y-222324378D01*
X336981459Y-222232818D01*
X337095908Y-222109785D01*
X337164578Y-221955279D01*
X337187468Y-221769299D01*
X337166167Y-221603824D01*
X337102266Y-221458378D01*
X336995765Y-221332961D01*
X336856836Y-221236792D01*
X336695654Y-221179091D01*
X336512217Y-221159857D01*
X336296353Y-221178932D01*
X336114188Y-221236156D01*
X335965722Y-221331531D01*
X335862718Y-221478884D01*
X335931387Y-221654850D01*
X336100200Y-221793619D01*
X336291902Y-221740687D01*
X336324807Y-221713505D01*
X336364864Y-221680601D01*
X336420658Y-221659141D01*
X336515078Y-221649127D01*
X336620944Y-221684893D01*
X336666724Y-221772160D01*
X336616652Y-221865150D01*
X336503633Y-221915222D01*
X336329098Y-221950987D01*
X336145980Y-221995336D01*
X335983963Y-222069728D01*
X335858426Y-222178455D01*
X335777954Y-222333677D01*
X335751130Y-222547553D01*
X334958569Y-222547553D01*
X334958569Y-221451702D01*
X334954277Y-221355851D01*
X334927096Y-221278598D01*
X334846981Y-221214220D01*
X334695336Y-221194192D01*
X334619513Y-221198483D01*
X334568011Y-221205636D01*
X334530815Y-221218512D01*
X334506495Y-221232818D01*
X334485035Y-221254277D01*
X334466437Y-221274306D01*
X333882747Y-222023948D01*
X333301917Y-221277167D01*
X333216080Y-221211359D01*
X333064435Y-221194192D01*
X332915651Y-221214220D01*
X332836967Y-221278598D01*
X332809785Y-221357282D01*
X332804063Y-221457425D01*
X332381515Y-221457425D01*
X332247017Y-221339041D01*
X332080887Y-221244263D01*
X331899377Y-221187396D01*
X331702489Y-221168440D01*
X331501488Y-221187128D01*
X331316223Y-221243190D01*
X331146695Y-221336627D01*
X330992904Y-221467439D01*
X330865221Y-221625254D01*
X330774020Y-221799699D01*
X330719299Y-221990776D01*
X330701058Y-222198483D01*
X330580887Y-222198483D01*
X330580887Y-221451702D01*
X330576595Y-221352990D01*
X330549413Y-221274306D01*
X330469299Y-221208498D01*
X330317654Y-221188469D01*
X330167439Y-221208498D01*
X330088755Y-221272875D01*
X330060143Y-221352990D01*
X330054420Y-221454563D01*
X330054420Y-222252847D01*
X330025808Y-222454563D01*
X329911359Y-222623376D01*
X329813362Y-222680243D01*
X329691044Y-222699199D01*
X329544406Y-222668440D01*
X329430672Y-222576166D01*
X329357711Y-222433104D01*
X329333390Y-222249986D01*
X329333390Y-221437396D01*
X329327668Y-221344406D01*
X329299056Y-221270014D01*
X329218941Y-221208498D01*
X329070157Y-221188469D01*
X328921373Y-221208498D01*
X328841259Y-221275737D01*
X328814077Y-221355851D01*
X328809785Y-221454563D01*
X328649556Y-221454563D01*
X328649556Y-221445980D01*
X328643834Y-221350129D01*
X328615221Y-221274306D01*
X328536538Y-221212790D01*
X328386323Y-221194192D01*
X328256137Y-221211359D01*
X328183176Y-221247124D01*
X328131674Y-221305780D01*
X327416366Y-222267153D01*
X327416366Y-221445980D01*
X327410643Y-221351559D01*
X327382031Y-221275737D01*
X327301917Y-221214220D01*
X327153133Y-221194192D01*
X327004349Y-221214220D01*
X326924234Y-221280028D01*
X326897053Y-221358712D01*
X326892761Y-221457425D01*
X326762861Y-221457425D01*
X326769728Y-221405923D01*
X326752561Y-221281459D01*
X326696767Y-221215651D01*
X326630958Y-221192761D01*
X326549413Y-221188469D01*
X325241831Y-221188469D01*
X325160286Y-221192761D01*
X325095908Y-221215651D01*
X325041545Y-221282890D01*
X325024377Y-221408784D01*
X324265770Y-221408784D01*
X324266151Y-221405923D01*
X324248984Y-221281459D01*
X324193190Y-221215651D01*
X324127382Y-221192761D01*
X324045837Y-221188469D01*
X322738254Y-221188469D01*
X322656709Y-221192761D01*
X322592332Y-221215651D01*
X322537968Y-221282890D01*
X322520801Y-221408784D01*
X322395846Y-221408784D01*
X322393476Y-221355851D01*
X322366294Y-221277167D01*
X322286180Y-221211359D01*
X322134535Y-221191330D01*
X321985751Y-221211359D01*
X321905636Y-221277167D01*
X321878455Y-221355851D01*
X321874163Y-221454563D01*
X321874163Y-221969585D01*
X321221802Y-221969585D01*
X321221802Y-221451702D01*
X321217510Y-221355851D01*
X321190329Y-221277167D01*
X321110214Y-221211359D01*
X320958569Y-221191330D01*
X320809785Y-221211359D01*
X320729671Y-221277167D01*
X320702489Y-221355851D01*
X320698197Y-221454563D01*
X320537968Y-221454563D01*
X320537968Y-221451702D01*
X320533676Y-221355851D01*
X320506495Y-221277167D01*
X320426380Y-221211359D01*
X320274735Y-221191330D01*
X320125951Y-221211359D01*
X320045837Y-221277167D01*
X320018655Y-221355851D01*
X320014363Y-221454563D01*
X319771416Y-221454563D01*
X319668154Y-221332961D01*
X319529226Y-221236792D01*
X319368043Y-221179091D01*
X319184606Y-221159857D01*
X318968742Y-221178932D01*
X318786577Y-221236156D01*
X318638111Y-221331531D01*
X318535107Y-221478884D01*
X318603777Y-221654850D01*
X318772589Y-221793619D01*
X318964292Y-221740687D01*
X318997196Y-221713505D01*
X319037253Y-221680601D01*
X319093047Y-221659141D01*
X319187468Y-221649127D01*
X319293333Y-221684893D01*
X319339113Y-221772160D01*
X319289041Y-221865150D01*
X319176023Y-221915222D01*
X319001488Y-221950987D01*
X318818369Y-221995336D01*
X318656352Y-222069728D01*
X318530815Y-222178455D01*
X318450343Y-222333677D01*
X318423519Y-222547553D01*
X317551738Y-222547553D01*
X317547983Y-222541831D01*
X317429083Y-222475705D01*
X317305096Y-222494780D01*
X317176023Y-222599056D01*
X317060143Y-222703491D01*
X316947124Y-222730672D01*
X316778312Y-222689184D01*
X316726809Y-222556137D01*
X316801201Y-222467439D01*
X317025808Y-222400200D01*
X317162074Y-222363362D01*
X317270443Y-222324378D01*
X317430672Y-222232818D01*
X317545121Y-222109785D01*
X317613791Y-221955279D01*
X317636681Y-221769299D01*
X317615380Y-221603824D01*
X317551480Y-221458378D01*
X317444978Y-221332961D01*
X317306050Y-221236792D01*
X317144867Y-221179091D01*
X316961430Y-221159857D01*
X316745566Y-221178932D01*
X316563401Y-221236156D01*
X316414935Y-221331531D01*
X316311931Y-221478884D01*
X316380601Y-221654850D01*
X316549413Y-221793619D01*
X316741116Y-221740687D01*
X316774020Y-221713505D01*
X316814077Y-221680601D01*
X316869871Y-221659141D01*
X316964292Y-221649127D01*
X317070157Y-221684893D01*
X317115937Y-221772160D01*
X317065865Y-221865150D01*
X316952847Y-221915222D01*
X316778312Y-221950987D01*
X316595193Y-221995336D01*
X316433176Y-222069728D01*
X316307639Y-222178455D01*
X316227167Y-222333677D01*
X316200343Y-222547553D01*
X316080171Y-222547553D01*
X316080171Y-221451702D01*
X316075880Y-221355851D01*
X316048698Y-221277167D01*
X315968583Y-221211359D01*
X315816938Y-221191330D01*
X315668154Y-221211359D01*
X315588040Y-221277167D01*
X315560858Y-221355851D01*
X315556566Y-221454563D01*
X315396337Y-221454563D01*
X315396337Y-221448841D01*
X315392045Y-221352990D01*
X315364864Y-221274306D01*
X315284749Y-221209928D01*
X315133104Y-221191330D01*
X314640973Y-221191330D01*
X314443548Y-221209571D01*
X314260429Y-221264292D01*
X314091616Y-221355493D01*
X313937110Y-221483176D01*
X313808176Y-221636252D01*
X313716080Y-221803634D01*
X313660822Y-221985322D01*
X313642403Y-222181316D01*
X313493619Y-222181316D01*
X313493619Y-221451702D01*
X313434964Y-221247124D01*
X313224664Y-221191330D01*
X312177453Y-221191330D01*
X312078741Y-221195622D01*
X312001488Y-221222804D01*
X311937110Y-221302918D01*
X311917081Y-221454563D01*
X310403182Y-221454563D01*
X310451921Y-221388847D01*
X310536178Y-221295883D01*
X310629142Y-221211625D01*
X310729917Y-221136886D01*
X310837532Y-221072384D01*
X310950951Y-221018740D01*
X311069083Y-220976472D01*
X311190788Y-220945987D01*
X311314895Y-220927577D01*
X311440210Y-220921421D01*
X311917081Y-220921421D01*
X346269013Y-220921421D01*
X346507448Y-220921421D01*
X346632763Y-220927577D01*
G37*
%TO.C,U11*%
D11*
X342180000Y-117410000D02*
X339180000Y-117410000D01*
X339180000Y-227410000D01*
X342180000Y-227410000D01*
X342180000Y-117410000D01*
X348930000Y-82760000D02*
X332430000Y-82760000D01*
X332430000Y-242760000D01*
X348930000Y-242760000D01*
X348930000Y-82760000D01*
X342180000Y-85610000D02*
G75*
G02*
X339180000Y-85610000I-1500000J0D01*
G01*
X339180000Y-85610000D02*
G75*
G02*
X342180000Y-85610000I1500000J0D01*
G01*
X342180000Y-239910000D02*
G75*
G02*
X339180000Y-239910000I-1500000J0D01*
G01*
X339180000Y-239910000D02*
G75*
G02*
X342180000Y-239910000I1500000J0D01*
G01*
X342180000Y-239910000D02*
G75*
G02*
X339180000Y-239910000I-1500000J0D01*
G01*
X339180000Y-239910000D02*
G75*
G02*
X342180000Y-239910000I1500000J0D01*
G01*
D12*
%TO.C,kibuzzard-67C38072*%
G36*
X287439804Y-232095622D02*
G01*
X287125069Y-232095622D01*
X286987730Y-232044120D01*
X286921922Y-231886753D01*
X286983438Y-231737969D01*
X287130792Y-231677883D01*
X287439804Y-231677883D01*
X287439804Y-232095622D01*
G37*
G36*
X291205184Y-231691831D02*
G01*
X291356829Y-231802346D01*
X291459833Y-231965794D01*
X291494168Y-232161431D01*
X291459475Y-232353133D01*
X291355398Y-232516223D01*
X291204111Y-232627811D01*
X291027787Y-232665007D01*
X290845742Y-232628884D01*
X290694454Y-232520515D01*
X290592523Y-232358498D01*
X290558546Y-232161431D01*
X290592880Y-231965794D01*
X290695885Y-231802346D01*
X290846814Y-231691831D01*
X291024926Y-231654993D01*
X291205184Y-231691831D01*
G37*
G36*
X294065666Y-230899053D02*
G01*
X294188662Y-230917298D01*
X294309278Y-230947511D01*
X294426352Y-230989400D01*
X294538756Y-231042563D01*
X294645408Y-231106488D01*
X294745280Y-231180559D01*
X294837412Y-231264062D01*
X294920915Y-231356193D01*
X294994986Y-231456066D01*
X295058910Y-231562718D01*
X295112073Y-231675122D01*
X295153963Y-231792195D01*
X295184176Y-231912811D01*
X295202421Y-232035808D01*
X295208522Y-232160000D01*
X295202421Y-232284192D01*
X295184176Y-232407189D01*
X295153963Y-232527805D01*
X295112073Y-232644878D01*
X295058910Y-232757282D01*
X294994986Y-232863934D01*
X294920915Y-232963807D01*
X294837412Y-233055938D01*
X294745280Y-233139441D01*
X294645408Y-233213512D01*
X294538756Y-233277437D01*
X294426352Y-233330600D01*
X294309278Y-233372489D01*
X294188662Y-233402702D01*
X294065666Y-233420947D01*
X293941474Y-233427048D01*
X293703038Y-233427048D01*
X293442666Y-233427048D01*
X291013481Y-233427048D01*
X289033510Y-233427048D01*
X286707330Y-233427048D01*
X286355398Y-233427048D01*
X285878526Y-233427048D01*
X285754334Y-233420947D01*
X285631338Y-233402702D01*
X285510722Y-233372489D01*
X285393648Y-233330600D01*
X285281244Y-233277437D01*
X285174592Y-233213512D01*
X285074720Y-233139441D01*
X284982588Y-233055938D01*
X284899085Y-232963807D01*
X284864218Y-232916795D01*
X286366843Y-232916795D01*
X286504182Y-233085608D01*
X286707330Y-233164292D01*
X286867558Y-233031245D01*
X287173710Y-232616366D01*
X287439804Y-232616366D01*
X287439804Y-232893906D01*
X287444096Y-232992618D01*
X287471278Y-233069871D01*
X287551392Y-233134249D01*
X287703038Y-233154278D01*
X287851822Y-233134249D01*
X287931936Y-233068441D01*
X287959118Y-232989757D01*
X287963410Y-232891044D01*
X287963410Y-231417511D01*
X288143667Y-231417511D01*
X288143667Y-232221516D01*
X288158331Y-232394621D01*
X288202322Y-232564864D01*
X288273495Y-232726881D01*
X288369704Y-232875308D01*
X288494526Y-233002990D01*
X288651536Y-233102775D01*
X288833581Y-233167153D01*
X289033510Y-233188612D01*
X289233081Y-233166795D01*
X289414053Y-233101345D01*
X289569633Y-233000129D01*
X289693023Y-232871016D01*
X289787802Y-232721516D01*
X289857544Y-232559142D01*
X289900463Y-232388898D01*
X289914769Y-232215794D01*
X289914769Y-232161431D01*
X290034940Y-232161431D01*
X290052912Y-232365562D01*
X290106829Y-232554492D01*
X290196689Y-232728222D01*
X290322494Y-232886753D01*
X290473513Y-233018816D01*
X290639018Y-233113147D01*
X290819007Y-233169746D01*
X291013481Y-233188612D01*
X291213410Y-233170014D01*
X291398317Y-233114220D01*
X291568202Y-233021230D01*
X291723066Y-232891044D01*
X291852000Y-232734571D01*
X291944096Y-232562718D01*
X291999354Y-232375486D01*
X292017773Y-232172876D01*
X291999890Y-231963648D01*
X291946242Y-231770873D01*
X291856829Y-231594549D01*
X291731650Y-231434678D01*
X291712146Y-231417511D01*
X292129361Y-231417511D01*
X292149390Y-231567725D01*
X292215198Y-231646409D01*
X292293882Y-231673591D01*
X292392594Y-231677883D01*
X293179433Y-231677883D01*
X293179433Y-231932532D01*
X292652966Y-231932532D01*
X292559976Y-231936824D01*
X292491307Y-231961144D01*
X292436943Y-232029814D01*
X292421206Y-232161431D01*
X292436943Y-232285894D01*
X292492737Y-232351702D01*
X292562837Y-232374592D01*
X292655827Y-232378884D01*
X293179433Y-232378884D01*
X293179433Y-232896767D01*
X293183724Y-232995479D01*
X293210906Y-233072732D01*
X293291021Y-233137110D01*
X293442666Y-233157139D01*
X293591450Y-233137110D01*
X293671564Y-233071302D01*
X293698746Y-232992618D01*
X293703038Y-232893906D01*
X293703038Y-231414649D01*
X293644382Y-231210072D01*
X293434082Y-231154278D01*
X292386872Y-231154278D01*
X292291021Y-231158569D01*
X292213767Y-231185751D01*
X292149390Y-231265866D01*
X292129361Y-231417511D01*
X291712146Y-231417511D01*
X291580899Y-231301989D01*
X291414769Y-231207210D01*
X291233259Y-231150343D01*
X291036371Y-231131388D01*
X290835370Y-231150075D01*
X290650105Y-231206137D01*
X290480577Y-231299574D01*
X290326786Y-231430386D01*
X290199103Y-231588201D01*
X290107902Y-231762647D01*
X290053181Y-231953723D01*
X290034940Y-232161431D01*
X289914769Y-232161431D01*
X289914769Y-231414649D01*
X289910477Y-231315937D01*
X289883295Y-231237253D01*
X289803181Y-231171445D01*
X289651536Y-231151416D01*
X289501321Y-231171445D01*
X289422637Y-231235823D01*
X289394025Y-231315937D01*
X289388302Y-231417511D01*
X289388302Y-232215794D01*
X289359690Y-232417511D01*
X289245241Y-232586323D01*
X289147244Y-232643190D01*
X289024926Y-232662146D01*
X288878288Y-232631388D01*
X288764554Y-232539113D01*
X288691593Y-232396052D01*
X288667272Y-232212933D01*
X288667272Y-231400343D01*
X288661550Y-231307353D01*
X288632938Y-231232961D01*
X288552823Y-231171445D01*
X288404039Y-231151416D01*
X288255255Y-231171445D01*
X288175141Y-231238684D01*
X288147959Y-231318798D01*
X288143667Y-231417511D01*
X287963410Y-231417511D01*
X287963410Y-231414649D01*
X287959118Y-231318798D01*
X287931936Y-231240114D01*
X287851822Y-231174306D01*
X287700176Y-231154278D01*
X287125069Y-231154278D01*
X287008832Y-231165722D01*
X286889018Y-231200057D01*
X286769561Y-231255851D01*
X286654397Y-231331674D01*
X286551750Y-231432890D01*
X286469847Y-231564864D01*
X286416199Y-231719728D01*
X286398317Y-231889614D01*
X286426293Y-232103888D01*
X286510223Y-232288914D01*
X286650105Y-232444692D01*
X286444096Y-232719371D01*
X286366843Y-232916795D01*
X284864218Y-232916795D01*
X284825014Y-232863934D01*
X284761090Y-232757282D01*
X284707927Y-232644878D01*
X284666037Y-232527805D01*
X284635824Y-232407189D01*
X284617579Y-232284192D01*
X284611478Y-232160000D01*
X284617579Y-232035808D01*
X284635824Y-231912811D01*
X284666037Y-231792195D01*
X284707927Y-231675122D01*
X284761090Y-231562718D01*
X284825014Y-231456066D01*
X284899085Y-231356193D01*
X284982588Y-231264062D01*
X285074720Y-231180559D01*
X285174592Y-231106488D01*
X285281244Y-231042563D01*
X285393648Y-230989400D01*
X285510722Y-230947511D01*
X285631338Y-230917298D01*
X285754334Y-230899053D01*
X285878526Y-230892952D01*
X286355398Y-230892952D01*
X293703038Y-230892952D01*
X293941474Y-230892952D01*
X294065666Y-230899053D01*
G37*
%TO.C,kibuzzard-67C38062*%
G36*
X315850820Y-232091330D02*
G01*
X315536085Y-232091330D01*
X315398746Y-232039828D01*
X315332938Y-231882461D01*
X315394454Y-231733677D01*
X315541807Y-231673591D01*
X315850820Y-231673591D01*
X315850820Y-232091330D01*
G37*
G36*
X320483723Y-230914714D02*
G01*
X320605192Y-230932732D01*
X320724309Y-230962570D01*
X320839929Y-231003939D01*
X320950937Y-231056442D01*
X321056264Y-231119573D01*
X321154897Y-231192723D01*
X321245884Y-231275189D01*
X321328350Y-231366176D01*
X321401500Y-231464809D01*
X321464631Y-231570136D01*
X321517134Y-231681144D01*
X321558503Y-231796763D01*
X321588341Y-231915881D01*
X321606359Y-232037350D01*
X321612384Y-232160000D01*
X321606359Y-232282650D01*
X321588341Y-232404119D01*
X321558503Y-232523237D01*
X321517134Y-232638856D01*
X321464631Y-232749864D01*
X321401500Y-232855191D01*
X321328350Y-232953824D01*
X321245884Y-233044811D01*
X321154897Y-233127277D01*
X321056264Y-233200427D01*
X320950937Y-233263558D01*
X320839929Y-233316061D01*
X320724309Y-233357430D01*
X320605192Y-233387268D01*
X320483723Y-233405286D01*
X320361073Y-233411311D01*
X320122637Y-233411311D01*
X319252823Y-233411311D01*
X317993882Y-233411311D01*
X315118345Y-233411311D01*
X314377287Y-233411311D01*
X312651965Y-233411311D01*
X311335799Y-233411311D01*
X310858927Y-233411311D01*
X310736277Y-233405286D01*
X310614808Y-233387268D01*
X310495691Y-233357430D01*
X310380071Y-233316061D01*
X310269063Y-233263558D01*
X310163736Y-233200427D01*
X310065104Y-233127277D01*
X309974116Y-233044811D01*
X309891650Y-232953824D01*
X309818500Y-232855191D01*
X309755369Y-232749864D01*
X309702866Y-232638856D01*
X309661497Y-232523237D01*
X309631659Y-232404119D01*
X309613641Y-232282650D01*
X309607616Y-232160000D01*
X309613641Y-232037350D01*
X309631659Y-231915881D01*
X309661497Y-231796763D01*
X309702866Y-231681144D01*
X309755369Y-231570136D01*
X309818500Y-231464809D01*
X309856761Y-231413219D01*
X311335799Y-231413219D01*
X311355827Y-231562003D01*
X311421636Y-231642117D01*
X311500320Y-231669299D01*
X311599032Y-231673591D01*
X312388732Y-231673591D01*
X312388732Y-231928240D01*
X311859404Y-231928240D01*
X311766414Y-231932532D01*
X311697744Y-231955422D01*
X311643381Y-232024092D01*
X311627644Y-232154278D01*
X311643381Y-232281602D01*
X311699175Y-232347411D01*
X311770706Y-232370300D01*
X311865126Y-232374592D01*
X312388732Y-232374592D01*
X312388732Y-232629242D01*
X311596171Y-232629242D01*
X311497458Y-232633534D01*
X311420205Y-232660715D01*
X311355827Y-232740830D01*
X311335799Y-232892475D01*
X311355827Y-233041259D01*
X311421636Y-233121373D01*
X311500320Y-233148555D01*
X311599032Y-233152847D01*
X312651965Y-233152847D01*
X312800749Y-233132818D01*
X312880863Y-233067010D01*
X312908045Y-232988326D01*
X312912337Y-232889614D01*
X312912337Y-231413219D01*
X313061121Y-231413219D01*
X313081149Y-231562003D01*
X313146958Y-231642117D01*
X313225641Y-231669299D01*
X313324354Y-231673591D01*
X314114053Y-231673591D01*
X314114053Y-231928240D01*
X313584726Y-231928240D01*
X313491736Y-231932532D01*
X313423066Y-231955422D01*
X313368703Y-232024092D01*
X313352966Y-232154278D01*
X313368703Y-232281602D01*
X313424497Y-232347411D01*
X313496028Y-232370300D01*
X313590448Y-232374592D01*
X314114053Y-232374592D01*
X314114053Y-232629242D01*
X313321493Y-232629242D01*
X313222780Y-232633534D01*
X313145527Y-232660715D01*
X313081149Y-232740830D01*
X313061121Y-232892475D01*
X313081149Y-233041259D01*
X313146958Y-233121373D01*
X313225641Y-233148555D01*
X313324354Y-233152847D01*
X314377287Y-233152847D01*
X314526071Y-233132818D01*
X314606185Y-233067010D01*
X314633367Y-232988326D01*
X314636664Y-232912504D01*
X314777859Y-232912504D01*
X314915198Y-233081316D01*
X315118345Y-233160000D01*
X315278574Y-233026953D01*
X315584726Y-232612074D01*
X315850820Y-232612074D01*
X315850820Y-232889614D01*
X315855112Y-232988326D01*
X315882294Y-233065579D01*
X315962408Y-233129957D01*
X316114053Y-233149986D01*
X316262837Y-233129957D01*
X316342952Y-233064149D01*
X316370134Y-232985465D01*
X316374425Y-232886753D01*
X316374425Y-231413219D01*
X316554683Y-231413219D01*
X316554683Y-232889614D01*
X316558975Y-232988326D01*
X316586156Y-233065579D01*
X316666271Y-233129957D01*
X316817916Y-233149986D01*
X316966700Y-233129957D01*
X317046815Y-233064149D01*
X317073996Y-232985465D01*
X317078288Y-232886753D01*
X317078288Y-232374592D01*
X317730649Y-232374592D01*
X317730649Y-232889614D01*
X317734940Y-232988326D01*
X317762122Y-233065579D01*
X317842237Y-233129957D01*
X317993882Y-233149986D01*
X318142666Y-233129957D01*
X318222780Y-233064149D01*
X318249962Y-232985465D01*
X318254254Y-232886753D01*
X318254254Y-231410358D01*
X318252332Y-231367439D01*
X318377287Y-231367439D01*
X318394454Y-231493333D01*
X318450248Y-231560572D01*
X318516056Y-231583462D01*
X318597601Y-231587754D01*
X318992451Y-231587754D01*
X318992451Y-232898197D01*
X318996743Y-232994049D01*
X319023925Y-233069871D01*
X319104039Y-233132818D01*
X319252823Y-233152847D01*
X319400176Y-233132818D01*
X319477430Y-233068441D01*
X319503181Y-232991187D01*
X319507473Y-232895336D01*
X319507473Y-231587754D01*
X319905184Y-231587754D01*
X319986729Y-231583462D01*
X320051106Y-231560572D01*
X320105470Y-231493333D01*
X320122637Y-231364578D01*
X320105470Y-231240114D01*
X320049676Y-231174306D01*
X319983867Y-231151416D01*
X319902322Y-231147124D01*
X318594740Y-231147124D01*
X318513195Y-231151416D01*
X318448817Y-231174306D01*
X318394454Y-231241545D01*
X318377287Y-231367439D01*
X318252332Y-231367439D01*
X318249962Y-231314506D01*
X318222780Y-231235823D01*
X318142666Y-231170014D01*
X317991021Y-231149986D01*
X317842237Y-231170014D01*
X317762122Y-231235823D01*
X317734940Y-231314506D01*
X317730649Y-231413219D01*
X317730649Y-231928240D01*
X317078288Y-231928240D01*
X317078288Y-231410358D01*
X317073996Y-231314506D01*
X317046815Y-231235823D01*
X316966700Y-231170014D01*
X316815055Y-231149986D01*
X316666271Y-231170014D01*
X316586156Y-231235823D01*
X316558975Y-231314506D01*
X316554683Y-231413219D01*
X316374425Y-231413219D01*
X316374425Y-231410358D01*
X316370134Y-231314506D01*
X316342952Y-231235823D01*
X316262837Y-231170014D01*
X316111192Y-231149986D01*
X315536085Y-231149986D01*
X315419847Y-231161431D01*
X315300033Y-231195765D01*
X315180577Y-231251559D01*
X315065413Y-231327382D01*
X314962766Y-231428598D01*
X314880863Y-231560572D01*
X314827215Y-231715436D01*
X314809332Y-231885322D01*
X314837309Y-232099596D01*
X314921238Y-232284622D01*
X315061121Y-232440401D01*
X314855112Y-232715079D01*
X314777859Y-232912504D01*
X314636664Y-232912504D01*
X314637659Y-232889614D01*
X314637659Y-231410358D01*
X314579003Y-231205780D01*
X314368703Y-231149986D01*
X313321493Y-231149986D01*
X313222780Y-231154278D01*
X313145527Y-231181459D01*
X313081149Y-231261574D01*
X313061121Y-231413219D01*
X312912337Y-231413219D01*
X312912337Y-231410358D01*
X312853681Y-231205780D01*
X312643381Y-231149986D01*
X311596171Y-231149986D01*
X311497458Y-231154278D01*
X311420205Y-231181459D01*
X311355827Y-231261574D01*
X311335799Y-231413219D01*
X309856761Y-231413219D01*
X309891650Y-231366176D01*
X309974116Y-231275189D01*
X310065104Y-231192723D01*
X310163736Y-231119573D01*
X310269063Y-231056442D01*
X310380071Y-231003939D01*
X310495691Y-230962570D01*
X310614808Y-230932732D01*
X310736277Y-230914714D01*
X310858927Y-230908689D01*
X311335799Y-230908689D01*
X320122637Y-230908689D01*
X320361073Y-230908689D01*
X320483723Y-230914714D01*
G37*
%TO.C,kibuzzard-67C38035*%
G36*
X368279218Y-231491831D02*
G01*
X368430863Y-231602346D01*
X368533867Y-231765794D01*
X368568202Y-231961431D01*
X368533510Y-232153133D01*
X368429432Y-232316223D01*
X368278145Y-232427811D01*
X368101822Y-232465007D01*
X367919776Y-232428884D01*
X367768488Y-232320515D01*
X367666557Y-232158498D01*
X367632580Y-231961431D01*
X367666915Y-231765794D01*
X367769919Y-231602346D01*
X367920849Y-231491831D01*
X368098960Y-231454993D01*
X368279218Y-231491831D01*
G37*
G36*
X369454436Y-230699053D02*
G01*
X369577432Y-230717298D01*
X369698048Y-230747511D01*
X369815121Y-230789400D01*
X369927526Y-230842563D01*
X370034177Y-230906488D01*
X370134050Y-230980559D01*
X370226182Y-231064062D01*
X370309685Y-231156193D01*
X370383755Y-231256066D01*
X370447680Y-231362718D01*
X370500843Y-231475122D01*
X370542733Y-231592195D01*
X370572945Y-231712811D01*
X370591190Y-231835808D01*
X370597291Y-231960000D01*
X370591190Y-232084192D01*
X370572945Y-232207189D01*
X370542733Y-232327805D01*
X370500843Y-232444878D01*
X370447680Y-232557282D01*
X370383755Y-232663934D01*
X370309685Y-232763807D01*
X370226182Y-232855938D01*
X370134050Y-232939441D01*
X370034177Y-233013512D01*
X369927526Y-233077437D01*
X369815121Y-233130600D01*
X369698048Y-233172489D01*
X369577432Y-233202702D01*
X369454436Y-233220947D01*
X369330243Y-233227048D01*
X369091807Y-233227048D01*
X368087515Y-233227048D01*
X366731292Y-233227048D01*
X364782794Y-233227048D01*
X363466628Y-233227048D01*
X362989757Y-233227048D01*
X362865564Y-233220947D01*
X362742568Y-233202702D01*
X362621952Y-233172489D01*
X362504878Y-233130600D01*
X362392474Y-233077437D01*
X362285823Y-233013512D01*
X362185950Y-232939441D01*
X362093818Y-232855938D01*
X362010315Y-232763807D01*
X361936245Y-232663934D01*
X361872320Y-232557282D01*
X361819157Y-232444878D01*
X361777267Y-232327805D01*
X361747055Y-232207189D01*
X361728810Y-232084192D01*
X361722709Y-231960000D01*
X361728810Y-231835808D01*
X361747055Y-231712811D01*
X361777267Y-231592195D01*
X361819157Y-231475122D01*
X361872320Y-231362718D01*
X361936245Y-231256066D01*
X361964839Y-231217511D01*
X363466628Y-231217511D01*
X363486657Y-231366295D01*
X363552465Y-231446409D01*
X363631149Y-231473591D01*
X363729862Y-231477883D01*
X364519561Y-231477883D01*
X364519561Y-231732532D01*
X363990234Y-231732532D01*
X363897244Y-231736824D01*
X363828574Y-231759714D01*
X363774211Y-231828383D01*
X363758474Y-231958569D01*
X363774211Y-232085894D01*
X363830005Y-232151702D01*
X363901535Y-232174592D01*
X363995956Y-232178884D01*
X364519561Y-232178884D01*
X364519561Y-232433534D01*
X363727000Y-232433534D01*
X363628288Y-232437825D01*
X363551035Y-232465007D01*
X363486657Y-232545122D01*
X363466628Y-232696767D01*
X363486657Y-232845551D01*
X363552465Y-232925665D01*
X363631149Y-232952847D01*
X363729862Y-232957139D01*
X364782794Y-232957139D01*
X364931578Y-232937110D01*
X365011693Y-232871302D01*
X365038875Y-232792618D01*
X365043166Y-232693906D01*
X365043166Y-231220372D01*
X365232008Y-231220372D01*
X365232008Y-232696767D01*
X365236299Y-232795479D01*
X365263481Y-232872732D01*
X365343596Y-232937110D01*
X365495241Y-232957139D01*
X365642594Y-232941402D01*
X365727000Y-232879886D01*
X366468059Y-231901345D01*
X366468059Y-232696767D01*
X366472351Y-232795479D01*
X366499533Y-232872732D01*
X366579647Y-232937110D01*
X366731292Y-232957139D01*
X366878646Y-232937110D01*
X366955899Y-232872732D01*
X366983081Y-232794049D01*
X366988803Y-232693906D01*
X366988803Y-231961431D01*
X367108975Y-231961431D01*
X367126947Y-232165562D01*
X367180863Y-232354492D01*
X367270724Y-232528222D01*
X367396528Y-232686753D01*
X367547548Y-232818816D01*
X367713052Y-232913147D01*
X367893041Y-232969746D01*
X368087515Y-232988612D01*
X368287444Y-232970014D01*
X368472351Y-232914220D01*
X368642236Y-232821230D01*
X368797101Y-232691044D01*
X368926035Y-232534571D01*
X369018131Y-232362718D01*
X369073388Y-232175486D01*
X369091807Y-231972876D01*
X369073925Y-231763648D01*
X369020277Y-231570873D01*
X368930863Y-231394549D01*
X368805684Y-231234678D01*
X368654933Y-231101989D01*
X368488803Y-231007210D01*
X368307294Y-230950343D01*
X368110405Y-230931388D01*
X367909404Y-230950075D01*
X367724139Y-231006137D01*
X367554611Y-231099574D01*
X367400820Y-231230386D01*
X367273138Y-231388201D01*
X367181936Y-231562647D01*
X367127215Y-231753723D01*
X367108975Y-231961431D01*
X366988803Y-231961431D01*
X366988803Y-231208927D01*
X366983081Y-231113076D01*
X366954468Y-231037253D01*
X366875784Y-230975737D01*
X366725570Y-230957139D01*
X366595384Y-230974306D01*
X366522422Y-231010072D01*
X366470920Y-231068727D01*
X365755613Y-232030100D01*
X365755613Y-231208927D01*
X365749890Y-231114506D01*
X365721278Y-231038684D01*
X365641164Y-230977167D01*
X365492380Y-230957139D01*
X365343596Y-230977167D01*
X365263481Y-231042976D01*
X365236299Y-231121660D01*
X365232008Y-231220372D01*
X365043166Y-231220372D01*
X365043166Y-231214649D01*
X364984511Y-231010072D01*
X364774211Y-230954278D01*
X363727000Y-230954278D01*
X363628288Y-230958569D01*
X363551035Y-230985751D01*
X363486657Y-231065866D01*
X363466628Y-231217511D01*
X361964839Y-231217511D01*
X362010315Y-231156193D01*
X362093818Y-231064062D01*
X362185950Y-230980559D01*
X362285823Y-230906488D01*
X362392474Y-230842563D01*
X362504878Y-230789400D01*
X362621952Y-230747511D01*
X362742568Y-230717298D01*
X362865564Y-230699053D01*
X362989757Y-230692952D01*
X363466628Y-230692952D01*
X369091807Y-230692952D01*
X369330243Y-230692952D01*
X369454436Y-230699053D01*
G37*
%TO.C,U10*%
D11*
X367510000Y-117210000D02*
X364510000Y-117210000D01*
X364510000Y-227210000D01*
X367510000Y-227210000D01*
X367510000Y-117210000D01*
X374260000Y-82560000D02*
X357760000Y-82560000D01*
X357760000Y-242560000D01*
X374260000Y-242560000D01*
X374260000Y-82560000D01*
X367510000Y-85410000D02*
G75*
G02*
X364510000Y-85410000I-1500000J0D01*
G01*
X364510000Y-85410000D02*
G75*
G02*
X367510000Y-85410000I1500000J0D01*
G01*
X367510000Y-239710000D02*
G75*
G02*
X364510000Y-239710000I-1500000J0D01*
G01*
X364510000Y-239710000D02*
G75*
G02*
X367510000Y-239710000I1500000J0D01*
G01*
X367510000Y-239710000D02*
G75*
G02*
X364510000Y-239710000I-1500000J0D01*
G01*
X364510000Y-239710000D02*
G75*
G02*
X367510000Y-239710000I1500000J0D01*
G01*
%TO.C,U13*%
X316735000Y-117210000D02*
X313735000Y-117210000D01*
X313735000Y-227210000D01*
X316735000Y-227210000D01*
X316735000Y-117210000D01*
X323485000Y-82560000D02*
X306985000Y-82560000D01*
X306985000Y-242560000D01*
X323485000Y-242560000D01*
X323485000Y-82560000D01*
X316735000Y-85410000D02*
G75*
G02*
X313735000Y-85410000I-1500000J0D01*
G01*
X313735000Y-85410000D02*
G75*
G02*
X316735000Y-85410000I1500000J0D01*
G01*
X316735000Y-239710000D02*
G75*
G02*
X313735000Y-239710000I-1500000J0D01*
G01*
X313735000Y-239710000D02*
G75*
G02*
X316735000Y-239710000I1500000J0D01*
G01*
X316735000Y-239710000D02*
G75*
G02*
X313735000Y-239710000I-1500000J0D01*
G01*
X313735000Y-239710000D02*
G75*
G02*
X316735000Y-239710000I1500000J0D01*
G01*
%TD*%
%LPC*%
D10*
G36*
X338634898Y-224987903D02*
G01*
X337620949Y-224987903D01*
X337620949Y-225212117D01*
X338634898Y-225212117D01*
X338634898Y-224987903D01*
G37*
G36*
X338634898Y-227249103D02*
G01*
X337620949Y-227249103D01*
X337620949Y-227473318D01*
X338634898Y-227473318D01*
X338634898Y-227249103D01*
G37*
G36*
X338634898Y-226816793D02*
G01*
X337620949Y-226816793D01*
X337620949Y-227041008D01*
X338634898Y-227041008D01*
X338634898Y-226816793D01*
G37*
G36*
X338634898Y-226358105D02*
G01*
X337620949Y-226358105D01*
X337620949Y-226582320D01*
X338634898Y-226582320D01*
X338634898Y-226358105D01*
G37*
G36*
X338634898Y-225925795D02*
G01*
X337620949Y-225925795D01*
X337620949Y-226150010D01*
X338634898Y-226150010D01*
X338634898Y-225925795D01*
G37*
G36*
X340123021Y-225456849D02*
G01*
X337620949Y-225456849D01*
X337620949Y-225681064D01*
X340123021Y-225681064D01*
X340123021Y-225456849D01*
G37*
G36*
X340654494Y-225925795D02*
G01*
X339640544Y-225925795D01*
X339640544Y-226150010D01*
X340654494Y-226150010D01*
X340654494Y-225925795D01*
G37*
G36*
X340123021Y-227718049D02*
G01*
X338103426Y-227718049D01*
X338103426Y-227942264D01*
X340123021Y-227942264D01*
X340123021Y-227718049D01*
G37*
G36*
X340654494Y-227249103D02*
G01*
X339640544Y-227249103D01*
X339640544Y-227473318D01*
X340654494Y-227473318D01*
X340654494Y-227249103D01*
G37*
G36*
X340654494Y-226816793D02*
G01*
X339640544Y-226816793D01*
X339640544Y-227041008D01*
X340654494Y-227041008D01*
X340654494Y-226816793D01*
G37*
G36*
X340654494Y-226358105D02*
G01*
X339640544Y-226358105D01*
X339640544Y-226582320D01*
X340654494Y-226582320D01*
X340654494Y-226358105D01*
G37*
G36*
X334214542Y-227942264D02*
G01*
X334723593Y-227942264D01*
X335226831Y-227942264D01*
X336751493Y-227942264D01*
X336751493Y-227718049D01*
X335226831Y-227718049D01*
X334723593Y-227718049D01*
X334214542Y-227718049D01*
X334214542Y-227942264D01*
G37*
G36*
X335768269Y-227249103D02*
G01*
X335249253Y-227249103D01*
X334734389Y-227249103D01*
X334214542Y-227249103D01*
X334214542Y-227473318D01*
X334734389Y-227473318D01*
X335249253Y-227473318D01*
X335768269Y-227473318D01*
X335768269Y-227249103D01*
G37*
G36*
X337256392Y-227249103D02*
G01*
X336242442Y-227249103D01*
X336242442Y-227473318D01*
X337256392Y-227473318D01*
X337256392Y-227249103D01*
G37*
G36*
X336242442Y-226816793D02*
G01*
X336242442Y-227041008D01*
X337256392Y-227041008D01*
X337256392Y-226816793D01*
X336242442Y-226816793D01*
G37*
G36*
X336242442Y-226358105D02*
G01*
X336242442Y-226582320D01*
X337256392Y-226582320D01*
X337256392Y-226358105D01*
X336242442Y-226358105D01*
G37*
G36*
X336242442Y-225925795D02*
G01*
X336242442Y-226150010D01*
X337256392Y-226150010D01*
X337256392Y-225925795D01*
X336242442Y-225925795D01*
G37*
G36*
X336242442Y-225456849D02*
G01*
X336242442Y-225681064D01*
X337256392Y-225681064D01*
X337256392Y-225456849D01*
X336242442Y-225456849D01*
G37*
G36*
X334214542Y-225681064D02*
G01*
X335228492Y-225681064D01*
X335228492Y-225456849D01*
X334214542Y-225456849D01*
X334214542Y-225681064D01*
G37*
G36*
X334214542Y-226150010D02*
G01*
X335228492Y-226150010D01*
X335228492Y-225925795D01*
X334214542Y-225925795D01*
X334214542Y-226150010D01*
G37*
G36*
X334214542Y-226582320D02*
G01*
X335228492Y-226582320D01*
X335228492Y-226358105D01*
X334214542Y-226358105D01*
X334214542Y-226582320D01*
G37*
G36*
X334214542Y-227041008D02*
G01*
X335228492Y-227041008D01*
X335228492Y-226816793D01*
X334214542Y-226816793D01*
X334214542Y-227041008D01*
G37*
G36*
X333858290Y-224987903D02*
G01*
X332844340Y-224987903D01*
X332844340Y-225212117D01*
X333858290Y-225212117D01*
X333858290Y-224987903D01*
G37*
G36*
X331307222Y-225681064D02*
G01*
X333858290Y-225681064D01*
X333858290Y-225456849D01*
X331307222Y-225456849D01*
X331307222Y-225681064D01*
G37*
G36*
X331838695Y-226150010D02*
G01*
X331838695Y-225925795D01*
X330824745Y-225925795D01*
X330824745Y-226150010D01*
X331838695Y-226150010D01*
G37*
G36*
X331838695Y-226358105D02*
G01*
X330824745Y-226358105D01*
X330824745Y-226582320D01*
X331838695Y-226582320D01*
X331838695Y-226358105D01*
G37*
G36*
X331838695Y-226816793D02*
G01*
X330824745Y-226816793D01*
X330824745Y-227041008D01*
X331838695Y-227041008D01*
X331838695Y-226816793D01*
G37*
G36*
X331838695Y-227249103D02*
G01*
X330824745Y-227249103D01*
X330824745Y-227473318D01*
X331838695Y-227473318D01*
X331838695Y-227249103D01*
G37*
G36*
X333326817Y-227718049D02*
G01*
X331307222Y-227718049D01*
X331307222Y-227942264D01*
X333326817Y-227942264D01*
X333326817Y-227718049D01*
G37*
G36*
X333858290Y-227249103D02*
G01*
X332844340Y-227249103D01*
X332844340Y-227473318D01*
X333858290Y-227473318D01*
X333858290Y-227249103D01*
G37*
G36*
X333858290Y-226816793D02*
G01*
X332844340Y-226816793D01*
X332844340Y-227041008D01*
X333858290Y-227041008D01*
X333858290Y-226816793D01*
G37*
G36*
X333858290Y-226358105D02*
G01*
X332844340Y-226358105D01*
X332844340Y-226582320D01*
X333858290Y-226582320D01*
X333858290Y-226358105D01*
G37*
G36*
X333858290Y-225925795D02*
G01*
X332317020Y-225925795D01*
X332317020Y-226150010D01*
X333858290Y-226150010D01*
X333858290Y-225925795D01*
G37*
G36*
X330460188Y-227942264D02*
G01*
X330460188Y-227718049D01*
X329446238Y-227718049D01*
X329446238Y-227942264D01*
X330460188Y-227942264D01*
G37*
G36*
X330460188Y-226358105D02*
G01*
X329446238Y-226358105D01*
X329446238Y-226582320D01*
X330460188Y-226582320D01*
X330460188Y-226358105D01*
G37*
G36*
X330460188Y-225925795D02*
G01*
X329446238Y-225925795D01*
X329446238Y-226150010D01*
X330460188Y-226150010D01*
X330460188Y-225925795D01*
G37*
G36*
X327936524Y-225681064D02*
G01*
X330460188Y-225681064D01*
X330460188Y-225456849D01*
X327936524Y-225456849D01*
X327936524Y-225681064D01*
G37*
G36*
X328440593Y-226150010D02*
G01*
X328440593Y-225925795D01*
X327426643Y-225925795D01*
X327426643Y-226150010D01*
X328440593Y-226150010D01*
G37*
G36*
X328440593Y-226582320D02*
G01*
X328440593Y-226358105D01*
X327426643Y-226358105D01*
X327426643Y-226582320D01*
X328440593Y-226582320D01*
G37*
G36*
X330460188Y-227041008D02*
G01*
X330460188Y-226816793D01*
X327936524Y-226816793D01*
X327936524Y-227041008D01*
X330460188Y-227041008D01*
G37*
G36*
X330460188Y-227473318D02*
G01*
X330460188Y-227249103D01*
X329446238Y-227249103D01*
X329446238Y-227473318D01*
X330460188Y-227473318D01*
G37*
G36*
X326534766Y-227942264D02*
G01*
X326534766Y-227718049D01*
X325520816Y-227718049D01*
X325520816Y-227942264D01*
X326534766Y-227942264D01*
G37*
G36*
X326534766Y-226816793D02*
G01*
X325520816Y-226816793D01*
X325520816Y-227041008D01*
X326534766Y-227041008D01*
X326534766Y-226816793D01*
G37*
G36*
X326534766Y-226358105D02*
G01*
X325520816Y-226358105D01*
X325520816Y-226582320D01*
X326534766Y-226582320D01*
X326534766Y-226358105D01*
G37*
G36*
X327062086Y-225925795D02*
G01*
X325520816Y-225925795D01*
X325520816Y-226150010D01*
X327062086Y-226150010D01*
X327062086Y-225925795D01*
G37*
G36*
X326534766Y-224987903D02*
G01*
X325520816Y-224987903D01*
X325520816Y-225212117D01*
X326534766Y-225212117D01*
X326534766Y-224987903D01*
G37*
G36*
X326534766Y-227473318D02*
G01*
X326534766Y-227249103D01*
X325520816Y-227249103D01*
X325520816Y-227473318D01*
X326534766Y-227473318D01*
G37*
G36*
X325268367Y-227942264D02*
G01*
X325268367Y-227718049D01*
X324254417Y-227718049D01*
X324254417Y-227942264D01*
X325268367Y-227942264D01*
G37*
G36*
X324254417Y-226358105D02*
G01*
X323244619Y-226358105D01*
X323244619Y-226582320D01*
X324254417Y-226582320D01*
X324254417Y-226358105D01*
G37*
G36*
X324736894Y-225925795D02*
G01*
X322717299Y-225925795D01*
X322717299Y-226150010D01*
X324736894Y-226150010D01*
X324736894Y-225925795D01*
G37*
G36*
X323244619Y-225456849D02*
G01*
X322234822Y-225456849D01*
X322234822Y-225681064D01*
X323244619Y-225681064D01*
X323244619Y-225456849D01*
G37*
G36*
X325268367Y-225456849D02*
G01*
X324254417Y-225456849D01*
X324254417Y-225681064D01*
X325268367Y-225681064D01*
X325268367Y-225456849D01*
G37*
G36*
X324736894Y-227041008D02*
G01*
X324736894Y-226816793D01*
X322717299Y-226816793D01*
X322717299Y-227041008D01*
X324736894Y-227041008D01*
G37*
G36*
X323244619Y-227473318D02*
G01*
X323244619Y-227249103D01*
X322234822Y-227249103D01*
X322234822Y-227473318D01*
X323244619Y-227473318D01*
G37*
G36*
X323244619Y-227942264D02*
G01*
X323244619Y-227718049D01*
X322234822Y-227718049D01*
X322234822Y-227942264D01*
X323244619Y-227942264D01*
G37*
G36*
X325268367Y-227473318D02*
G01*
X325268367Y-227249103D01*
X324254417Y-227249103D01*
X324254417Y-227473318D01*
X325268367Y-227473318D01*
G37*
G36*
X319319197Y-227942264D02*
G01*
X321338792Y-227942264D01*
X321338792Y-227718049D01*
X319319197Y-227718049D01*
X319319197Y-227942264D01*
G37*
G36*
X321338792Y-225456849D02*
G01*
X319319197Y-225456849D01*
X319319197Y-225681064D01*
X321338792Y-225681064D01*
X321338792Y-225456849D01*
G37*
G36*
X321870265Y-226150010D02*
G01*
X321870265Y-225925795D01*
X320856315Y-225925795D01*
X320856315Y-226150010D01*
X321870265Y-226150010D01*
G37*
G36*
X321870265Y-226582320D02*
G01*
X321870265Y-226358105D01*
X320856315Y-226358105D01*
X320856315Y-226582320D01*
X321870265Y-226582320D01*
G37*
G36*
X319850669Y-226150010D02*
G01*
X319850669Y-225925795D01*
X318836720Y-225925795D01*
X318836720Y-226150010D01*
X319850669Y-226150010D01*
G37*
G36*
X319850669Y-226582320D02*
G01*
X319850669Y-226358105D01*
X318836720Y-226358105D01*
X318836720Y-226582320D01*
X319850669Y-226582320D01*
G37*
G36*
X321870265Y-226816793D02*
G01*
X319319197Y-226816793D01*
X319319197Y-227041008D01*
X321870265Y-227041008D01*
X321870265Y-226816793D01*
G37*
G36*
X320856315Y-227473318D02*
G01*
X321870265Y-227473318D01*
X321870265Y-227249103D01*
X320856315Y-227249103D01*
X320856315Y-227473318D01*
G37*
G36*
X318472163Y-224987903D02*
G01*
X316930893Y-224987903D01*
X316930893Y-225212117D01*
X318472163Y-225212117D01*
X318472163Y-224987903D01*
G37*
G36*
X318472163Y-227718049D02*
G01*
X316452567Y-227718049D01*
X316452567Y-227942264D01*
X318472163Y-227942264D01*
X318472163Y-227718049D01*
G37*
G36*
X317944842Y-227249103D02*
G01*
X316930893Y-227249103D01*
X316930893Y-227473318D01*
X317944842Y-227473318D01*
X317944842Y-227249103D01*
G37*
G36*
X317944842Y-226816793D02*
G01*
X316930893Y-226816793D01*
X316930893Y-227041008D01*
X317944842Y-227041008D01*
X317944842Y-226816793D01*
G37*
G36*
X317944842Y-226358105D02*
G01*
X316930893Y-226358105D01*
X316930893Y-226582320D01*
X317944842Y-226582320D01*
X317944842Y-226358105D01*
G37*
G36*
X317944842Y-225925795D02*
G01*
X316930893Y-225925795D01*
X316930893Y-226150010D01*
X317944842Y-226150010D01*
X317944842Y-225925795D01*
G37*
G36*
X317944842Y-225456849D02*
G01*
X316930893Y-225456849D01*
X316930893Y-225681064D01*
X317944842Y-225681064D01*
X317944842Y-225456849D01*
G37*
D13*
%TO.C,H2*%
X353410000Y-116310000D03*
%TD*%
D14*
%TO.C,U12*%
X336427500Y-142027500D03*
D15*
X338967500Y-142027500D03*
X341507500Y-142027500D03*
X344047500Y-142027500D03*
%TD*%
D13*
%TO.C,H3*%
X302610000Y-226760000D03*
%TD*%
D16*
%TO.C,RJ1*%
X364870000Y-153350000D03*
X364870000Y-141920000D03*
D17*
X358520000Y-152080000D03*
X355980000Y-150810000D03*
X358520000Y-149540000D03*
X355980000Y-148270000D03*
X358520000Y-147000000D03*
X355980000Y-145730000D03*
X358520000Y-144460000D03*
X355980000Y-143190000D03*
D18*
X369960000Y-153960000D03*
X368250000Y-151420000D03*
X369960000Y-143850000D03*
X368250000Y-141310000D03*
D19*
X361830000Y-155520000D03*
X361830000Y-139770000D03*
%TD*%
D20*
%TO.C,DC1*%
X371010000Y-165810000D03*
D21*
X366510000Y-165810000D03*
%TD*%
D13*
%TO.C,H1*%
X302510000Y-116260000D03*
%TD*%
%TO.C,H4*%
X353310000Y-226760000D03*
%TD*%
D22*
%TO.C,U9*%
X281610000Y-162000000D03*
D18*
X284150000Y-162000000D03*
X286690000Y-162000000D03*
X289230000Y-162000000D03*
X291770000Y-162000000D03*
X294310000Y-162000000D03*
X296850000Y-162000000D03*
X299390000Y-162000000D03*
X301930000Y-162000000D03*
X304470000Y-162000000D03*
X307010000Y-162000000D03*
X309550000Y-162000000D03*
X312090000Y-162000000D03*
X314630000Y-162000000D03*
X317170000Y-162000000D03*
X319710000Y-162000000D03*
X322250000Y-162000000D03*
X324790000Y-162000000D03*
X327330000Y-162000000D03*
X329870000Y-162000000D03*
X332410000Y-162000000D03*
X334950000Y-162000000D03*
X337490000Y-162000000D03*
X340030000Y-162000000D03*
X340030000Y-146760000D03*
X337490000Y-146760000D03*
X334950000Y-146760000D03*
X332410000Y-146760000D03*
X329870000Y-146760000D03*
X327330000Y-146760000D03*
X324790000Y-146760000D03*
X322250000Y-146760000D03*
X319710000Y-146760000D03*
X317170000Y-146760000D03*
X314630000Y-146760000D03*
X312090000Y-146760000D03*
X309550000Y-146760000D03*
X307010000Y-146760000D03*
X304470000Y-146760000D03*
X301930000Y-146760000D03*
X299390000Y-146760000D03*
X296850000Y-146760000D03*
X294310000Y-146760000D03*
X291770000Y-146760000D03*
X289230000Y-146760000D03*
X286690000Y-146760000D03*
X284150000Y-146760000D03*
X281610000Y-146760000D03*
X284150000Y-149300000D03*
D23*
X294580000Y-149198400D03*
D24*
X294580000Y-151198400D03*
X294580000Y-153198400D03*
X296580000Y-153198400D03*
X296580000Y-151198400D03*
X296580000Y-149198400D03*
X282340000Y-153110000D03*
X282340000Y-155650000D03*
%TD*%
D25*
%TO.C,U14*%
X291710000Y-235960000D03*
X287960000Y-235960000D03*
X295465000Y-235960000D03*
D26*
X284300000Y-235960000D03*
D25*
X291710000Y-108660000D03*
X287960000Y-108660000D03*
X295465000Y-108660000D03*
D26*
X284205000Y-108660000D03*
D27*
X289835000Y-130610000D03*
X289835000Y-214110000D03*
%TD*%
D25*
%TO.C,U11*%
X342555000Y-236060000D03*
X338805000Y-236060000D03*
X346310000Y-236060000D03*
D26*
X335145000Y-236060000D03*
D25*
X342555000Y-108760000D03*
X338805000Y-108760000D03*
X346310000Y-108760000D03*
D26*
X335050000Y-108760000D03*
D27*
X340680000Y-130710000D03*
X340680000Y-214210000D03*
%TD*%
D25*
%TO.C,U10*%
X367885000Y-235860000D03*
X364135000Y-235860000D03*
X371640000Y-235860000D03*
D26*
X360475000Y-235860000D03*
D25*
X367885000Y-108560000D03*
X364135000Y-108560000D03*
X371640000Y-108560000D03*
D26*
X360380000Y-108560000D03*
D27*
X366010000Y-130510000D03*
X366010000Y-214010000D03*
%TD*%
D25*
%TO.C,U13*%
X317110000Y-235860000D03*
X313360000Y-235860000D03*
X320865000Y-235860000D03*
D26*
X309700000Y-235860000D03*
D25*
X317110000Y-108560000D03*
X313360000Y-108560000D03*
X320865000Y-108560000D03*
D26*
X309605000Y-108560000D03*
D27*
X315235000Y-130510000D03*
X315235000Y-214010000D03*
%TD*%
%LPD*%
M02*
