%TF.GenerationSoftware,KiCad,Pcbnew,8.0.4*%
%TF.CreationDate,2024-11-13T09:33:08-05:00*%
%TF.ProjectId,dpx_faded,6470785f-6661-4646-9564-2e6b69636164,rev?*%
%TF.SameCoordinates,Original*%
%TF.FileFunction,Legend,Top*%
%TF.FilePolarity,Positive*%
%FSLAX46Y46*%
G04 Gerber Fmt 4.6, Leading zero omitted, Abs format (unit mm)*
G04 Created by KiCad (PCBNEW 8.0.4) date 2024-11-13 09:33:08*
%MOMM*%
%LPD*%
G01*
G04 APERTURE LIST*
%ADD10C,0.050000*%
%ADD11C,0.150000*%
%ADD12C,0.100000*%
%ADD13C,0.120000*%
%ADD14R,1.700000X1.700000*%
%ADD15O,1.700000X1.700000*%
%ADD16C,2.900000*%
%ADD17C,1.850000*%
G04 APERTURE END LIST*
D10*
X44550000Y-32110000D02*
X49570000Y-32110000D01*
X49570000Y-37130000D01*
X44550000Y-37130000D01*
X44550000Y-32110000D01*
G36*
X44550000Y-32110000D02*
G01*
X49570000Y-32110000D01*
X49570000Y-37130000D01*
X44550000Y-37130000D01*
X44550000Y-32110000D01*
G37*
D11*
G36*
X73972161Y-36559190D02*
G01*
X73805685Y-36559190D01*
X73803483Y-36497997D01*
X73793694Y-36435809D01*
X73777842Y-36398283D01*
X73732724Y-36353454D01*
X73676594Y-36330536D01*
X73620159Y-36324717D01*
X73561879Y-36332259D01*
X73508604Y-36357454D01*
X73484164Y-36378353D01*
X73449437Y-36426631D01*
X73432414Y-36485261D01*
X73430528Y-36515812D01*
X73438214Y-36577810D01*
X73465820Y-36632179D01*
X73470682Y-36637739D01*
X73520901Y-36671845D01*
X73578789Y-36692453D01*
X73607556Y-36699288D01*
X73607556Y-36889797D01*
X73544190Y-36876512D01*
X73487521Y-36858858D01*
X73429873Y-36832739D01*
X73375152Y-36795608D01*
X73346997Y-36768457D01*
X73310709Y-36718009D01*
X73284789Y-36658401D01*
X73270614Y-36598732D01*
X73264377Y-36532049D01*
X73264053Y-36511709D01*
X73267556Y-36451554D01*
X73280499Y-36386844D01*
X73302979Y-36328023D01*
X73334996Y-36275093D01*
X73363704Y-36240893D01*
X73409423Y-36200008D01*
X73460668Y-36169165D01*
X73517438Y-36148365D01*
X73579735Y-36137605D01*
X73617814Y-36135966D01*
X73680819Y-36140902D01*
X73738384Y-36155708D01*
X73798667Y-36185459D01*
X73851545Y-36228646D01*
X73890975Y-36276357D01*
X73929536Y-36222670D01*
X73976196Y-36180090D01*
X74030955Y-36148618D01*
X74093813Y-36128254D01*
X74152381Y-36119769D01*
X74190221Y-36118381D01*
X74251575Y-36122409D01*
X74317658Y-36137294D01*
X74377823Y-36163146D01*
X74432069Y-36199965D01*
X74467193Y-36232979D01*
X74509105Y-36286073D01*
X74540723Y-36345339D01*
X74559631Y-36401049D01*
X74570976Y-36461293D01*
X74574757Y-36526071D01*
X74570729Y-36594459D01*
X74558643Y-36657109D01*
X74538500Y-36714020D01*
X74503693Y-36774738D01*
X74457284Y-36827192D01*
X74409747Y-36864591D01*
X74355890Y-36892077D01*
X74295989Y-36910212D01*
X74233171Y-36920954D01*
X74218065Y-36922623D01*
X74218065Y-36737976D01*
X74276412Y-36722816D01*
X74328372Y-36695139D01*
X74359335Y-36666755D01*
X74391026Y-36615135D01*
X74405939Y-36557439D01*
X74408281Y-36519330D01*
X74400974Y-36459966D01*
X74376334Y-36403658D01*
X74346439Y-36367215D01*
X74294260Y-36330602D01*
X74238173Y-36311884D01*
X74186411Y-36307131D01*
X74126730Y-36312737D01*
X74070713Y-36332443D01*
X74022284Y-36370980D01*
X74003522Y-36396817D01*
X73982084Y-36453718D01*
X73973662Y-36513854D01*
X73972161Y-36559190D01*
G37*
G36*
X74461331Y-35813565D02*
G01*
X74404684Y-35797911D01*
X74382782Y-35780446D01*
X74352897Y-35728547D01*
X74349663Y-35701018D01*
X74365317Y-35643578D01*
X74382782Y-35621591D01*
X74434555Y-35591706D01*
X74462210Y-35588471D01*
X74520179Y-35604125D01*
X74542224Y-35621591D01*
X74571580Y-35672986D01*
X74574757Y-35701018D01*
X74559519Y-35759504D01*
X74542517Y-35781325D01*
X74490165Y-35810417D01*
X74461331Y-35813565D01*
G37*
G36*
X74253988Y-34548914D02*
G01*
X74312736Y-34563977D01*
X74367052Y-34589082D01*
X74416937Y-34624228D01*
X74443452Y-34648820D01*
X74482739Y-34693978D01*
X74515011Y-34747429D01*
X74531966Y-34790383D01*
X74544640Y-34848475D01*
X74552033Y-34908001D01*
X74555413Y-34966674D01*
X74556000Y-35006099D01*
X74556000Y-35295380D01*
X73280466Y-35295380D01*
X73280466Y-35104870D01*
X73281711Y-35044494D01*
X73281988Y-35040683D01*
X73446942Y-35040683D01*
X73446942Y-35106629D01*
X73826788Y-35106629D01*
X73826788Y-35047718D01*
X73823775Y-35009616D01*
X73993264Y-35009616D01*
X73993264Y-35106629D01*
X74368421Y-35106629D01*
X74368421Y-34987927D01*
X74365325Y-34927312D01*
X74354442Y-34869411D01*
X74330498Y-34813441D01*
X74318889Y-34797124D01*
X74274224Y-34757832D01*
X74216815Y-34735730D01*
X74182015Y-34732644D01*
X74121022Y-34742851D01*
X74068543Y-34773470D01*
X74047193Y-34794487D01*
X74016489Y-34847147D01*
X74000848Y-34906823D01*
X73994107Y-34972402D01*
X73993264Y-35009616D01*
X73823775Y-35009616D01*
X73822037Y-34987634D01*
X73803792Y-34930041D01*
X73778135Y-34894138D01*
X73726700Y-34860678D01*
X73668503Y-34846912D01*
X73634520Y-34845191D01*
X73571721Y-34852239D01*
X73517734Y-34875781D01*
X73494715Y-34895310D01*
X73462058Y-34947659D01*
X73448621Y-35006460D01*
X73446942Y-35040683D01*
X73281988Y-35040683D01*
X73286090Y-34984277D01*
X73295725Y-34921762D01*
X73300396Y-34902051D01*
X73320898Y-34843864D01*
X73353147Y-34790072D01*
X73367221Y-34773091D01*
X73410718Y-34733236D01*
X73462148Y-34700831D01*
X73488561Y-34688387D01*
X73543941Y-34668920D01*
X73604402Y-34657969D01*
X73637158Y-34656441D01*
X73703122Y-34663145D01*
X73763847Y-34683258D01*
X73819333Y-34716781D01*
X73863585Y-34757112D01*
X73869579Y-34763712D01*
X73893160Y-34709912D01*
X73929041Y-34658129D01*
X73975111Y-34614761D01*
X73990919Y-34603391D01*
X74047465Y-34572015D01*
X74109392Y-34552260D01*
X74169727Y-34544416D01*
X74190808Y-34543893D01*
X74253988Y-34548914D01*
G37*
G36*
X98982161Y-36559190D02*
G01*
X98815685Y-36559190D01*
X98813483Y-36497997D01*
X98803694Y-36435809D01*
X98787842Y-36398283D01*
X98742724Y-36353454D01*
X98686594Y-36330536D01*
X98630159Y-36324717D01*
X98571879Y-36332259D01*
X98518604Y-36357454D01*
X98494164Y-36378353D01*
X98459437Y-36426631D01*
X98442414Y-36485261D01*
X98440528Y-36515812D01*
X98448214Y-36577810D01*
X98475820Y-36632179D01*
X98480682Y-36637739D01*
X98530901Y-36671845D01*
X98588789Y-36692453D01*
X98617556Y-36699288D01*
X98617556Y-36889797D01*
X98554190Y-36876512D01*
X98497521Y-36858858D01*
X98439873Y-36832739D01*
X98385152Y-36795608D01*
X98356997Y-36768457D01*
X98320709Y-36718009D01*
X98294789Y-36658401D01*
X98280614Y-36598732D01*
X98274377Y-36532049D01*
X98274053Y-36511709D01*
X98277556Y-36451554D01*
X98290499Y-36386844D01*
X98312979Y-36328023D01*
X98344996Y-36275093D01*
X98373704Y-36240893D01*
X98419423Y-36200008D01*
X98470668Y-36169165D01*
X98527438Y-36148365D01*
X98589735Y-36137605D01*
X98627814Y-36135966D01*
X98690819Y-36140902D01*
X98748384Y-36155708D01*
X98808667Y-36185459D01*
X98861545Y-36228646D01*
X98900975Y-36276357D01*
X98939536Y-36222670D01*
X98986196Y-36180090D01*
X99040955Y-36148618D01*
X99103813Y-36128254D01*
X99162381Y-36119769D01*
X99200221Y-36118381D01*
X99261575Y-36122409D01*
X99327658Y-36137294D01*
X99387823Y-36163146D01*
X99442069Y-36199965D01*
X99477193Y-36232979D01*
X99519105Y-36286073D01*
X99550723Y-36345339D01*
X99569631Y-36401049D01*
X99580976Y-36461293D01*
X99584757Y-36526071D01*
X99580729Y-36594459D01*
X99568643Y-36657109D01*
X99548500Y-36714020D01*
X99513693Y-36774738D01*
X99467284Y-36827192D01*
X99419747Y-36864591D01*
X99365890Y-36892077D01*
X99305989Y-36910212D01*
X99243171Y-36920954D01*
X99228065Y-36922623D01*
X99228065Y-36737976D01*
X99286412Y-36722816D01*
X99338372Y-36695139D01*
X99369335Y-36666755D01*
X99401026Y-36615135D01*
X99415939Y-36557439D01*
X99418281Y-36519330D01*
X99410974Y-36459966D01*
X99386334Y-36403658D01*
X99356439Y-36367215D01*
X99304260Y-36330602D01*
X99248173Y-36311884D01*
X99196411Y-36307131D01*
X99136730Y-36312737D01*
X99080713Y-36332443D01*
X99032284Y-36370980D01*
X99013522Y-36396817D01*
X98992084Y-36453718D01*
X98983662Y-36513854D01*
X98982161Y-36559190D01*
G37*
G36*
X99471331Y-35813565D02*
G01*
X99414684Y-35797911D01*
X99392782Y-35780446D01*
X99362897Y-35728547D01*
X99359663Y-35701018D01*
X99375317Y-35643578D01*
X99392782Y-35621591D01*
X99444555Y-35591706D01*
X99472210Y-35588471D01*
X99530179Y-35604125D01*
X99552224Y-35621591D01*
X99581580Y-35672986D01*
X99584757Y-35701018D01*
X99569519Y-35759504D01*
X99552517Y-35781325D01*
X99500165Y-35810417D01*
X99471331Y-35813565D01*
G37*
G36*
X98726982Y-34586713D02*
G01*
X98784444Y-34599109D01*
X98845075Y-34624015D01*
X98898807Y-34660169D01*
X98939370Y-34700111D01*
X98978884Y-34755457D01*
X99005029Y-34809148D01*
X99024043Y-34868609D01*
X99035927Y-34933840D01*
X99040384Y-34992607D01*
X99040780Y-35017236D01*
X99040780Y-35106629D01*
X99556621Y-35106629D01*
X99556621Y-35295380D01*
X98290466Y-35295380D01*
X98290466Y-35078199D01*
X98291016Y-35043614D01*
X98456942Y-35043614D01*
X98456942Y-35106629D01*
X98874304Y-35106629D01*
X98874304Y-35035408D01*
X98870988Y-34973515D01*
X98857519Y-34907754D01*
X98827678Y-34845861D01*
X98782918Y-34802537D01*
X98723237Y-34777780D01*
X98662106Y-34771332D01*
X98603001Y-34777980D01*
X98545298Y-34803506D01*
X98502022Y-34848178D01*
X98473170Y-34911994D01*
X98460147Y-34979798D01*
X98456942Y-35043614D01*
X98291016Y-35043614D01*
X98291518Y-35012060D01*
X98294673Y-34953410D01*
X98301822Y-34889007D01*
X98312448Y-34836985D01*
X98334635Y-34778019D01*
X98367787Y-34724658D01*
X98395979Y-34692198D01*
X98445290Y-34649486D01*
X98499875Y-34617265D01*
X98559733Y-34595534D01*
X98624865Y-34584294D01*
X98664450Y-34582581D01*
X98726982Y-34586713D01*
G37*
G36*
X121186451Y-58217599D02*
G01*
X121186451Y-57740446D01*
X121298558Y-57740446D01*
X121298558Y-58217599D01*
X121186451Y-58217599D01*
G37*
G36*
X122317051Y-58217599D02*
G01*
X122317051Y-57740446D01*
X122429159Y-57740446D01*
X122429159Y-58217599D01*
X122317051Y-58217599D01*
G37*
G36*
X122100896Y-58217599D02*
G01*
X122100896Y-57740446D01*
X122213004Y-57740446D01*
X122213004Y-58217599D01*
X122100896Y-58217599D01*
G37*
G36*
X121871552Y-58217599D02*
G01*
X121871552Y-57740446D01*
X121983660Y-57740446D01*
X121983660Y-58217599D01*
X121871552Y-58217599D01*
G37*
G36*
X121655397Y-58217599D02*
G01*
X121655397Y-57740446D01*
X121767505Y-57740446D01*
X121767505Y-58217599D01*
X121655397Y-58217599D01*
G37*
G36*
X121420924Y-58917892D02*
G01*
X121420924Y-57740446D01*
X121533032Y-57740446D01*
X121533032Y-58917892D01*
X121420924Y-58917892D01*
G37*
G36*
X121655397Y-59167997D02*
G01*
X121655397Y-58690844D01*
X121767505Y-58690844D01*
X121767505Y-59167997D01*
X121655397Y-59167997D01*
G37*
G36*
X122551524Y-58917892D02*
G01*
X122551524Y-57967494D01*
X122663632Y-57967494D01*
X122663632Y-58917892D01*
X122551524Y-58917892D01*
G37*
G36*
X122317051Y-59167997D02*
G01*
X122317051Y-58690844D01*
X122429159Y-58690844D01*
X122429159Y-59167997D01*
X122317051Y-59167997D01*
G37*
G36*
X122100896Y-59167997D02*
G01*
X122100896Y-58690844D01*
X122213004Y-58690844D01*
X122213004Y-59167997D01*
X122100896Y-59167997D01*
G37*
G36*
X121871552Y-59167997D02*
G01*
X121871552Y-58690844D01*
X121983660Y-58690844D01*
X121983660Y-59167997D01*
X121871552Y-59167997D01*
G37*
G36*
X122663632Y-56137431D02*
G01*
X122663632Y-56376985D01*
X122663632Y-56613803D01*
X122663632Y-57331290D01*
X122551524Y-57331290D01*
X122551524Y-56613803D01*
X122551524Y-56376985D01*
X122551524Y-56137431D01*
X122663632Y-56137431D01*
G37*
G36*
X122317051Y-56868597D02*
G01*
X122317051Y-56624354D01*
X122317051Y-56382065D01*
X122317051Y-56137431D01*
X122429159Y-56137431D01*
X122429159Y-56382065D01*
X122429159Y-56624354D01*
X122429159Y-56868597D01*
X122317051Y-56868597D01*
G37*
G36*
X122317051Y-57568890D02*
G01*
X122317051Y-57091737D01*
X122429159Y-57091737D01*
X122429159Y-57568890D01*
X122317051Y-57568890D01*
G37*
G36*
X122100896Y-57091737D02*
G01*
X122213004Y-57091737D01*
X122213004Y-57568890D01*
X122100896Y-57568890D01*
X122100896Y-57091737D01*
G37*
G36*
X121871552Y-57091737D02*
G01*
X121983660Y-57091737D01*
X121983660Y-57568890D01*
X121871552Y-57568890D01*
X121871552Y-57091737D01*
G37*
G36*
X121655397Y-57091737D02*
G01*
X121767505Y-57091737D01*
X121767505Y-57568890D01*
X121655397Y-57568890D01*
X121655397Y-57091737D01*
G37*
G36*
X121420924Y-57091737D02*
G01*
X121533032Y-57091737D01*
X121533032Y-57568890D01*
X121420924Y-57568890D01*
X121420924Y-57091737D01*
G37*
G36*
X121533032Y-56137431D02*
G01*
X121533032Y-56614584D01*
X121420924Y-56614584D01*
X121420924Y-56137431D01*
X121533032Y-56137431D01*
G37*
G36*
X121767505Y-56137431D02*
G01*
X121767505Y-56614584D01*
X121655397Y-56614584D01*
X121655397Y-56137431D01*
X121767505Y-56137431D01*
G37*
G36*
X121983660Y-56137431D02*
G01*
X121983660Y-56614584D01*
X121871552Y-56614584D01*
X121871552Y-56137431D01*
X121983660Y-56137431D01*
G37*
G36*
X122213004Y-56137431D02*
G01*
X122213004Y-56614584D01*
X122100896Y-56614584D01*
X122100896Y-56137431D01*
X122213004Y-56137431D01*
G37*
G36*
X121186451Y-55969783D02*
G01*
X121186451Y-55492630D01*
X121298558Y-55492630D01*
X121298558Y-55969783D01*
X121186451Y-55969783D01*
G37*
G36*
X121533032Y-54769281D02*
G01*
X121533032Y-55969783D01*
X121420924Y-55969783D01*
X121420924Y-54769281D01*
X121533032Y-54769281D01*
G37*
G36*
X121767505Y-55019385D02*
G01*
X121655397Y-55019385D01*
X121655397Y-54542232D01*
X121767505Y-54542232D01*
X121767505Y-55019385D01*
G37*
G36*
X121871552Y-55019385D02*
G01*
X121871552Y-54542232D01*
X121983660Y-54542232D01*
X121983660Y-55019385D01*
X121871552Y-55019385D01*
G37*
G36*
X122100896Y-55019385D02*
G01*
X122100896Y-54542232D01*
X122213004Y-54542232D01*
X122213004Y-55019385D01*
X122100896Y-55019385D01*
G37*
G36*
X122317051Y-55019385D02*
G01*
X122317051Y-54542232D01*
X122429159Y-54542232D01*
X122429159Y-55019385D01*
X122317051Y-55019385D01*
G37*
G36*
X122551524Y-55719678D02*
G01*
X122551524Y-54769281D01*
X122663632Y-54769281D01*
X122663632Y-55719678D01*
X122551524Y-55719678D01*
G37*
G36*
X122317051Y-55969783D02*
G01*
X122317051Y-55492630D01*
X122429159Y-55492630D01*
X122429159Y-55969783D01*
X122317051Y-55969783D01*
G37*
G36*
X122100896Y-55969783D02*
G01*
X122100896Y-55492630D01*
X122213004Y-55492630D01*
X122213004Y-55969783D01*
X122100896Y-55969783D01*
G37*
G36*
X121871552Y-55969783D02*
G01*
X121871552Y-55492630D01*
X121983660Y-55492630D01*
X121983660Y-55969783D01*
X121871552Y-55969783D01*
G37*
G36*
X121655397Y-55969783D02*
G01*
X121655397Y-55244480D01*
X121767505Y-55244480D01*
X121767505Y-55969783D01*
X121655397Y-55969783D01*
G37*
G36*
X122663632Y-54370676D02*
G01*
X122551524Y-54370676D01*
X122551524Y-53893523D01*
X122663632Y-53893523D01*
X122663632Y-54370676D01*
G37*
G36*
X121871552Y-54370676D02*
G01*
X121871552Y-53893523D01*
X121983660Y-53893523D01*
X121983660Y-54370676D01*
X121871552Y-54370676D01*
G37*
G36*
X121655397Y-54370676D02*
G01*
X121655397Y-53893523D01*
X121767505Y-53893523D01*
X121767505Y-54370676D01*
X121655397Y-54370676D01*
G37*
G36*
X121533032Y-53183070D02*
G01*
X121533032Y-54370676D01*
X121420924Y-54370676D01*
X121420924Y-53183070D01*
X121533032Y-53183070D01*
G37*
G36*
X121767505Y-53420279D02*
G01*
X121655397Y-53420279D01*
X121655397Y-52943126D01*
X121767505Y-52943126D01*
X121767505Y-53420279D01*
G37*
G36*
X121983660Y-53420279D02*
G01*
X121871552Y-53420279D01*
X121871552Y-52943126D01*
X121983660Y-52943126D01*
X121983660Y-53420279D01*
G37*
G36*
X122213004Y-54370676D02*
G01*
X122100896Y-54370676D01*
X122100896Y-53183070D01*
X122213004Y-53183070D01*
X122213004Y-54370676D01*
G37*
G36*
X122429159Y-54370676D02*
G01*
X122317051Y-54370676D01*
X122317051Y-53893523D01*
X122429159Y-53893523D01*
X122429159Y-54370676D01*
G37*
G36*
X122663632Y-52523419D02*
G01*
X122551524Y-52523419D01*
X122551524Y-52046266D01*
X122663632Y-52046266D01*
X122663632Y-52523419D01*
G37*
G36*
X122100896Y-52523419D02*
G01*
X122100896Y-52046266D01*
X122213004Y-52046266D01*
X122213004Y-52523419D01*
X122100896Y-52523419D01*
G37*
G36*
X121871552Y-52523419D02*
G01*
X121871552Y-52046266D01*
X121983660Y-52046266D01*
X121983660Y-52523419D01*
X121871552Y-52523419D01*
G37*
G36*
X121655397Y-52771570D02*
G01*
X121655397Y-52046266D01*
X121767505Y-52046266D01*
X121767505Y-52771570D01*
X121655397Y-52771570D01*
G37*
G36*
X121186451Y-52523419D02*
G01*
X121186451Y-52046266D01*
X121298558Y-52046266D01*
X121298558Y-52523419D01*
X121186451Y-52523419D01*
G37*
G36*
X122429159Y-52523419D02*
G01*
X122317051Y-52523419D01*
X122317051Y-52046266D01*
X122429159Y-52046266D01*
X122429159Y-52523419D01*
G37*
G36*
X122663632Y-51927466D02*
G01*
X122551524Y-51927466D01*
X122551524Y-51450313D01*
X122663632Y-51450313D01*
X122663632Y-51927466D01*
G37*
G36*
X121871552Y-51450313D02*
G01*
X121871552Y-50975115D01*
X121983660Y-50975115D01*
X121983660Y-51450313D01*
X121871552Y-51450313D01*
G37*
G36*
X121655397Y-51677362D02*
G01*
X121655397Y-50726964D01*
X121767505Y-50726964D01*
X121767505Y-51677362D01*
X121655397Y-51677362D01*
G37*
G36*
X121420924Y-50975115D02*
G01*
X121420924Y-50499916D01*
X121533032Y-50499916D01*
X121533032Y-50975115D01*
X121420924Y-50975115D01*
G37*
G36*
X121420924Y-51927466D02*
G01*
X121420924Y-51450313D01*
X121533032Y-51450313D01*
X121533032Y-51927466D01*
X121420924Y-51927466D01*
G37*
G36*
X122213004Y-51677362D02*
G01*
X122100896Y-51677362D01*
X122100896Y-50726964D01*
X122213004Y-50726964D01*
X122213004Y-51677362D01*
G37*
G36*
X122429159Y-50975115D02*
G01*
X122317051Y-50975115D01*
X122317051Y-50499916D01*
X122429159Y-50499916D01*
X122429159Y-50975115D01*
G37*
G36*
X122663632Y-50975115D02*
G01*
X122551524Y-50975115D01*
X122551524Y-50499916D01*
X122663632Y-50499916D01*
X122663632Y-50975115D01*
G37*
G36*
X122429159Y-51927466D02*
G01*
X122317051Y-51927466D01*
X122317051Y-51450313D01*
X122429159Y-51450313D01*
X122429159Y-51927466D01*
G37*
G36*
X122663632Y-49127857D02*
G01*
X122663632Y-50078255D01*
X122551524Y-50078255D01*
X122551524Y-49127857D01*
X122663632Y-49127857D01*
G37*
G36*
X121420924Y-50078255D02*
G01*
X121420924Y-49127857D01*
X121533032Y-49127857D01*
X121533032Y-50078255D01*
X121420924Y-50078255D01*
G37*
G36*
X121767505Y-50328360D02*
G01*
X121655397Y-50328360D01*
X121655397Y-49851207D01*
X121767505Y-49851207D01*
X121767505Y-50328360D01*
G37*
G36*
X121983660Y-50328360D02*
G01*
X121871552Y-50328360D01*
X121871552Y-49851207D01*
X121983660Y-49851207D01*
X121983660Y-50328360D01*
G37*
G36*
X121767505Y-49377962D02*
G01*
X121655397Y-49377962D01*
X121655397Y-48900809D01*
X121767505Y-48900809D01*
X121767505Y-49377962D01*
G37*
G36*
X121983660Y-49377962D02*
G01*
X121871552Y-49377962D01*
X121871552Y-48900809D01*
X121983660Y-48900809D01*
X121983660Y-49377962D01*
G37*
G36*
X122100896Y-50328360D02*
G01*
X122100896Y-49127857D01*
X122213004Y-49127857D01*
X122213004Y-50328360D01*
X122100896Y-50328360D01*
G37*
G36*
X122429159Y-49851207D02*
G01*
X122429159Y-50328360D01*
X122317051Y-50328360D01*
X122317051Y-49851207D01*
X122429159Y-49851207D01*
G37*
G36*
X121186451Y-48729253D02*
G01*
X121186451Y-48003949D01*
X121298558Y-48003949D01*
X121298558Y-48729253D01*
X121186451Y-48729253D01*
G37*
G36*
X122551524Y-48729253D02*
G01*
X122551524Y-47778855D01*
X122663632Y-47778855D01*
X122663632Y-48729253D01*
X122551524Y-48729253D01*
G37*
G36*
X122317051Y-48481102D02*
G01*
X122317051Y-48003949D01*
X122429159Y-48003949D01*
X122429159Y-48481102D01*
X122317051Y-48481102D01*
G37*
G36*
X122100896Y-48481102D02*
G01*
X122100896Y-48003949D01*
X122213004Y-48003949D01*
X122213004Y-48481102D01*
X122100896Y-48481102D01*
G37*
G36*
X121871552Y-48481102D02*
G01*
X121871552Y-48003949D01*
X121983660Y-48003949D01*
X121983660Y-48481102D01*
X121871552Y-48481102D01*
G37*
G36*
X121655397Y-48481102D02*
G01*
X121655397Y-48003949D01*
X121767505Y-48003949D01*
X121767505Y-48481102D01*
X121655397Y-48481102D01*
G37*
G36*
X121420924Y-48481102D02*
G01*
X121420924Y-48003949D01*
X121533032Y-48003949D01*
X121533032Y-48481102D01*
X121420924Y-48481102D01*
G37*
G36*
X88288044Y-36549811D02*
G01*
X88288044Y-36768750D01*
X88100466Y-36663824D01*
X88100466Y-36361060D01*
X89385378Y-36361060D01*
X89385378Y-36549811D01*
X88288044Y-36549811D01*
G37*
G36*
X89281331Y-35913217D02*
G01*
X89224684Y-35897562D01*
X89202782Y-35880097D01*
X89172897Y-35828198D01*
X89169663Y-35800669D01*
X89185317Y-35743229D01*
X89202782Y-35721242D01*
X89254555Y-35691357D01*
X89282210Y-35688122D01*
X89340179Y-35703776D01*
X89362224Y-35721242D01*
X89391580Y-35772637D01*
X89394757Y-35800669D01*
X89379519Y-35859155D01*
X89362517Y-35880976D01*
X89310165Y-35910068D01*
X89281331Y-35913217D01*
G37*
G36*
X88288044Y-35038632D02*
G01*
X89376000Y-35038632D01*
X89376000Y-35227383D01*
X88288044Y-35227383D01*
X88288044Y-35526336D01*
X88100466Y-35526336D01*
X88100466Y-34757264D01*
X88288044Y-34757264D01*
X88288044Y-35038632D01*
G37*
G36*
X191245129Y-175788171D02*
G01*
X195739197Y-175788171D01*
X195739197Y-176161863D01*
X191245129Y-176161863D01*
X191245129Y-175788171D01*
G37*
G36*
X194254200Y-179556838D02*
G01*
X195739197Y-179556838D01*
X195739197Y-179930530D01*
X194254200Y-179930530D01*
X194254200Y-179556838D01*
G37*
G36*
X194957620Y-178445533D02*
G01*
X191993733Y-178445533D01*
X191993733Y-178071842D01*
X194957620Y-178071842D01*
X194957620Y-178445533D01*
G37*
G36*
X194254200Y-178836322D02*
G01*
X195739197Y-178836322D01*
X195739197Y-179210013D01*
X194254200Y-179210013D01*
X194254200Y-178836322D01*
G37*
G36*
X191245129Y-180338415D02*
G01*
X194957620Y-180338415D01*
X194957620Y-180712107D01*
X191245129Y-180712107D01*
X191245129Y-180338415D01*
G37*
G36*
X190502630Y-179556838D02*
G01*
X191993733Y-179556838D01*
X191993733Y-179930530D01*
X190502630Y-179930530D01*
X190502630Y-179556838D01*
G37*
G36*
X192763098Y-177351325D02*
G01*
X194254200Y-177351325D01*
X194254200Y-177725017D01*
X192763098Y-177725017D01*
X192763098Y-177351325D01*
G37*
G36*
X193466517Y-176569748D02*
G01*
X194957620Y-176569748D01*
X194957620Y-176943440D01*
X193466517Y-176943440D01*
X193466517Y-176569748D01*
G37*
G36*
X85848044Y-36549811D02*
G01*
X85848044Y-36768750D01*
X85660466Y-36663824D01*
X85660466Y-36361060D01*
X86945378Y-36361060D01*
X86945378Y-36549811D01*
X85848044Y-36549811D01*
G37*
G36*
X86841331Y-35913217D02*
G01*
X86784684Y-35897562D01*
X86762782Y-35880097D01*
X86732897Y-35828198D01*
X86729663Y-35800669D01*
X86745317Y-35743229D01*
X86762782Y-35721242D01*
X86814555Y-35691357D01*
X86842210Y-35688122D01*
X86900179Y-35703776D01*
X86922224Y-35721242D01*
X86951580Y-35772637D01*
X86954757Y-35800669D01*
X86939519Y-35859155D01*
X86922517Y-35880976D01*
X86870165Y-35910068D01*
X86841331Y-35913217D01*
G37*
G36*
X86096982Y-34686364D02*
G01*
X86154444Y-34698760D01*
X86215075Y-34723666D01*
X86268807Y-34759821D01*
X86309370Y-34799762D01*
X86348884Y-34855108D01*
X86375029Y-34908799D01*
X86394043Y-34968260D01*
X86405927Y-35033491D01*
X86410384Y-35092258D01*
X86410780Y-35116887D01*
X86410780Y-35206280D01*
X86926621Y-35206280D01*
X86926621Y-35395031D01*
X85660466Y-35395031D01*
X85660466Y-35177850D01*
X85661016Y-35143265D01*
X85826942Y-35143265D01*
X85826942Y-35206280D01*
X86244304Y-35206280D01*
X86244304Y-35135059D01*
X86240988Y-35073166D01*
X86227519Y-35007405D01*
X86197678Y-34945513D01*
X86152918Y-34902188D01*
X86093237Y-34877431D01*
X86032106Y-34870983D01*
X85973001Y-34877631D01*
X85915298Y-34903157D01*
X85872022Y-34947829D01*
X85843170Y-35011645D01*
X85830147Y-35079449D01*
X85826942Y-35143265D01*
X85661016Y-35143265D01*
X85661518Y-35111711D01*
X85664673Y-35053061D01*
X85671822Y-34988658D01*
X85682448Y-34936636D01*
X85704635Y-34877670D01*
X85737787Y-34824309D01*
X85765979Y-34791849D01*
X85815290Y-34749137D01*
X85869875Y-34716916D01*
X85929733Y-34695185D01*
X85994865Y-34683945D01*
X86034450Y-34682233D01*
X86096982Y-34686364D01*
G37*
G36*
X171914207Y-175928171D02*
G01*
X175587620Y-175928171D01*
X175587620Y-176301863D01*
X171914207Y-176301863D01*
X171914207Y-175928171D01*
G37*
G36*
X174884200Y-176709748D02*
G01*
X176369197Y-176709748D01*
X176369197Y-177083440D01*
X174884200Y-177083440D01*
X174884200Y-176709748D01*
G37*
G36*
X174102623Y-177491325D02*
G01*
X176369197Y-177491325D01*
X176369197Y-177865017D01*
X174102623Y-177865017D01*
X174102623Y-177491325D01*
G37*
G36*
X172623733Y-178211842D02*
G01*
X175587620Y-178211842D01*
X175587620Y-178585533D01*
X172623733Y-178585533D01*
X172623733Y-178211842D01*
G37*
G36*
X171914207Y-178976322D02*
G01*
X174884200Y-178976322D01*
X174884200Y-179350013D01*
X171914207Y-179350013D01*
X171914207Y-178976322D01*
G37*
G36*
X171132630Y-179696838D02*
G01*
X173399204Y-179696838D01*
X173399204Y-180070530D01*
X171132630Y-180070530D01*
X171132630Y-179696838D01*
G37*
G36*
X171132630Y-180478415D02*
G01*
X176369197Y-180478415D01*
X176369197Y-180852107D01*
X171132630Y-180852107D01*
X171132630Y-180478415D01*
G37*
G36*
X171132630Y-176709748D02*
G01*
X172623733Y-176709748D01*
X172623733Y-177083440D01*
X171132630Y-177083440D01*
X171132630Y-176709748D01*
G37*
G36*
X60618044Y-36549811D02*
G01*
X60618044Y-36768750D01*
X60430466Y-36663824D01*
X60430466Y-36361060D01*
X61715378Y-36361060D01*
X61715378Y-36549811D01*
X60618044Y-36549811D01*
G37*
G36*
X61611331Y-35913217D02*
G01*
X61554684Y-35897562D01*
X61532782Y-35880097D01*
X61502897Y-35828198D01*
X61499663Y-35800669D01*
X61515317Y-35743229D01*
X61532782Y-35721242D01*
X61584555Y-35691357D01*
X61612210Y-35688122D01*
X61670179Y-35703776D01*
X61692224Y-35721242D01*
X61721580Y-35772637D01*
X61724757Y-35800669D01*
X61709519Y-35859155D01*
X61692517Y-35880976D01*
X61640165Y-35910068D01*
X61611331Y-35913217D01*
G37*
G36*
X61715378Y-34516343D02*
G01*
X61405874Y-34649406D01*
X61405874Y-35191625D01*
X61715378Y-35332602D01*
X61715378Y-35538646D01*
X60362136Y-34914947D01*
X60785399Y-34914947D01*
X61218295Y-35111905D01*
X61218295Y-34727369D01*
X60785399Y-34914947D01*
X60362136Y-34914947D01*
X60355141Y-34911723D01*
X61715378Y-34307369D01*
X61715378Y-34516343D01*
G37*
G36*
X151533551Y-180338415D02*
G01*
X156027620Y-180338415D01*
X156027620Y-180712107D01*
X151533551Y-180712107D01*
X151533551Y-180338415D01*
G37*
G36*
X153051521Y-177351325D02*
G01*
X154542623Y-177351325D01*
X154542623Y-177725017D01*
X153051521Y-177725017D01*
X153051521Y-177351325D01*
G37*
G36*
X154542623Y-176569748D02*
G01*
X154542623Y-176943440D01*
X152276050Y-176943440D01*
X152276050Y-176569748D01*
X154542623Y-176569748D01*
G37*
G36*
X154542623Y-175788171D02*
G01*
X154542623Y-176161863D01*
X153051521Y-176161863D01*
X153051521Y-175788171D01*
X154542623Y-175788171D01*
G37*
G36*
X153051521Y-178445533D02*
G01*
X153051521Y-178071842D01*
X154542623Y-178071842D01*
X154542623Y-178445533D01*
X153051521Y-178445533D01*
G37*
G36*
X153051521Y-179210013D02*
G01*
X153051521Y-178836322D01*
X154542623Y-178836322D01*
X154542623Y-179210013D01*
X153051521Y-179210013D01*
G37*
G36*
X153051521Y-179930530D02*
G01*
X153051521Y-179556838D01*
X154542623Y-179556838D01*
X154542623Y-179930530D01*
X153051521Y-179930530D01*
G37*
G36*
X96542161Y-36559190D02*
G01*
X96375685Y-36559190D01*
X96373483Y-36497997D01*
X96363694Y-36435809D01*
X96347842Y-36398283D01*
X96302724Y-36353454D01*
X96246594Y-36330536D01*
X96190159Y-36324717D01*
X96131879Y-36332259D01*
X96078604Y-36357454D01*
X96054164Y-36378353D01*
X96019437Y-36426631D01*
X96002414Y-36485261D01*
X96000528Y-36515812D01*
X96008214Y-36577810D01*
X96035820Y-36632179D01*
X96040682Y-36637739D01*
X96090901Y-36671845D01*
X96148789Y-36692453D01*
X96177556Y-36699288D01*
X96177556Y-36889797D01*
X96114190Y-36876512D01*
X96057521Y-36858858D01*
X95999873Y-36832739D01*
X95945152Y-36795608D01*
X95916997Y-36768457D01*
X95880709Y-36718009D01*
X95854789Y-36658401D01*
X95840614Y-36598732D01*
X95834377Y-36532049D01*
X95834053Y-36511709D01*
X95837556Y-36451554D01*
X95850499Y-36386844D01*
X95872979Y-36328023D01*
X95904996Y-36275093D01*
X95933704Y-36240893D01*
X95979423Y-36200008D01*
X96030668Y-36169165D01*
X96087438Y-36148365D01*
X96149735Y-36137605D01*
X96187814Y-36135966D01*
X96250819Y-36140902D01*
X96308384Y-36155708D01*
X96368667Y-36185459D01*
X96421545Y-36228646D01*
X96460975Y-36276357D01*
X96499536Y-36222670D01*
X96546196Y-36180090D01*
X96600955Y-36148618D01*
X96663813Y-36128254D01*
X96722381Y-36119769D01*
X96760221Y-36118381D01*
X96821575Y-36122409D01*
X96887658Y-36137294D01*
X96947823Y-36163146D01*
X97002069Y-36199965D01*
X97037193Y-36232979D01*
X97079105Y-36286073D01*
X97110723Y-36345339D01*
X97129631Y-36401049D01*
X97140976Y-36461293D01*
X97144757Y-36526071D01*
X97140729Y-36594459D01*
X97128643Y-36657109D01*
X97108500Y-36714020D01*
X97073693Y-36774738D01*
X97027284Y-36827192D01*
X96979747Y-36864591D01*
X96925890Y-36892077D01*
X96865989Y-36910212D01*
X96803171Y-36920954D01*
X96788065Y-36922623D01*
X96788065Y-36737976D01*
X96846412Y-36722816D01*
X96898372Y-36695139D01*
X96929335Y-36666755D01*
X96961026Y-36615135D01*
X96975939Y-36557439D01*
X96978281Y-36519330D01*
X96970974Y-36459966D01*
X96946334Y-36403658D01*
X96916439Y-36367215D01*
X96864260Y-36330602D01*
X96808173Y-36311884D01*
X96756411Y-36307131D01*
X96696730Y-36312737D01*
X96640713Y-36332443D01*
X96592284Y-36370980D01*
X96573522Y-36396817D01*
X96552084Y-36453718D01*
X96543662Y-36513854D01*
X96542161Y-36559190D01*
G37*
G36*
X97031331Y-35813565D02*
G01*
X96974684Y-35797911D01*
X96952782Y-35780446D01*
X96922897Y-35728547D01*
X96919663Y-35701018D01*
X96935317Y-35643578D01*
X96952782Y-35621591D01*
X97004555Y-35591706D01*
X97032210Y-35588471D01*
X97090179Y-35604125D01*
X97112224Y-35621591D01*
X97141580Y-35672986D01*
X97144757Y-35701018D01*
X97129519Y-35759504D01*
X97112517Y-35781325D01*
X97060165Y-35810417D01*
X97031331Y-35813565D01*
G37*
G36*
X96038044Y-34938981D02*
G01*
X97126000Y-34938981D01*
X97126000Y-35127732D01*
X96038044Y-35127732D01*
X96038044Y-35426685D01*
X95850466Y-35426685D01*
X95850466Y-34657613D01*
X96038044Y-34657613D01*
X96038044Y-34938981D01*
G37*
G36*
X104558421Y-36173482D02*
G01*
X104736621Y-36173482D01*
X104736621Y-36362233D01*
X104558421Y-36362233D01*
X104558421Y-36984173D01*
X103654067Y-36362233D01*
X103965497Y-36362233D01*
X104391945Y-36654445D01*
X104391945Y-36362233D01*
X103965497Y-36362233D01*
X103654067Y-36362233D01*
X103379607Y-36173482D01*
X104391945Y-36173482D01*
X104391945Y-36033970D01*
X104558421Y-36033970D01*
X104558421Y-36173482D01*
G37*
G36*
X104651331Y-35813565D02*
G01*
X104594684Y-35797911D01*
X104572782Y-35780446D01*
X104542897Y-35728547D01*
X104539663Y-35701018D01*
X104555317Y-35643578D01*
X104572782Y-35621591D01*
X104624555Y-35591706D01*
X104652210Y-35588471D01*
X104710179Y-35604125D01*
X104732224Y-35621591D01*
X104761580Y-35672986D01*
X104764757Y-35701018D01*
X104749519Y-35759504D01*
X104732517Y-35781325D01*
X104680165Y-35810417D01*
X104651331Y-35813565D01*
G37*
G36*
X103906982Y-34586713D02*
G01*
X103964444Y-34599109D01*
X104025075Y-34624015D01*
X104078807Y-34660169D01*
X104119370Y-34700111D01*
X104158884Y-34755457D01*
X104185029Y-34809148D01*
X104204043Y-34868609D01*
X104215927Y-34933840D01*
X104220384Y-34992607D01*
X104220780Y-35017236D01*
X104220780Y-35106629D01*
X104736621Y-35106629D01*
X104736621Y-35295380D01*
X103470466Y-35295380D01*
X103470466Y-35078199D01*
X103471016Y-35043614D01*
X103636942Y-35043614D01*
X103636942Y-35106629D01*
X104054304Y-35106629D01*
X104054304Y-35035408D01*
X104050988Y-34973515D01*
X104037519Y-34907754D01*
X104007678Y-34845861D01*
X103962918Y-34802537D01*
X103903237Y-34777780D01*
X103842106Y-34771332D01*
X103783001Y-34777980D01*
X103725298Y-34803506D01*
X103682022Y-34848178D01*
X103653170Y-34911994D01*
X103640147Y-34979798D01*
X103636942Y-35043614D01*
X103471016Y-35043614D01*
X103471518Y-35012060D01*
X103474673Y-34953410D01*
X103481822Y-34889007D01*
X103492448Y-34836985D01*
X103514635Y-34778019D01*
X103547787Y-34724658D01*
X103575979Y-34692198D01*
X103625290Y-34649486D01*
X103679875Y-34617265D01*
X103739733Y-34595534D01*
X103804865Y-34584294D01*
X103844450Y-34582581D01*
X103906982Y-34586713D01*
G37*
G36*
X71292161Y-36559190D02*
G01*
X71125685Y-36559190D01*
X71123483Y-36497997D01*
X71113694Y-36435809D01*
X71097842Y-36398283D01*
X71052724Y-36353454D01*
X70996594Y-36330536D01*
X70940159Y-36324717D01*
X70881879Y-36332259D01*
X70828604Y-36357454D01*
X70804164Y-36378353D01*
X70769437Y-36426631D01*
X70752414Y-36485261D01*
X70750528Y-36515812D01*
X70758214Y-36577810D01*
X70785820Y-36632179D01*
X70790682Y-36637739D01*
X70840901Y-36671845D01*
X70898789Y-36692453D01*
X70927556Y-36699288D01*
X70927556Y-36889797D01*
X70864190Y-36876512D01*
X70807521Y-36858858D01*
X70749873Y-36832739D01*
X70695152Y-36795608D01*
X70666997Y-36768457D01*
X70630709Y-36718009D01*
X70604789Y-36658401D01*
X70590614Y-36598732D01*
X70584377Y-36532049D01*
X70584053Y-36511709D01*
X70587556Y-36451554D01*
X70600499Y-36386844D01*
X70622979Y-36328023D01*
X70654996Y-36275093D01*
X70683704Y-36240893D01*
X70729423Y-36200008D01*
X70780668Y-36169165D01*
X70837438Y-36148365D01*
X70899735Y-36137605D01*
X70937814Y-36135966D01*
X71000819Y-36140902D01*
X71058384Y-36155708D01*
X71118667Y-36185459D01*
X71171545Y-36228646D01*
X71210975Y-36276357D01*
X71249536Y-36222670D01*
X71296196Y-36180090D01*
X71350955Y-36148618D01*
X71413813Y-36128254D01*
X71472381Y-36119769D01*
X71510221Y-36118381D01*
X71571575Y-36122409D01*
X71637658Y-36137294D01*
X71697823Y-36163146D01*
X71752069Y-36199965D01*
X71787193Y-36232979D01*
X71829105Y-36286073D01*
X71860723Y-36345339D01*
X71879631Y-36401049D01*
X71890976Y-36461293D01*
X71894757Y-36526071D01*
X71890729Y-36594459D01*
X71878643Y-36657109D01*
X71858500Y-36714020D01*
X71823693Y-36774738D01*
X71777284Y-36827192D01*
X71729747Y-36864591D01*
X71675890Y-36892077D01*
X71615989Y-36910212D01*
X71553171Y-36920954D01*
X71538065Y-36922623D01*
X71538065Y-36737976D01*
X71596412Y-36722816D01*
X71648372Y-36695139D01*
X71679335Y-36666755D01*
X71711026Y-36615135D01*
X71725939Y-36557439D01*
X71728281Y-36519330D01*
X71720974Y-36459966D01*
X71696334Y-36403658D01*
X71666439Y-36367215D01*
X71614260Y-36330602D01*
X71558173Y-36311884D01*
X71506411Y-36307131D01*
X71446730Y-36312737D01*
X71390713Y-36332443D01*
X71342284Y-36370980D01*
X71323522Y-36396817D01*
X71302084Y-36453718D01*
X71293662Y-36513854D01*
X71292161Y-36559190D01*
G37*
G36*
X71781331Y-35813565D02*
G01*
X71724684Y-35797911D01*
X71702782Y-35780446D01*
X71672897Y-35728547D01*
X71669663Y-35701018D01*
X71685317Y-35643578D01*
X71702782Y-35621591D01*
X71754555Y-35591706D01*
X71782210Y-35588471D01*
X71840179Y-35604125D01*
X71862224Y-35621591D01*
X71891580Y-35672986D01*
X71894757Y-35701018D01*
X71879519Y-35759504D01*
X71862517Y-35781325D01*
X71810165Y-35810417D01*
X71781331Y-35813565D01*
G37*
G36*
X71885378Y-34416692D02*
G01*
X71575874Y-34549755D01*
X71575874Y-35091974D01*
X71885378Y-35232951D01*
X71885378Y-35438995D01*
X70532136Y-34815296D01*
X70955399Y-34815296D01*
X71388295Y-35012254D01*
X71388295Y-34627718D01*
X70955399Y-34815296D01*
X70532136Y-34815296D01*
X70525141Y-34812072D01*
X71885378Y-34207718D01*
X71885378Y-34416692D01*
G37*
G36*
X66448421Y-36570034D02*
G01*
X66448421Y-36098450D01*
X66636000Y-36098450D01*
X66636000Y-36949002D01*
X66098470Y-36509364D01*
X66050522Y-36470942D01*
X66002540Y-36433438D01*
X65959545Y-36400921D01*
X65911644Y-36366435D01*
X65860773Y-36333803D01*
X65804705Y-36305405D01*
X65744815Y-36288840D01*
X65720968Y-36287201D01*
X65658004Y-36295980D01*
X65603200Y-36322317D01*
X65571198Y-36349630D01*
X65534228Y-36400394D01*
X65514320Y-36459484D01*
X65510528Y-36503503D01*
X65518545Y-36569733D01*
X65542594Y-36624444D01*
X65582677Y-36667635D01*
X65638793Y-36699306D01*
X65697803Y-36716899D01*
X65738554Y-36723614D01*
X65738554Y-36913831D01*
X65668052Y-36902446D01*
X65604485Y-36885550D01*
X65547852Y-36863140D01*
X65483130Y-36824686D01*
X65430735Y-36776431D01*
X65390668Y-36718376D01*
X65362930Y-36650521D01*
X65350217Y-36593198D01*
X65344438Y-36530362D01*
X65344053Y-36508192D01*
X65347906Y-36445084D01*
X65359467Y-36385891D01*
X65382697Y-36321781D01*
X65416416Y-36263001D01*
X65453669Y-36216859D01*
X65496609Y-36176619D01*
X65551342Y-36140194D01*
X65611068Y-36115102D01*
X65675787Y-36101341D01*
X65725071Y-36098450D01*
X65788968Y-36103860D01*
X65852062Y-36120089D01*
X65908162Y-36143945D01*
X65926718Y-36153845D01*
X65979475Y-36185744D01*
X66027615Y-36219610D01*
X66049230Y-36235910D01*
X66095896Y-36272392D01*
X66142202Y-36309973D01*
X66192589Y-36352052D01*
X66216293Y-36372198D01*
X66448421Y-36570034D01*
G37*
G36*
X66541331Y-35813565D02*
G01*
X66484684Y-35797911D01*
X66462782Y-35780446D01*
X66432897Y-35728547D01*
X66429663Y-35701018D01*
X66445317Y-35643578D01*
X66462782Y-35621591D01*
X66514555Y-35591706D01*
X66542210Y-35588471D01*
X66600179Y-35604125D01*
X66622224Y-35621591D01*
X66651580Y-35672986D01*
X66654757Y-35701018D01*
X66639519Y-35759504D01*
X66622517Y-35781325D01*
X66570165Y-35810417D01*
X66541331Y-35813565D01*
G37*
G36*
X66645378Y-34416692D02*
G01*
X66335874Y-34549755D01*
X66335874Y-35091974D01*
X66645378Y-35232951D01*
X66645378Y-35438995D01*
X65292136Y-34815296D01*
X65715399Y-34815296D01*
X66148295Y-35012254D01*
X66148295Y-34627718D01*
X65715399Y-34815296D01*
X65292136Y-34815296D01*
X65285141Y-34812072D01*
X66645378Y-34207718D01*
X66645378Y-34416692D01*
G37*
G36*
X101918421Y-36173482D02*
G01*
X102096621Y-36173482D01*
X102096621Y-36362233D01*
X101918421Y-36362233D01*
X101918421Y-36984173D01*
X101014067Y-36362233D01*
X101325497Y-36362233D01*
X101751945Y-36654445D01*
X101751945Y-36362233D01*
X101325497Y-36362233D01*
X101014067Y-36362233D01*
X100739607Y-36173482D01*
X101751945Y-36173482D01*
X101751945Y-36033970D01*
X101918421Y-36033970D01*
X101918421Y-36173482D01*
G37*
G36*
X102011331Y-35813565D02*
G01*
X101954684Y-35797911D01*
X101932782Y-35780446D01*
X101902897Y-35728547D01*
X101899663Y-35701018D01*
X101915317Y-35643578D01*
X101932782Y-35621591D01*
X101984555Y-35591706D01*
X102012210Y-35588471D01*
X102070179Y-35604125D01*
X102092224Y-35621591D01*
X102121580Y-35672986D01*
X102124757Y-35701018D01*
X102109519Y-35759504D01*
X102092517Y-35781325D01*
X102040165Y-35810417D01*
X102011331Y-35813565D01*
G37*
G36*
X101018044Y-34938981D02*
G01*
X102106000Y-34938981D01*
X102106000Y-35127732D01*
X101018044Y-35127732D01*
X101018044Y-35426685D01*
X100830466Y-35426685D01*
X100830466Y-34657613D01*
X101018044Y-34657613D01*
X101018044Y-34938981D01*
G37*
G36*
X76838421Y-36173482D02*
G01*
X77016621Y-36173482D01*
X77016621Y-36362233D01*
X76838421Y-36362233D01*
X76838421Y-36984173D01*
X75934067Y-36362233D01*
X76245497Y-36362233D01*
X76671945Y-36654445D01*
X76671945Y-36362233D01*
X76245497Y-36362233D01*
X75934067Y-36362233D01*
X75659607Y-36173482D01*
X76671945Y-36173482D01*
X76671945Y-36033970D01*
X76838421Y-36033970D01*
X76838421Y-36173482D01*
G37*
G36*
X76931331Y-35813565D02*
G01*
X76874684Y-35797911D01*
X76852782Y-35780446D01*
X76822897Y-35728547D01*
X76819663Y-35701018D01*
X76835317Y-35643578D01*
X76852782Y-35621591D01*
X76904555Y-35591706D01*
X76932210Y-35588471D01*
X76990179Y-35604125D01*
X77012224Y-35621591D01*
X77041580Y-35672986D01*
X77044757Y-35701018D01*
X77029519Y-35759504D01*
X77012517Y-35781325D01*
X76960165Y-35810417D01*
X76931331Y-35813565D01*
G37*
G36*
X77035378Y-34416692D02*
G01*
X76725874Y-34549755D01*
X76725874Y-35091974D01*
X77035378Y-35232951D01*
X77035378Y-35438995D01*
X75682136Y-34815296D01*
X76105399Y-34815296D01*
X76538295Y-35012254D01*
X76538295Y-34627718D01*
X76105399Y-34815296D01*
X75682136Y-34815296D01*
X75675141Y-34812072D01*
X77035378Y-34207718D01*
X77035378Y-34416692D01*
G37*
G36*
X79598421Y-36173482D02*
G01*
X79776621Y-36173482D01*
X79776621Y-36362233D01*
X79598421Y-36362233D01*
X79598421Y-36984173D01*
X78694067Y-36362233D01*
X79005497Y-36362233D01*
X79431945Y-36654445D01*
X79431945Y-36362233D01*
X79005497Y-36362233D01*
X78694067Y-36362233D01*
X78419607Y-36173482D01*
X79431945Y-36173482D01*
X79431945Y-36033970D01*
X79598421Y-36033970D01*
X79598421Y-36173482D01*
G37*
G36*
X79691331Y-35813565D02*
G01*
X79634684Y-35797911D01*
X79612782Y-35780446D01*
X79582897Y-35728547D01*
X79579663Y-35701018D01*
X79595317Y-35643578D01*
X79612782Y-35621591D01*
X79664555Y-35591706D01*
X79692210Y-35588471D01*
X79750179Y-35604125D01*
X79772224Y-35621591D01*
X79801580Y-35672986D01*
X79804757Y-35701018D01*
X79789519Y-35759504D01*
X79772517Y-35781325D01*
X79720165Y-35810417D01*
X79691331Y-35813565D01*
G37*
G36*
X79483988Y-34548914D02*
G01*
X79542736Y-34563977D01*
X79597052Y-34589082D01*
X79646937Y-34624228D01*
X79673452Y-34648820D01*
X79712739Y-34693978D01*
X79745011Y-34747429D01*
X79761966Y-34790383D01*
X79774640Y-34848475D01*
X79782033Y-34908001D01*
X79785413Y-34966674D01*
X79786000Y-35006099D01*
X79786000Y-35295380D01*
X78510466Y-35295380D01*
X78510466Y-35104870D01*
X78511711Y-35044494D01*
X78511988Y-35040683D01*
X78676942Y-35040683D01*
X78676942Y-35106629D01*
X79056788Y-35106629D01*
X79056788Y-35047718D01*
X79053775Y-35009616D01*
X79223264Y-35009616D01*
X79223264Y-35106629D01*
X79598421Y-35106629D01*
X79598421Y-34987927D01*
X79595325Y-34927312D01*
X79584442Y-34869411D01*
X79560498Y-34813441D01*
X79548889Y-34797124D01*
X79504224Y-34757832D01*
X79446815Y-34735730D01*
X79412015Y-34732644D01*
X79351022Y-34742851D01*
X79298543Y-34773470D01*
X79277193Y-34794487D01*
X79246489Y-34847147D01*
X79230848Y-34906823D01*
X79224107Y-34972402D01*
X79223264Y-35009616D01*
X79053775Y-35009616D01*
X79052037Y-34987634D01*
X79033792Y-34930041D01*
X79008135Y-34894138D01*
X78956700Y-34860678D01*
X78898503Y-34846912D01*
X78864520Y-34845191D01*
X78801721Y-34852239D01*
X78747734Y-34875781D01*
X78724715Y-34895310D01*
X78692058Y-34947659D01*
X78678621Y-35006460D01*
X78676942Y-35040683D01*
X78511988Y-35040683D01*
X78516090Y-34984277D01*
X78525725Y-34921762D01*
X78530396Y-34902051D01*
X78550898Y-34843864D01*
X78583147Y-34790072D01*
X78597221Y-34773091D01*
X78640718Y-34733236D01*
X78692148Y-34700831D01*
X78718561Y-34688387D01*
X78773941Y-34668920D01*
X78834402Y-34657969D01*
X78867158Y-34656441D01*
X78933122Y-34663145D01*
X78993847Y-34683258D01*
X79049333Y-34716781D01*
X79093585Y-34757112D01*
X79099579Y-34763712D01*
X79123160Y-34709912D01*
X79159041Y-34658129D01*
X79205111Y-34614761D01*
X79220919Y-34603391D01*
X79277465Y-34572015D01*
X79339392Y-34552260D01*
X79399727Y-34544416D01*
X79420808Y-34543893D01*
X79483988Y-34548914D01*
G37*
G36*
X63238044Y-36549811D02*
G01*
X63238044Y-36768750D01*
X63050466Y-36663824D01*
X63050466Y-36361060D01*
X64335378Y-36361060D01*
X64335378Y-36549811D01*
X63238044Y-36549811D01*
G37*
G36*
X64231331Y-35913217D02*
G01*
X64174684Y-35897562D01*
X64152782Y-35880097D01*
X64122897Y-35828198D01*
X64119663Y-35800669D01*
X64135317Y-35743229D01*
X64152782Y-35721242D01*
X64204555Y-35691357D01*
X64232210Y-35688122D01*
X64290179Y-35703776D01*
X64312224Y-35721242D01*
X64341580Y-35772637D01*
X64344757Y-35800669D01*
X64329519Y-35859155D01*
X64312517Y-35880976D01*
X64260165Y-35910068D01*
X64231331Y-35913217D01*
G37*
G36*
X64023988Y-34648565D02*
G01*
X64082736Y-34663628D01*
X64137052Y-34688733D01*
X64186937Y-34723879D01*
X64213452Y-34748471D01*
X64252739Y-34793629D01*
X64285011Y-34847080D01*
X64301966Y-34890034D01*
X64314640Y-34948126D01*
X64322033Y-35007652D01*
X64325413Y-35066325D01*
X64326000Y-35105750D01*
X64326000Y-35395031D01*
X63050466Y-35395031D01*
X63050466Y-35204521D01*
X63051711Y-35144145D01*
X63051988Y-35140334D01*
X63216942Y-35140334D01*
X63216942Y-35206280D01*
X63596788Y-35206280D01*
X63596788Y-35147369D01*
X63593775Y-35109267D01*
X63763264Y-35109267D01*
X63763264Y-35206280D01*
X64138421Y-35206280D01*
X64138421Y-35087578D01*
X64135325Y-35026963D01*
X64124442Y-34969062D01*
X64100498Y-34913092D01*
X64088889Y-34896775D01*
X64044224Y-34857483D01*
X63986815Y-34835381D01*
X63952015Y-34832295D01*
X63891022Y-34842502D01*
X63838543Y-34873121D01*
X63817193Y-34894138D01*
X63786489Y-34946799D01*
X63770848Y-35006474D01*
X63764107Y-35072053D01*
X63763264Y-35109267D01*
X63593775Y-35109267D01*
X63592037Y-35087285D01*
X63573792Y-35029692D01*
X63548135Y-34993789D01*
X63496700Y-34960329D01*
X63438503Y-34946563D01*
X63404520Y-34944842D01*
X63341721Y-34951890D01*
X63287734Y-34975432D01*
X63264715Y-34994961D01*
X63232058Y-35047310D01*
X63218621Y-35106111D01*
X63216942Y-35140334D01*
X63051988Y-35140334D01*
X63056090Y-35083928D01*
X63065725Y-35021413D01*
X63070396Y-35001702D01*
X63090898Y-34943515D01*
X63123147Y-34889724D01*
X63137221Y-34872742D01*
X63180718Y-34832888D01*
X63232148Y-34800482D01*
X63258561Y-34788039D01*
X63313941Y-34768571D01*
X63374402Y-34757620D01*
X63407158Y-34756092D01*
X63473122Y-34762796D01*
X63533847Y-34782909D01*
X63589333Y-34816432D01*
X63633585Y-34856763D01*
X63639579Y-34863363D01*
X63663160Y-34809563D01*
X63699041Y-34757780D01*
X63745111Y-34714412D01*
X63760919Y-34703042D01*
X63817465Y-34671666D01*
X63879392Y-34651911D01*
X63939727Y-34644067D01*
X63960808Y-34643545D01*
X64023988Y-34648565D01*
G37*
G36*
X94238421Y-36570034D02*
G01*
X94238421Y-36098450D01*
X94426000Y-36098450D01*
X94426000Y-36949002D01*
X93888470Y-36509364D01*
X93840522Y-36470942D01*
X93792540Y-36433438D01*
X93749545Y-36400921D01*
X93701644Y-36366435D01*
X93650773Y-36333803D01*
X93594705Y-36305405D01*
X93534815Y-36288840D01*
X93510968Y-36287201D01*
X93448004Y-36295980D01*
X93393200Y-36322317D01*
X93361198Y-36349630D01*
X93324228Y-36400394D01*
X93304320Y-36459484D01*
X93300528Y-36503503D01*
X93308545Y-36569733D01*
X93332594Y-36624444D01*
X93372677Y-36667635D01*
X93428793Y-36699306D01*
X93487803Y-36716899D01*
X93528554Y-36723614D01*
X93528554Y-36913831D01*
X93458052Y-36902446D01*
X93394485Y-36885550D01*
X93337852Y-36863140D01*
X93273130Y-36824686D01*
X93220735Y-36776431D01*
X93180668Y-36718376D01*
X93152930Y-36650521D01*
X93140217Y-36593198D01*
X93134438Y-36530362D01*
X93134053Y-36508192D01*
X93137906Y-36445084D01*
X93149467Y-36385891D01*
X93172697Y-36321781D01*
X93206416Y-36263001D01*
X93243669Y-36216859D01*
X93286609Y-36176619D01*
X93341342Y-36140194D01*
X93401068Y-36115102D01*
X93465787Y-36101341D01*
X93515071Y-36098450D01*
X93578968Y-36103860D01*
X93642062Y-36120089D01*
X93698162Y-36143945D01*
X93716718Y-36153845D01*
X93769475Y-36185744D01*
X93817615Y-36219610D01*
X93839230Y-36235910D01*
X93885896Y-36272392D01*
X93932202Y-36309973D01*
X93982589Y-36352052D01*
X94006293Y-36372198D01*
X94238421Y-36570034D01*
G37*
G36*
X94331331Y-35813565D02*
G01*
X94274684Y-35797911D01*
X94252782Y-35780446D01*
X94222897Y-35728547D01*
X94219663Y-35701018D01*
X94235317Y-35643578D01*
X94252782Y-35621591D01*
X94304555Y-35591706D01*
X94332210Y-35588471D01*
X94390179Y-35604125D01*
X94412224Y-35621591D01*
X94441580Y-35672986D01*
X94444757Y-35701018D01*
X94429519Y-35759504D01*
X94412517Y-35781325D01*
X94360165Y-35810417D01*
X94331331Y-35813565D01*
G37*
G36*
X93338044Y-34938981D02*
G01*
X94426000Y-34938981D01*
X94426000Y-35127732D01*
X93338044Y-35127732D01*
X93338044Y-35426685D01*
X93150466Y-35426685D01*
X93150466Y-34657613D01*
X93338044Y-34657613D01*
X93338044Y-34938981D01*
G37*
X123909819Y-58634649D02*
X122909819Y-58634649D01*
X123862200Y-58634649D02*
X123909819Y-58729887D01*
X123909819Y-58729887D02*
X123909819Y-58920363D01*
X123909819Y-58920363D02*
X123862200Y-59015601D01*
X123862200Y-59015601D02*
X123814580Y-59063220D01*
X123814580Y-59063220D02*
X123719342Y-59110839D01*
X123719342Y-59110839D02*
X123433628Y-59110839D01*
X123433628Y-59110839D02*
X123338390Y-59063220D01*
X123338390Y-59063220D02*
X123290771Y-59015601D01*
X123290771Y-59015601D02*
X123243152Y-58920363D01*
X123243152Y-58920363D02*
X123243152Y-58729887D01*
X123243152Y-58729887D02*
X123290771Y-58634649D01*
X123243152Y-58158458D02*
X124243152Y-58158458D01*
X123290771Y-58158458D02*
X123243152Y-58063220D01*
X123243152Y-58063220D02*
X123243152Y-57872744D01*
X123243152Y-57872744D02*
X123290771Y-57777506D01*
X123290771Y-57777506D02*
X123338390Y-57729887D01*
X123338390Y-57729887D02*
X123433628Y-57682268D01*
X123433628Y-57682268D02*
X123719342Y-57682268D01*
X123719342Y-57682268D02*
X123814580Y-57729887D01*
X123814580Y-57729887D02*
X123862200Y-57777506D01*
X123862200Y-57777506D02*
X123909819Y-57872744D01*
X123909819Y-57872744D02*
X123909819Y-58063220D01*
X123909819Y-58063220D02*
X123862200Y-58158458D01*
X123909819Y-57348934D02*
X123243152Y-56825125D01*
X123243152Y-57348934D02*
X123909819Y-56825125D01*
X124005057Y-56682268D02*
X124005057Y-55920363D01*
X123243152Y-55825124D02*
X123243152Y-55444172D01*
X123909819Y-55682267D02*
X123052676Y-55682267D01*
X123052676Y-55682267D02*
X122957438Y-55634648D01*
X122957438Y-55634648D02*
X122909819Y-55539410D01*
X122909819Y-55539410D02*
X122909819Y-55444172D01*
X123909819Y-54682267D02*
X123386009Y-54682267D01*
X123386009Y-54682267D02*
X123290771Y-54729886D01*
X123290771Y-54729886D02*
X123243152Y-54825124D01*
X123243152Y-54825124D02*
X123243152Y-55015600D01*
X123243152Y-55015600D02*
X123290771Y-55110838D01*
X123862200Y-54682267D02*
X123909819Y-54777505D01*
X123909819Y-54777505D02*
X123909819Y-55015600D01*
X123909819Y-55015600D02*
X123862200Y-55110838D01*
X123862200Y-55110838D02*
X123766961Y-55158457D01*
X123766961Y-55158457D02*
X123671723Y-55158457D01*
X123671723Y-55158457D02*
X123576485Y-55110838D01*
X123576485Y-55110838D02*
X123528866Y-55015600D01*
X123528866Y-55015600D02*
X123528866Y-54777505D01*
X123528866Y-54777505D02*
X123481247Y-54682267D01*
X123909819Y-53777505D02*
X122909819Y-53777505D01*
X123862200Y-53777505D02*
X123909819Y-53872743D01*
X123909819Y-53872743D02*
X123909819Y-54063219D01*
X123909819Y-54063219D02*
X123862200Y-54158457D01*
X123862200Y-54158457D02*
X123814580Y-54206076D01*
X123814580Y-54206076D02*
X123719342Y-54253695D01*
X123719342Y-54253695D02*
X123433628Y-54253695D01*
X123433628Y-54253695D02*
X123338390Y-54206076D01*
X123338390Y-54206076D02*
X123290771Y-54158457D01*
X123290771Y-54158457D02*
X123243152Y-54063219D01*
X123243152Y-54063219D02*
X123243152Y-53872743D01*
X123243152Y-53872743D02*
X123290771Y-53777505D01*
X123862200Y-52920362D02*
X123909819Y-53015600D01*
X123909819Y-53015600D02*
X123909819Y-53206076D01*
X123909819Y-53206076D02*
X123862200Y-53301314D01*
X123862200Y-53301314D02*
X123766961Y-53348933D01*
X123766961Y-53348933D02*
X123386009Y-53348933D01*
X123386009Y-53348933D02*
X123290771Y-53301314D01*
X123290771Y-53301314D02*
X123243152Y-53206076D01*
X123243152Y-53206076D02*
X123243152Y-53015600D01*
X123243152Y-53015600D02*
X123290771Y-52920362D01*
X123290771Y-52920362D02*
X123386009Y-52872743D01*
X123386009Y-52872743D02*
X123481247Y-52872743D01*
X123481247Y-52872743D02*
X123576485Y-53348933D01*
X123909819Y-52015600D02*
X122909819Y-52015600D01*
X123862200Y-52015600D02*
X123909819Y-52110838D01*
X123909819Y-52110838D02*
X123909819Y-52301314D01*
X123909819Y-52301314D02*
X123862200Y-52396552D01*
X123862200Y-52396552D02*
X123814580Y-52444171D01*
X123814580Y-52444171D02*
X123719342Y-52491790D01*
X123719342Y-52491790D02*
X123433628Y-52491790D01*
X123433628Y-52491790D02*
X123338390Y-52444171D01*
X123338390Y-52444171D02*
X123290771Y-52396552D01*
X123290771Y-52396552D02*
X123243152Y-52301314D01*
X123243152Y-52301314D02*
X123243152Y-52110838D01*
X123243152Y-52110838D02*
X123290771Y-52015600D01*
X123814580Y-51539409D02*
X123862200Y-51491790D01*
X123862200Y-51491790D02*
X123909819Y-51539409D01*
X123909819Y-51539409D02*
X123862200Y-51587028D01*
X123862200Y-51587028D02*
X123814580Y-51539409D01*
X123814580Y-51539409D02*
X123909819Y-51539409D01*
X123243152Y-51206076D02*
X123243152Y-50825124D01*
X123909819Y-51063219D02*
X123052676Y-51063219D01*
X123052676Y-51063219D02*
X122957438Y-51015600D01*
X122957438Y-51015600D02*
X122909819Y-50920362D01*
X122909819Y-50920362D02*
X122909819Y-50825124D01*
X123909819Y-50491790D02*
X122909819Y-50491790D01*
X123290771Y-50491790D02*
X123243152Y-50396552D01*
X123243152Y-50396552D02*
X123243152Y-50206076D01*
X123243152Y-50206076D02*
X123290771Y-50110838D01*
X123290771Y-50110838D02*
X123338390Y-50063219D01*
X123338390Y-50063219D02*
X123433628Y-50015600D01*
X123433628Y-50015600D02*
X123719342Y-50015600D01*
X123719342Y-50015600D02*
X123814580Y-50063219D01*
X123814580Y-50063219D02*
X123862200Y-50110838D01*
X123862200Y-50110838D02*
X123909819Y-50206076D01*
X123909819Y-50206076D02*
X123909819Y-50396552D01*
X123909819Y-50396552D02*
X123862200Y-50491790D01*
X123909819Y-49158457D02*
X122909819Y-49158457D01*
X123862200Y-49158457D02*
X123909819Y-49253695D01*
X123909819Y-49253695D02*
X123909819Y-49444171D01*
X123909819Y-49444171D02*
X123862200Y-49539409D01*
X123862200Y-49539409D02*
X123814580Y-49587028D01*
X123814580Y-49587028D02*
X123719342Y-49634647D01*
X123719342Y-49634647D02*
X123433628Y-49634647D01*
X123433628Y-49634647D02*
X123338390Y-49587028D01*
X123338390Y-49587028D02*
X123290771Y-49539409D01*
X123290771Y-49539409D02*
X123243152Y-49444171D01*
X123243152Y-49444171D02*
X123243152Y-49253695D01*
X123243152Y-49253695D02*
X123290771Y-49158457D01*
X122862200Y-47206076D02*
X124147914Y-48063218D01*
X122862200Y-46158457D02*
X124147914Y-47015599D01*
X123243152Y-45158456D02*
X123909819Y-44920361D01*
X123909819Y-44920361D02*
X123243152Y-44682266D01*
X123909819Y-43777504D02*
X123909819Y-44348932D01*
X123909819Y-44063218D02*
X122909819Y-44063218D01*
X122909819Y-44063218D02*
X123052676Y-44158456D01*
X123052676Y-44158456D02*
X123147914Y-44253694D01*
X123147914Y-44253694D02*
X123195533Y-44348932D01*
X123909819Y-42920361D02*
X122909819Y-42920361D01*
X123862200Y-42920361D02*
X123909819Y-43015599D01*
X123909819Y-43015599D02*
X123909819Y-43206075D01*
X123909819Y-43206075D02*
X123862200Y-43301313D01*
X123862200Y-43301313D02*
X123814580Y-43348932D01*
X123814580Y-43348932D02*
X123719342Y-43396551D01*
X123719342Y-43396551D02*
X123433628Y-43396551D01*
X123433628Y-43396551D02*
X123338390Y-43348932D01*
X123338390Y-43348932D02*
X123290771Y-43301313D01*
X123290771Y-43301313D02*
X123243152Y-43206075D01*
X123243152Y-43206075D02*
X123243152Y-43015599D01*
X123243152Y-43015599D02*
X123290771Y-42920361D01*
X122909819Y-42253694D02*
X122909819Y-42158456D01*
X122909819Y-42158456D02*
X122957438Y-42063218D01*
X122957438Y-42063218D02*
X123005057Y-42015599D01*
X123005057Y-42015599D02*
X123100295Y-41967980D01*
X123100295Y-41967980D02*
X123290771Y-41920361D01*
X123290771Y-41920361D02*
X123528866Y-41920361D01*
X123528866Y-41920361D02*
X123719342Y-41967980D01*
X123719342Y-41967980D02*
X123814580Y-42015599D01*
X123814580Y-42015599D02*
X123862200Y-42063218D01*
X123862200Y-42063218D02*
X123909819Y-42158456D01*
X123909819Y-42158456D02*
X123909819Y-42253694D01*
X123909819Y-42253694D02*
X123862200Y-42348932D01*
X123862200Y-42348932D02*
X123814580Y-42396551D01*
X123814580Y-42396551D02*
X123719342Y-42444170D01*
X123719342Y-42444170D02*
X123528866Y-42491789D01*
X123528866Y-42491789D02*
X123290771Y-42491789D01*
X123290771Y-42491789D02*
X123100295Y-42444170D01*
X123100295Y-42444170D02*
X123005057Y-42396551D01*
X123005057Y-42396551D02*
X122957438Y-42348932D01*
X122957438Y-42348932D02*
X122909819Y-42253694D01*
X123528866Y-40729884D02*
X123528866Y-39967980D01*
X123909819Y-38206075D02*
X123909819Y-38777503D01*
X123909819Y-38491789D02*
X122909819Y-38491789D01*
X122909819Y-38491789D02*
X123052676Y-38587027D01*
X123052676Y-38587027D02*
X123147914Y-38682265D01*
X123147914Y-38682265D02*
X123195533Y-38777503D01*
X123909819Y-37253694D02*
X123909819Y-37825122D01*
X123909819Y-37539408D02*
X122909819Y-37539408D01*
X122909819Y-37539408D02*
X123052676Y-37634646D01*
X123052676Y-37634646D02*
X123147914Y-37729884D01*
X123147914Y-37729884D02*
X123195533Y-37825122D01*
X123814580Y-36825122D02*
X123862200Y-36777503D01*
X123862200Y-36777503D02*
X123909819Y-36825122D01*
X123909819Y-36825122D02*
X123862200Y-36872741D01*
X123862200Y-36872741D02*
X123814580Y-36825122D01*
X123814580Y-36825122D02*
X123909819Y-36825122D01*
X123338390Y-36206075D02*
X123290771Y-36301313D01*
X123290771Y-36301313D02*
X123243152Y-36348932D01*
X123243152Y-36348932D02*
X123147914Y-36396551D01*
X123147914Y-36396551D02*
X123100295Y-36396551D01*
X123100295Y-36396551D02*
X123005057Y-36348932D01*
X123005057Y-36348932D02*
X122957438Y-36301313D01*
X122957438Y-36301313D02*
X122909819Y-36206075D01*
X122909819Y-36206075D02*
X122909819Y-36015599D01*
X122909819Y-36015599D02*
X122957438Y-35920361D01*
X122957438Y-35920361D02*
X123005057Y-35872742D01*
X123005057Y-35872742D02*
X123100295Y-35825123D01*
X123100295Y-35825123D02*
X123147914Y-35825123D01*
X123147914Y-35825123D02*
X123243152Y-35872742D01*
X123243152Y-35872742D02*
X123290771Y-35920361D01*
X123290771Y-35920361D02*
X123338390Y-36015599D01*
X123338390Y-36015599D02*
X123338390Y-36206075D01*
X123338390Y-36206075D02*
X123386009Y-36301313D01*
X123386009Y-36301313D02*
X123433628Y-36348932D01*
X123433628Y-36348932D02*
X123528866Y-36396551D01*
X123528866Y-36396551D02*
X123719342Y-36396551D01*
X123719342Y-36396551D02*
X123814580Y-36348932D01*
X123814580Y-36348932D02*
X123862200Y-36301313D01*
X123862200Y-36301313D02*
X123909819Y-36206075D01*
X123909819Y-36206075D02*
X123909819Y-36015599D01*
X123909819Y-36015599D02*
X123862200Y-35920361D01*
X123862200Y-35920361D02*
X123814580Y-35872742D01*
X123814580Y-35872742D02*
X123719342Y-35825123D01*
X123719342Y-35825123D02*
X123528866Y-35825123D01*
X123528866Y-35825123D02*
X123433628Y-35872742D01*
X123433628Y-35872742D02*
X123386009Y-35920361D01*
X123386009Y-35920361D02*
X123338390Y-36015599D01*
X123814580Y-35396551D02*
X123862200Y-35348932D01*
X123862200Y-35348932D02*
X123909819Y-35396551D01*
X123909819Y-35396551D02*
X123862200Y-35444170D01*
X123862200Y-35444170D02*
X123814580Y-35396551D01*
X123814580Y-35396551D02*
X123909819Y-35396551D01*
X123005057Y-34967980D02*
X122957438Y-34920361D01*
X122957438Y-34920361D02*
X122909819Y-34825123D01*
X122909819Y-34825123D02*
X122909819Y-34587028D01*
X122909819Y-34587028D02*
X122957438Y-34491790D01*
X122957438Y-34491790D02*
X123005057Y-34444171D01*
X123005057Y-34444171D02*
X123100295Y-34396552D01*
X123100295Y-34396552D02*
X123195533Y-34396552D01*
X123195533Y-34396552D02*
X123338390Y-34444171D01*
X123338390Y-34444171D02*
X123909819Y-35015599D01*
X123909819Y-35015599D02*
X123909819Y-34396552D01*
X123243152Y-33539409D02*
X123909819Y-33539409D01*
X122862200Y-33777504D02*
X123576485Y-34015599D01*
X123576485Y-34015599D02*
X123576485Y-33396552D01*
G36*
X69278421Y-36570034D02*
G01*
X69278421Y-36098450D01*
X69466000Y-36098450D01*
X69466000Y-36949002D01*
X68928470Y-36509364D01*
X68880522Y-36470942D01*
X68832540Y-36433438D01*
X68789545Y-36400921D01*
X68741644Y-36366435D01*
X68690773Y-36333803D01*
X68634705Y-36305405D01*
X68574815Y-36288840D01*
X68550968Y-36287201D01*
X68488004Y-36295980D01*
X68433200Y-36322317D01*
X68401198Y-36349630D01*
X68364228Y-36400394D01*
X68344320Y-36459484D01*
X68340528Y-36503503D01*
X68348545Y-36569733D01*
X68372594Y-36624444D01*
X68412677Y-36667635D01*
X68468793Y-36699306D01*
X68527803Y-36716899D01*
X68568554Y-36723614D01*
X68568554Y-36913831D01*
X68498052Y-36902446D01*
X68434485Y-36885550D01*
X68377852Y-36863140D01*
X68313130Y-36824686D01*
X68260735Y-36776431D01*
X68220668Y-36718376D01*
X68192930Y-36650521D01*
X68180217Y-36593198D01*
X68174438Y-36530362D01*
X68174053Y-36508192D01*
X68177906Y-36445084D01*
X68189467Y-36385891D01*
X68212697Y-36321781D01*
X68246416Y-36263001D01*
X68283669Y-36216859D01*
X68326609Y-36176619D01*
X68381342Y-36140194D01*
X68441068Y-36115102D01*
X68505787Y-36101341D01*
X68555071Y-36098450D01*
X68618968Y-36103860D01*
X68682062Y-36120089D01*
X68738162Y-36143945D01*
X68756718Y-36153845D01*
X68809475Y-36185744D01*
X68857615Y-36219610D01*
X68879230Y-36235910D01*
X68925896Y-36272392D01*
X68972202Y-36309973D01*
X69022589Y-36352052D01*
X69046293Y-36372198D01*
X69278421Y-36570034D01*
G37*
G36*
X69371331Y-35813565D02*
G01*
X69314684Y-35797911D01*
X69292782Y-35780446D01*
X69262897Y-35728547D01*
X69259663Y-35701018D01*
X69275317Y-35643578D01*
X69292782Y-35621591D01*
X69344555Y-35591706D01*
X69372210Y-35588471D01*
X69430179Y-35604125D01*
X69452224Y-35621591D01*
X69481580Y-35672986D01*
X69484757Y-35701018D01*
X69469519Y-35759504D01*
X69452517Y-35781325D01*
X69400165Y-35810417D01*
X69371331Y-35813565D01*
G37*
G36*
X69163988Y-34548914D02*
G01*
X69222736Y-34563977D01*
X69277052Y-34589082D01*
X69326937Y-34624228D01*
X69353452Y-34648820D01*
X69392739Y-34693978D01*
X69425011Y-34747429D01*
X69441966Y-34790383D01*
X69454640Y-34848475D01*
X69462033Y-34908001D01*
X69465413Y-34966674D01*
X69466000Y-35006099D01*
X69466000Y-35295380D01*
X68190466Y-35295380D01*
X68190466Y-35104870D01*
X68191711Y-35044494D01*
X68191988Y-35040683D01*
X68356942Y-35040683D01*
X68356942Y-35106629D01*
X68736788Y-35106629D01*
X68736788Y-35047718D01*
X68733775Y-35009616D01*
X68903264Y-35009616D01*
X68903264Y-35106629D01*
X69278421Y-35106629D01*
X69278421Y-34987927D01*
X69275325Y-34927312D01*
X69264442Y-34869411D01*
X69240498Y-34813441D01*
X69228889Y-34797124D01*
X69184224Y-34757832D01*
X69126815Y-34735730D01*
X69092015Y-34732644D01*
X69031022Y-34742851D01*
X68978543Y-34773470D01*
X68957193Y-34794487D01*
X68926489Y-34847147D01*
X68910848Y-34906823D01*
X68904107Y-34972402D01*
X68903264Y-35009616D01*
X68733775Y-35009616D01*
X68732037Y-34987634D01*
X68713792Y-34930041D01*
X68688135Y-34894138D01*
X68636700Y-34860678D01*
X68578503Y-34846912D01*
X68544520Y-34845191D01*
X68481721Y-34852239D01*
X68427734Y-34875781D01*
X68404715Y-34895310D01*
X68372058Y-34947659D01*
X68358621Y-35006460D01*
X68356942Y-35040683D01*
X68191988Y-35040683D01*
X68196090Y-34984277D01*
X68205725Y-34921762D01*
X68210396Y-34902051D01*
X68230898Y-34843864D01*
X68263147Y-34790072D01*
X68277221Y-34773091D01*
X68320718Y-34733236D01*
X68372148Y-34700831D01*
X68398561Y-34688387D01*
X68453941Y-34668920D01*
X68514402Y-34657969D01*
X68547158Y-34656441D01*
X68613122Y-34663145D01*
X68673847Y-34683258D01*
X68729333Y-34716781D01*
X68773585Y-34757112D01*
X68779579Y-34763712D01*
X68803160Y-34709912D01*
X68839041Y-34658129D01*
X68885111Y-34614761D01*
X68900919Y-34603391D01*
X68957465Y-34572015D01*
X69019392Y-34552260D01*
X69079727Y-34544416D01*
X69100808Y-34543893D01*
X69163988Y-34548914D01*
G37*
G36*
X141495925Y-31105268D02*
G01*
X142152010Y-31105268D01*
X142152010Y-31254745D01*
X141495925Y-31254745D01*
X141495925Y-31105268D01*
G37*
G36*
X141495925Y-32612735D02*
G01*
X142152010Y-32612735D01*
X142152010Y-32762212D01*
X141495925Y-32762212D01*
X141495925Y-32612735D01*
G37*
G36*
X141495925Y-32324528D02*
G01*
X142152010Y-32324528D01*
X142152010Y-32474005D01*
X141495925Y-32474005D01*
X141495925Y-32324528D01*
G37*
G36*
X141495925Y-32018736D02*
G01*
X142152010Y-32018736D01*
X142152010Y-32168213D01*
X141495925Y-32168213D01*
X141495925Y-32018736D01*
G37*
G36*
X141495925Y-31730530D02*
G01*
X142152010Y-31730530D01*
X142152010Y-31880006D01*
X141495925Y-31880006D01*
X141495925Y-31730530D01*
G37*
G36*
X140533022Y-31417899D02*
G01*
X142152010Y-31417899D01*
X142152010Y-31567376D01*
X140533022Y-31567376D01*
X140533022Y-31417899D01*
G37*
G36*
X140189128Y-31730530D02*
G01*
X140845213Y-31730530D01*
X140845213Y-31880006D01*
X140189128Y-31880006D01*
X140189128Y-31730530D01*
G37*
G36*
X140533022Y-32925366D02*
G01*
X141839819Y-32925366D01*
X141839819Y-33074842D01*
X140533022Y-33074842D01*
X140533022Y-32925366D01*
G37*
G36*
X140189128Y-32612735D02*
G01*
X140845213Y-32612735D01*
X140845213Y-32762212D01*
X140189128Y-32762212D01*
X140189128Y-32612735D01*
G37*
G36*
X140189128Y-32324528D02*
G01*
X140845213Y-32324528D01*
X140845213Y-32474005D01*
X140189128Y-32474005D01*
X140189128Y-32324528D01*
G37*
G36*
X140189128Y-32018736D02*
G01*
X140845213Y-32018736D01*
X140845213Y-32168213D01*
X140189128Y-32168213D01*
X140189128Y-32018736D01*
G37*
G36*
X142387900Y-33074842D02*
G01*
X142387900Y-32925366D01*
X143043985Y-32925366D01*
X143043985Y-33074842D01*
X142387900Y-33074842D01*
G37*
G36*
X142387900Y-32018736D02*
G01*
X143043985Y-32018736D01*
X143043985Y-32168213D01*
X142387900Y-32168213D01*
X142387900Y-32018736D01*
G37*
G36*
X142387900Y-31730530D02*
G01*
X143043985Y-31730530D01*
X143043985Y-31880006D01*
X142387900Y-31880006D01*
X142387900Y-31730530D01*
G37*
G36*
X144020859Y-31567376D02*
G01*
X142387900Y-31567376D01*
X142387900Y-31417899D01*
X144020859Y-31417899D01*
X144020859Y-31567376D01*
G37*
G36*
X143694697Y-31880006D02*
G01*
X143694697Y-31730530D01*
X144350782Y-31730530D01*
X144350782Y-31880006D01*
X143694697Y-31880006D01*
G37*
G36*
X143694697Y-32168213D02*
G01*
X143694697Y-32018736D01*
X144350782Y-32018736D01*
X144350782Y-32168213D01*
X143694697Y-32168213D01*
G37*
G36*
X142387900Y-32474005D02*
G01*
X142387900Y-32324528D01*
X144020859Y-32324528D01*
X144020859Y-32474005D01*
X142387900Y-32474005D01*
G37*
G36*
X142387900Y-32762212D02*
G01*
X142387900Y-32612735D01*
X143043985Y-32612735D01*
X143043985Y-32762212D01*
X142387900Y-32762212D01*
G37*
G36*
X144586672Y-33074842D02*
G01*
X144586672Y-32925366D01*
X145242757Y-32925366D01*
X145242757Y-33074842D01*
X144586672Y-33074842D01*
G37*
G36*
X145242757Y-32018736D02*
G01*
X145896155Y-32018736D01*
X145896155Y-32168213D01*
X145242757Y-32168213D01*
X145242757Y-32018736D01*
G37*
G36*
X144930566Y-31730530D02*
G01*
X146237363Y-31730530D01*
X146237363Y-31880006D01*
X144930566Y-31880006D01*
X144930566Y-31730530D01*
G37*
G36*
X145896155Y-31417899D02*
G01*
X146549554Y-31417899D01*
X146549554Y-31567376D01*
X145896155Y-31567376D01*
X145896155Y-31417899D01*
G37*
G36*
X144586672Y-31417899D02*
G01*
X145242757Y-31417899D01*
X145242757Y-31567376D01*
X144586672Y-31567376D01*
X144586672Y-31417899D01*
G37*
G36*
X144930566Y-32474005D02*
G01*
X144930566Y-32324528D01*
X146237363Y-32324528D01*
X146237363Y-32474005D01*
X144930566Y-32474005D01*
G37*
G36*
X145896155Y-32762212D02*
G01*
X145896155Y-32612735D01*
X146549554Y-32612735D01*
X146549554Y-32762212D01*
X145896155Y-32762212D01*
G37*
G36*
X145896155Y-33074842D02*
G01*
X145896155Y-32925366D01*
X146549554Y-32925366D01*
X146549554Y-33074842D01*
X145896155Y-33074842D01*
G37*
G36*
X144586672Y-32762212D02*
G01*
X144586672Y-32612735D01*
X145242757Y-32612735D01*
X145242757Y-32762212D01*
X144586672Y-32762212D01*
G37*
G36*
X146785443Y-32925366D02*
G01*
X148418940Y-32925366D01*
X148418940Y-33074842D01*
X146785443Y-33074842D01*
X146785443Y-32925366D01*
G37*
G36*
X148947677Y-33074842D02*
G01*
X148947677Y-32925366D01*
X149603762Y-32925366D01*
X149603762Y-33074842D01*
X148947677Y-33074842D01*
G37*
G36*
X150254474Y-31730530D02*
G01*
X150254474Y-31880006D01*
X148620977Y-31880006D01*
X148620977Y-31730530D01*
X150254474Y-31730530D01*
G37*
G36*
X150254474Y-31105268D02*
G01*
X150254474Y-31254745D01*
X149257181Y-31254745D01*
X149257181Y-31105268D01*
X150254474Y-31105268D01*
G37*
G36*
X148947677Y-32018736D02*
G01*
X149603762Y-32018736D01*
X149603762Y-32168213D01*
X148947677Y-32168213D01*
X148947677Y-32018736D01*
G37*
G36*
X148947677Y-31417899D02*
G01*
X149603762Y-31417899D01*
X149603762Y-31567376D01*
X148947677Y-31567376D01*
X148947677Y-31417899D01*
G37*
G36*
X148947677Y-32474005D02*
G01*
X148947677Y-32324528D01*
X149603762Y-32324528D01*
X149603762Y-32474005D01*
X148947677Y-32474005D01*
G37*
G36*
X148947677Y-32762212D02*
G01*
X148947677Y-32612735D01*
X149603762Y-32612735D01*
X149603762Y-32762212D01*
X148947677Y-32762212D01*
G37*
G36*
X150490901Y-32612735D02*
G01*
X151146986Y-32612735D01*
X151146986Y-32762212D01*
X150490901Y-32762212D01*
X150490901Y-32612735D01*
G37*
G36*
X152453783Y-32018736D02*
G01*
X152453783Y-32168213D01*
X150834795Y-32168213D01*
X150834795Y-32018736D01*
X152453783Y-32018736D01*
G37*
G36*
X152453783Y-31730530D02*
G01*
X152453783Y-31880006D01*
X151797698Y-31880006D01*
X151797698Y-31730530D01*
X152453783Y-31730530D01*
G37*
G36*
X152141591Y-31417899D02*
G01*
X152141591Y-31567376D01*
X150834795Y-31567376D01*
X150834795Y-31417899D01*
X152141591Y-31417899D01*
G37*
G36*
X151146986Y-32324528D02*
G01*
X151146986Y-32474005D01*
X150490901Y-32474005D01*
X150490901Y-32324528D01*
X151146986Y-32324528D01*
G37*
G36*
X152453783Y-32474005D02*
G01*
X151797698Y-32474005D01*
X151797698Y-32324528D01*
X152453783Y-32324528D01*
X152453783Y-32474005D01*
G37*
G36*
X151797698Y-32612735D02*
G01*
X152453783Y-32612735D01*
X152453783Y-32762212D01*
X151797698Y-32762212D01*
X151797698Y-32612735D01*
G37*
G36*
X150834795Y-32925366D02*
G01*
X152141591Y-32925366D01*
X152141591Y-33074842D01*
X150834795Y-33074842D01*
X150834795Y-32925366D01*
G37*
G36*
X153996469Y-31105268D02*
G01*
X154652554Y-31105268D01*
X154652554Y-31254745D01*
X153996469Y-31254745D01*
X153996469Y-31105268D01*
G37*
G36*
X153996469Y-32612735D02*
G01*
X154652554Y-32612735D01*
X154652554Y-32762212D01*
X153996469Y-32762212D01*
X153996469Y-32612735D01*
G37*
G36*
X153996469Y-32324528D02*
G01*
X154652554Y-32324528D01*
X154652554Y-32474005D01*
X153996469Y-32474005D01*
X153996469Y-32324528D01*
G37*
G36*
X153996469Y-32018736D02*
G01*
X154652554Y-32018736D01*
X154652554Y-32168213D01*
X153996469Y-32168213D01*
X153996469Y-32018736D01*
G37*
G36*
X153996469Y-31730530D02*
G01*
X154652554Y-31730530D01*
X154652554Y-31880006D01*
X153996469Y-31880006D01*
X153996469Y-31730530D01*
G37*
G36*
X153033566Y-31417899D02*
G01*
X154652554Y-31417899D01*
X154652554Y-31567376D01*
X153033566Y-31567376D01*
X153033566Y-31417899D01*
G37*
G36*
X152689672Y-31730530D02*
G01*
X153345758Y-31730530D01*
X153345758Y-31880006D01*
X152689672Y-31880006D01*
X152689672Y-31730530D01*
G37*
G36*
X153033566Y-32925366D02*
G01*
X154340363Y-32925366D01*
X154340363Y-33074842D01*
X153033566Y-33074842D01*
X153033566Y-32925366D01*
G37*
G36*
X152689672Y-32612735D02*
G01*
X153345758Y-32612735D01*
X153345758Y-32762212D01*
X152689672Y-32762212D01*
X152689672Y-32612735D01*
G37*
G36*
X152689672Y-32324528D02*
G01*
X153345758Y-32324528D01*
X153345758Y-32474005D01*
X152689672Y-32474005D01*
X152689672Y-32324528D01*
G37*
G36*
X152689672Y-32018736D02*
G01*
X153345758Y-32018736D01*
X153345758Y-32168213D01*
X152689672Y-32168213D01*
X152689672Y-32018736D01*
G37*
G36*
X156539135Y-33074842D02*
G01*
X155232338Y-33074842D01*
X155232338Y-32925366D01*
X156539135Y-32925366D01*
X156539135Y-33074842D01*
G37*
G36*
X155232338Y-31417899D02*
G01*
X156539135Y-31417899D01*
X156539135Y-31567376D01*
X155232338Y-31567376D01*
X155232338Y-31417899D01*
G37*
G36*
X154888444Y-31880006D02*
G01*
X154888444Y-31730530D01*
X155544529Y-31730530D01*
X155544529Y-31880006D01*
X154888444Y-31880006D01*
G37*
G36*
X154888444Y-32168213D02*
G01*
X154888444Y-32018736D01*
X155544529Y-32018736D01*
X155544529Y-32168213D01*
X154888444Y-32168213D01*
G37*
G36*
X156195241Y-31880006D02*
G01*
X156195241Y-31730530D01*
X156851326Y-31730530D01*
X156851326Y-31880006D01*
X156195241Y-31880006D01*
G37*
G36*
X156195241Y-32168213D02*
G01*
X156195241Y-32018736D01*
X156851326Y-32018736D01*
X156851326Y-32168213D01*
X156195241Y-32168213D01*
G37*
G36*
X154888444Y-32324528D02*
G01*
X156539135Y-32324528D01*
X156539135Y-32474005D01*
X154888444Y-32474005D01*
X154888444Y-32324528D01*
G37*
G36*
X155544529Y-32762212D02*
G01*
X154888444Y-32762212D01*
X154888444Y-32612735D01*
X155544529Y-32612735D01*
X155544529Y-32762212D01*
G37*
G36*
X158394013Y-31105268D02*
G01*
X159050098Y-31105268D01*
X159050098Y-31254745D01*
X158394013Y-31254745D01*
X158394013Y-31105268D01*
G37*
G36*
X158394013Y-32612735D02*
G01*
X159050098Y-32612735D01*
X159050098Y-32762212D01*
X158394013Y-32762212D01*
X158394013Y-32612735D01*
G37*
G36*
X158394013Y-32324528D02*
G01*
X159050098Y-32324528D01*
X159050098Y-32474005D01*
X158394013Y-32474005D01*
X158394013Y-32324528D01*
G37*
G36*
X158394013Y-32018736D02*
G01*
X159050098Y-32018736D01*
X159050098Y-32168213D01*
X158394013Y-32168213D01*
X158394013Y-32018736D01*
G37*
G36*
X158394013Y-31730530D02*
G01*
X159050098Y-31730530D01*
X159050098Y-31880006D01*
X158394013Y-31880006D01*
X158394013Y-31730530D01*
G37*
G36*
X157431110Y-31417899D02*
G01*
X159050098Y-31417899D01*
X159050098Y-31567376D01*
X157431110Y-31567376D01*
X157431110Y-31417899D01*
G37*
G36*
X157087216Y-31730530D02*
G01*
X157743301Y-31730530D01*
X157743301Y-31880006D01*
X157087216Y-31880006D01*
X157087216Y-31730530D01*
G37*
G36*
X157431110Y-32925366D02*
G01*
X158737907Y-32925366D01*
X158737907Y-33074842D01*
X157431110Y-33074842D01*
X157431110Y-32925366D01*
G37*
G36*
X157087216Y-32612735D02*
G01*
X157743301Y-32612735D01*
X157743301Y-32762212D01*
X157087216Y-32762212D01*
X157087216Y-32612735D01*
G37*
G36*
X157087216Y-32324528D02*
G01*
X157743301Y-32324528D01*
X157743301Y-32474005D01*
X157087216Y-32474005D01*
X157087216Y-32324528D01*
G37*
G36*
X157087216Y-32018736D02*
G01*
X157743301Y-32018736D01*
X157743301Y-32168213D01*
X157087216Y-32168213D01*
X157087216Y-32018736D01*
G37*
G36*
X214327620Y-175788171D02*
G01*
X214327620Y-176161863D01*
X212139204Y-176161863D01*
X212139204Y-175788171D01*
X214327620Y-175788171D01*
G37*
G36*
X212836517Y-177351325D02*
G01*
X214327620Y-177351325D01*
X214327620Y-177725017D01*
X212836517Y-177725017D01*
X212836517Y-177351325D01*
G37*
G36*
X212836517Y-180338415D02*
G01*
X214327620Y-180338415D01*
X214327620Y-180712107D01*
X212836517Y-180712107D01*
X212836517Y-180338415D01*
G37*
G36*
X212836517Y-179556838D02*
G01*
X214327620Y-179556838D01*
X214327620Y-179930530D01*
X212836517Y-179930530D01*
X212836517Y-179556838D01*
G37*
G36*
X212836517Y-178071842D02*
G01*
X214327620Y-178071842D01*
X214327620Y-178445533D01*
X212836517Y-178445533D01*
X212836517Y-178071842D01*
G37*
G36*
X209872630Y-178836322D02*
G01*
X215109197Y-178836322D01*
X215109197Y-179210013D01*
X209872630Y-179210013D01*
X209872630Y-178836322D01*
G37*
G36*
X211363733Y-178071842D02*
G01*
X211363733Y-178445533D01*
X209872630Y-178445533D01*
X209872630Y-178071842D01*
X211363733Y-178071842D01*
G37*
G36*
X212139204Y-177351325D02*
G01*
X212139204Y-177725017D01*
X210648101Y-177725017D01*
X210648101Y-177351325D01*
X212139204Y-177351325D01*
G37*
G36*
X214327620Y-176569748D02*
G01*
X214327620Y-176943440D01*
X211363733Y-176943440D01*
X211363733Y-176569748D01*
X214327620Y-176569748D01*
G37*
G36*
X91798421Y-36570034D02*
G01*
X91798421Y-36098450D01*
X91986000Y-36098450D01*
X91986000Y-36949002D01*
X91448470Y-36509364D01*
X91400522Y-36470942D01*
X91352540Y-36433438D01*
X91309545Y-36400921D01*
X91261644Y-36366435D01*
X91210773Y-36333803D01*
X91154705Y-36305405D01*
X91094815Y-36288840D01*
X91070968Y-36287201D01*
X91008004Y-36295980D01*
X90953200Y-36322317D01*
X90921198Y-36349630D01*
X90884228Y-36400394D01*
X90864320Y-36459484D01*
X90860528Y-36503503D01*
X90868545Y-36569733D01*
X90892594Y-36624444D01*
X90932677Y-36667635D01*
X90988793Y-36699306D01*
X91047803Y-36716899D01*
X91088554Y-36723614D01*
X91088554Y-36913831D01*
X91018052Y-36902446D01*
X90954485Y-36885550D01*
X90897852Y-36863140D01*
X90833130Y-36824686D01*
X90780735Y-36776431D01*
X90740668Y-36718376D01*
X90712930Y-36650521D01*
X90700217Y-36593198D01*
X90694438Y-36530362D01*
X90694053Y-36508192D01*
X90697906Y-36445084D01*
X90709467Y-36385891D01*
X90732697Y-36321781D01*
X90766416Y-36263001D01*
X90803669Y-36216859D01*
X90846609Y-36176619D01*
X90901342Y-36140194D01*
X90961068Y-36115102D01*
X91025787Y-36101341D01*
X91075071Y-36098450D01*
X91138968Y-36103860D01*
X91202062Y-36120089D01*
X91258162Y-36143945D01*
X91276718Y-36153845D01*
X91329475Y-36185744D01*
X91377615Y-36219610D01*
X91399230Y-36235910D01*
X91445896Y-36272392D01*
X91492202Y-36309973D01*
X91542589Y-36352052D01*
X91566293Y-36372198D01*
X91798421Y-36570034D01*
G37*
G36*
X91891331Y-35813565D02*
G01*
X91834684Y-35797911D01*
X91812782Y-35780446D01*
X91782897Y-35728547D01*
X91779663Y-35701018D01*
X91795317Y-35643578D01*
X91812782Y-35621591D01*
X91864555Y-35591706D01*
X91892210Y-35588471D01*
X91950179Y-35604125D01*
X91972224Y-35621591D01*
X92001580Y-35672986D01*
X92004757Y-35701018D01*
X91989519Y-35759504D01*
X91972517Y-35781325D01*
X91920165Y-35810417D01*
X91891331Y-35813565D01*
G37*
G36*
X91146982Y-34586713D02*
G01*
X91204444Y-34599109D01*
X91265075Y-34624015D01*
X91318807Y-34660169D01*
X91359370Y-34700111D01*
X91398884Y-34755457D01*
X91425029Y-34809148D01*
X91444043Y-34868609D01*
X91455927Y-34933840D01*
X91460384Y-34992607D01*
X91460780Y-35017236D01*
X91460780Y-35106629D01*
X91976621Y-35106629D01*
X91976621Y-35295380D01*
X90710466Y-35295380D01*
X90710466Y-35078199D01*
X90711016Y-35043614D01*
X90876942Y-35043614D01*
X90876942Y-35106629D01*
X91294304Y-35106629D01*
X91294304Y-35035408D01*
X91290988Y-34973515D01*
X91277519Y-34907754D01*
X91247678Y-34845861D01*
X91202918Y-34802537D01*
X91143237Y-34777780D01*
X91082106Y-34771332D01*
X91023001Y-34777980D01*
X90965298Y-34803506D01*
X90922022Y-34848178D01*
X90893170Y-34911994D01*
X90880147Y-34979798D01*
X90876942Y-35043614D01*
X90711016Y-35043614D01*
X90711518Y-35012060D01*
X90714673Y-34953410D01*
X90721822Y-34889007D01*
X90732448Y-34836985D01*
X90754635Y-34778019D01*
X90787787Y-34724658D01*
X90815979Y-34692198D01*
X90865290Y-34649486D01*
X90919875Y-34617265D01*
X90979733Y-34595534D01*
X91044865Y-34584294D01*
X91084450Y-34582581D01*
X91146982Y-34586713D01*
G37*
X58319819Y-32333333D02*
X59034104Y-32333333D01*
X59034104Y-32333333D02*
X59176961Y-32380952D01*
X59176961Y-32380952D02*
X59272200Y-32476190D01*
X59272200Y-32476190D02*
X59319819Y-32619047D01*
X59319819Y-32619047D02*
X59319819Y-32714285D01*
X58415057Y-31904761D02*
X58367438Y-31857142D01*
X58367438Y-31857142D02*
X58319819Y-31761904D01*
X58319819Y-31761904D02*
X58319819Y-31523809D01*
X58319819Y-31523809D02*
X58367438Y-31428571D01*
X58367438Y-31428571D02*
X58415057Y-31380952D01*
X58415057Y-31380952D02*
X58510295Y-31333333D01*
X58510295Y-31333333D02*
X58605533Y-31333333D01*
X58605533Y-31333333D02*
X58748390Y-31380952D01*
X58748390Y-31380952D02*
X59319819Y-31952380D01*
X59319819Y-31952380D02*
X59319819Y-31333333D01*
D12*
X72427419Y-110191904D02*
X73236942Y-110191904D01*
X73236942Y-110191904D02*
X73332180Y-110144285D01*
X73332180Y-110144285D02*
X73379800Y-110096666D01*
X73379800Y-110096666D02*
X73427419Y-110001428D01*
X73427419Y-110001428D02*
X73427419Y-109810952D01*
X73427419Y-109810952D02*
X73379800Y-109715714D01*
X73379800Y-109715714D02*
X73332180Y-109668095D01*
X73332180Y-109668095D02*
X73236942Y-109620476D01*
X73236942Y-109620476D02*
X72427419Y-109620476D01*
X72522657Y-109191904D02*
X72475038Y-109144285D01*
X72475038Y-109144285D02*
X72427419Y-109049047D01*
X72427419Y-109049047D02*
X72427419Y-108810952D01*
X72427419Y-108810952D02*
X72475038Y-108715714D01*
X72475038Y-108715714D02*
X72522657Y-108668095D01*
X72522657Y-108668095D02*
X72617895Y-108620476D01*
X72617895Y-108620476D02*
X72713133Y-108620476D01*
X72713133Y-108620476D02*
X72855990Y-108668095D01*
X72855990Y-108668095D02*
X73427419Y-109239523D01*
X73427419Y-109239523D02*
X73427419Y-108620476D01*
X111227419Y-110191904D02*
X112036942Y-110191904D01*
X112036942Y-110191904D02*
X112132180Y-110144285D01*
X112132180Y-110144285D02*
X112179800Y-110096666D01*
X112179800Y-110096666D02*
X112227419Y-110001428D01*
X112227419Y-110001428D02*
X112227419Y-109810952D01*
X112227419Y-109810952D02*
X112179800Y-109715714D01*
X112179800Y-109715714D02*
X112132180Y-109668095D01*
X112132180Y-109668095D02*
X112036942Y-109620476D01*
X112036942Y-109620476D02*
X111227419Y-109620476D01*
X111560752Y-108715714D02*
X112227419Y-108715714D01*
X111179800Y-108953809D02*
X111894085Y-109191904D01*
X111894085Y-109191904D02*
X111894085Y-108572857D01*
X91827419Y-110191904D02*
X92636942Y-110191904D01*
X92636942Y-110191904D02*
X92732180Y-110144285D01*
X92732180Y-110144285D02*
X92779800Y-110096666D01*
X92779800Y-110096666D02*
X92827419Y-110001428D01*
X92827419Y-110001428D02*
X92827419Y-109810952D01*
X92827419Y-109810952D02*
X92779800Y-109715714D01*
X92779800Y-109715714D02*
X92732180Y-109668095D01*
X92732180Y-109668095D02*
X92636942Y-109620476D01*
X92636942Y-109620476D02*
X91827419Y-109620476D01*
X91827419Y-109239523D02*
X91827419Y-108620476D01*
X91827419Y-108620476D02*
X92208371Y-108953809D01*
X92208371Y-108953809D02*
X92208371Y-108810952D01*
X92208371Y-108810952D02*
X92255990Y-108715714D01*
X92255990Y-108715714D02*
X92303609Y-108668095D01*
X92303609Y-108668095D02*
X92398847Y-108620476D01*
X92398847Y-108620476D02*
X92636942Y-108620476D01*
X92636942Y-108620476D02*
X92732180Y-108668095D01*
X92732180Y-108668095D02*
X92779800Y-108715714D01*
X92779800Y-108715714D02*
X92827419Y-108810952D01*
X92827419Y-108810952D02*
X92827419Y-109096666D01*
X92827419Y-109096666D02*
X92779800Y-109191904D01*
X92779800Y-109191904D02*
X92732180Y-109239523D01*
X53027419Y-110191904D02*
X53836942Y-110191904D01*
X53836942Y-110191904D02*
X53932180Y-110144285D01*
X53932180Y-110144285D02*
X53979800Y-110096666D01*
X53979800Y-110096666D02*
X54027419Y-110001428D01*
X54027419Y-110001428D02*
X54027419Y-109810952D01*
X54027419Y-109810952D02*
X53979800Y-109715714D01*
X53979800Y-109715714D02*
X53932180Y-109668095D01*
X53932180Y-109668095D02*
X53836942Y-109620476D01*
X53836942Y-109620476D02*
X53027419Y-109620476D01*
X54027419Y-108620476D02*
X54027419Y-109191904D01*
X54027419Y-108906190D02*
X53027419Y-108906190D01*
X53027419Y-108906190D02*
X53170276Y-109001428D01*
X53170276Y-109001428D02*
X53265514Y-109096666D01*
X53265514Y-109096666D02*
X53313133Y-109191904D01*
D11*
X83374819Y-32363333D02*
X84089104Y-32363333D01*
X84089104Y-32363333D02*
X84231961Y-32410952D01*
X84231961Y-32410952D02*
X84327200Y-32506190D01*
X84327200Y-32506190D02*
X84374819Y-32649047D01*
X84374819Y-32649047D02*
X84374819Y-32744285D01*
X84374819Y-31363333D02*
X84374819Y-31934761D01*
X84374819Y-31649047D02*
X83374819Y-31649047D01*
X83374819Y-31649047D02*
X83517676Y-31744285D01*
X83517676Y-31744285D02*
X83612914Y-31839523D01*
X83612914Y-31839523D02*
X83660533Y-31934761D01*
D13*
%TO.C,J2*%
X59865000Y-33330000D02*
X59865000Y-32000000D01*
X61195000Y-33330000D02*
X59865000Y-33330000D01*
X62465000Y-30670000D02*
X80305000Y-30670000D01*
X62465000Y-33330000D02*
X62465000Y-30670000D01*
X62465000Y-33330000D02*
X80305000Y-33330000D01*
X80305000Y-33330000D02*
X80305000Y-30670000D01*
%TO.C,U2*%
D12*
X74970000Y-164430000D02*
X71970000Y-164430000D01*
X71970000Y-54430000D01*
X74970000Y-54430000D01*
X74970000Y-164430000D01*
X81220000Y-173180000D02*
X65720000Y-173180000D01*
X65720000Y-45680000D01*
X81220000Y-45680000D01*
X81220000Y-173180000D01*
X81720000Y-175426668D02*
X65220000Y-175426668D01*
X65220000Y-38430000D01*
X81720000Y-38430000D01*
X81720000Y-175426668D01*
X81720000Y-189430000D02*
X65220000Y-189430000D01*
X65220000Y-38433332D01*
X81720000Y-38433332D01*
X81720000Y-189430000D01*
X74970000Y-49230000D02*
G75*
G02*
X71970000Y-49230000I-1500000J0D01*
G01*
X71970000Y-49230000D02*
G75*
G02*
X74970000Y-49230000I1500000J0D01*
G01*
X74970000Y-169630000D02*
G75*
G02*
X71970000Y-169630000I-1500000J0D01*
G01*
X71970000Y-169630000D02*
G75*
G02*
X74970000Y-169630000I1500000J0D01*
G01*
%TO.C,U4*%
X113770000Y-164430000D02*
X110770000Y-164430000D01*
X110770000Y-54430000D01*
X113770000Y-54430000D01*
X113770000Y-164430000D01*
X120020000Y-173180000D02*
X104520000Y-173180000D01*
X104520000Y-45680000D01*
X120020000Y-45680000D01*
X120020000Y-173180000D01*
X120520000Y-175426668D02*
X104020000Y-175426668D01*
X104020000Y-38430000D01*
X120520000Y-38430000D01*
X120520000Y-175426668D01*
X120520000Y-189430000D02*
X104020000Y-189430000D01*
X104020000Y-38433332D01*
X120520000Y-38433332D01*
X120520000Y-189430000D01*
X113770000Y-49230000D02*
G75*
G02*
X110770000Y-49230000I-1500000J0D01*
G01*
X110770000Y-49230000D02*
G75*
G02*
X113770000Y-49230000I1500000J0D01*
G01*
X113770000Y-169630000D02*
G75*
G02*
X110770000Y-169630000I-1500000J0D01*
G01*
X110770000Y-169630000D02*
G75*
G02*
X113770000Y-169630000I1500000J0D01*
G01*
%TO.C,U3*%
X94370000Y-164430000D02*
X91370000Y-164430000D01*
X91370000Y-54430000D01*
X94370000Y-54430000D01*
X94370000Y-164430000D01*
X100620000Y-173180000D02*
X85120000Y-173180000D01*
X85120000Y-45680000D01*
X100620000Y-45680000D01*
X100620000Y-173180000D01*
X101120000Y-175426668D02*
X84620000Y-175426668D01*
X84620000Y-38430000D01*
X101120000Y-38430000D01*
X101120000Y-175426668D01*
X101120000Y-189430000D02*
X84620000Y-189430000D01*
X84620000Y-38433332D01*
X101120000Y-38433332D01*
X101120000Y-189430000D01*
X94370000Y-49230000D02*
G75*
G02*
X91370000Y-49230000I-1500000J0D01*
G01*
X91370000Y-49230000D02*
G75*
G02*
X94370000Y-49230000I1500000J0D01*
G01*
X94370000Y-169630000D02*
G75*
G02*
X91370000Y-169630000I-1500000J0D01*
G01*
X91370000Y-169630000D02*
G75*
G02*
X94370000Y-169630000I1500000J0D01*
G01*
%TO.C,U1*%
X55570000Y-164430000D02*
X52570000Y-164430000D01*
X52570000Y-54430000D01*
X55570000Y-54430000D01*
X55570000Y-164430000D01*
X61820000Y-173180000D02*
X46320000Y-173180000D01*
X46320000Y-45680000D01*
X61820000Y-45680000D01*
X61820000Y-173180000D01*
X62320000Y-175426668D02*
X45820000Y-175426668D01*
X45820000Y-38430000D01*
X62320000Y-38430000D01*
X62320000Y-175426668D01*
X62320000Y-189430000D02*
X45820000Y-189430000D01*
X45820000Y-38433332D01*
X62320000Y-38433332D01*
X62320000Y-189430000D01*
X55570000Y-49230000D02*
G75*
G02*
X52570000Y-49230000I-1500000J0D01*
G01*
X52570000Y-49230000D02*
G75*
G02*
X55570000Y-49230000I1500000J0D01*
G01*
X55570000Y-169630000D02*
G75*
G02*
X52570000Y-169630000I-1500000J0D01*
G01*
X52570000Y-169630000D02*
G75*
G02*
X55570000Y-169630000I1500000J0D01*
G01*
D13*
%TO.C,J1*%
X84920000Y-33360000D02*
X84920000Y-32030000D01*
X86250000Y-33360000D02*
X84920000Y-33360000D01*
X87520000Y-30700000D02*
X105360000Y-30700000D01*
X87520000Y-33360000D02*
X87520000Y-30700000D01*
X87520000Y-33360000D02*
X105360000Y-33360000D01*
X105360000Y-33360000D02*
X105360000Y-30700000D01*
%TD*%
%LPC*%
D11*
G36*
X172555101Y-187057903D02*
G01*
X173569050Y-187057903D01*
X173569050Y-187282117D01*
X172555101Y-187282117D01*
X172555101Y-187057903D01*
G37*
G36*
X172555101Y-189319103D02*
G01*
X173569050Y-189319103D01*
X173569050Y-189543318D01*
X172555101Y-189543318D01*
X172555101Y-189319103D01*
G37*
G36*
X172555101Y-188886793D02*
G01*
X173569050Y-188886793D01*
X173569050Y-189111008D01*
X172555101Y-189111008D01*
X172555101Y-188886793D01*
G37*
G36*
X172555101Y-188428105D02*
G01*
X173569050Y-188428105D01*
X173569050Y-188652320D01*
X172555101Y-188652320D01*
X172555101Y-188428105D01*
G37*
G36*
X172555101Y-187995795D02*
G01*
X173569050Y-187995795D01*
X173569050Y-188220010D01*
X172555101Y-188220010D01*
X172555101Y-187995795D01*
G37*
G36*
X171066978Y-187526849D02*
G01*
X173569050Y-187526849D01*
X173569050Y-187751064D01*
X171066978Y-187751064D01*
X171066978Y-187526849D01*
G37*
G36*
X170535505Y-187995795D02*
G01*
X171549455Y-187995795D01*
X171549455Y-188220010D01*
X170535505Y-188220010D01*
X170535505Y-187995795D01*
G37*
G36*
X171066978Y-189788049D02*
G01*
X173086573Y-189788049D01*
X173086573Y-190012264D01*
X171066978Y-190012264D01*
X171066978Y-189788049D01*
G37*
G36*
X170535505Y-189319103D02*
G01*
X171549455Y-189319103D01*
X171549455Y-189543318D01*
X170535505Y-189543318D01*
X170535505Y-189319103D01*
G37*
G36*
X170535505Y-188886793D02*
G01*
X171549455Y-188886793D01*
X171549455Y-189111008D01*
X170535505Y-189111008D01*
X170535505Y-188886793D01*
G37*
G36*
X170535505Y-188428105D02*
G01*
X171549455Y-188428105D01*
X171549455Y-188652320D01*
X170535505Y-188652320D01*
X170535505Y-188428105D01*
G37*
G36*
X176975457Y-190012264D02*
G01*
X176466406Y-190012264D01*
X175963168Y-190012264D01*
X174438506Y-190012264D01*
X174438506Y-189788049D01*
X175963168Y-189788049D01*
X176466406Y-189788049D01*
X176975457Y-189788049D01*
X176975457Y-190012264D01*
G37*
G36*
X175421730Y-189319103D02*
G01*
X175940746Y-189319103D01*
X176455610Y-189319103D01*
X176975457Y-189319103D01*
X176975457Y-189543318D01*
X176455610Y-189543318D01*
X175940746Y-189543318D01*
X175421730Y-189543318D01*
X175421730Y-189319103D01*
G37*
G36*
X173933607Y-189319103D02*
G01*
X174947557Y-189319103D01*
X174947557Y-189543318D01*
X173933607Y-189543318D01*
X173933607Y-189319103D01*
G37*
G36*
X174947557Y-188886793D02*
G01*
X174947557Y-189111008D01*
X173933607Y-189111008D01*
X173933607Y-188886793D01*
X174947557Y-188886793D01*
G37*
G36*
X174947557Y-188428105D02*
G01*
X174947557Y-188652320D01*
X173933607Y-188652320D01*
X173933607Y-188428105D01*
X174947557Y-188428105D01*
G37*
G36*
X174947557Y-187995795D02*
G01*
X174947557Y-188220010D01*
X173933607Y-188220010D01*
X173933607Y-187995795D01*
X174947557Y-187995795D01*
G37*
G36*
X174947557Y-187526849D02*
G01*
X174947557Y-187751064D01*
X173933607Y-187751064D01*
X173933607Y-187526849D01*
X174947557Y-187526849D01*
G37*
G36*
X176975457Y-187751064D02*
G01*
X175961507Y-187751064D01*
X175961507Y-187526849D01*
X176975457Y-187526849D01*
X176975457Y-187751064D01*
G37*
G36*
X176975457Y-188220010D02*
G01*
X175961507Y-188220010D01*
X175961507Y-187995795D01*
X176975457Y-187995795D01*
X176975457Y-188220010D01*
G37*
G36*
X176975457Y-188652320D02*
G01*
X175961507Y-188652320D01*
X175961507Y-188428105D01*
X176975457Y-188428105D01*
X176975457Y-188652320D01*
G37*
G36*
X176975457Y-189111008D02*
G01*
X175961507Y-189111008D01*
X175961507Y-188886793D01*
X176975457Y-188886793D01*
X176975457Y-189111008D01*
G37*
G36*
X177331709Y-187057903D02*
G01*
X178345659Y-187057903D01*
X178345659Y-187282117D01*
X177331709Y-187282117D01*
X177331709Y-187057903D01*
G37*
G36*
X179882777Y-187751064D02*
G01*
X177331709Y-187751064D01*
X177331709Y-187526849D01*
X179882777Y-187526849D01*
X179882777Y-187751064D01*
G37*
G36*
X179351304Y-188220010D02*
G01*
X179351304Y-187995795D01*
X180365254Y-187995795D01*
X180365254Y-188220010D01*
X179351304Y-188220010D01*
G37*
G36*
X179351304Y-188428105D02*
G01*
X180365254Y-188428105D01*
X180365254Y-188652320D01*
X179351304Y-188652320D01*
X179351304Y-188428105D01*
G37*
G36*
X179351304Y-188886793D02*
G01*
X180365254Y-188886793D01*
X180365254Y-189111008D01*
X179351304Y-189111008D01*
X179351304Y-188886793D01*
G37*
G36*
X179351304Y-189319103D02*
G01*
X180365254Y-189319103D01*
X180365254Y-189543318D01*
X179351304Y-189543318D01*
X179351304Y-189319103D01*
G37*
G36*
X177863182Y-189788049D02*
G01*
X179882777Y-189788049D01*
X179882777Y-190012264D01*
X177863182Y-190012264D01*
X177863182Y-189788049D01*
G37*
G36*
X177331709Y-189319103D02*
G01*
X178345659Y-189319103D01*
X178345659Y-189543318D01*
X177331709Y-189543318D01*
X177331709Y-189319103D01*
G37*
G36*
X177331709Y-188886793D02*
G01*
X178345659Y-188886793D01*
X178345659Y-189111008D01*
X177331709Y-189111008D01*
X177331709Y-188886793D01*
G37*
G36*
X177331709Y-188428105D02*
G01*
X178345659Y-188428105D01*
X178345659Y-188652320D01*
X177331709Y-188652320D01*
X177331709Y-188428105D01*
G37*
G36*
X177331709Y-187995795D02*
G01*
X178872979Y-187995795D01*
X178872979Y-188220010D01*
X177331709Y-188220010D01*
X177331709Y-187995795D01*
G37*
G36*
X180729811Y-190012264D02*
G01*
X180729811Y-189788049D01*
X181743761Y-189788049D01*
X181743761Y-190012264D01*
X180729811Y-190012264D01*
G37*
G36*
X180729811Y-188428105D02*
G01*
X181743761Y-188428105D01*
X181743761Y-188652320D01*
X180729811Y-188652320D01*
X180729811Y-188428105D01*
G37*
G36*
X180729811Y-187995795D02*
G01*
X181743761Y-187995795D01*
X181743761Y-188220010D01*
X180729811Y-188220010D01*
X180729811Y-187995795D01*
G37*
G36*
X183253475Y-187751064D02*
G01*
X180729811Y-187751064D01*
X180729811Y-187526849D01*
X183253475Y-187526849D01*
X183253475Y-187751064D01*
G37*
G36*
X182749406Y-188220010D02*
G01*
X182749406Y-187995795D01*
X183763356Y-187995795D01*
X183763356Y-188220010D01*
X182749406Y-188220010D01*
G37*
G36*
X182749406Y-188652320D02*
G01*
X182749406Y-188428105D01*
X183763356Y-188428105D01*
X183763356Y-188652320D01*
X182749406Y-188652320D01*
G37*
G36*
X180729811Y-189111008D02*
G01*
X180729811Y-188886793D01*
X183253475Y-188886793D01*
X183253475Y-189111008D01*
X180729811Y-189111008D01*
G37*
G36*
X180729811Y-189543318D02*
G01*
X180729811Y-189319103D01*
X181743761Y-189319103D01*
X181743761Y-189543318D01*
X180729811Y-189543318D01*
G37*
G36*
X184655233Y-190012264D02*
G01*
X184655233Y-189788049D01*
X185669183Y-189788049D01*
X185669183Y-190012264D01*
X184655233Y-190012264D01*
G37*
G36*
X184655233Y-188886793D02*
G01*
X185669183Y-188886793D01*
X185669183Y-189111008D01*
X184655233Y-189111008D01*
X184655233Y-188886793D01*
G37*
G36*
X184655233Y-188428105D02*
G01*
X185669183Y-188428105D01*
X185669183Y-188652320D01*
X184655233Y-188652320D01*
X184655233Y-188428105D01*
G37*
G36*
X184127913Y-187995795D02*
G01*
X185669183Y-187995795D01*
X185669183Y-188220010D01*
X184127913Y-188220010D01*
X184127913Y-187995795D01*
G37*
G36*
X184655233Y-187057903D02*
G01*
X185669183Y-187057903D01*
X185669183Y-187282117D01*
X184655233Y-187282117D01*
X184655233Y-187057903D01*
G37*
G36*
X184655233Y-189543318D02*
G01*
X184655233Y-189319103D01*
X185669183Y-189319103D01*
X185669183Y-189543318D01*
X184655233Y-189543318D01*
G37*
G36*
X185921632Y-190012264D02*
G01*
X185921632Y-189788049D01*
X186935582Y-189788049D01*
X186935582Y-190012264D01*
X185921632Y-190012264D01*
G37*
G36*
X186935582Y-188428105D02*
G01*
X187945380Y-188428105D01*
X187945380Y-188652320D01*
X186935582Y-188652320D01*
X186935582Y-188428105D01*
G37*
G36*
X186453105Y-187995795D02*
G01*
X188472700Y-187995795D01*
X188472700Y-188220010D01*
X186453105Y-188220010D01*
X186453105Y-187995795D01*
G37*
G36*
X187945380Y-187526849D02*
G01*
X188955177Y-187526849D01*
X188955177Y-187751064D01*
X187945380Y-187751064D01*
X187945380Y-187526849D01*
G37*
G36*
X185921632Y-187526849D02*
G01*
X186935582Y-187526849D01*
X186935582Y-187751064D01*
X185921632Y-187751064D01*
X185921632Y-187526849D01*
G37*
G36*
X186453105Y-189111008D02*
G01*
X186453105Y-188886793D01*
X188472700Y-188886793D01*
X188472700Y-189111008D01*
X186453105Y-189111008D01*
G37*
G36*
X187945380Y-189543318D02*
G01*
X187945380Y-189319103D01*
X188955177Y-189319103D01*
X188955177Y-189543318D01*
X187945380Y-189543318D01*
G37*
G36*
X187945380Y-190012264D02*
G01*
X187945380Y-189788049D01*
X188955177Y-189788049D01*
X188955177Y-190012264D01*
X187945380Y-190012264D01*
G37*
G36*
X185921632Y-189543318D02*
G01*
X185921632Y-189319103D01*
X186935582Y-189319103D01*
X186935582Y-189543318D01*
X185921632Y-189543318D01*
G37*
G36*
X191870802Y-190012264D02*
G01*
X189851207Y-190012264D01*
X189851207Y-189788049D01*
X191870802Y-189788049D01*
X191870802Y-190012264D01*
G37*
G36*
X189851207Y-187526849D02*
G01*
X191870802Y-187526849D01*
X191870802Y-187751064D01*
X189851207Y-187751064D01*
X189851207Y-187526849D01*
G37*
G36*
X189319734Y-188220010D02*
G01*
X189319734Y-187995795D01*
X190333684Y-187995795D01*
X190333684Y-188220010D01*
X189319734Y-188220010D01*
G37*
G36*
X189319734Y-188652320D02*
G01*
X189319734Y-188428105D01*
X190333684Y-188428105D01*
X190333684Y-188652320D01*
X189319734Y-188652320D01*
G37*
G36*
X191339330Y-188220010D02*
G01*
X191339330Y-187995795D01*
X192353279Y-187995795D01*
X192353279Y-188220010D01*
X191339330Y-188220010D01*
G37*
G36*
X191339330Y-188652320D02*
G01*
X191339330Y-188428105D01*
X192353279Y-188428105D01*
X192353279Y-188652320D01*
X191339330Y-188652320D01*
G37*
G36*
X189319734Y-188886793D02*
G01*
X191870802Y-188886793D01*
X191870802Y-189111008D01*
X189319734Y-189111008D01*
X189319734Y-188886793D01*
G37*
G36*
X190333684Y-189543318D02*
G01*
X189319734Y-189543318D01*
X189319734Y-189319103D01*
X190333684Y-189319103D01*
X190333684Y-189543318D01*
G37*
G36*
X192717836Y-187057903D02*
G01*
X194259106Y-187057903D01*
X194259106Y-187282117D01*
X192717836Y-187282117D01*
X192717836Y-187057903D01*
G37*
G36*
X192717836Y-189788049D02*
G01*
X194737432Y-189788049D01*
X194737432Y-190012264D01*
X192717836Y-190012264D01*
X192717836Y-189788049D01*
G37*
G36*
X193245157Y-189319103D02*
G01*
X194259106Y-189319103D01*
X194259106Y-189543318D01*
X193245157Y-189543318D01*
X193245157Y-189319103D01*
G37*
G36*
X193245157Y-188886793D02*
G01*
X194259106Y-188886793D01*
X194259106Y-189111008D01*
X193245157Y-189111008D01*
X193245157Y-188886793D01*
G37*
G36*
X193245157Y-188428105D02*
G01*
X194259106Y-188428105D01*
X194259106Y-188652320D01*
X193245157Y-188652320D01*
X193245157Y-188428105D01*
G37*
G36*
X193245157Y-187995795D02*
G01*
X194259106Y-187995795D01*
X194259106Y-188220010D01*
X193245157Y-188220010D01*
X193245157Y-187995795D01*
G37*
G36*
X193245157Y-187526849D02*
G01*
X194259106Y-187526849D01*
X194259106Y-187751064D01*
X193245157Y-187751064D01*
X193245157Y-187526849D01*
G37*
D14*
%TO.C,J2*%
X61195000Y-32000000D03*
D15*
X63735000Y-32000000D03*
X66275000Y-32000000D03*
X68815000Y-32000000D03*
X71355000Y-32000000D03*
X73895000Y-32000000D03*
X76435000Y-32000000D03*
X78975000Y-32000000D03*
%TD*%
D16*
%TO.C,U2*%
X67845000Y-173180000D03*
X67845000Y-45680000D03*
X71595000Y-45680000D03*
X71595000Y-173180000D03*
D17*
X72200000Y-166830000D03*
X74740000Y-166830000D03*
D16*
X65720000Y-146430000D03*
X81220000Y-146430000D03*
X65720000Y-62430000D03*
X81220000Y-62430000D03*
X79095000Y-173180000D03*
%TD*%
%TO.C,U4*%
X106645000Y-173180000D03*
X106645000Y-45680000D03*
X110395000Y-45680000D03*
X110395000Y-173180000D03*
D17*
X111000000Y-166830000D03*
X113540000Y-166830000D03*
D16*
X104520000Y-146430000D03*
X120020000Y-146430000D03*
X104520000Y-62430000D03*
X120020000Y-62430000D03*
X117895000Y-173180000D03*
%TD*%
%TO.C,U3*%
X87245000Y-173180000D03*
X87245000Y-45680000D03*
X90995000Y-45680000D03*
X90995000Y-173180000D03*
D17*
X91600000Y-166830000D03*
X94140000Y-166830000D03*
D16*
X85120000Y-146430000D03*
X100620000Y-146430000D03*
X85120000Y-62430000D03*
X100620000Y-62430000D03*
X98495000Y-173180000D03*
%TD*%
%TO.C,U1*%
X48445000Y-173180000D03*
X48445000Y-45680000D03*
X52195000Y-45680000D03*
X52195000Y-173180000D03*
D17*
X52800000Y-166830000D03*
X55340000Y-166830000D03*
D16*
X46320000Y-146430000D03*
X61820000Y-146430000D03*
X46320000Y-62430000D03*
X61820000Y-62430000D03*
X59695000Y-173180000D03*
%TD*%
D14*
%TO.C,J1*%
X86250000Y-32030000D03*
D15*
X88790000Y-32030000D03*
X91330000Y-32030000D03*
X93870000Y-32030000D03*
X96410000Y-32030000D03*
X98950000Y-32030000D03*
X101490000Y-32030000D03*
X104030000Y-32030000D03*
%TD*%
%LPD*%
M02*
