<?xml version="1.0" encoding="UTF-8"?>
<svg id="Layer_1" xmlns="http://www.w3.org/2000/svg" version="1.1" viewBox="0 0 3042.3 560.6">
  <!-- Generator: Adobe Illustrator 29.3.1, SVG Export Plug-In . SVG Version: 2.1.0 Build 151)  -->
  <defs>
    <style>
      .st0, .st1, .st2, .st3, .st4, .st5, .st6, .st7, .st8 {
        stroke: #231f20;
        stroke-miterlimit: 10;
      }

      .st0, .st3, .st5, .st6 {
        fill: none;
      }

      .st9, .st10, .st11, .st2, .st12, .st13, .st14, .st15, .st16, .st17, .st7, .st8 {
        fill: #231f20;
      }

      .st1, .st4 {
        fill: #fff;
      }

      .st1, .st6 {
        stroke-width: 3px;
      }

      .st10 {
        font-size: 12px;
      }

      .st10, .st11, .st12, .st13, .st14, .st15, .st16, .st17 {
        font-family: MyriadPro-Regular, 'Myriad Pro';
      }

      .st11 {
        font-size: 34px;
      }

      .st2, .st5 {
        stroke-width: 4px;
      }

      .st12 {
        font-size: 38.2px;
      }

      .st13 {
        font-size: 30px;
      }

      .st3, .st8 {
        stroke-width: 2px;
      }

      .st14 {
        font-size: 78.1px;
      }

      .st15 {
        font-size: 53.6px;
      }

      .st16 {
        font-size: 37px;
      }

      .st17 {
        font-size: 47px;
      }
    </style>
  </defs>
  <rect class="st1" width="1609.7" height="560.6"/>
  <rect class="st1" x="1627.6" width="1416.3" height="560.6"/>
  <line class="st5" x1="319.9" y1="185.8" x2="1563.5" y2="185.8"/>
  <ellipse class="st5" cx="147.1" cy="185.8" rx="133.9" ry="122.4"/>
  <circle class="st2" cx="334.7" cy="154.9" r="8.5"/>
  <circle class="st2" cx="334.7" cy="113.2" r="8.5"/>
  <circle class="st2" cx="334.7" cy="258.5" r="8.5"/>
  <circle class="st2" cx="334.7" cy="216.8" r="8.5"/>
  <text class="st17" transform="translate(366.2 127.2)"><tspan x="0" y="0">2</tspan></text>
  <text class="st17" transform="translate(59 201.7)"><tspan x="0" y="0">B</tspan></text>
  <text class="st17" transform="translate(194 201.7)"><tspan x="0" y="0">A</tspan></text>
  <text class="st17" transform="translate(366.1 168)"><tspan x="0" y="0">1</tspan></text>
  <circle class="st2" cx="1552" cy="154.9" r="8.5"/>
  <circle class="st2" cx="1552" cy="113.2" r="8.5"/>
  <circle class="st2" cx="1552" cy="258.5" r="8.5"/>
  <circle class="st2" cx="1552" cy="216.8" r="8.5"/>
  <text class="st17" transform="translate(1508.4 127.2)"><tspan x="0" y="0">4</tspan></text>
  <text class="st17" transform="translate(1507.4 168)"><tspan x="0" y="0">3</tspan></text>
  <g>
    <path class="st9" d="M32,406.2c-2.5,3.3-4.3,7.8-4.3,13.9s1.9,10.4,4.3,13.8h-2.3c-2.1-2.8-4.5-7.2-4.5-13.8,0-6.7,2.3-11,4.5-13.9h2.3Z"/>
    <path class="st9" d="M35.3,407.2c1.5-.3,3.6-.5,5.7-.5,3.2,0,5.2.6,6.6,1.9,1.2,1,1.8,2.6,1.8,4.4,0,3-1.9,5-4.3,5.8h0c1.8.7,2.8,2.3,3.4,4.7.7,3.2,1.3,5.4,1.8,6.3h-3.1c-.4-.6-.9-2.6-1.5-5.5-.7-3.2-1.9-4.4-4.6-4.5h-2.8v9.9h-3v-22.6ZM38.2,417.6h3c3.2,0,5.2-1.7,5.2-4.4s-2.1-4.2-5.3-4.3c-1.4,0-2.4.1-2.9.3v8.4Z"/>
    <path class="st9" d="M65.4,419.1h-8.9v8.3h9.9v2.5h-12.9v-22.9h12.4v2.5h-9.4v7.2h8.9v2.4Z"/>
    <path class="st9" d="M89.2,433.2c-3.1-.8-6.1-1.7-8.8-2.7-.5-.2-1-.3-1.4-.3-5.4-.2-10.1-4.2-10.1-11.6s4.5-12.1,10.7-12.1,10.3,4.8,10.3,11.6-2.7,9.7-6.5,11h0c2.3.7,4.8,1.3,6.7,1.6l-.9,2.5ZM86.8,418.3c0-4.6-2.4-9.3-7.2-9.3s-7.4,4.6-7.4,9.6c0,4.9,2.7,9.2,7.3,9.2s7.4-4.3,7.4-9.5Z"/>
    <path class="st9" d="M96.7,406.9v13.6c0,5.1,2.3,7.3,5.3,7.3s5.6-2.2,5.6-7.3v-13.6h3v13.4c0,7-3.7,9.9-8.7,9.9s-8.2-2.7-8.2-9.8v-13.5h3Z"/>
    <path class="st9" d="M118.7,406.9v22.9h-3v-22.9h3Z"/>
    <path class="st9" d="M123.8,407.2c1.5-.3,3.6-.5,5.7-.5,3.2,0,5.2.6,6.6,1.9,1.2,1,1.8,2.6,1.8,4.4,0,3-1.9,5-4.3,5.8h0c1.8.7,2.8,2.3,3.4,4.7.7,3.2,1.3,5.4,1.8,6.3h-3.1c-.4-.6-.9-2.6-1.5-5.5-.7-3.2-1.9-4.4-4.6-4.5h-2.8v9.9h-3v-22.6ZM126.8,417.6h3c3.2,0,5.2-1.7,5.2-4.4s-2.1-4.2-5.3-4.3c-1.4,0-2.4.1-2.9.3v8.4Z"/>
    <path class="st9" d="M154,419.1h-8.9v8.3h9.9v2.5h-12.9v-22.9h12.4v2.5h-9.4v7.2h8.9v2.4Z"/>
    <path class="st9" d="M158.9,407.2c1.8-.3,3.9-.5,6.3-.5,4.2,0,7.3,1,9.3,2.9,2,1.9,3.2,4.5,3.2,8.2s-1.2,6.8-3.3,8.9c-2.1,2.1-5.7,3.3-10.1,3.3s-3.9-.1-5.4-.3v-22.5ZM161.8,427.5c.7.1,1.8.2,3,.2,6.3,0,9.8-3.5,9.8-9.7,0-5.4-3-8.8-9.3-8.8s-2.7.1-3.5.3v18.1Z"/>
    <path class="st9" d="M179.4,433.9c2.4-3.4,4.3-7.8,4.3-13.9s-1.8-10.4-4.3-13.8h2.3c2.2,2.8,4.5,7.1,4.5,13.8s-2.3,11-4.5,13.9h-2.3Z"/>
    <path class="st9" d="M198.1,407.2c1.4-.2,3.3-.4,5.7-.4s5.1.7,6.4,1.9c1.3,1.1,2,2.8,2,4.8s-.6,3.7-1.8,4.9c-1.6,1.7-4.1,2.5-7,2.5s-1.7,0-2.4-.2v9.2h-3v-22.6ZM201.1,418.2c.6.2,1.5.2,2.4.2,3.6,0,5.7-1.7,5.7-4.9s-2.1-4.5-5.4-4.5-2.3.1-2.8.2v8.9Z"/>
    <path class="st9" d="M219.2,406.9v22.9h-3v-22.9h3Z"/>
    <path class="st9" d="M224.4,429.8v-22.9h3.2l7.3,11.6c1.7,2.7,3,5.1,4.1,7.4h0c-.3-3.1-.3-5.9-.3-9.5v-9.6h2.8v22.9h-3l-7.3-11.6c-1.6-2.5-3.1-5.2-4.3-7.6h-.1c.2,2.9.2,5.7.2,9.5v9.8h-2.8Z"/>
    <path class="st9" d="M266.3,418.1c0,7.9-4.8,12.1-10.6,12.1s-10.3-4.7-10.3-11.6,4.5-12,10.6-12,10.3,4.8,10.3,11.6ZM248.5,418.5c0,4.9,2.7,9.3,7.3,9.3s7.3-4.3,7.3-9.5-2.4-9.3-7.3-9.3-7.3,4.5-7.3,9.6Z"/>
    <path class="st9" d="M273.1,406.9v13.6c0,5.1,2.3,7.3,5.3,7.3s5.6-2.2,5.6-7.3v-13.6h3v13.4c0,7-3.7,9.9-8.7,9.9s-8.2-2.7-8.2-9.8v-13.5h3Z"/>
    <path class="st9" d="M296.5,409.4h-7v-2.5h17v2.5h-7v20.4h-3v-20.4Z"/>
    <path class="st9" d="M316.3,406.9h12.3v2.5h-9.4v7.6h8.7v2.4h-8.7v10.4h-3v-22.9Z"/>
    <path class="st9" d="M332.8,407.2c1.5-.3,3.6-.5,5.7-.5,3.2,0,5.2.6,6.6,1.9,1.2,1,1.8,2.6,1.8,4.4,0,3-1.9,5-4.3,5.8h0c1.8.7,2.8,2.3,3.4,4.7.7,3.2,1.3,5.4,1.8,6.3h-3.1c-.4-.6-.9-2.6-1.5-5.5-.7-3.2-1.9-4.4-4.6-4.5h-2.8v9.9h-3v-22.6ZM335.8,417.6h3c3.2,0,5.2-1.7,5.2-4.4s-2.1-4.2-5.3-4.3c-1.4,0-2.4.1-2.9.3v8.4Z"/>
    <path class="st9" d="M370.8,418.1c0,7.9-4.8,12.1-10.6,12.1s-10.3-4.7-10.3-11.6,4.5-12,10.6-12,10.3,4.8,10.3,11.6ZM353,418.5c0,4.9,2.7,9.3,7.3,9.3s7.3-4.3,7.3-9.5-2.4-9.3-7.3-9.3-7.3,4.5-7.3,9.6Z"/>
    <path class="st9" d="M393.9,419.7c-.2-3.2-.4-7-.3-9.9h-.1c-.8,2.7-1.7,5.5-2.9,8.7l-4,11.1h-2.2l-3.7-10.9c-1.1-3.2-2-6.2-2.7-8.9h0c0,2.9-.2,6.7-.4,10.1l-.6,9.8h-2.8l1.6-22.9h3.8l3.9,11.1c1,2.8,1.7,5.3,2.3,7.7h.1c.6-2.3,1.4-4.8,2.4-7.7l4.1-11.1h3.8l1.4,22.9h-2.9l-.6-10.1Z"/>
    <path class="st9" d="M409.2,406.9h12.3v2.5h-9.4v7.6h8.7v2.4h-8.7v10.4h-3v-22.9Z"/>
    <path class="st9" d="M426.8,422.6l-2.4,7.2h-3.1l7.8-22.9h3.6l7.8,22.9h-3.2l-2.4-7.2h-8.1ZM434.3,420.3l-2.2-6.6c-.5-1.5-.9-2.9-1.2-4.2h0c-.3,1.4-.7,2.8-1.2,4.1l-2.2,6.6h6.9Z"/>
    <path class="st9" d="M443.9,407.2c1.8-.3,3.9-.5,6.3-.5,4.2,0,7.3,1,9.3,2.9,2,1.9,3.2,4.5,3.2,8.2s-1.2,6.8-3.3,8.9c-2.1,2.1-5.7,3.3-10.1,3.3s-3.9-.1-5.4-.3v-22.5ZM446.8,427.5c.7.1,1.8.2,3,.2,6.3,0,9.8-3.5,9.8-9.7,0-5.4-3-8.8-9.3-8.8s-2.7.1-3.5.3v18.1Z"/>
    <path class="st9" d="M478.4,419.1h-8.9v8.3h9.9v2.5h-12.9v-22.9h12.4v2.5h-9.4v7.2h8.9v2.4Z"/>
    <path class="st9" d="M498.7,429.8v-6h-10.3v-2l9.9-14.1h3.2v13.7h3.1v2.3h-3.1v6h-2.8ZM498.7,421.4v-7.4c0-1.2,0-2.3.1-3.5h-.1c-.7,1.3-1.2,2.2-1.8,3.3l-5.4,7.5h0c0,0,7.2,0,7.2,0Z"/>
    <path class="st9" d="M30.7,470.6l-7.5-22.9h3.2l3.6,11.3c1,3.1,1.8,5.9,2.4,8.6h0c.6-2.7,1.6-5.5,2.6-8.5l3.9-11.3h3.2l-8.2,22.9h-3.3Z"/>
    <path class="st9" d="M47.6,447.7v22.9h-3v-22.9h3Z"/>
    <path class="st9" d="M64.6,459.9h-8.9v8.3h9.9v2.5h-12.9v-22.9h12.4v2.5h-9.4v7.2h8.9v2.4Z"/>
    <path class="st9" d="M73.5,470.6l-5.8-22.9h3.1l2.7,11.6c.7,2.9,1.3,5.7,1.7,7.9h0c.4-2.3,1.1-5,1.9-8l3.1-11.6h3.1l2.8,11.6c.6,2.7,1.3,5.4,1.6,7.9h0c.5-2.5,1.1-5.1,1.8-7.9l3-11.6h3l-6.5,22.9h-3.1l-2.9-11.9c-.7-2.9-1.2-5.2-1.5-7.5h0c-.4,2.3-.9,4.5-1.8,7.5l-3.3,11.9h-3.1Z"/>
    <path class="st9" d="M105.7,447.7h12.3v2.5h-9.4v7.6h8.7v2.4h-8.7v10.4h-3v-22.9Z"/>
    <path class="st9" d="M122.3,448c1.5-.3,3.6-.5,5.7-.5,3.2,0,5.2.6,6.6,1.9,1.2,1,1.8,2.6,1.8,4.4,0,3-1.9,5-4.3,5.8h0c1.8.7,2.8,2.3,3.4,4.7.7,3.2,1.3,5.4,1.8,6.3h-3.1c-.4-.6-.9-2.6-1.5-5.5-.7-3.2-1.9-4.4-4.6-4.5h-2.8v9.9h-3v-22.6ZM125.2,458.4h3c3.2,0,5.2-1.7,5.2-4.4s-2.1-4.2-5.3-4.3c-1.4,0-2.4.1-2.9.3v8.4Z"/>
    <path class="st9" d="M160.3,458.9c0,7.9-4.8,12.1-10.6,12.1s-10.3-4.7-10.3-11.6,4.5-12,10.6-12,10.3,4.8,10.3,11.6ZM142.5,459.3c0,4.9,2.7,9.3,7.3,9.3s7.3-4.3,7.3-9.5-2.4-9.3-7.3-9.3-7.3,4.5-7.3,9.6Z"/>
    <path class="st9" d="M183.4,460.5c-.2-3.2-.4-7-.3-9.9h-.1c-.8,2.7-1.7,5.5-2.9,8.7l-4,11.1h-2.2l-3.7-10.9c-1.1-3.2-2-6.2-2.7-8.9h0c0,2.9-.2,6.7-.4,10.1l-.6,9.8h-2.8l1.6-22.9h3.8l3.9,11.1c1,2.8,1.7,5.3,2.3,7.7h.1c.6-2.3,1.4-4.8,2.4-7.7l4.1-11.1h3.8l1.4,22.9h-2.9l-.6-10.1Z"/>
    <path class="st9" d="M202.4,463.4l-2.4,7.2h-3.1l7.8-22.9h3.6l7.8,22.9h-3.2l-2.4-7.2h-8.1ZM209.9,461.1l-2.2-6.6c-.5-1.5-.8-2.9-1.2-4.2h0c-.3,1.4-.7,2.8-1.2,4.1l-2.2,6.6h6.9Z"/>
    <path class="st9" d="M219,467c1.3.8,3.3,1.5,5.3,1.5,3,0,4.8-1.6,4.8-3.9s-1.2-3.4-4.3-4.6c-3.7-1.3-6.1-3.3-6.1-6.5s3-6.2,7.4-6.2,4,.5,5.1,1.1l-.8,2.4c-.7-.4-2.3-1.1-4.4-1.1-3.1,0-4.3,1.9-4.3,3.4s1.4,3.2,4.6,4.4c3.9,1.5,5.8,3.4,5.8,6.7s-2.6,6.6-8,6.6-4.6-.6-5.8-1.5l.7-2.5Z"/>
    <path class="st9" d="M235.8,467c1.3.8,3.3,1.5,5.3,1.5,3,0,4.8-1.6,4.8-3.9s-1.2-3.4-4.3-4.6c-3.7-1.3-6.1-3.3-6.1-6.5s3-6.2,7.4-6.2,4,.5,5.1,1.1l-.8,2.4c-.7-.4-2.3-1.1-4.4-1.1-3.1,0-4.3,1.9-4.3,3.4s1.4,3.2,4.6,4.4c3.9,1.5,5.8,3.4,5.8,6.7s-2.6,6.6-8,6.6-4.6-.6-5.8-1.5l.7-2.5Z"/>
    <path class="st9" d="M264.8,459.9h-8.9v8.3h9.9v2.5h-12.9v-22.9h12.4v2.5h-9.4v7.2h8.9v2.4Z"/>
    <path class="st9" d="M289,460.5c-.2-3.2-.4-7-.3-9.9h-.1c-.8,2.7-1.7,5.5-2.9,8.7l-4,11.1h-2.2l-3.7-10.9c-1.1-3.2-2-6.2-2.7-8.9h0c0,2.9-.2,6.7-.4,10.1l-.6,9.8h-2.8l1.6-22.9h3.8l3.9,11.1c1,2.8,1.7,5.3,2.3,7.7h.1c.6-2.3,1.4-4.8,2.4-7.7l4.1-11.1h3.8l1.4,22.9h-2.9l-.6-10.1Z"/>
    <path class="st9" d="M297,448c1.3-.3,3.3-.5,5.4-.5,3,0,4.9.5,6.3,1.7,1.2.9,1.9,2.2,1.9,4s-1.5,4.1-3.9,5h0c2.2.6,4.7,2.4,4.7,5.8s-.8,3.5-1.9,4.6c-1.6,1.5-4.2,2.1-7.9,2.1s-3.6-.1-4.6-.3v-22.5ZM300,457.4h2.7c3.1,0,5-1.6,5-3.8s-2-3.7-5-3.7-2.1.1-2.6.2v7.4ZM300,468.4c.6.1,1.4.1,2.5.1,3.1,0,5.9-1.1,5.9-4.5s-2.7-4.4-5.9-4.4h-2.4v8.7Z"/>
    <path class="st9" d="M315.5,447.7h3v20.4h9.8v2.5h-12.7v-22.9Z"/>
    <path class="st9" d="M333.8,470.6v-9.7l-7.2-13.2h3.4l3.2,6.3c.9,1.7,1.6,3.1,2.3,4.7h0c.6-1.5,1.4-3,2.3-4.7l3.3-6.3h3.4l-7.7,13.2v9.8h-3Z"/>
    <path class="st9" d="M353.9,467c1.3.8,3.3,1.5,5.3,1.5,3,0,4.8-1.6,4.8-3.9s-1.2-3.4-4.3-4.6c-3.7-1.3-6.1-3.3-6.1-6.5s3-6.2,7.4-6.2,4,.5,5.1,1.1l-.8,2.4c-.7-.4-2.3-1.1-4.4-1.1-3.1,0-4.3,1.9-4.3,3.4s1.4,3.2,4.6,4.4c3.9,1.5,5.8,3.4,5.8,6.7s-2.6,6.6-8,6.6-4.6-.6-5.8-1.5l.7-2.5Z"/>
    <path class="st9" d="M374,447.7v22.9h-3v-22.9h3Z"/>
    <path class="st9" d="M379.2,448c1.8-.3,3.9-.5,6.3-.5,4.2,0,7.3,1,9.3,2.9,2,1.9,3.2,4.5,3.2,8.2s-1.2,6.8-3.3,8.9c-2.1,2.1-5.7,3.3-10.1,3.3s-3.9-.1-5.4-.3v-22.5ZM382.1,468.3c.7.1,1.8.2,3,.2,6.3,0,9.8-3.5,9.8-9.7,0-5.4-3-8.8-9.3-8.8s-2.7.1-3.5.3v18.1Z"/>
    <path class="st9" d="M413.7,459.9h-8.9v8.3h9.9v2.5h-12.9v-22.9h12.4v2.5h-9.4v7.2h8.9v2.4Z"/>
    <path class="st9" d="M30.3,488.5h3v15.3c0,6.1-3,8-6.9,8s-2.4-.2-3.2-.5l.4-2.4c.6.2,1.5.4,2.5.4,2.7,0,4.2-1.2,4.2-5.7v-15.1Z"/>
    <path class="st9" d="M38.2,488.8c1.3-.3,3.3-.5,5.4-.5,3,0,4.9.5,6.3,1.7,1.2.9,1.9,2.2,1.9,4s-1.5,4.1-3.9,5h0c2.2.6,4.7,2.4,4.7,5.8s-.8,3.5-1.9,4.6c-1.6,1.5-4.2,2.1-7.9,2.1s-3.6-.1-4.6-.3v-22.5ZM41.2,498.2h2.7c3.1,0,5-1.6,5-3.8s-2-3.7-5-3.7-2.1.1-2.6.2v7.4ZM41.2,509.2c.6.1,1.4.1,2.5.1,3.1,0,5.9-1.1,5.9-4.5s-2.7-4.4-5.9-4.4h-2.4v8.7Z"/>
    <path class="st9" d="M56.6,488.5h12.3v2.5h-9.4v7.6h8.7v2.4h-8.7v10.4h-3v-22.9Z"/>
    <path class="st9" d="M70.6,512.8l9.5-24.6h2.3l-9.5,24.6h-2.3Z"/>
    <path class="st9" d="M84.9,488.8c1.8-.3,3.9-.5,6.3-.5,4.2,0,7.3,1,9.3,2.9,2,1.9,3.2,4.5,3.2,8.2s-1.2,6.8-3.3,8.9c-2.1,2.1-5.7,3.3-10.1,3.3s-3.9-.1-5.4-.3v-22.5ZM87.8,509.1c.7.1,1.8.2,3,.2,6.3,0,9.8-3.5,9.8-9.7,0-5.4-3-8.8-9.3-8.8s-2.7.1-3.5.3v18.1Z"/>
    <path class="st9" d="M107.5,488.8c1.4-.2,3.3-.4,5.7-.4s5.1.7,6.4,1.9c1.3,1.1,2,2.8,2,4.8s-.6,3.7-1.8,4.9c-1.6,1.7-4.1,2.5-7,2.5s-1.7,0-2.4-.2v9.2h-3v-22.6ZM110.5,499.8c.6.2,1.5.2,2.4.2,3.6,0,5.7-1.7,5.7-4.9s-2.1-4.5-5.4-4.5-2.3.1-2.8.2v8.9Z"/>
    <path class="st9" d="M137.7,511.4l-2.9-5.1c-1.2-1.9-1.9-3.2-2.7-4.5h0c-.6,1.3-1.3,2.5-2.5,4.6l-2.8,5h-3.4l7-11.6-6.7-11.3h3.4l3,5.4c.9,1.5,1.5,2.7,2.1,3.9h.1c.6-1.4,1.2-2.4,2.1-3.9l3.1-5.4h3.4l-7,11.2,7.1,11.8h-3.4Z"/>
    <path class="st9" d="M165.4,500.1c0,7.5-2.8,11.7-7.7,11.7s-7.2-4-7.3-11.4c0-7.4,3.2-11.5,7.7-11.5s7.3,4.1,7.3,11.2ZM153.4,500.5c0,5.7,1.8,9,4.5,9s4.5-3.6,4.5-9.2-1.4-9-4.5-9-4.5,3.2-4.5,9.2Z"/>
    <path class="st9" d="M168.2,511.4v-1.8l2.3-2.3c5.6-5.4,8.2-8.2,8.2-11.6,0-2.2-1.1-4.3-4.4-4.3s-3.7,1-4.7,1.9l-1-2.1c1.5-1.3,3.7-2.2,6.3-2.2,4.8,0,6.8,3.3,6.8,6.4s-3,7.4-7.6,11.9l-1.8,1.6h0c0,0,9.9,0,9.9,0v2.5h-14.1Z"/>
    <path class="st9" d="M185.8,509.6c0-1.3.8-2.1,2-2.1s2,.9,2,2.1-.8,2.1-2,2.1-2-.9-2-2.1Z"/>
    <path class="st9" d="M192.6,511.4v-1.8l2.3-2.3c5.6-5.4,8.2-8.2,8.2-11.6,0-2.2-1.1-4.3-4.4-4.3s-3.7,1-4.7,1.9l-1-2.1c1.5-1.3,3.7-2.2,6.3-2.2,4.8,0,6.8,3.3,6.8,6.4s-3,7.4-7.6,11.9l-1.8,1.6h0c0,0,9.9,0,9.9,0v2.5h-14.1Z"/>
    <path class="st9" d="M223.3,491.8h-8.4l-.9,5.7c.5,0,1-.1,1.8-.1,1.7,0,3.4.4,4.8,1.2,1.7,1,3.2,2.9,3.2,5.7,0,4.3-3.4,7.5-8.2,7.5s-4.5-.7-5.5-1.4l.7-2.3c.9.5,2.7,1.2,4.7,1.2s5.2-1.8,5.2-4.8c0-2.9-1.9-4.9-6.4-4.9s-2.2.1-3.1.2l1.4-10.6h10.6v2.5Z"/>
    <path class="st9" d="M227.8,509.6c0-1.3.8-2.1,2-2.1s2,.9,2,2.1-.8,2.1-2,2.1-2-.9-2-2.1Z"/>
    <path class="st9" d="M234.6,511.4v-1.8l2.3-2.3c5.6-5.4,8.2-8.2,8.2-11.6,0-2.2-1.1-4.3-4.4-4.3s-3.7,1-4.7,1.9l-1-2.1c1.5-1.3,3.7-2.2,6.3-2.2,4.8,0,6.8,3.3,6.8,6.4s-3,7.4-7.6,11.9l-1.8,1.6h0c0,0,9.9,0,9.9,0v2.5h-14.1Z"/>
    <path class="st9" d="M265.2,491.8h-8.4l-.9,5.7c.5,0,1-.1,1.8-.1,1.7,0,3.4.4,4.8,1.2,1.7,1,3.2,2.9,3.2,5.7,0,4.3-3.4,7.5-8.2,7.5s-4.5-.7-5.5-1.4l.7-2.3c.9.5,2.7,1.2,4.7,1.2s5.2-1.8,5.2-4.8c0-2.9-1.9-4.9-6.4-4.9s-2.2.1-3.1.2l1.4-10.6h10.6v2.5Z"/>
  </g>
  <text/>
  <text class="st11" transform="translate(563.9 353.4)"><tspan x="0" y="0">NOTE: </tspan><tspan x="0" y="40.8">-B10k Linear 10mm dual gang</tspan></text>
  <text/>
  <g>
    <g>
      <ellipse class="st4" cx="2461" cy="233" rx="33.3" ry="36.1"/>
      <path class="st4" d="M2979.4,213c17,34.3-14.9,68.8-46.6,50.4-4.5-2.6-8.2-6.6-10.6-11.5-17-34.3,14.9-68.8,46.6-50.4,4.5,2.6,8.2,6.6,10.6,11.5Z"/>
      <text class="st17" transform="translate(2449.6 248.8) scale(.9 1)"><tspan x="0" y="0">1</tspan></text>
      <text class="st17" transform="translate(2939.6 248.9) scale(.9 1)"><tspan x="0" y="0">3</tspan></text>
      <path class="st4" d="M2494.3,234.7c6.7-8.5,19.9-18.1,27.7-16.3,12.9,2.9,14.7,30.2,24.1,30.5,10.1.3,15-30.9,24.9-30.5,9.7.4,12.8,30.4,22,30.5,9.3.1,13.5-30.6,22.8-30.5,9.2.1,12.4,30.1,22,30.5,9.9.4,15-30.9,24.9-30.5,9.7.4,12.8,30.3,22,30.5,9.4.2,13.4-30.4,23.2-30.5,9.8,0,13.8,30.5,23.8,30.5,9.9,0,13.9-30.5,23.9-30.5,10,0,14.2,30.6,24.1,30.5,9.7-.1,12.7-29.5,23.2-30.5,9.2-.9,12.7,30.4,21.7,30.5,8.9,0,11.7-29.2,22.1-30.5,9.2-1.1,12.8,30.3,22.7,30.5,9.7.2,13.1-28.6,26.2-30.5,7.5-1.1,15,7.2,21,16.4"/>
      <polygon class="st4" points="2689 290.4 2727.2 290.4 2708.1 254.6 2689 290.4"/>
      <polyline class="st0" points="2708.1 290.4 2708.1 353.2 2496.9 353.2"/>
      <ellipse class="st4" cx="2463.6" cy="353.2" rx="33.3" ry="36.1"/>
      <text class="st17" transform="translate(2452.7 365) scale(.9 1)"><tspan x="0" y="0">4</tspan></text>
    </g>
    <text class="st16" transform="translate(2607.3 195.6)"><tspan x="0" y="0">SERVO TRACK</tspan></text>
  </g>
  <text class="st16" transform="translate(88.3 104.7)"><tspan x="0" y="0">MOTOR</tspan></text>
  <g>
    <text class="st16" transform="translate(707.1 44.7)"><tspan x="0" y="0">PCB MOUNTING HOLE DETAIL</tspan></text>
    <line class="st3" x1="711.4" y1="47.8" x2="1160.1" y2="47.8"/>
    <line class="st3" x1="711.4" y1="54.6" x2="1160.1" y2="54.6"/>
  </g>
  <g>
    <text class="st12" transform="translate(2195.8 38.2) scale(.9 1)"><tspan x="0" y="0">CIRCUIT DIAGRAM</tspan></text>
    <line class="st3" x1="2200.8" y1="44.3" x2="2470.3" y2="44.3"/>
    <line class="st3" x1="2200.8" y1="51.3" x2="2470.3" y2="51.3"/>
    <line class="st3" x1="2258.7" y1="85.4" x2="2258.7" y2="85.4"/>
  </g>
  <g>
    <g>
      <path class="st4" d="M2254.1,196c16.7,26.7-14.6,53.6-45.5,39.3-4.4-2-8-5.2-10.4-8.9-16.7-26.7,14.6-53.6,45.5-39.3,4.4,2,8,5.2,10.4,8.9Z"/>
      <g>
        <ellipse class="st4" cx="1739.9" cy="174" rx="62.5" ry="60.5"/>
        <text class="st14" transform="translate(1706.8 196.2) scale(1 1)"><tspan x="0" y="0">M</tspan></text>
      </g>
      <text class="st15" transform="translate(2212.2 228) scale(1 1)"><tspan x="0" y="0">B</tspan></text>
      <path class="st4" d="M2254.1,121c16.7,26.7-14.6,53.6-45.5,39.3-4.4-2-8-5.2-10.4-8.9-16.7-26.7,14.6-53.6,45.5-39.3,4.4,2,8,5.2,10.4,8.9Z"/>
      <text class="st15" transform="translate(2209.8 153) scale(1 1)"><tspan x="0" y="0">A</tspan></text>
      <line class="st8" x1="1788.7" y1="136.2" x2="2193.6" y2="136.2"/>
      <line class="st8" x1="2193.6" y1="211.2" x2="1789.3" y2="211.2"/>
    </g>
    <text class="st16" transform="translate(1927.2 96)"><tspan x="0" y="0">MOTOR</tspan></text>
  </g>
  <path class="st0" d="M2599.5,360.3"/>
  <g>
    <g>
      <ellipse class="st4" cx="1736.1" cy="390.2" rx="33.3" ry="36.1"/>
      <path class="st4" d="M2254.4,370.2c17,34.3-14.9,68.8-46.6,50.4-4.5-2.6-8.2-6.6-10.6-11.5-17-34.3,14.9-68.8,46.6-50.4,4.5,2.6,8.2,6.6,10.6,11.5Z"/>
      <text class="st17" transform="translate(1724.7 406.1) scale(.9 1)"><tspan x="0" y="0">1</tspan></text>
      <text class="st17" transform="translate(2214.7 406.1) scale(.9 1)"><tspan x="0" y="0">3</tspan></text>
      <path class="st4" d="M1983.1,411.9"/>
      <line class="st6" x1="1769.4" y1="390.2" x2="2190.9" y2="390.2"/>
    </g>
    <g>
      <ellipse class="st4" cx="1736.1" cy="491.9" rx="33.3" ry="36.1"/>
      <path class="st4" d="M2254.4,471.9c17,34.3-14.9,68.8-46.6,50.4-4.5-2.6-8.2-6.6-10.6-11.5-17-34.3,14.9-68.8,46.6-50.4,4.5,2.6,8.2,6.6,10.6,11.5Z"/>
      <text class="st17" transform="translate(1724.7 507.8) scale(.9 1)"><tspan x="0" y="0">1</tspan></text>
      <text class="st17" transform="translate(2214.7 507.8) scale(.9 1)"><tspan x="0" y="0">3</tspan></text>
      <path class="st4" d="M1983.1,513.5"/>
      <line class="st6" x1="1769.4" y1="491.9" x2="2190.9" y2="491.9"/>
    </g>
    <text class="st16" transform="translate(1754.9 339.8)"><tspan x="0" y="0">MOVING DIRECTION OF MOTOR</tspan></text>
    <text class="st13" transform="translate(1953.7 383.7)"><tspan x="0" y="0">A=+</tspan></text>
    <text class="st13" transform="translate(1953.7 486.2)"><tspan x="0" y="0">B=+</tspan></text>
    <text class="st13" transform="translate(1659 401.3)"><tspan x="0" y="0">0%</tspan></text>
    <text class="st13" transform="translate(1661.8 502.9)"><tspan x="0" y="0">0%</tspan></text>
    <text class="st13" transform="translate(2260.3 399.9)"><tspan x="0" y="0">100%</tspan></text>
    <text class="st13" transform="translate(2260.3 504.5)"><tspan x="0" y="0">100%</tspan></text>
    <polygon class="st7" points="2155.5 373.1 2157.7 411.3 2192.4 390.1 2155.5 373.1"/>
    <polygon class="st7" points="1764.9 492.2 1811.1 476.8 1810.1 516.6 1764.9 492.2"/>
  </g>
  <text class="st11" transform="translate(1072.3 365.9)"><tspan x="0" y="0">TRACE ROUTING ON FADE_4 PCB </tspan><tspan x="0" y="40.8">-1= 3v3</tspan><tspan x="0" y="81.6">-2=N/C</tspan><tspan x="0" y="122.4">-3=GND</tspan><tspan x="0" y="163.2">-4=uC Pin (wiper)</tspan></text>
  <text/>
  <text class="st10" transform="translate(1201.3 463.6)"><tspan x="0" y="0">Lorem ipsum</tspan></text>
</svg>