<?xml version="1.0" encoding="UTF-8"?>
<svg id="Layer_1" data-name="Layer 1" xmlns="http://www.w3.org/2000/svg" viewBox="0 0 476.35 476.47">
  <path d="M475.39,407.68c-1.3-7.21-8.57-9.84-14.69-6.16-1.07.64-4.07,4.09-4.07,4.92v50.5h-38v-19c8.68.07,18.03,1.62,19.05-9.45.74-8.1,2.47-28.07-8.56-28.61-11.53-.57-11.08,10.71-10.49,19.06h-19v-19c15.92,1.64,20.96-2.89,18.99-19.01,8.99.82,21.47.16,18.58-12.06-2.13-9.02-11.57-6.78-18.57-6.93v-19c9.46,1.32,23.09-.98,18.07-13.57-.66-1.64-4.1-5.43-5.57-5.43h-31.5v-30.5c0-4.42-6.08-7.86-10.38-7.45-10.34.99-8.78,11.24-8.62,18.95h-19.18c.29,6.41.99,12.76,2.18,19h17v57h-57v-57h40c-1.2-6.24-1.89-12.59-2.18-19h-18.82c.35-6.97,1.05-18.62-8.51-19.06-11.53-.54-11.07,10.64-10.49,19.06h-19v-68.5c0-2.95-4.49-6.96-7.56-7.44-4.61-.73-22.79-.61-26.37,1.52-6.04,3.59-3.67,11.6-4.07,17.43-7.57-.45-19.32-.93-19.05,9.45.08,3.06,3.44,9.54,6.55,9.54h31.5v19c-6.97-.35-18.62-1.05-19.06,8.51-.54,11.53,10.64,11.07,19.06,10.49v57h-30.5c-3.32,0-7.4,5-7.56,8.51-.16,3.38,3.1,10.49,6.56,10.49h50.5v87.5c0,3.32,5,7.4,8.51,7.56,3.38.16,10.49-3.1,10.49-6.56v-69.5h19c-.9,4.53.12,19,6.5,19h31.5c-1.65,15.92,2.9,20.95,19,19v19h-19c.14-7.67,1.44-17.85-8.48-19.02-6.42-.76-25.2-1.53-28.39,4.65-1.71,3.32-1.63,19.42-1.13,23.87.51,4.49,2.21,7.82,6.71,9.29l115.83.25c5.61-.1,9.8-2.74,10.48-8.52,2.16-18.3-1.46-41.02-.26-59.79Z"/>
  <path d="M133.63.94H.63v133h68.79c1.98-6.25,1.47-12.7,1.17-19H19.63V19.94h95v95h-44.04c.29,6.3.8,12.75-1.17,19h64.21V.94Z"/>
  <path d="M342.63.94v133h82c-2.38-6.33-2.24-12.67-2.08-19h-60.92V19.94h95v95h-34.08c-.16,6.33-.29,12.67,2.08,19h51V.94h-133Z"/>
  <path d="M80.63,342.94v18-18H.63v133h133v-133h-53ZM114.63,456.94H19.63v-95h95v95Z"/>
  <path d="M19.63,190.94h38c-1.94-16.11,3.05-20.65,19.01-18.99.14-7.34-2.09-16.16,6.93-18.57l44.12.02c9.13,2.78,6.62,18.55-1.55,18.55h-30.5v69.5c0,.6-2.66,3.93-3.48,4.52-3.71,2.68-20.96,2.6-26.05,2-3.55-.42-8.48-3.96-8.48-7.52v-30.5h-19v38c8.42-.59,19.6-1.04,19.06,10.49-.45,9.56-12.09,8.87-19.06,8.51v31.5c0,.6-2.66,3.93-3.48,4.52-3.86,2.79-25.82,2.95-29.89.85-4.96-2.56-6.04-10.19-2.65-14.39,4-4.96,11.51-3.2,17.02-3.48v-19c-8.42.59-19.6,1.04-19.06-10.49.45-9.56,12.09-8.87,19.06-8.51v-38c-11.29.15-18,1.86-19.04-11.46-.72-9.19-.84-26,0-35.08.54-5.81,2.87-10.69,9.5-10.51,3.09.08,9.54,3.45,9.54,6.55v31.5Z"/>
  <path d="M474.05,252.02c-3.59-6.04-11.61-3.67-17.43-4.07,1.66-15.92-2.88-20.97-19-19,1.02-9.17-.28-22.27-12.83-18.34-8.29,2.6-5.91,11.61-6.16,18.33h-19c.35-6.97,1.05-18.62-8.51-19.06-11.53-.54-11.07,10.64-10.49,19.06h-38c.13-6.23,1.27-17.01-6.71-18.79-3.75-.84-21.51-.66-25.13.45-6.32,1.95-7.75,8.95-4.59,14.26,3.6,6.05,11.63,3.66,17.43,4.07-1.65,15.94,2.89,20.96,19,19,.03,5.77-1.37,15.59,5.25,18.25,3.94,1.58,24.94,1.39,28.66-.82,6.04-3.59,3.67-11.6,4.08-17.42h19c-.35,6.97-1.05,18.62,8.51,19.06,11.53.54,11.07-10.64,10.49-19.06h19v19c-6.97-.35-18.62-1.05-19.06,8.51-.54,11.53,10.64,11.07,19.06,10.49v30.5c0,3.32,5,7.4,8.51,7.56,3.38.16,10.49-3.1,10.49-6.56v-31.5c5.77-.04,15.58,1.36,18.24-5.26,1.58-3.94,1.39-24.94-.82-28.66Z"/>
  <path d="M450.13,152.94h-126.5v-30.5c0-4.42-6.08-7.86-10.38-7.45-10.34.99-8.78,11.24-8.62,18.95h-19c2.51-10.04-3.64-25.47-15.52-17.02-4.86,3.46-4.08,19.54-3.52,25.56,1.16,12.41,8.89,10.57,19.04,10.46-1.65,15.95,2.89,20.96,19,19-1.03,9.27.32,22.25,12.83,18.34,8.27-2.59,5.92-11.57,6.16-18.33h19c-.35,6.97-1.05,18.62,8.51,19.06,11.53.54,11.07-10.64,10.49-19.06h19c-1.64,15.92,2.89,20.96,19.01,18.99-.81,8.9-.2,21.48,12.06,18.58,2.25-.53,6.93-3.97,6.93-6.07v-31.5h30.5c3.32,0,7.4-5,7.56-8.51.16-3.38-3.1-10.49-6.56-10.49Z"/>
  <path d="M190.63,247.94h30.5c4.42,0,7.86,6.08,7.45,10.38-.99,10.34-11.24,8.78-18.95,8.62v31.5c0,3.1-6.46,6.47-9.54,6.55-10.39.28-9.9-11.52-9.45-19.05-4.53.91-19.01-.11-19.01-6.49v-50.5c-8.42.59-19.6,1.04-19.06-10.49.45-9.56,12.09-8.87,19.06-8.51v-50.5c0-3.46,7.11-6.72,10.49-6.56s8.51,4.24,8.51,7.56v87.5Z"/>
  <path d="M171.63,76.94h30.5c4.41,0,7.86,6.08,7.45,10.38-1,10.34-11.23,8.79-18.95,8.62,1.97,16.12-3.08,20.65-18.99,19.01v31.5c0,.84-3.01,4.28-4.07,4.92-6.6,3.97-13.94.57-14.83-7.02,2.39-36.95-3.49-78.56-.14-114.96,1.3-14.13,19.05-10.22,19.05-1.95v49.5Z"/>
  <path d="M133.63,285.94c-9.11,1.56-22.4-.88-18.56-13.05,2.49-7.88,22.1-6.82,28.97-5.86,10.59,1.49,8.61,10.76,8.59,18.91,15.92-1.66,20.97,2.88,19,19,5.92-.07,16.36-1.29,18.56,5.94.97,3.19.98,20.8.39,24.5-1.17,7.42-11.7,10.25-16.5,4.62-3.73-4.38-2.12-10.85-2.44-16.06h-50.5c-1.47,0-4.91-3.78-5.57-5.43-5.03-12.59,8.61-14.89,18.07-13.57v-19Z"/>
  <path d="M228.63,190.94v19h19c-1.87-9.38,1.57-23.18,13.74-18.24,6.99,2.84,6.06,22.13,5.28,28.76-.73,6.21-4.8,7.98-10.48,8.52-6.68.62-35.16.91-40.37-.7-3.73-1.15-5.74-4.03-6.19-7.81-1.53-12.91.81-29.33.47-42.57,1.55-3.55,4.36-5.32,8.14-5.86,4.66-.66,21.96-.78,25.37,1.45,4.43,2.89,5.4,9.84,2.06,13.98-4,4.96-11.51,3.2-17.02,3.48Z"/>
  <path d="M228.62,456.94c7.06.13,16.45-2.06,18.58,6.93,1.86,7.86-2.68,11.42-10.03,12.1-6.65.62-35.11.92-40.37-.7-3.11-.96-5.59-3.62-6.11-6.89-.58-3.7-.58-21.3.39-24.5,2.41-7.92,25.12-7.22,31.39-5.28,8.25,2.55,5.94,11.58,6.16,18.34Z"/>
  <path d="M76.63,304.94c7.06.14,16.45-2.06,18.57,6.93,1.86,7.86-2.68,11.42-10.03,12.1-9.24.86-27.84.86-37.09,0-5.63-.52-9.34-3.61-9.5-9.59-.27-10.39,11.51-9.9,19.05-9.46v-31.5c0-3.46,7.11-6.72,10.49-6.56s8.51,4.24,8.51,7.56v30.5Z"/>
  <path d="M255.36,1.18c8.46-1.52,52.04-1.55,60.71-.18,9.49,1.5,11.09,17.15-1.03,18.85-18.02,2.53-41.26-1.65-59.85.03-9.91-2.39-10.46-16.79.18-18.71Z"/>
  <path d="M228.63,342.94c.41-5.82-1.96-13.84,4.08-17.42,6.69-3.98,13.75-.65,14.83,7.01.66,4.7.77,21.96-1.45,25.37-2.1,3.22-5.36,3.75-8.92,4.08-8.97.84-27.11.84-36.08,0-5.78-.54-10.69-2.85-10.51-9.5.09-3.09,3.45-9.54,6.55-9.54h31.5Z"/>
  <path d="M266.63,76.94h31.5c3.1,0,6.46,6.45,6.55,9.54.18,6.64-4.73,8.96-10.51,9.5-9.23.86-27.84.86-37.09,0-5.03-.46-8.27-2.54-9.22-7.78-.76-4.22-.85-18.47-.18-22.71,1.31-8.29,13.94-10.57,17.71-2.83,2.11,4.33.96,9.62,1.23,14.27Z"/>
  <path d="M209.63,19.94v31.5c0,3.1-6.45,6.46-9.54,6.55-6.64.18-8.96-4.73-9.5-10.51-.86-9.23-.86-27.84,0-37.09.46-5.03,2.54-8.27,7.78-9.22,6.43-1.16,26.65-2.02,29.5,5.02,4.94,12.19-8.87,15.61-18.24,13.74Z"/>
  <path d="M274.36,39.18c5.48-.98,37.51-1.16,42.55-.03,8.65,1.94,9.92,17.04-1.88,18.7-6.11.86-36.31,1.09-41.7-.12-8.5-1.9-9.74-16.62,1.03-18.55Z"/>
  <path d="M236.38,381.16c7.56-1.25,10.64,3.37,11.29,10.24.66,7.03,1.09,33.86-.25,39.83-1.8,8.03-15.34,9.59-18.13.55-1.37-4.46-1.47-37.81-.61-43.28.62-3.91,3.93-6.72,7.69-7.34Z"/>
  <path d="M171.62,380.93c-.23,6.76,2.12,15.75-6.16,18.34-15.75,4.92-13.76-18.39-12.89-27.88.51-5.5,2.91-8.56,8.64-9.36,6.86-.96,26.48-2.02,28.97,5.86,3.85,12.17-9.45,14.61-18.56,13.04Z"/>
  <path d="M236.38,115.16c4.2-.69,8.07.52,10.02,4.51,1.84,3.78,1.84,21.91.8,26.34-2.14,9.05-14.92,8.88-17.81,1.67-1.2-3.01-1.34-22.48-.55-26.03s4.22-5.95,7.54-6.49Z"/>
  <path d="M198.38,115.16c4.2-.69,8.07.52,10.02,4.51,1.71,3.5,1.96,23.44.78,27.32-1.88,6.18-11.79,8.08-16.11,3.01-3.18-3.74-3.33-23.45-2.23-28.35.76-3.38,4.22-5.95,7.54-6.49Z"/>
  <path d="M122.36,229.18c4.52-.81,21.79-.84,25.53.99,7.78,3.8,5.42,16.41-2.83,17.71-3.88.61-22.1.53-25.18-.7-7.52-3.02-7.32-16.24,2.48-18Z"/>
  <path d="M464.38,343.16c4.2-.69,8.07.52,10.02,4.51,1.71,3.5,1.96,23.44.78,27.32-1.88,6.18-11.79,8.08-16.11,3.01-3.18-3.74-3.33-23.45-2.23-28.35.76-3.38,4.22-5.95,7.54-6.49Z"/>
  <path d="M198.38,381.16c4.2-.69,8.07.52,10.02,4.51,1.71,3.5,1.96,23.44.78,27.32-1.88,6.18-11.79,8.08-16.11,3.01-3.18-3.74-3.33-23.45-2.23-28.35.76-3.38,4.22-5.95,7.54-6.49Z"/>
  <path d="M274.38,438.16c4.2-.69,8.07.52,10.02,4.51,1.71,3.5,1.96,23.44.78,27.32-1.88,6.18-11.79,8.08-16.11,3.01-3.18-3.74-3.33-23.45-2.23-28.35.76-3.38,4.22-5.95,7.54-6.49Z"/>
  <path d="M140.34,172.15c13.44-3.03,16.45,15.19,6.34,18.34-14.11,4.39-17.7-15.78-6.34-18.34Z"/>
  <path d="M273.34,172.15c13.44-3.03,16.45,15.19,6.34,18.34-14.11,4.39-17.7-15.78-6.34-18.34Z"/>
  <path d="M463.34,172.15c13.44-3.03,16.45,15.19,6.34,18.34-14.11,4.39-17.7-15.78-6.34-18.34Z"/>
  <path d="M121.34,191.15c13.44-3.03,16.45,15.19,6.34,18.34-14.11,4.39-17.7-15.78-6.34-18.34Z"/>
  <path d="M368.34,191.15c13.44-3.03,16.45,15.19,6.34,18.34-14.11,4.39-17.7-15.78-6.34-18.34Z"/>
  <path d="M444.34,191.15c13.44-3.03,16.45,15.19,6.34,18.34-14.11,4.39-17.7-15.78-6.34-18.34Z"/>
  <path d="M216.34,96.15c13.44-3.03,16.45,15.19,6.34,18.34-14.11,4.39-17.7-15.78-6.34-18.34Z"/>
  <path d="M235.34,267.15c13.44-3.03,16.45,15.19,6.34,18.34-14.11,4.39-17.7-15.78-6.34-18.34Z"/>
  <path d="M102.34,286.15c13.44-3.03,16.45,15.19,6.34,18.34-14.11,4.39-17.7-15.78-6.34-18.34Z"/>
  <path d="M216.34,305.15c13.44-3.03,16.45,15.19,6.34,18.34-14.11,4.39-17.7-15.78-6.34-18.34Z"/>
  <path d="M216.34,58.15c13.44-3.03,16.45,15.19,6.34,18.34-14.11,4.39-17.7-15.78-6.34-18.34Z"/>
  <path d="M235.34,20.15c13.44-3.03,16.45,15.19,6.34,18.34-14.11,4.39-17.7-15.78-6.34-18.34Z"/>
  <path d="M159.34,457.15c13.44-3.03,16.45,15.19,6.34,18.34-14.11,4.39-17.7-15.78-6.34-18.34Z"/>
  <path d="M349.34,343.15c13.44-3.03,16.45,15.19,6.34,18.34-14.11,4.39-17.7-15.78-6.34-18.34Z"/>
  <rect x="38.63" y="38.94" width="57" height="57"/>
  <rect x="380.63" y="38.94" width="57" height="57"/>
  <rect x="38.63" y="380.94" width="57" height="57"/>
</svg>