  0
SECTION
  2
HEADER
  9
$ANGBASE
  50
0.0
  9
$ANGDIR
  70
1
  9
$MEASUREMENT
  70
1
  0
ENDSEC
  0
SECTION
  2
TABLES
  0
TABLE
  2
LTYPE
  70
4
  0
LTYPE
  5
40F
  2
CONTINUOUS
  70
0
  3
Solid line
  72
65
  73
0
  40
0.0
  0
LTYPE
  5
410
  2
DASHDOT
 70
0
  3
Dash Dot ____ _ ____ _
 72
65
 73
4
 40
2.0
 49
1.25
 49
-0.25
 49
0.25
 49
-0.25
  0
LTYPE
  5
411
  2
DASHED
 70
0
  3
Dashed __ __ __ __ __
 72
65
 73
2
 40
0.75
 49
0.5
 49
-0.25
  0
LTYPE
  5
43B
  2
DOTTED
 70
0
  3
Dotted .  .  .  .
 72
65
 73
2
 40
0.2
 49
0.0
 49
-0.2
  0
ENDTAB
  0
TABLE
  2
STYLE
  70
4
  0
STYLE
  2
KICAD
  70
0
  40
0
  41
1
  42
1
  50
0
  71
0
  3
isocp.shx
  0
STYLE
  2
KICADB
  70
0
  40
0
  41
1
  42
1
  50
0
  71
0
  3
isocp.shx
  0
STYLE
  2
KICADI
  70
0
  40
0
  41
1
  42
1
  50
15
  71
0
  3
isocp.shx
  0
STYLE
  2
KICADBI
  70
0
  40
0
  41
1
  42
1
  50
15
  71
0
  3
isocp.shx
  0
ENDTAB
  0
TABLE
  2
LAYER
  70
1
  0
LAYER
  2
BLACK
  70
0
  62
7
  6
CONTINUOUS
  0
ENDTAB
  0
ENDSEC
  0
SECTION
  2
ENTITIES
0
LINE
8
BLACK
6
CONTINUOUS
10
373.5299999999999727
20
-106.0330000000000013
11
373.8286089999999717
21
-106.0497699999999952
0
LINE
8
BLACK
6
CONTINUOUS
10
373.8286089999999717
20
-106.0497699999999952
11
374.1234629999999584
21
-106.099866999999989
0
LINE
8
BLACK
6
CONTINUOUS
10
374.1234629999999584
20
-106.099866999999989
11
374.4108539999999721
21
-106.1826629999999909
0
LINE
8
BLACK
6
CONTINUOUS
10
374.4108539999999721
20
-106.1826629999999909
11
374.6871679999999856
21
-106.2971159999999884
0
LINE
8
BLACK
6
CONTINUOUS
10
374.6871679999999856
20
-106.2971159999999884
11
374.9489299999999616
21
-106.4417869999999908
0
LINE
8
BLACK
6
CONTINUOUS
10
374.9489299999999616
20
-106.4417869999999908
11
375.192846999999972
21
-106.6148549999999915
0
LINE
8
BLACK
6
CONTINUOUS
10
375.192846999999972
20
-106.6148549999999915
11
375.4158539999999675
21
-106.8141459999999938
0
LINE
8
BLACK
6
CONTINUOUS
10
375.4158539999999675
20
-106.8141459999999938
11
375.6151449999999841
21
-107.0371529999999893
0
LINE
8
BLACK
6
CONTINUOUS
10
375.6151449999999841
20
-107.0371529999999893
11
375.7882129999999847
21
-107.2810699999999997
0
LINE
8
BLACK
6
CONTINUOUS
10
375.7882129999999847
20
-107.2810699999999997
11
375.9328840000000014
21
-107.54283199999999
0
LINE
8
BLACK
6
CONTINUOUS
10
375.9328840000000014
20
-107.54283199999999
11
376.0473369999999704
21
-107.8191459999999893
0
LINE
8
BLACK
6
CONTINUOUS
10
376.0473369999999704
20
-107.8191459999999893
11
376.1301330000000007
21
-108.1065369999999888
0
LINE
8
BLACK
6
CONTINUOUS
10
376.1301330000000007
20
-108.1065369999999888
11
376.1802299999999946
21
-108.4013909999999896
0
LINE
8
BLACK
6
CONTINUOUS
10
376.1802299999999946
20
-108.4013909999999896
11
376.1970000000000027
21
-108.6999999999999886
0
LINE
8
BLACK
6
CONTINUOUS
10
376.1970000000000027
20
-108.6999999999999886
11
376.1970000000000027
21
-236.3349999999999795
0
LINE
8
BLACK
6
CONTINUOUS
10
376.1970000000000027
20
-236.3349999999999795
11
376.1802299999999946
21
-236.6336089999999786
0
LINE
8
BLACK
6
CONTINUOUS
10
376.1802299999999946
20
-236.6336089999999786
11
376.1301330000000007
21
-236.9284629999999936
0
LINE
8
BLACK
6
CONTINUOUS
10
376.1301330000000007
20
-236.9284629999999936
11
376.0473369999999704
21
-237.2158539999999789
0
LINE
8
BLACK
6
CONTINUOUS
10
376.0473369999999704
20
-237.2158539999999789
11
375.9328840000000014
21
-237.4921679999999924
0
LINE
8
BLACK
6
CONTINUOUS
10
375.9328840000000014
20
-237.4921679999999924
11
375.7882129999999847
21
-237.7539299999999969
0
LINE
8
BLACK
6
CONTINUOUS
10
375.7882129999999847
20
-237.7539299999999969
11
375.6151449999999841
21
-237.9978469999999788
0
LINE
8
BLACK
6
CONTINUOUS
10
375.6151449999999841
20
-237.9978469999999788
11
375.4158539999999675
21
-238.2208540000000028
0
LINE
8
BLACK
6
CONTINUOUS
10
375.4158539999999675
20
-238.2208540000000028
11
375.192846999999972
21
-238.4201449999999909
0
LINE
8
BLACK
6
CONTINUOUS
10
375.192846999999972
20
-238.4201449999999909
11
374.9489299999999616
21
-238.5932129999999916
0
LINE
8
BLACK
6
CONTINUOUS
10
374.9489299999999616
20
-238.5932129999999916
11
374.6871679999999856
21
-238.7378839999999798
0
LINE
8
BLACK
6
CONTINUOUS
10
374.6871679999999856
20
-238.7378839999999798
11
374.4108539999999721
21
-238.8523369999999773
0
LINE
8
BLACK
6
CONTINUOUS
10
374.4108539999999721
20
-238.8523369999999773
11
374.1234629999999584
21
-238.9351329999999791
0
LINE
8
BLACK
6
CONTINUOUS
10
374.1234629999999584
20
-238.9351329999999791
11
373.8286089999999717
21
-238.9852300000000014
0
LINE
8
BLACK
6
CONTINUOUS
10
373.8286089999999717
20
-238.9852300000000014
11
373.5299999999999727
21
-239.0019999999999811
0
LINE
8
BLACK
6
CONTINUOUS
10
373.5299999999999727
20
-239.0019999999999811
11
282.089999999999975
21
-239.0019999999999811
0
LINE
8
BLACK
6
CONTINUOUS
10
282.089999999999975
20
-239.0019999999999811
11
281.791390999999976
21
-238.9852300000000014
0
LINE
8
BLACK
6
CONTINUOUS
10
281.791390999999976
20
-238.9852300000000014
11
281.4965369999999893
21
-238.9351329999999791
0
LINE
8
BLACK
6
CONTINUOUS
10
281.4965369999999893
20
-238.9351329999999791
11
281.2091459999999756
21
-238.8523369999999773
0
LINE
8
BLACK
6
CONTINUOUS
10
281.2091459999999756
20
-238.8523369999999773
11
280.9328319999999621
21
-238.7378839999999798
0
LINE
8
BLACK
6
CONTINUOUS
10
280.9328319999999621
20
-238.7378839999999798
11
280.6710699999999861
21
-238.5932129999999916
0
LINE
8
BLACK
6
CONTINUOUS
10
280.6710699999999861
20
-238.5932129999999916
11
280.4271529999999757
21
-238.4201449999999909
0
LINE
8
BLACK
6
CONTINUOUS
10
280.4271529999999757
20
-238.4201449999999909
11
280.2041459999999802
21
-238.2208540000000028
0
LINE
8
BLACK
6
CONTINUOUS
10
280.2041459999999802
20
-238.2208540000000028
11
280.0048549999999636
21
-237.9978469999999788
0
LINE
8
BLACK
6
CONTINUOUS
10
280.0048549999999636
20
-237.9978469999999788
11
279.831786999999963
21
-237.7539299999999969
0
LINE
8
BLACK
6
CONTINUOUS
10
279.831786999999963
20
-237.7539299999999969
11
279.6871160000000032
21
-237.4921679999999924
0
LINE
8
BLACK
6
CONTINUOUS
10
279.6871160000000032
20
-237.4921679999999924
11
279.5726629999999773
21
-237.2158539999999789
0
LINE
8
BLACK
6
CONTINUOUS
10
279.5726629999999773
20
-237.2158539999999789
11
279.4898670000000038
21
-236.9284629999999936
0
LINE
8
BLACK
6
CONTINUOUS
10
279.4898670000000038
20
-236.9284629999999936
11
279.43977000000001
21
-236.6336089999999786
0
LINE
8
BLACK
6
CONTINUOUS
10
279.43977000000001
20
-236.6336089999999786
11
279.4230000000000018
21
-236.3349999999999795
0
LINE
8
BLACK
6
CONTINUOUS
10
279.4230000000000018
20
-236.3349999999999795
11
279.4230000000000018
21
-108.6999999999999886
0
LINE
8
BLACK
6
CONTINUOUS
10
279.4230000000000018
20
-108.6999999999999886
11
279.43977000000001
21
-108.4013909999999896
0
LINE
8
BLACK
6
CONTINUOUS
10
279.43977000000001
20
-108.4013909999999896
11
279.4898670000000038
21
-108.1065369999999888
0
LINE
8
BLACK
6
CONTINUOUS
10
279.4898670000000038
20
-108.1065369999999888
11
279.5726629999999773
21
-107.8191459999999893
0
LINE
8
BLACK
6
CONTINUOUS
10
279.5726629999999773
20
-107.8191459999999893
11
279.6871160000000032
21
-107.54283199999999
0
LINE
8
BLACK
6
CONTINUOUS
10
279.6871160000000032
20
-107.54283199999999
11
279.831786999999963
21
-107.2810699999999997
0
LINE
8
BLACK
6
CONTINUOUS
10
279.831786999999963
20
-107.2810699999999997
11
280.0048549999999636
21
-107.0371529999999893
0
LINE
8
BLACK
6
CONTINUOUS
10
280.0048549999999636
20
-107.0371529999999893
11
280.2041459999999802
21
-106.8141459999999938
0
LINE
8
BLACK
6
CONTINUOUS
10
280.2041459999999802
20
-106.8141459999999938
11
280.4271529999999757
21
-106.6148549999999915
0
LINE
8
BLACK
6
CONTINUOUS
10
280.4271529999999757
20
-106.6148549999999915
11
280.6710699999999861
21
-106.4417869999999908
0
LINE
8
BLACK
6
CONTINUOUS
10
280.6710699999999861
20
-106.4417869999999908
11
280.9328319999999621
21
-106.2971159999999884
0
LINE
8
BLACK
6
CONTINUOUS
10
280.9328319999999621
20
-106.2971159999999884
11
281.2091459999999756
21
-106.1826629999999909
0
LINE
8
BLACK
6
CONTINUOUS
10
281.2091459999999756
20
-106.1826629999999909
11
281.4965369999999893
21
-106.099866999999989
0
LINE
8
BLACK
6
CONTINUOUS
10
281.4965369999999893
20
-106.099866999999989
11
281.791390999999976
21
-106.0497699999999952
0
LINE
8
BLACK
6
CONTINUOUS
10
281.791390999999976
20
-106.0497699999999952
11
282.089999999999975
21
-106.0330000000000013
0
LINE
8
BLACK
6
CONTINUOUS
10
282.089999999999975
20
-106.0330000000000013
11
373.5299999999999727
21
-106.0330000000000013
0
LINE
8
BLACK
6
CONTINUOUS
10
282.089999999999975
20
-106.2869999999999919
11
281.9440399999999727
21
-106.2869999999999919
0
LINE
8
BLACK
6
CONTINUOUS
10
281.9440399999999727
20
-106.2869999999999919
11
281.6542499999999905
21
-106.3221869999999996
0
LINE
8
BLACK
6
CONTINUOUS
10
281.6542499999999905
20
-106.3221869999999996
11
281.3708129999999983
21
-106.3920479999999884
0
LINE
8
BLACK
6
CONTINUOUS
10
281.3708129999999983
20
-106.3920479999999884
11
281.0978640000000155
21
-106.4955640000000017
0
LINE
8
BLACK
6
CONTINUOUS
10
281.0978640000000155
20
-106.4955640000000017
11
280.8393820000000005
21
-106.6312259999999981
0
LINE
8
BLACK
6
CONTINUOUS
10
280.8393820000000005
20
-106.6312259999999981
11
280.5991379999999822
21
-106.7970550000000003
0
LINE
8
BLACK
6
CONTINUOUS
10
280.5991379999999822
20
-106.7970550000000003
11
280.3806329999999889
21
-106.9906329999999883
0
LINE
8
BLACK
6
CONTINUOUS
10
280.3806329999999889
20
-106.9906329999999883
11
280.1870549999999866
21
-107.2091379999999958
0
LINE
8
BLACK
6
CONTINUOUS
10
280.1870549999999866
20
-107.2091379999999958
11
280.0212260000000128
21
-107.4493819999999999
0
LINE
8
BLACK
6
CONTINUOUS
10
280.0212260000000128
20
-107.4493819999999999
11
279.885563999999988
21
-107.7078640000000007
0
LINE
8
BLACK
6
CONTINUOUS
10
279.885563999999988
20
-107.7078640000000007
11
279.7820479999999748
21
-107.9808129999999977
0
LINE
8
BLACK
6
CONTINUOUS
10
279.7820479999999748
20
-107.9808129999999977
11
279.7121869999999717
21
-108.2642499999999899
0
LINE
8
BLACK
6
CONTINUOUS
10
279.7121869999999717
20
-108.2642499999999899
11
279.6769999999999641
21
-108.5540400000000005
0
LINE
8
BLACK
6
CONTINUOUS
10
279.6769999999999641
20
-108.5540400000000005
11
279.6769999999999641
21
-108.6999999999999886
0
LINE
8
BLACK
6
CONTINUOUS
10
279.6769999999999641
20
-108.6999999999999886
11
279.6769999999999641
21
-236.3349999999999795
0
LINE
8
BLACK
6
CONTINUOUS
10
279.6769999999999641
20
-236.3349999999999795
11
279.6769999999999641
21
-236.4809599999999818
0
LINE
8
BLACK
6
CONTINUOUS
10
279.6769999999999641
20
-236.4809599999999818
11
279.7121869999999717
21
-236.7707499999999925
0
LINE
8
BLACK
6
CONTINUOUS
10
279.7121869999999717
20
-236.7707499999999925
11
279.7820479999999748
21
-237.0541869999999847
0
LINE
8
BLACK
6
CONTINUOUS
10
279.7820479999999748
20
-237.0541869999999847
11
279.885563999999988
21
-237.3271359999999959
0
LINE
8
BLACK
6
CONTINUOUS
10
279.885563999999988
20
-237.3271359999999959
11
280.0212260000000128
21
-237.5856179999999824
0
LINE
8
BLACK
6
CONTINUOUS
10
280.0212260000000128
20
-237.5856179999999824
11
280.1870549999999866
21
-237.8258620000000008
0
LINE
8
BLACK
6
CONTINUOUS
10
280.1870549999999866
20
-237.8258620000000008
11
280.3806329999999889
21
-238.0443669999999941
0
LINE
8
BLACK
6
CONTINUOUS
10
280.3806329999999889
20
-238.0443669999999941
11
280.5991379999999822
21
-238.2379449999999963
0
LINE
8
BLACK
6
CONTINUOUS
10
280.5991379999999822
20
-238.2379449999999963
11
280.8393820000000005
21
-238.4037739999999985
0
LINE
8
BLACK
6
CONTINUOUS
10
280.8393820000000005
20
-238.4037739999999985
11
281.0978640000000155
21
-238.5394359999999949
0
LINE
8
BLACK
6
CONTINUOUS
10
281.0978640000000155
20
-238.5394359999999949
11
281.3708129999999983
21
-238.6429519999999798
0
LINE
8
BLACK
6
CONTINUOUS
10
281.3708129999999983
20
-238.6429519999999798
11
281.6542499999999905
21
-238.7128129999999828
0
LINE
8
BLACK
6
CONTINUOUS
10
281.6542499999999905
20
-238.7128129999999828
11
281.9440399999999727
21
-238.7479999999999905
0
LINE
8
BLACK
6
CONTINUOUS
10
281.9440399999999727
20
-238.7479999999999905
11
282.089999999999975
21
-238.7479999999999905
0
LINE
8
BLACK
6
CONTINUOUS
10
282.089999999999975
20
-238.7479999999999905
11
373.5299999999999727
21
-238.7479999999999905
0
LINE
8
BLACK
6
CONTINUOUS
10
373.5299999999999727
20
-238.7479999999999905
11
373.675959999999975
21
-238.7479999999999905
0
LINE
8
BLACK
6
CONTINUOUS
10
373.675959999999975
20
-238.7479999999999905
11
373.9657499999999573
21
-238.7128129999999828
0
LINE
8
BLACK
6
CONTINUOUS
10
373.9657499999999573
20
-238.7128129999999828
11
374.2491870000000063
21
-238.6429519999999798
0
LINE
8
BLACK
6
CONTINUOUS
10
374.2491870000000063
20
-238.6429519999999798
11
374.5221359999999891
21
-238.5394359999999949
0
LINE
8
BLACK
6
CONTINUOUS
10
374.5221359999999891
20
-238.5394359999999949
11
374.780618000000004
21
-238.4037739999999985
0
LINE
8
BLACK
6
CONTINUOUS
10
374.780618000000004
20
-238.4037739999999985
11
375.0208619999999655
21
-238.2379449999999963
0
LINE
8
BLACK
6
CONTINUOUS
10
375.0208619999999655
20
-238.2379449999999963
11
375.2393669999999588
21
-238.0443669999999941
0
LINE
8
BLACK
6
CONTINUOUS
10
375.2393669999999588
20
-238.0443669999999941
11
375.4329449999999611
21
-237.8258620000000008
0
LINE
8
BLACK
6
CONTINUOUS
10
375.4329449999999611
20
-237.8258620000000008
11
375.5987739999999917
21
-237.5856179999999824
0
LINE
8
BLACK
6
CONTINUOUS
10
375.5987739999999917
20
-237.5856179999999824
11
375.7344359999999597
21
-237.3271359999999959
0
LINE
8
BLACK
6
CONTINUOUS
10
375.7344359999999597
20
-237.3271359999999959
11
375.8379519999999729
21
-237.0541869999999847
0
LINE
8
BLACK
6
CONTINUOUS
10
375.8379519999999729
20
-237.0541869999999847
11
375.907812999999976
21
-236.7707499999999925
0
LINE
8
BLACK
6
CONTINUOUS
10
375.907812999999976
20
-236.7707499999999925
11
375.9429999999999836
21
-236.4809599999999818
0
LINE
8
BLACK
6
CONTINUOUS
10
375.9429999999999836
20
-236.4809599999999818
11
375.9429999999999836
21
-236.3349999999999795
0
LINE
8
BLACK
6
CONTINUOUS
10
375.9429999999999836
20
-236.3349999999999795
11
375.9429999999999836
21
-108.6999999999999886
0
LINE
8
BLACK
6
CONTINUOUS
10
375.9429999999999836
20
-108.6999999999999886
11
375.9429999999999836
21
-108.5540400000000005
0
LINE
8
BLACK
6
CONTINUOUS
10
375.9429999999999836
20
-108.5540400000000005
11
375.907812999999976
21
-108.2642499999999899
0
LINE
8
BLACK
6
CONTINUOUS
10
375.907812999999976
20
-108.2642499999999899
11
375.8379519999999729
21
-107.9808129999999977
0
LINE
8
BLACK
6
CONTINUOUS
10
375.8379519999999729
20
-107.9808129999999977
11
375.7344359999999597
21
-107.7078640000000007
0
LINE
8
BLACK
6
CONTINUOUS
10
375.7344359999999597
20
-107.7078640000000007
11
375.5987739999999917
21
-107.4493819999999999
0
LINE
8
BLACK
6
CONTINUOUS
10
375.5987739999999917
20
-107.4493819999999999
11
375.4329449999999611
21
-107.2091379999999958
0
LINE
8
BLACK
6
CONTINUOUS
10
375.4329449999999611
20
-107.2091379999999958
11
375.2393669999999588
21
-106.9906329999999883
0
LINE
8
BLACK
6
CONTINUOUS
10
375.2393669999999588
20
-106.9906329999999883
11
375.0208619999999655
21
-106.7970550000000003
0
LINE
8
BLACK
6
CONTINUOUS
10
375.0208619999999655
20
-106.7970550000000003
11
374.780618000000004
21
-106.6312259999999981
0
LINE
8
BLACK
6
CONTINUOUS
10
374.780618000000004
20
-106.6312259999999981
11
374.5221359999999891
21
-106.4955640000000017
0
LINE
8
BLACK
6
CONTINUOUS
10
374.5221359999999891
20
-106.4955640000000017
11
374.2491870000000063
21
-106.3920479999999884
0
LINE
8
BLACK
6
CONTINUOUS
10
374.2491870000000063
20
-106.3920479999999884
11
373.9657499999999573
21
-106.3221869999999996
0
LINE
8
BLACK
6
CONTINUOUS
10
373.9657499999999573
20
-106.3221869999999996
11
373.675959999999975
21
-106.2869999999999919
0
LINE
8
BLACK
6
CONTINUOUS
10
373.675959999999975
20
-106.2869999999999919
11
373.5299999999999727
21
-106.2869999999999919
0
LINE
8
BLACK
6
CONTINUOUS
10
373.5299999999999727
20
-106.2869999999999919
11
282.089999999999975
21
-106.2869999999999919
  0
ENDSEC
  0
EOF
